<?xml version="1.0" encoding="UTF-8" standalone="no"?>
<svg
   data-name="Layer 1"
   width="649.05263"
   height="653.8814"
   viewBox="0 0 649.05263 653.8814"
   version="1.1"
   id="svg222"
   sodipodi:docname="treina_undraw_profile_element_base.svg"
   xml:space="preserve"
   inkscape:version="1.2 (dc2aeda, 2022-05-15)"
   inkscape:export-filename="treina_undraw_profile_element_targetfull.png"
   inkscape:export-xdpi="96"
   inkscape:export-ydpi="96"
   xmlns:inkscape="http://www.inkscape.org/namespaces/inkscape"
   xmlns:sodipodi="http://sodipodi.sourceforge.net/DTD/sodipodi-0.dtd"
   xmlns="http://www.w3.org/2000/svg"
   xmlns:svg="http://www.w3.org/2000/svg"><defs
     id="defs226" /><sodipodi:namedview
     id="namedview224"
     pagecolor="#ffffff"
     bordercolor="#000000"
     borderopacity="0.25"
     inkscape:showpageshadow="2"
     inkscape:pageopacity="0.0"
     inkscape:pagecheckerboard="0"
     inkscape:deskcolor="#d1d1d1"
     showgrid="false"
     inkscape:zoom="0.43746437"
     inkscape:cx="523.4712"
     inkscape:cy="448.03649"
     inkscape:window-width="1440"
     inkscape:window-height="784"
     inkscape:window-x="0"
     inkscape:window-y="25"
     inkscape:window-maximized="0"
     inkscape:current-layer="svg222" /><rect
     style="fill:#d32f2f;stroke-width:3.78;stroke-opacity:0.940171;paint-order:fill markers stroke;fill-opacity:0.80000001"
     id="rect602"
     width="490.41107"
     height="490.41104"
     x="72.037773"
     y="83.120514"
     ry="41.17012" /><rect
     style="fill:#d32f2f;fill-opacity:0.80000001;stroke-width:3.78;stroke-opacity:0.940171;paint-order:fill markers stroke"
     id="rect602-4"
     width="490.41107"
     height="490.41104"
     x="152.04146"
     y="-16.06489"
     ry="41.17012"
     transform="rotate(16.491526)"
     inkscape:transform-center-x="-74.808468"
     inkscape:transform-center-y="-36.018892" /><g
     id="g569"
     transform="matrix(0.5334905,0,0,0.5334905,93.749497,150.82284)"><path
       d="m 323.85617,674.9065 c 49.33789,-25.57617 151.32971,-68.48291 280.06924,-68.48291 128.73953,0 230.7312,42.90674 280.06909,68.48291 48.03223,24.89966 86.66126,54.25775 104.85785,78.2113 6.633,-9.02789 -3.10223,-169.64245 -30.04388,-233.33972 A 516.23463,516.23463 0 0 0 482.7452,204.22292 273.27037,273.27037 0 0 0 288.23983,284.7898 q -1.62354,1.62355 -3.21667,3.26932 c -57.01738,58.89944 -83.64048,140.84439 -73.92029,222.24249 6.92036,57.952 23.97575,179.16519 48.07419,204.86612 a 458.81386,458.81386 0 0 1 64.67911,-40.26123 z"
       transform="translate(-209.13862,-130.82693)"
       fill="#f2f2f2"
       id="path458" /><circle
       cx="484.29089"
       cy="75.159889"
       r="73.736053"
       fill="#000000"
       id="circle460" /><ellipse
       cx="400.52002"
       cy="498.24603"
       rx="81.968964"
       ry="17.1001"
       fill="#f2f2f2"
       id="ellipse462" /><path
       d="m 692.92877,242.72292 c -75.14014,-0.007 -133.99878,-13.62878 -133.9972,-31.01208 9.2e-4,-10.42188 20.85773,-19.71883 57.22229,-25.50608 a 1.0000042,1.0000042 0 1 1 0.33069,1.97248 l -0.004,6.2e-4 -0.0126,0.002 c -34.25537,5.452 -55.5357,14.46863 -55.53656,23.53113 -10e-4,15.71973 60.44587,29.00545 131.99738,29.0119 71.55151,0.006 132.00122,-13.26837 132.00262,-28.9881 8e-4,-9.10058 -21.41388,-18.143 -55.88751,-23.59781 a 1.00008,1.00008 0 1 1 0.30249,-1.97715 l 0.003,5e-4 0.007,0.001 c 36.59051,5.78992 57.5758,15.11114 57.57483,25.57355 -0.002,17.38328 -58.86272,30.99467 -134.00285,30.98794 z"
       transform="translate(-209.13862,-130.82693)"
       fill="#3f3d56"
       id="path464" /><path
       d="m 698.2843,230.81126 c -64.74915,38.12594 -122.37849,56.25763 -131.19872,41.27822 -5.28806,-8.98064 7.96558,-27.57583 36.36281,-51.01663 a 1.0000002,1.0000002 0 1 1 1.28592,1.5318 l -0.003,0.002 -0.01,0.008 c -26.75,22.08157 -40.51077,40.65014 -35.91251,48.45942 7.97616,13.54587 66.80371,-5.68177 128.4605,-41.98685 61.65679,-36.30508 107.00762,-78.42029 99.03146,-91.96615 -4.61764,-7.84207 -27.65875,-4.7662 -60.13169,8.0281 a 1.0000827,1.0000827 0 1 1 -0.74271,-1.85716 l 0.003,-0.001 0.007,-0.003 c 34.46706,-13.57981 57.27967,-16.19754 62.58824,-7.18195 8.82021,14.97943 -34.99095,56.57846 -99.74009,94.70443 z"
       transform="translate(-209.13862,-130.82693)"
       fill="#3f3d56"
       id="path466" /><ellipse
       cx="402.8399"
       cy="498.09949"
       rx="55.60471"
       ry="9.2179003"
       fill="#e6e6e6"
       id="ellipse468" /><ellipse
       cx="217.51991"
       cy="585.2489"
       rx="93.551628"
       ry="19.516479"
       fill="#f2f2f2"
       id="ellipse470" /><ellipse
       cx="598.52002"
       cy="609.24603"
       rx="139.49066"
       ry="29.1001"
       fill="#f2f2f2"
       id="ellipse472" /><ellipse
       cx="217.23514"
       cy="584.62158"
       rx="71.710892"
       ry="11.88794"
       fill="#e6e6e6"
       id="ellipse474" /><ellipse
       cx="598.55078"
       cy="607.3974"
       rx="122.60254"
       ry="20.324459"
       fill="#e6e6e6"
       id="ellipse476" /><circle
       cx="57.786789"
       cy="316.89594"
       r="7"
       fill="#ffffff"
       id="circle478" /><circle
       cx="547.7868"
       cy="418.89594"
       r="7"
       fill="#ffffff"
       id="circle480" /><path
       d="m 517.85816,325.80308 c 16.99466,4.84979 16.3416,15 36.5,15 20.1584,0 36.5,2.67312 36.5,-15 0,-17.67312 -8.0234,-50.52667 -36.5,-49 -30.64916,1.64316 -46.80368,46.05963 -36.5,49 z"
       transform="translate(-209.13862,-130.82693)"
       fill="#2f2e41"
       id="path482" /><path
       d="m 473.13265,475.45634 a 10.74266,10.74266 0 0 1 6.25284,-15.23975 l 41.81616,-88.459 19.12793,13.413 -47.11858,82.73466 a 10.80091,10.80091 0 0 1 -20.07831,7.551 z"
       transform="translate(-209.13862,-130.82693)"
       fill="#ffb8b8"
       id="path484" /><path
       d="m 508.96459,383.50187 a 4.81162,4.81162 0 0 1 0.5521,-3.97272 l 13.00143,-20.38208 A 13.37737,13.37737 0 0 1 546.974,369.997 l -6.54913,23.35315 a 4.81691,4.81691 0 0 1 -6.60406,3.09632 l -22.20856,-9.93085 a 4.81153,4.81153 0 0 1 -2.64766,-3.01375 z"
       transform="translate(-209.13862,-130.82693)"
       fill="#000000"
       id="path486" /><polygon
       points="382.656,477.332 399.658,471.141 415.837,515.575 404.317,519.77 "
       fill="#ffb8b8"
       id="polygon488" /><path
       d="m 604.02825,650.30109 22.217,-8.08923 v 0 l 5.0932,13.98846 v 0 L 595.133,669.38276 v 0 a 14.88691,14.88691 0 0 1 8.89525,-19.08167 z"
       transform="translate(-209.13862,-130.82693)"
       fill="#2f2e41"
       id="path490" /><path
       d="m 593.52642,619.55823 -43.88708,-76.802 a 4.822,4.822 0 0 1 0.052,-4.868 l 19.76239,-32.9371 a 4.81654,4.81654 0 0 1 8.66077,0.84149 l 37.36377,103.46817 a 4.79865,4.79865 0 0 1 -2.46851,5.98968 l -13.23926,6.27088 a 4.77329,4.77329 0 0 1 -2.04388,0.45892 4.84019,4.84019 0 0 1 -4.2002,-2.42204 z"
       transform="translate(-209.13862,-130.82693)"
       fill="#2f2e41"
       id="path492" /><circle
       cx="343.66187"
       cy="184.45575"
       r="24.561041"
       fill="#ffb8b8"
       id="circle494" /><path
       d="m 517.86535,426.53412 c -19.34213,-42.88855 0.15735,-66.85885 9.43872,-75.17337 a 14.55692,14.55692 0 0 1 9.7301,-3.72134 h 34.59943 a 14.576,14.576 0 0 1 13.03754,21.09459 l -23.12958,46.25867 -43.488,11.95954 z"
       transform="translate(-209.13862,-130.82693)"
       fill="#000000"
       id="path496" /><polygon
       points="318.606,479.883 336.7,479.884 336.698,527.172 324.438,527.171 "
       fill="#ffb8b8"
       id="polygon498" /><path
       d="m 524.81964,654.49506 h 23.64386 v 14.88684 h -38.53071 a 14.88681,14.88681 0 0 1 14.88685,-14.88684 z"
       transform="translate(-209.13862,-130.82693)"
       fill="#2f2e41"
       id="path500" /><path
       d="m 540.6419,639.94623 -19.62854,-2.26416 a 4.81791,4.81791 0 0 1 -4.23291,-5.339 c 0.003,-0.027 0.006,-0.054 0.0101,-0.0809 l 17.51831,-131.8999 a 3.74963,3.74963 0 0 0 -0.0729,-1.37668 l -17.60767,-72.64475 a 4.761,4.761 0 0 1 0.75366,-3.92623 c 2.73041,-3.76423 12.08576,-12.53656 39.91437,-12.70276 h 0.03 a 4.83439,4.83439 0 0 1 4.39715,2.82654 l 3.71222,8.16607 a 3.76283,3.76283 0 0 0 1.25281,1.51258 c 5.10956,3.61682 29.862,23.918 15.32782,68.48852 -14.28485,43.80734 -32.58716,128.85483 -36.11121,145.45877 a 4.79128,4.79128 0 0 1 -4.69769,3.81439 4.91793,4.91793 0 0 1 -0.56546,-0.0325 z"
       transform="translate(-209.13862,-130.82693)"
       fill="#2f2e41"
       id="path502" /><path
       d="m 638.28021,321.4473 a 10.52789,10.52789 0 0 0 0.27258,1.635 l -33.34717,36.7077 -11.77762,-2.53825 -6.15387,17.27377 20.41321,6.5198 a 8,8 0 0 0 9.069,-3.15139 l 31.52106,-46.79547 a 10.49714,10.49714 0 1 0 -9.99732,-9.65113 z"
       transform="translate(-209.13862,-130.82693)"
       fill="#ffb8b8"
       id="path504" /><path
       d="m 604.1961,361.34592 -7.7311,21.37219 a 4.5,4.5 0 0 1 -6.36572,2.431 L 570.15142,374.402 a 12.49741,12.49741 0 0 1 8.57117,-23.47918 l 22.13623,4.48211 a 4.4999,4.4999 0 0 1 3.33728,5.94095 z"
       transform="translate(-209.13862,-130.82693)"
       fill="#000000"
       id="path506" /><path
       d="m 582.85815,313.80308 h -9.71436 l -4.28564,-12 -0.85693,12 h -4.64307 l -2.5,-7 -0.5,7 c -12.15015,5.12668 -23.66809,5.26828 -34.5,0 a 26,26 0 0 1 26,-26 h 5 a 26,26 0 0 1 26,26 z"
       transform="translate(-209.13862,-130.82693)"
       fill="#2f2e41"
       id="path508" /><path
       d="m 323.42538,570.72291 h -3.5 v -3.5 a 4.5,4.5 0 0 0 -9,0 v 3.5 h -3.5 a 4.5,4.5 0 0 0 0,9 h 3.5 v 3.5 a 4.5,4.5 0 0 0 9,0 v -3.5 h 3.5 a 4.5,4.5 0 0 0 0,-9 z"
       transform="translate(-209.13862,-130.82693)"
       fill="#ffffff"
       id="path510" /><path
       d="m 838.58538,484.88291 h -1.82 v -1.82 a 2.34,2.34 0 0 0 -4.68,0 v 1.82 h -1.82 a 2.34,2.34 0 0 0 0,4.68 h 1.82 v 1.82 a 2.34,2.34 0 0 0 4.68,0 v -1.82 h 1.82 a 2.3400036,2.3400036 0 0 0 0.008,-4.68 z"
       transform="translate(-209.13862,-130.82693)"
       fill="#ff6584"
       id="path512" /><path
       d="m 307.58538,363.88291 h -1.82 v -1.82 a 2.3400043,2.3400043 0 0 0 -4.68,-0.009 v 1.82871 h -1.82 a 2.3400036,2.3400036 0 0 0 -0.008,4.68 h 1.82821 v 1.82 a 2.3400043,2.3400043 0 0 0 4.68,0.009 v -1.82868 h 1.82 a 2.3400094,2.3400094 0 0 0 0.0133,-4.68 h -0.005 z"
       transform="translate(-209.13862,-130.82693)"
       fill="#000000"
       id="path514" /><path
       d="m 442.58538,363.88291 h -1.82 v -1.82 a 2.3400043,2.3400043 0 0 0 -4.68,-0.009 v 1.82871 h -1.82 a 2.3400036,2.3400036 0 0 0 -0.008,4.68 h 1.82821 v 1.82 a 2.3400043,2.3400043 0 0 0 4.68,0.009 v -1.82868 h 1.82 a 2.3400094,2.3400094 0 0 0 0.0133,-4.68 h -0.005 z"
       transform="translate(-209.13862,-130.82693)"
       fill="#ffffff"
       id="path516" /><path
       d="m 907.58538,603.88288 h -1.82 v -1.82 a 2.34,2.34 0 0 0 -4.68,0 v 1.82 h -1.82 a 2.34,2.34 0 0 0 0,4.68 h 1.82 v 1.82 a 2.34,2.34 0 0 0 4.68,0 v -1.82 h 1.82 a 2.34,2.34 0 0 0 0,-4.68 z"
       transform="translate(-209.13862,-130.82693)"
       fill="#ffffff"
       id="path518" /><path
       d="m 697.58538,408.88291 h -1.82 v -1.82 a 2.34,2.34 0 0 0 -4.68,0 v 1.82 h -1.82 a 2.34,2.34 0 0 0 0,4.68 h 1.82 v 1.82 a 2.34,2.34 0 0 0 4.68,0 v -1.82 h 1.82 a 2.3400036,2.3400036 0 1 0 0.008,-4.68 z"
       transform="translate(-209.13862,-130.82693)"
       fill="#ffffff"
       id="path520" /><path
       d="m 376.58538,458.88291 h -1.82 v -1.82 a 2.3400043,2.3400043 0 0 0 -4.68,-0.009 v 1.82871 h -1.82 a 2.3400036,2.3400036 0 1 0 -0.008,4.68 h 1.82821 v 1.82 a 2.3400043,2.3400043 0 0 0 4.68,0.009 v -1.82868 h 1.82 a 2.3400036,2.3400036 0 0 0 0.008,-4.68 z"
       transform="translate(-209.13862,-130.82693)"
       fill="#ffffff"
       id="path522" /><path
       d="m 382.58538,292.88291 h -1.82 v -1.82 a 2.3400043,2.3400043 0 0 0 -4.68,-0.009 v 1.82871 h -1.82 a 2.3400036,2.3400036 0 0 0 -0.008,4.68 h 1.82821 v 1.82 a 2.3400043,2.3400043 0 0 0 4.68,0.009 v -1.82868 h 1.82 a 2.3400036,2.3400036 0 0 0 0.008,-4.68 v 0 z"
       transform="translate(-209.13862,-130.82693)"
       fill="#ffffff"
       id="path524" /><path
       d="m 693.42663,228.32616 c -72.43628,-36.59033 -133.18048,-24.70074 -133.99719,-31.01208 9.1e-4,-10.42188 20.85772,-19.71884 57.22229,-25.50609 a 1,1 0 1 1 0.33069,1.97247 l -0.004,6.3e-4 -0.0126,0.002 c -34.25537,5.452 -55.53571,14.46862 -55.53656,23.53112 -10e-4,15.71973 60.44586,29.00545 131.99737,29.01191 71.55151,0.006 132.00119,-13.26838 132.00263,-28.98812 7.9e-4,-9.10059 -21.41388,-18.143 -55.88751,-23.59781 a 1.0000827,1.0000827 0 1 1 0.30249,-1.97716 l 0.003,5.1e-4 0.007,0.001 c 36.59051,5.78992 57.57581,15.11115 57.57483,25.57355 -0.002,17.38337 -66.93388,64.86709 -134.00285,30.98798 z"
       transform="translate(-209.13862,-130.82693)"
       fill="#3f3d56"
       id="path526" /></g></svg>
