<?xml version="1.0" encoding="UTF-8" standalone="no"?>
<svg
   data-name="Layer 1"
   width="649.05263"
   height="653.8814"
   viewBox="0 0 649.05263 653.8814"
   version="1.1"
   id="svg222"
   sodipodi:docname="treina_undraw_profile_element_base.svg"
   xml:space="preserve"
   inkscape:version="1.2 (dc2aeda, 2022-05-15)"
   inkscape:export-filename="treina_undraw_profile_element_code.png"
   inkscape:export-xdpi="96"
   inkscape:export-ydpi="96"
   xmlns:inkscape="http://www.inkscape.org/namespaces/inkscape"
   xmlns:sodipodi="http://sodipodi.sourceforge.net/DTD/sodipodi-0.dtd"
   xmlns="http://www.w3.org/2000/svg"
   xmlns:svg="http://www.w3.org/2000/svg"><defs
     id="defs226" /><sodipodi:namedview
     id="namedview224"
     pagecolor="#ffffff"
     bordercolor="#000000"
     borderopacity="0.25"
     inkscape:showpageshadow="2"
     inkscape:pageopacity="0.0"
     inkscape:pagecheckerboard="0"
     inkscape:deskcolor="#d1d1d1"
     showgrid="false"
     inkscape:zoom="0.43746437"
     inkscape:cx="523.4712"
     inkscape:cy="448.03649"
     inkscape:window-width="1440"
     inkscape:window-height="784"
     inkscape:window-x="0"
     inkscape:window-y="25"
     inkscape:window-maximized="0"
     inkscape:current-layer="svg222" /><rect
     style="fill:#d32f2f;stroke-width:3.78;stroke-opacity:0.940171;paint-order:fill markers stroke;fill-opacity:0.80000001"
     id="rect602"
     width="490.41107"
     height="490.41104"
     x="72.037773"
     y="83.120514"
     ry="41.17012" /><rect
     style="fill:#d32f2f;fill-opacity:0.80000001;stroke-width:3.78;stroke-opacity:0.940171;paint-order:fill markers stroke"
     id="rect602-4"
     width="490.41107"
     height="490.41104"
     x="152.04146"
     y="-16.06489"
     ry="41.17012"
     transform="rotate(16.491526)"
     inkscape:transform-center-x="-74.808468"
     inkscape:transform-center-y="-36.018892" /><g
     id="g363"
     transform="matrix(0.47439812,0,0,0.47439812,97.917779,210.17158)"><path
       d="m 153.99839,343.96646 a 12.41567,12.41567 0 0 1 -15.82023,-14.58779 c 7.2237,-30.05261 34.69161,-103.54642 134.7581,-134.45784 43.34522,-13.38973 84.91357,-13.6183 123.4999,-0.68442 31.74358,10.5963 52.81666,27.17817 62.8969,35.19276 a 12.31341,12.31341 0 0 1 2.01684,17.2966 q -0.0377,0.0476 -0.0758,0.0948 a 12.60339,12.60339 0 0 1 -17.56068,1.99337 c -18.26292,-14.38965 -73.68419,-58.10507 -163.507,-30.358 -87.7063,27.09323 -111.53083,90.46606 -117.71029,116.39386 a 12.231,12.231 0 0 1 -8.49772,9.11663 z"
       transform="translate(-137.87214,-184.7043)"
       fill="#000000"
       id="path302" /><path
       d="m 426.73845,514.18533 a 12.34637,12.34637 0 0 1 -3.06766,0.57666 c -78.17506,4.21048 -127.91326,-60.73529 -129.95531,-63.443 l -0.37854,-0.625 c -1.24641,-1.9334 -31.34184,-47.72251 -18.09281,-84.08779 6.08557,-16.62508 19.54445,-28.29437 40.11648,-34.64925 19.13286,-5.91031 34.789,-4.16228 48.11506,5.35352 10.92682,7.75306 17.92964,19.31492 24.71706,30.47965 14.11648,23.18223 22.76773,34.97678 49.59965,28.17194 11.7813,-2.99018 17.28227,-12.20122 19.79538,-19.37637 6.76634,-19.52475 0.76956,-46.14261 -15.09594,-66.28064 -20.49737,-26.12617 -77.85958,-69.52025 -148.63419,-47.65734 -30.22313,9.33619 -54.95754,27.73438 -71.52166,53.06787 -13.7221,21.0243 -21.69933,47.13651 -21.87422,71.48765 -0.27535,45.34076 36.88411,104.99127 37.23649,105.53159 a 12.29021,12.29021 0 0 1 -3.90573,16.9365 q -0.0569,0.0357 -0.11432,0.0706 a 12.58421,12.58421 0 0 1 -17.235,-3.857 c -1.67723,-2.72769 -41.35566,-66.32964 -41.036,-118.73213 0.445,-56.79989 34.96136,-124.58835 111.15411,-148.125 35.218,-10.87915 72.22851,-9.05063 107.05754,5.2294 26.99516,11.13575 51.979,29.56992 68.49689,50.61924 21.09753,26.86815 28.53047,62.03785 18.92612,89.48734 -6.40291,18.29963 -19.65878,30.92632 -37.27532,35.44085 -45.91379,11.67926 -63.90024,-17.72645 -77.01809,-39.17694 -13.47024,-21.99081 -20.92115,-32.30138 -44.20227,-25.10964 -12.78346,3.94893 -20.6589,10.27669 -23.97114,19.368 -4.50722,12.428 -0.2356,28.3576 4.14148,39.525 q 0.068,0.17513 0.13632,0.34941 a 100.94624,100.94624 0 0 0 25.61319,37.2525 c 18.01213,16.63359 51.45108,40.347 94.06986,38.06039 a 12.30862,12.30862 0 0 1 13.04809,11.52176 q 0.004,0.059 0.007,0.11808 a 12.57887,12.57887 0 0 1 -8.85231,12.472 z"
       transform="translate(-137.87214,-184.7043)"
       fill="#000000"
       id="path304" /><path
       d="m 331.94027,537.53418 a 12.61554,12.61554 0 0 1 -9.87051,-1.03136 c -38.55715,-21.8457 -65.6247,-51.22826 -85.116,-92.41043 l -0.0784,-0.254 c -12.28417,-27.45774 -19.679,-69.409 -3.36722,-104.86565 12.04219,-26.16234 34.6464,-44.55164 67.07064,-54.56777 38.35034,-11.84676 74.05914,-3.12453 103.36639,25.10254 a 153.17045,153.17045 0 0 1 31.98403,45.29849 12.51646,12.51646 0 0 1 -23.03067,9.80375 128.26069,128.26069 0 0 0 -26.96612,-37.76029 c -22.58989,-21.4921 -48.85011,-27.847 -78.142,-18.79853 -25.31292,7.81938 -42.74322,21.64284 -51.66594,41.09183 -12.86749,27.9938 -6.24257,62.94941 3.3706,84.46244 17.18645,36.42267 41.02542,62.25848 74.9609,81.45139 a 12.25531,12.25531 0 0 1 4.65458,16.69492 q -0.047,0.0833 -0.0953,0.1659 a 12.56861,12.56861 0 0 1 -7.07494,5.61677 z"
       transform="translate(-137.87214,-184.7043)"
       fill="#000000"
       id="path306" /><circle
       cx="198.12848"
       cy="213.7682"
       r="15.94905"
       fill="#e6e6e6"
       id="circle308" /><path
       d="m 623.57559,593.22447 a 6.56974,6.56974 0 0 1 -0.98437,-0.0742 6.45924,6.45924 0 0 1 -4.26075,-2.56934 L 609.56973,578.702 a 6.49853,6.49853 0 0 1 1.373,-9.08886 l 74.89941,-55.24024 a 6.49989,6.49989 0 0 1 9.08985,1.373 l 8.75976,11.87793 a 6.50087,6.50087 0 0 1 -1.37207,9.08984 L 627.42032,591.954 a 6.45374,6.45374 0 0 1 -3.84473,1.27047 z"
       transform="translate(-137.87214,-184.7043)"
       fill="#000000"
       id="path310" /><path
       d="M 676.76876,548.74834 665.30524,533.2051 a 6,6 0 0 1 1.26743,-8.39009 l 43.86106,-38.42993 a 6,6 0 0 1 8.39009,1.26743 l 20.96352,25.04324 a 6,6 0 0 1 -1.26743,8.39009 l -53.36106,28.92993 a 6,6 0 0 1 -8.39009,-1.26743 z"
       transform="translate(-137.87214,-184.7043)"
       fill="#2f2e41"
       id="path312" /><path
       d="m 747.24551,714.95592 h -14.75879 a 6.50753,6.50753 0 0 1 -6.5,-6.5 V 585.44127 a 6.50753,6.50753 0 0 1 6.5,-6.5 h 14.75879 a 6.50753,6.50753 0 0 1 6.5,6.5 v 123.01465 a 6.50753,6.50753 0 0 1 -6.5,6.5 z"
       transform="translate(-137.87214,-184.7043)"
       fill="#000000"
       id="path314" /><path
       d="m 776.4379,714.95592 h -14.75977 a 6.50753,6.50753 0 0 1 -6.5,-6.5 V 585.44127 a 6.50753,6.50753 0 0 1 6.5,-6.5 h 14.75977 a 6.50753,6.50753 0 0 1 6.5,6.5 v 123.01465 a 6.50753,6.50753 0 0 1 -6.5,6.5 z"
       transform="translate(-137.87214,-184.7043)"
       fill="#000000"
       id="path316" /><rect
       x="452.9227"
       y="528.35071"
       width="324.03262"
       height="2.24072"
       fill="#3f3d56"
       id="rect318" /><circle
       cx="610.21643"
       cy="195.74248"
       r="53.519161"
       fill="#000000"
       id="circle320" /><path
       d="M 830.94449,651.87926 799.95041,514.23375 v -32.52148 a 8.0002,8.0002 0 0 0 -8,-8 h -29.69049 v -20.91309 a 7.99989,7.99989 0 0 0 -8,-8 h -16 a 7.99988,7.99988 0 0 0 -8,8 v 20.91309 h -29.69049 a 8.0002,8.0002 0 0 0 -8,8 v 171.08691 a 7.96814,7.96814 0 0 0 0.58429,2.99268 7.83428,7.83428 0 0 0 7.37713,6.20654 l 125.4245,4.1816 c 7.49585,0.19682 10.8971,-9.55221 4.98914,-14.30074 z"
       transform="translate(-137.87214,-184.7043)"
       fill="#2f2e41"
       id="path322" /><path
       d="m 748.60294,399.4608 c -3.30567,-0.0928 -7.41993,-0.208 -10.58887,-2.52344 a 8.13148,8.13148 0 0 1 -3.2002,-6.07031 5.47132,5.47132 0 0 1 1.86035,-4.49512 c 1.65723,-1.39843 4.07618,-1.72558 6.67774,-0.96093 l -2.69922,-19.72657 1.98242,-0.27148 3.17188,23.19043 -1.6543,-0.75879 c -1.91895,-0.88086 -4.55176,-1.32812 -6.1875,0.0547 a 3.51336,3.51336 0 0 0 -1.15234,2.89648 6.14335,6.14335 0 0 0 2.38086,4.52637 c 2.46679,1.80176 5.74609,2.03516 9.46582,2.13867 z"
       transform="translate(-137.87214,-184.7043)"
       fill="#2f2e41"
       id="path324" /><rect
       x="582.21027"
       y="182.6823"
       width="10.77148"
       height="2"
       fill="#2f2e41"
       id="rect326" /><rect
       x="616.21027"
       y="182.6823"
       width="10.77148"
       height="2"
       fill="#2f2e41"
       id="rect328" /><path
       d="m 701.2213,345.85375 c -9.5066,-5.76148 -13.98372,-16.69081 -13.992,-27.50019 a 39.63722,39.63722 0 0 1 14.0122,-30.27526 c 9.79165,-8.46851 22.83139,-12.61284 35.57037,-13.66587 15.41314,-1.27407 30.726,2.07612 45.44561,6.35205 15.76132,4.57855 31.20521,10.3394 47.33916,13.54478 15.65648,3.11052 31.35415,3.41726 46.76828,-1.0808 14.22686,-4.15159 28.66778,-11.48765 43.86373,-10.2163 13.12473,1.09807 23.092,9.83219 29.797,20.623 13.3117,21.4236 14.36311,50.17839 33.50653,68.01847 8.277,7.71346 19.05952,11.20764 29.83642,13.81931 10.334,2.50434 21.3577,4.10892 30.8407,9.17715 10.1687,5.43472 16.3246,15.64966 14.7338,27.3543 -1.8068,13.29371 -11.2665,24.7352 -21.6813,32.54466 A 91.7308,91.7308 0 0 1 959.86755,469.675 c -27.63238,-7.33068 -50.0878,-28.74617 -79.52754,-30.08822 -16.42351,-0.74869 -32.59413,3.72561 -49.01532,2.98373 -11.38058,-0.51415 -23.6301,-4.72154 -31.5567,-13.1851 a 24.70886,24.70886 0 0 1 -6.75688,-14.53719 c -0.17935,-1.90565 -3.18111,-1.92437 -3,0 1.12531,11.95692 9.92656,20.78875 20.43,25.64427 a 56.35532,56.35532 0 0 0 17.4797,4.8121 c 8.03605,0.88756 16.22905,0.0479 24.22831,-0.82906 8.455,-0.927 16.924,-2.06875 25.44779,-1.96661 a 72.73989,72.73989 0 0 1 22.83729,4.06146 c 14.10562,4.838 26.81283,12.86479 40.28825,19.11627 13.04225,6.05051 26.69986,9.8018 41.14564,9.89485 a 96.211,96.211 0 0 0 40.36761,-8.65716 c 12.4778,-5.68433 24.2033,-14.16938 31.9722,-25.60781 7.2838,-10.72436 11.1081,-24.79317 4.553,-36.79916 -5.1376,-9.40992 -14.9361,-14.17174 -24.8159,-17.1034 -10.9522,-3.2499 -22.399,-4.73427 -33.1198,-8.78141 a 45.59328,45.59328 0 0 1 -15.1718,-9.10021 57.00307,57.00307 0 0 1 -11.531,-15.91091 c -6.13768,-11.97309 -9.27378,-25.12326 -14.44276,-37.49049 -4.788,-11.4558 -11.34014,-23.0022 -21.8937,-30.06219 a 37.24444,37.24444 0 0 0 -19.05741,-6.15172 c -7.51773,-0.34 -14.98848,1.38578 -22.13353,3.56055 -7.561,2.30137 -14.93941,5.17585 -22.55755,7.29394 a 81.67171,81.67171 0 0 1 -24.66881,2.94615 c -17.122,-0.55786 -33.6618,-5.6441 -49.87113,-10.77223 -28.39559,-8.98348 -59.976,-18.60067 -88.52459,-4.75306 -11.12369,5.39559 -20.546,14.44825 -24.51851,26.33536 -3.515,10.51812 -3.0293,22.787 2.38964,32.58624 a 30.45529,30.45529 0 0 0 10.86307,11.33016 c 1.6554,1.00326 3.16488,-1.59 1.51416,-2.59041 z"
       transform="translate(-137.87214,-184.7043)"
       fill="#2f2e41"
       id="path330" /><path
       d="m 783.96036,613.29869 h -14.75977 a 6.50753,6.50753 0 0 1 -6.5,-6.5 v -85.25488 a 6.50753,6.50753 0 0 1 6.5,-6.5 h 14.75977 a 6.50753,6.50753 0 0 1 6.5,6.5 v 85.25488 a 6.50753,6.50753 0 0 1 -6.5,6.5 z"
       transform="translate(-137.87214,-184.7043)"
       fill="#000000"
       id="path332" /><path
       d="m 726.9884,332.61173 a 12.73586,12.73586 0 0 0 21.6586,7.20072 l -2.50708,-0.6619 a 21.2049,21.2049 0 0 0 37.15165,4.39669 c 1.12959,-1.56941 -1.47153,-3.0687 -2.59041,-1.51416 a 18.20993,18.20993 0 0 1 -31.6684,-3.68 1.52213,1.52213 0 0 0 -2.50708,-0.6619 9.75815,9.75815 0 0 1 -16.64444,-5.87692 c -0.26768,-1.90385 -3.15875,-1.09378 -2.89284,0.79752 z"
       transform="translate(-137.87214,-184.7043)"
       fill="#2f2e41"
       id="path334" /><path
       id="f6ad8881-531f-450f-af8c-ee430f91c944-684"
       data-name="Path 33"
       d="m 632.42429,545.597 -0.31281,0.21207 -5.80766,-8.56676 a 5.99,5.99 0 0 0 -8.3193,-1.59685 v 0 l -18.14991,12.30436 a 5.99,5.99 0 0 0 -1.59685,8.3193 l 31.86134,46.998 a 5.99,5.99 0 0 0 8.31929,1.59685 v 0 l 18.14984,-12.3043 a 5.99,5.99 0 0 0 1.59685,-8.3193 v 0 l -21.91969,-32.33328 0.31281,-0.21207 z"
       transform="translate(-137.87214,-184.7043)"
       fill="#3f3d56" /><path
       id="fc886b53-8f7f-459a-8f46-dc88972f03c0-685"
       data-name="Path 34"
       d="m 619.35741,537.87 -2.29312,1.55457 a 2.05711,2.05711 0 0 1 0.0139,3.41481 l -10.06407,6.82273 a 2.05711,2.05711 0 0 1 -3.16675,-1.27707 l -2.14211,1.4522 a 4.32985,4.32985 0 0 0 -1.15428,6.01356 v 0 l 30.79331,45.42257 a 4.32984,4.32984 0 0 0 6.01355,1.15428 v 0 l 17.65162,-11.96656 a 4.32985,4.32985 0 0 0 1.15428,-6.01355 v 0 l -30.79346,-45.4228 a 4.32985,4.32985 0 0 0 -6.01356,-1.15427 v 0 z"
       transform="translate(-137.87214,-184.7043)"
       fill="#ffffff" /></g></svg>
