<?xml version="1.0" encoding="UTF-8" standalone="no"?>
<svg
   data-name="Layer 1"
   width="649.05263"
   height="653.8814"
   viewBox="0 0 649.05263 653.8814"
   version="1.1"
   id="svg222"
   sodipodi:docname="undraw_target_re_fi8j.svg"
   xml:space="preserve"
   inkscape:version="1.2 (dc2aeda, 2022-05-15)"
   inkscape:export-filename="undraw_target_re_fi8j.png"
   inkscape:export-xdpi="96"
   inkscape:export-ydpi="96"
   xmlns:inkscape="http://www.inkscape.org/namespaces/inkscape"
   xmlns:sodipodi="http://sodipodi.sourceforge.net/DTD/sodipodi-0.dtd"
   xmlns="http://www.w3.org/2000/svg"
   xmlns:svg="http://www.w3.org/2000/svg"><defs
     id="defs226" /><sodipodi:namedview
     id="namedview224"
     pagecolor="#ffffff"
     bordercolor="#000000"
     borderopacity="0.25"
     inkscape:showpageshadow="2"
     inkscape:pageopacity="0.0"
     inkscape:pagecheckerboard="0"
     inkscape:deskcolor="#d1d1d1"
     showgrid="false"
     inkscape:zoom="0.43746437"
     inkscape:cx="429.74929"
     inkscape:cy="448.03649"
     inkscape:window-width="1440"
     inkscape:window-height="900"
     inkscape:window-x="0"
     inkscape:window-y="0"
     inkscape:window-maximized="0"
     inkscape:current-layer="svg222" /><rect
     style="fill:#d32f2f;stroke-width:3.78;stroke-opacity:0.940171;paint-order:fill markers stroke;fill-opacity:0.80000001"
     id="rect602"
     width="490.41107"
     height="490.41104"
     x="72.037773"
     y="83.120514"
     ry="41.17012" /><rect
     style="fill:#d32f2f;fill-opacity:0.80000001;stroke-width:3.78;stroke-opacity:0.940171;paint-order:fill markers stroke"
     id="rect602-4"
     width="490.41107"
     height="490.41104"
     x="152.04146"
     y="-16.06489"
     ry="41.17012"
     transform="rotate(16.491526)"
     inkscape:transform-center-x="-74.808468"
     inkscape:transform-center-y="-36.018892" /><g
     id="g3917"
     transform="matrix(0.58986516,0,0,0.58986516,126.61014,133.42307)"><polygon
       points="82.612,386.071 60.29,432.317 72.279,438.104 100.308,394.612 "
       fill="#ffb6b6"
       id="polygon3776" /><path
       d="m 328.83923,567.615 36.86931,17.79716 0.22509,-0.46626 a 15.93587,15.93587 0 0 0 -7.42271,-21.27777 l -8.9e-4,-4.3e-4 -4.268,-8.36029 -15.032,-0.956 -3.21844,-1.55358 z"
       transform="translate(-275.00977,-122.99479)"
       fill="#2f2e41"
       id="path3778" /><polygon
       points="149.533,397.177 149.536,448.529 162.848,448.528 169.182,397.176 "
       fill="#ffb6b6"
       id="polygon3780" /><path
       d="m 424.07644,585.41215 40.94,-0.002 v -0.51775 a 15.93587,15.93587 0 0 0 -15.935,-15.93475 h -10e-4 l -7.47822,-5.67337 -13.9527,5.67423 -3.5738,1.3e-4 z"
       transform="translate(-275.00977,-122.99479)"
       fill="#2f2e41"
       id="path3782" /><path
       d="m 437.73981,333.36175 15.25581,105.20412 1.29622,23.64689 -8.0006,73.79078 3.24761,7.14992 -9.07382,5.59609 H 422.0011 l -0.9799,-77.94754 -13.84561,-65.28223 -2.14165,73.99261 -2.96423,5.71761 c -11.04148,25.05138 -25.91529,33.25375 -36.43045,51.97907 l -18.4647,-10.00171 0.38718,-7.45905 c -3.70945,-1.87807 5.56931,-7.3671 6.46092,-11.42818 l 1.61489,-7.2711 10.77107,-22.31151 0.411,-7.85727 -2.94789,-53.44107 1.38712,-71.965 24.21994,-18.52068 z"
       transform="translate(-275.00977,-122.99479)"
       fill="#2f2e41"
       id="path3784" /><circle
       cx="139.52809"
       cy="37.230679"
       r="23.988831"
       fill="#ffb6b6"
       id="circle3786" /><path
       d="m 417.838,352.777 c -31.625,7.5e-4 -55.34828,-11.91047 -55.67285,-12.07689 l -0.281,-0.14425 0.0864,-0.30354 c 0.849,-2.97339 1.65331,-7.96147 0.198,-8.68876 a 0.99687,0.99687 0 0 1 -0.62022,-0.73217 c -0.0834,-0.59769 0.515,-1.1439 1.34338,-1.90049 1.60784,-1.46848 3.81,-3.47942 2.51846,-6.70751 -2.27691,-5.6917 4.12518,-34.85836 4.53916,-36.728 L 367.21486,239.0038 A 38.67443,38.67443 0 0 1 395.8127,199.48 l 0.0609,-0.0161 0.0627,0.004 c 0.8892,0.05 1.83062,-2.96963 2.54476,-5.17929 1.05487,-3.266 1.75135,-5.27284 2.93958,-5.18757 9.19892,0.59318 15.32865,0.98124 19.41326,1.23482 7.74471,0.48122 9.10161,9.901 9.26841,11.40482 a 46.33818,46.33818 0 0 1 21.00457,50.13967 l -3.86,16.598 -3.411,7.975 1.124,15.73361 c 5.29087,4.39942 3.77469,13.39961 3.4734,14.9203 5.04143,5.21536 1.94557,11.35336 1.19462,12.65316 a 12.29112,12.29112 0 0 1 2.2168,11.46005 l 4.64322,15.0901 -0.35012,0.12209 A 115.90154,115.90154 0 0 1 417.838,352.777 Z"
       transform="translate(-275.00977,-122.99479)"
       fill="#3f3d56"
       id="path3788" /><path
       d="m 566.45794,195.3156 a 9.33922,9.33922 0 0 0 -14.30995,-0.5526 l -75.85328,0.41282 -21.55132,10.4116 -2.79539,11.93291 34.82353,-1.45588 66.46977,-7.59208 a 9.38986,9.38986 0 0 0 13.2166,-13.15677 z"
       transform="translate(-275.00977,-122.99479)"
       fill="#ffb6b6"
       id="path3790" /><path
       d="m 481.22487,220.26334 -29.52615,13.96741 -27.37359,-11.45884 -0.0274,-0.22133 a 20.39734,20.39734 0 0 1 10.35172,-20.4211 55.85065,55.85065 0 0 1 18.39832,-6.36964 c 18.10677,-2.69349 21.77914,-3.728 21.81411,-3.73834 l 0.39833,-0.11544 z"
       transform="translate(-275.00977,-122.99479)"
       fill="#3f3d56"
       id="path3792" /><path
       d="m 394.197,175.304 a 2.70122,2.70122 0 0 1 -0.87117,-0.14049 5.70955,5.70955 0 0 1 -2.63266,-2.34 c -4.25178,-6.11508 -6.30479,-14.26815 -6.10118,-24.233 0.086,-4.21571 0.56312,-9.60576 3.51548,-13.90224 2.48277,-3.61277 7.505,-6.47985 12.18545,-5.04068 a 5.05935,5.05935 0 0 1 2.5241,-4.67064 13.258,13.258 0 0 1 5.78938,-1.46247 c 4.75366,-0.44554 9.66774,-0.9061 14.48114,0.006 5.39719,1.02369 9.81013,3.80549 12.10732,7.632 l 0.047,0.12021 0.46695,2.26752 a 2.1533,2.1533 0 0 0 2.86708,1.58155 1.95371,1.95371 0 0 1 2.62176,2.109 l -0.13035,0.902 1.35765,-0.254 a 1.95463,1.95463 0 0 1 2.192,2.59848 l -0.38355,1.03721 a 2.05614,2.05614 0 0 1 1.49477,0.65817 1.8899,1.8899 0 0 1 0.2562,2.22657 17.70607,17.70607 0 0 1 -6.25445,6.29277 14.782,14.782 0 0 1 -4.57072,1.79755 87.78569,87.78569 0 0 1 -31.847,0.95758 17.95459,17.95459 0 0 1 0.71189,6.44641 6.77566,6.77566 0 0 1 -4.06658,5.71537 9.82,9.82 0 0 1 -1.48613,0.35839 8.71283,8.71283 0 0 0 -1.41889,0.34486 4.15228,4.15228 0 0 0 -1.21565,7.09669 l 1.05111,-1.09544 -0.34195,1.39263 a 1.99806,1.99806 0 0 1 -1.01881,1.26863 2.79991,2.79991 0 0 1 -1.33019,0.32937 z"
       transform="translate(-275.00977,-122.99479)"
       fill="#2f2e41"
       id="path3794" /><ellipse
       cx="279.82947"
       cy="209.7682"
       rx="137"
       ry="134.9084"
       fill="#e6e6e6"
       id="ellipse3796" /><path
       d="m 668.35351,332.763 a 109.94456,109.94456 0 0 1 -10.403,46.80581 c -0.21075,0.45163 -0.42908,0.90331 -0.64736,1.35494 A 113.02372,113.02372 0 0 1 608.5628,431.26 c -0.4441,0.23335 -0.88824,0.46669 -1.33238,0.69251 a 114.38967,114.38967 0 0 1 -52.39119,12.59349 116.19926,116.19926 0 0 1 -18.86384,-1.53563 c -0.4968,-0.0828 -0.99363,-0.16558 -1.48294,-0.25591 A 113.817,113.817 0 0 1 473.121,410.34113 c -0.34628,-0.35382 -0.69251,-0.71512 -1.04633,-1.07643 a 110.76474,110.76474 0 0 1 -29.583,-60.40043 c -0.0678,-0.49684 -0.143,-0.99363 -0.20325,-1.49047 a 110.60178,110.60178 0 0 1 12.2924,-67.0698 c 0.23335,-0.44414 0.48177,-0.88824 0.72266,-1.32484 a 112.9171,112.9171 0 0 1 34.83712,-38.074 c 0.414,-0.286 0.82805,-0.56456 1.24205,-0.84308 a 113.942,113.942 0 0 1 46.20363,-17.80244 c 0.49679,-0.0678 0.99363,-0.143 1.49042,-0.21079 a 115.812,115.812 0 0 1 15.76253,-1.06885 114.524,114.524 0 0 1 48.093,10.50083 c 0.45916,0.21075 0.91079,0.42154 1.36247,0.63982 a 113.57027,113.57027 0 0 1 36.90717,28.1076 c 0.33121,0.37638 0.66242,0.76024 0.97861,1.14415 a 110.4881,110.4881 0 0 1 24.28359,50.9836 v 0.007 c 0.0979,0.4893 0.18069,0.97861 0.26348,1.4754 a 110.44741,110.44741 0 0 1 1.62596,18.92411 z"
       transform="translate(-275.00977,-122.99479)"
       fill="#ffffff"
       id="path3798" /><path
       d="m 566.04728,324.26578 a 13.89558,13.89558 0 0 1 2.9361,6.71854 l 54.693,-10.31586 a 68.11841,68.11841 0 0 0 -14.942,-31.52506 z"
       transform="translate(-275.00977,-122.99479)"
       fill="#000000"
       id="path3800" /><path
       d="m 625.39422,321.62983 c -0.0677,-0.49679 -0.15805,-0.98609 -0.24838,-1.47535 v -0.008 a 69.65311,69.65311 0 0 0 -15.25066,-32.21 c -0.32368,-0.38391 -0.65489,-0.76782 -0.9861,-1.13666 A 71.76461,71.76461 0 0 0 586.432,269.63762 h -0.007 c -0.45167,-0.21832 -0.89577,-0.4366 -1.355,-0.6474 a 72.43432,72.43432 0 0 0 -40.16658,-5.92411 c -0.49679,0.0602 -0.99363,0.13549 -1.49043,0.21832 a 71.53889,71.53889 0 0 0 -27.79895,10.67395 c -0.42153,0.271 -0.84307,0.54949 -1.25712,0.83554 a 71.19287,71.19287 0 0 0 -22.29637,24.374 q -0.36126,0.65491 -0.72261,1.33238 a 69.34039,69.34039 0 0 0 -7.27156,41.97315 q 0.0903,0.75655 0.22586,1.49047 a 69.65476,69.65476 0 0 0 18.43477,36.89964 c 0.3387,0.36135 0.685,0.72265 1.04629,1.07642 a 71.65053,71.65053 0 0 0 37.675,19.96287 c 0.4968,0.0979 0.99364,0.18065 1.49043,0.26349 a 72.51265,72.51265 0 0 0 44.64544,-6.85 c 0.44414,-0.22581 0.8807,-0.45916 1.32484,-0.7 h 0.008 a 71.24741,71.24741 0 0 0 30.14752,-31.02073 q 0.33873,-0.67744 0.65489,-1.35493 a 69.256,69.256 0 0 0 5.6757,-40.61073 z m -7.04571,39.98593 q -0.31611,0.68883 -0.65488,1.355 A 69.81865,69.81865 0 0 1 588.201,393.29138 c -0.44415,0.23335 -0.88824,0.4667 -1.33238,0.69252 a 70.83588,70.83588 0 0 1 -43.67437,6.69193 c -0.49683,-0.0753 -1.00116,-0.15805 -1.49047,-0.25591 a 70.12838,70.12838 0 0 1 -36.82438,-19.5037 c -0.3613,-0.35377 -0.70758,-0.71512 -1.05386,-1.07643 a 68.27972,68.27972 0 0 1 -18.04333,-36.05656 c -0.0828,-0.48931 -0.1581,-0.98615 -0.22582,-1.48294 a 67.91119,67.91119 0 0 1 7.10594,-41.06989 c 0.22581,-0.44414 0.4667,-0.88823 0.71507,-1.33238 a 69.72837,69.72837 0 0 1 21.85981,-23.87712 c 0.414,-0.286 0.828,-0.56456 1.24954,-0.828 a 70.08541,70.08541 0 0 1 27.13653,-10.418 c 0.4893,-0.0828 0.9861,-0.1581 1.49047,-0.21828 a 70.85319,70.85319 0 0 1 39.30844,5.80365 c 0.45916,0.20326 0.91084,0.42154 1.35494,0.63986 a 70.14769,70.14769 0 0 1 21.97269,16.75612 c 0.33121,0.37637 0.66242,0.76028 0.97861,1.14419 a 68.1184,68.1184 0 0 1 14.942,31.52506 c 0.0903,0.4893 0.17312,0.97856 0.24842,1.48289 a 67.8427,67.8427 0 0 1 -5.57035,39.70741 z"
       transform="translate(-275.00977,-122.99479)"
       fill="#cccccc"
       id="path3802" /><path
       d="m 549.60763,321.532 -1.227,0.87322 -33.14342,-46.38432 -0.88075,-1.227 -24.21586,-33.88867 c 0.414,-0.286 0.82805,-0.56456 1.24205,-0.84308 l 24.23093,33.89623 0.87317,1.23447 z"
       transform="translate(-275.00977,-122.99479)"
       fill="#cccccc"
       id="path3804" /><path
       d="m 543.68351,327.53139 -0.73014,1.32485 -50.291,-27.62584 -1.32485,-0.73014 -36.7567,-20.19626 c 0.23335,-0.44414 0.48177,-0.88824 0.72266,-1.32484 l 36.75661,20.18868 1.31731,0.73014 z"
       transform="translate(-275.00977,-122.99479)"
       fill="#cccccc"
       id="path3806" /><path
       d="m 543.0437,337.06869 -57.26149,6.71454 -1.49043,0.18065 -41.80008,4.90039 c -0.0678,-0.49684 -0.143,-0.99363 -0.20325,-1.49047 l 41.77747,-4.90039 1.49047,-0.17312 57.31414,-6.722 z"
       transform="translate(-275.00977,-122.99479)"
       fill="#cccccc"
       id="path3808" /><path
       d="m 546.73966,342.12717 -41.86026,38.78905 -1.10656,1.02372 -30.65184,28.40119 c -0.34628,-0.35382 -0.69251,-0.71512 -1.04633,-1.07643 l 30.65189,-28.40118 1.099,-1.02373 41.8904,-38.81918 z"
       transform="translate(-275.00977,-122.99479)"
       fill="#cccccc"
       id="path3810" /><path
       d="M 604.29474,232.12068 586.432,269.63762 h -0.007 l -0.64739,1.36247 -24.41912,51.29217 -1.35493,-0.64736 24.41912,-51.28467 0.64735,-1.37 17.86273,-37.50936 c 0.45916,0.21074 0.91079,0.42153 1.36247,0.63981 z"
       transform="translate(-275.00977,-122.99479)"
       fill="#cccccc"
       id="path3812" /><path
       d="m 642.18052,261.37243 -32.28534,26.56448 -1.16675,0.96349 -44.13358,36.31252 -0.956,-1.15922 44.111,-36.29749 1.15926,-0.956 32.29283,-26.572 c 0.33118,0.37645 0.66239,0.76031 0.97858,1.14422 z"
       transform="translate(-275.00977,-122.99479)"
       fill="#cccccc"
       id="path3814" /><path
       d="m 666.72759,313.83892 -41.33337,7.79091 -1.47536,0.27852 -56.56144,10.66646 -0.27851,-1.4754 56.59153,-10.67395 1.4754,-0.271 v -0.008 l 41.31827,-7.78342 c 0.0979,0.48932 0.18069,0.97863 0.26348,1.47542 z"
       transform="translate(-275.00977,-122.99479)"
       fill="#cccccc"
       id="path3816" /><path
       d="m 657.95054,379.56881 c -0.21075,0.45163 -0.42908,0.90331 -0.64736,1.35494 l -38.23955,-17.32826 -1.37,-0.62474 -51.646,-23.40294 0.62475,-1.37 51.67611,23.418 1.37,0.6248 z"
       transform="translate(-275.00977,-122.99479)"
       fill="#cccccc"
       id="path3818" /><path
       d="m 608.5628,431.26 c -0.4441,0.23335 -0.88824,0.46669 -1.33238,0.69251 l -19.64668,-36.6362 -0.71512,-1.33237 -26.85048,-50.07272 1.32484,-0.70758 26.858,50.08778 0.70758,1.32484 h 0.008 z"
       transform="translate(-275.00977,-122.99479)"
       fill="#cccccc"
       id="path3820" /><path
       d="m 552.65625,345.12309 -9.462,55.55274 -0.25595,1.49047 -6.96291,40.844 c -0.4968,-0.0828 -0.99363,-0.16558 -1.48294,-0.25591 l 6.95542,-40.85161 0.25591,-1.48289 9.462,-55.55278 z"
       transform="translate(-275.00977,-122.99479)"
       fill="#cccccc"
       id="path3822" /><path
       d="m 553.08532,320.67388 -1.49043,0.21074 -7.97161,-56.10976 -0.21075,-1.49043 -5.82625,-41.02472 c 0.49679,-0.0678 0.99363,-0.143 1.49042,-0.21079 l 5.82626,41.01719 0.21079,1.49047 z"
       transform="translate(-275.00977,-122.99479)"
       fill="#cccccc"
       id="path3824" /><ellipse
       cx="279.82947"
       cy="209.7682"
       rx="14.3022"
       ry="14.08384"
       fill="#3f3d56"
       id="ellipse3826" /><polygon
       points="539.465,562.192 574.04,603.485 563.335,612.448 523.665,575.422 "
       fill="#a0616a"
       id="polygon3828" /><path
       d="m 858.77847,737.33113 -32.91985,27.56511 -0.34862,-0.41631 a 16.713,16.713 0 0 1 2.08349,-23.54231 l 8e-4,-6.7e-4 2.193,-9.59715 15.03967,-4.83235 2.87368,-2.40626 z"
       transform="translate(-275.00977,-122.99479)"
       fill="#2f2e41"
       id="path3830" /><polygon
       points="478.397,583.81 478.393,637.666 464.432,637.665 457.789,583.809 "
       fill="#a0616a"
       id="polygon3832" /><path
       d="m 753.8953,775.22645 -42.93661,-0.002 v -0.543 A 16.713,16.713 0 0 1 727.67081,757.97 h 0.001 l 7.84292,-5.95005 14.63316,5.951 3.74808,1.3e-4 z"
       transform="translate(-275.00977,-122.99479)"
       fill="#2f2e41"
       id="path3834" /><path
       d="m 788.3258,502.93838 c 3.37285,4.21606 1.68642,18.55068 1.68642,18.55068 l 0.827,89.27394 c 14.33462,11.805 25.31259,60.818 25.31259,60.818 l 13.68742,25.182 c -1.68642,5.05927 -12.62715,24.84321 -16,24 -1.565,-0.39126 -21.04511,-18.35672 -34,-45 -14.965,-30.77737 -23.55552,-70.79586 -23.55552,-70.79586 0,0 1.68642,114.677 1.68642,119.73622 0,5.05922 -22.76674,2.52964 -27.826,2.52964 -5.05926,0 -31.10137,-206.58718 -31.10137,-206.58718 v -11.805 l 4.21607,-5.90249 c 0,0 81.69417,-4.21602 85.06697,5e-5 z"
       transform="translate(-275.00977,-122.99479)"
       fill="#2f2e41"
       id="path3836" /><path
       d="m 607.06463,312.32775 -10.2254,4.77185 11.39555,-2.38592 c 0,0 8.37356,0.34084 8.37356,-3.06762 l 13.63387,-7.49863 c 0,0 11.58879,6.13524 14.99725,2.72677 3.40846,-3.40847 -2.72677,-10.2254 -2.72677,-10.2254 0,0 4.10691,-2.26515 3.75769,-3.17765 -0.34922,-0.9125 -5.80277,0.45088 -5.80277,0.45088 0,0 -12.95218,-7.49863 -12.27048,5.45355 l -13.63387,9.03914 c 0,0 -6.81693,-0.17713 -7.49863,3.91303 z"
       transform="translate(-275.00977,-122.99479)"
       fill="#3f3d56"
       id="path3838" /><path
       d="m 793.011,532.13081 c -17.8948,8.8784 -39.188,11.56376 -59.2449,9.20617 -17.291,-2.03562 -20.88626,-21.35461 -36.93525,-28.2089 5.07173,-14.57117 5.13252,-33.915 4.27571,-39.34326 -1.46631,-9.26941 -1.7385,-73.87545 3.63225,-80.60326 7.04407,-8.82663 17.797,-13.54185 17.30827,-24.82385 l 1.50656,1.54682 c -1.90333,-5.00849 1.78257,-10.74148 6.63579,-13.00708 4.85322,-2.2656 10.45972,-1.97809 15.80752,-1.6446 q 6.75354,0.42269 13.50735,0.8453 a 12.14233,12.14233 0 0 0 1.817,10.94848 c 7.98136,-2.20232 16.39975,3.65144 19.96488,11.11526 3.56513,7.46958 3.47894,16.08921 3.31791,24.36384 -0.18405,9.57419 6.91182,76.812 -1.67327,81.06713 4.42767,1.11555 10.6863,24.729 6.90841,22.17014 1.74803,1.2248 1.32593,12.65918 3.17177,26.36781 z"
       transform="translate(-275.00977,-122.99479)"
       fill="#000000"
       id="path3840" /><path
       d="m 619.06875,301.20022 a 13.75673,13.75673 0 0 1 17.55419,11.69714 l 75.92606,66.75786 -13.70977,9.10778 -75.35906,-60.44942 a 13.83134,13.83134 0 0 1 -4.41142,-27.11336 z"
       transform="translate(-275.00977,-122.99479)"
       fill="#a0616a"
       id="path3842" /><path
       d="m 700.83347,358.11947 c -1.66217,0.0954 -40.90127,-28.53614 -41.90525,-27.20828 l -2.63691,14.30135 v 0 l -7.253,9.59141 v 0 l 15.67919,16.621 4.47977,3.6744 2.87986,3.04525 c -1.00744,1.34759 5.68,8.56847 6.04221,10.21625 a 5.76267,5.76267 0 0 0 2.86516,3.83228 l 25.51407,13.8434 a 16.00195,16.00195 0 0 0 19.148,-25.64364 l -3.76357,-3.80639 -5.76443,-5.84213 -10.78788,-10.925 a 5.7331,5.7331 0 0 0 -4.49722,-1.6999 z"
       transform="translate(-275.00977,-122.99479)"
       fill="#000000"
       id="path3844" /><circle
       cx="468.15231"
       cy="197.02017"
       r="27.677179"
       fill="#a0616a"
       id="circle3846" /><path
       d="m 776.17816,311.24969 c -1.53906,-6.10748 -7.27985,-11.43573 -13.54791,-10.81781 0.77441,-4.70532 -2.35767,-9.4433 -6.57935,-11.66077 -4.22168,-2.21747 -9.26434,-2.3125 -13.97,-1.54028 a 83.11479,83.11479 0 0 0 -8.10876,1.89441 c -2.26471,0.60956 -12.88343,-3.02576 -15.13294,-2.36224 -1.92383,0.5675 -6.55322,7.45965 -8.01361,8.83459 -1.46045,1.37488 -2.23382,3.68878 -1.25836,5.44135 0.96313,1.7304 3.16681,2.294 5.14056,2.45611 1.9737,0.16205 4.09449,0.13355 5.73285,1.2461 2.10559,1.42993 2.70191,4.281 2.61634,6.82476 -0.0856,2.54383 -0.66889,5.10913 -0.19385,7.60968 0.475,2.50049 2.49835,4.99829 5.03778,4.82648 1.9013,-2.00427 5.37414,-1.87555 7.55505,-0.17981 a 9.608,9.608 0 0 1 3.28333,7.32092 29.77105,29.77105 0 0 1 -1.277,8.15955 c -0.45691,1.82782 -0.80121,4.04327 0.55231,5.35388 a 5.48258,5.48258 0 0 0 2.77,1.15631 c 3.99591,0.84876 18.99182,-0.30249 22.98773,0.54633 L 763.463,345.7489 c 2.89472,-5.59381 6.73639,-10.65894 9.58148,-16.2782 2.84509,-5.61926 4.67274,-12.11347 3.13368,-18.22101 z"
       transform="translate(-275.00977,-122.99479)"
       fill="#2f2e41"
       id="path3848" /><path
       d="m 818.66159,539.83473 a 13.7568,13.7568 0 0 1 -9.40425,-18.88208 l -32.63055,-95.69026 16.42409,-1.07653 35.27837,89.93641 a 13.83133,13.83133 0 0 1 -9.66766,25.71246 z"
       transform="translate(-275.00977,-122.99479)"
       fill="#a0616a"
       id="path3850" /><path
       d="m 769.0703,437.77224 c 1.4892,0.74446 21.274,45.107 22.80563,44.455 l 9.40473,-11.092 v 0 l 11.06442,-4.70948 v 0 l -5.32743,-22.21963 -2.05686,-5.41654 -0.98228,-4.07459 c 1.54448,-0.66745 -0.6622,-10.2588 -0.15627,-11.86826 a 5.76267,5.76267 0 0 0 -0.57784,-4.7499 L 788.00425,393.3916 a 16.00194,16.00194 0 0 0 -29.37062,12.71251 l 1.37,5.17454 2.09227,7.93609 3.9197,14.84489 a 5.73309,5.73309 0 0 0 3.0547,3.71261 z"
       transform="translate(-275.00977,-122.99479)"
       fill="#000000"
       id="path3852" /><path
       d="m 895.3304,759.39117 -7.71,-12.39 -1.54,7.08008 c -0.27,1.24 -0.54,2.5 -0.79,3.75 -2.18994,-1.87012 -4.52,-3.6001 -6.79981,-5.26 q -10.5,-7.62012 -20.99023,-15.26 l 2.18994,12.69995 c 1.3501,7.82007 2.76025,15.80005 6.1001,22.95 0.37011,0.81006 0.77,1.61011 1.20019,2.39014 h 32.54 a 10.48759,10.48759 0 0 0 0.54,-2.24012 0.77391,0.77391 0 0 0 0.01,-0.15 c 0.51029,-4.85008 -2.16989,-9.42002 -4.74996,-13.57005 z"
       transform="translate(-275.00977,-122.99479)"
       fill="#f0f0f0"
       id="path3854" /><path
       d="m 922.87171,776.56886 -275.75,0.30733 a 1.190685,1.190685 0 0 1 0,-2.38137 l 275.75,-0.30733 a 1.19069,1.19069 0 1 1 0,2.38137 z"
       transform="translate(-275.00977,-122.99479)"
       fill="#cacaca"
       id="path3856" /><path
       d="m 524.40914,568.91873 -7.71,-12.39 -1.54,7.08008 c -0.27,1.24 -0.54,2.5 -0.79,3.75 -2.18994,-1.87012 -4.52,-3.6001 -6.79981,-5.26 q -10.5,-7.62012 -20.99023,-15.26 l 2.18994,12.69995 c 1.3501,7.82007 2.76025,15.80005 6.1001,22.95 0.37011,0.81006 0.77,1.61011 1.20019,2.39014 h 32.54 a 10.48759,10.48759 0 0 0 0.54,-2.24012 0.77391,0.77391 0 0 0 0.01,-0.15 c 0.51029,-4.85008 -2.16989,-9.42002 -4.74996,-13.57005 z"
       transform="translate(-275.00977,-122.99479)"
       fill="#f0f0f0"
       id="path3858" /><path
       d="m 551.95045,586.09642 -275.75,0.30733 a 1.19069,1.19069 0 0 1 0,-2.38137 l 275.75,-0.30733 a 1.19069,1.19069 0 1 1 0,2.38137 z"
       transform="translate(-275.00977,-122.99479)"
       fill="#cacaca"
       id="path3860" /><path
       d="m 424.4147,356.19772 a 9.33922,9.33922 0 0 1 -5.351,-13.28333 l -25.21838,-71.53966 2.525,-23.801 10.28873,-6.65963 10.3855,33.2707 15.29285,65.13063 a 9.38986,9.38986 0 0 1 -7.92267,16.88225 z"
       transform="translate(-275.00977,-122.99479)"
       fill="#ffb6b6"
       id="path3862" /><polygon
       points="110.982,146.603 105.247,99.545 129.098,90.313 142.946,136.474 "
       fill="#3f3d56"
       id="polygon3864" /></g></svg>
