<?xml version="1.0" encoding="UTF-8" standalone="no"?>
<svg
   data-name="Layer 1"
   width="649.05263"
   height="653.8814"
   viewBox="0 0 649.05263 653.8814"
   version="1.1"
   id="svg222"
   sodipodi:docname="treina_undraw_profile_element_base.svg"
   xml:space="preserve"
   inkscape:version="1.2 (dc2aeda, 2022-05-15)"
   inkscape:export-filename="treina_undraw_profile_element_trainer.png"
   inkscape:export-xdpi="96"
   inkscape:export-ydpi="96"
   xmlns:inkscape="http://www.inkscape.org/namespaces/inkscape"
   xmlns:sodipodi="http://sodipodi.sourceforge.net/DTD/sodipodi-0.dtd"
   xmlns="http://www.w3.org/2000/svg"
   xmlns:svg="http://www.w3.org/2000/svg"><defs
     id="defs226" /><sodipodi:namedview
     id="namedview224"
     pagecolor="#ffffff"
     bordercolor="#000000"
     borderopacity="0.25"
     inkscape:showpageshadow="2"
     inkscape:pageopacity="0.0"
     inkscape:pagecheckerboard="0"
     inkscape:deskcolor="#d1d1d1"
     showgrid="false"
     inkscape:zoom="0.51379735"
     inkscape:cx="568.31745"
     inkscape:cy="377.58077"
     inkscape:window-width="1440"
     inkscape:window-height="784"
     inkscape:window-x="0"
     inkscape:window-y="25"
     inkscape:window-maximized="0"
     inkscape:current-layer="g788" /><rect
     style="fill:#d32f2f;stroke-width:3.78;stroke-opacity:0.940171;paint-order:fill markers stroke;fill-opacity:0.80000001"
     id="rect602"
     width="490.41107"
     height="490.41104"
     x="72.037773"
     y="83.120514"
     ry="41.17012" /><rect
     style="fill:#d32f2f;fill-opacity:0.80000001;stroke-width:3.78;stroke-opacity:0.940171;paint-order:fill markers stroke"
     id="rect602-4"
     width="490.41107"
     height="490.41104"
     x="152.04146"
     y="-16.06489"
     ry="41.17012"
     transform="rotate(16.491526)"
     inkscape:transform-center-x="-74.808468"
     inkscape:transform-center-y="-36.018892" /><path
     style="fill:#000000;fill-opacity:0.8;stroke-width:3.5839;stroke-opacity:0.940171;paint-order:fill markers stroke"
     d=""
     id="path986" /><path
     style="fill:#000000;fill-opacity:0.8;stroke-width:3.5839;stroke-opacity:0.940171;paint-order:fill markers stroke"
     d=""
     id="path988" /><path
     style="fill:#000000;fill-opacity:0.8;stroke-width:3.5839;stroke-opacity:0.940171;paint-order:fill markers stroke"
     d=""
     id="path990" /><path
     style="fill:#000000;fill-opacity:0.8;stroke-width:3.5839;stroke-opacity:0.940171;paint-order:fill markers stroke"
     d=""
     id="path992" /><path
     style="fill:#000000;fill-opacity:0.8;stroke-width:0.766591;stroke-opacity:0.940171;paint-order:fill markers stroke"
     d=""
     id="path1032" /><path
     style="fill:#000000;fill-opacity:0.8;stroke-width:0.766591;stroke-opacity:0.940171;paint-order:fill markers stroke"
     d=""
     id="path1034" /><path
     style="fill:#000000;fill-opacity:0.8;stroke-width:0.766591;stroke-opacity:0.940171;paint-order:fill markers stroke"
     d=""
     id="path1040" /><g
     id="g583"
     transform="matrix(0.60347479,0,0,0.60347479,124.20276,120.28801)"><path
       d="m 1739.0231,142.5804 c 19.9,12.82996 38.5401,30.01001 56,51.20001 v 32.39996 c -8.52,-2.89996 -41.04,-14.91998 -53.88,-33.92999 -14.8399,-21.96997 -17.48,-55.32001 -5.12,-63.66998 3.22,-2.17004 7.13,-2.44 11.42,-1.25 13.53,9.72998 26.47,21.52997 38.83,35.27997 4.38,6.73004 7.0901,15.29999 8.75,23.96002 v 0.40997 c -15.99,-22.25995 -34.79,-36.69995 -56,-44.39996 z"
       fill="#000000"
       id="path501" /><path
       d="m 1738.0231,-56.419598 c 19.9,12.82996 38.5401,30.01001 56,51.2000102 v 7.39996 c -1.6699,-0.57001 -4.25,-1.47998003 -7.4299,-2.72998003 -14.28,-16.92999017 -30.5601,-28.33002017 -48.5701,-34.87000017 12.6,8.12 24.7,17.98999 36.3101,29.5199602 -12.28,-5.9099702 -26.6401,-14.6699802 -34.1901,-25.8499802 -0.8,-1.17999 -1.56,-2.37 -2.2799,-3.57001 -12.7001,-21.08002 -13.5401,-44.20001 -1.8401,-52.09998 12.36,-8.35004 34.0301,3.47998 48.87,25.44 8.58,12.70996 10.99,32.42999 11.48,46.77997 -0.7899,1.04004 -1.5699,2.10004 -2.35,3.17999 -15.99,-22.25995 -34.79,-36.69995 -56,-44.39996 z"
       fill="#000000"
       id="path503" /><path
       d="m 1851.3032,61.785872 v 0.01 c -1.4201,3.92999 -3.2,7.89996 -5.3201,11.81 -3.1499,5.82001 -7.99,11.21997 -13.47,16.04999 -5.87,5.17999 -12.49,9.70001 -18.5801,13.369998 -8.5,5.13 -15.9699,8.60999 -18.9099,9.92999 v -3.14996 c 16.89,-20.100038 34.85,-36.480038 54,-48.820008 -20.3401,7.38 -38.4499,20.97998 -54,41.709958 V 88.805892 c 16.89,-20.10004 34.85,-36.48004 54,-48.82001 -20.3401,7.38 -38.4499,20.97998 -54,41.70996 v -13.88995 c 16.6699,-19.83002 34.37,-36.04004 53.24,-48.32001 8.8401,7.10999 9.61,24.26001 3.0401,42.29999 z"
       fill="#000000"
       id="path505" /><circle
       cx="1356.3385"
       cy="58.487118"
       r="143.68463"
       fill="#ff6884"
       id="circle507" /><rect
       x="1794.0231"
       y="-25.419605"
       width="2"
       height="348"
       fill="#3f3d56"
       id="rect541" /><path
       d="m 1240.0231,331.5804 c 19.9,12.82996 38.5401,30.01001 56,51.20001 v 32.39996 c -8.52,-2.89996 -41.04,-14.91998 -53.88,-33.92999 -14.8399,-21.96997 -17.48,-55.32001 -5.12,-63.66998 3.22,-2.17004 7.13,-2.44 11.42,-1.25 13.53,9.72998 26.47,21.52997 38.83,35.27997 4.38,6.73004 7.0901,15.29999 8.75,23.96002 v 0.40997 c -15.99,-22.25995 -34.79,-36.69995 -56,-44.39996 z"
       fill="#000000"
       id="path543" /><path
       d="m 1239.0231,132.5804 c 19.9,12.82996 38.5401,30.01001 56,51.20001 v 7.39996 c -1.6699,-0.57001 -4.25,-1.47998 -7.4299,-2.72998 -14.28,-16.92999 -30.5601,-28.33002 -48.5701,-34.87 12.6,8.12 24.7,17.98999 36.3101,29.51996 -12.28,-5.90997 -26.6401,-14.66998 -34.1901,-25.84998 -0.8,-1.17999 -1.56,-2.37 -2.2799,-3.57001 -12.7001,-21.08002 -13.5401,-44.20001 -1.8401,-52.09998 12.36,-8.350038 34.0301,3.47998 48.87,25.44 8.58,12.70996 10.99,32.42999 11.48,46.77997 -0.7899,1.04004 -1.5699,2.10004 -2.35,3.17999 -15.99,-22.25995 -34.79,-36.69995 -56,-44.39996 z"
       fill="#000000"
       id="path545" /><path
       d="m 1352.3032,250.78587 v 0.01 c -1.4201,3.92999 -3.2,7.89996 -5.3201,11.81 -3.1499,5.82001 -7.99,11.21997 -13.47,16.04999 -5.87,5.17999 -12.49,9.70001 -18.5801,13.37 -8.5,5.13 -15.9699,8.60999 -18.9099,9.92999 v -3.14996 c 16.89,-20.10004 34.85,-36.48004 54,-48.82001 -20.3401,7.38 -38.4499,20.97998 -54,41.70996 v -13.88995 c 16.89,-20.10004 34.85,-36.48004 54,-48.82001 -20.3401,7.38 -38.4499,20.97998 -54,41.70996 v -13.88995 c 16.6699,-19.83002 34.37,-36.04004 53.24,-48.32001 8.8401,7.10999 9.61,24.26001 3.0401,42.29999 z"
       fill="#000000"
       id="path547" /><rect
       x="1295.0231"
       y="163.5804"
       width="2"
       height="348"
       fill="#3f3d56"
       id="rect549" /><g
       id="g788"
       transform="matrix(1.65707,0,0,1.65707,1105.9216,-211.80895)"><path
         d="m 770.96283,679.20736 v 0.89737 a 3.809,3.809 0 0 1 0,-0.89737 z"
         fill="#2f2e41"
         id="path693"
         transform="translate(-181,-130.99812)" /><path
         d="m 798.5576,524.13266 a 15.32366,15.32366 0 0 1 2.183,-0.424 q -1.26905,0.20681 -2.183,0.424 z"
         fill="#2f2e41"
         id="path695"
         transform="translate(-181,-130.99812)" /><path
         d="m 797.919,524.2954 c 0.19365,-0.0543 0.40921,-0.1086 0.63857,-0.16274 -0.21363,0.0556 -0.41908,0.0965 -0.63857,0.16274 z"
         fill="#2f2e41"
         id="path697"
         transform="translate(-181,-130.99812)" /><path
         d="M 810.43534,197.849"
         fill="#2f2e41"
         id="path715"
         transform="translate(-181,-130.99812)" /><path
         d="m 255.12401,266.61744 -1.26413,-98.4556 a 15.892964,15.892964 0 0 0 -15.89102,-15.64187 h -5e-5 a 15.892985,15.892985 0 0 0 -15.87061,16.73578 l 4.44842,102.23099 0.0845,62.23331 a 13.868906,13.868906 0 1 0 17.0273,5.18575 z"
         fill="#ffb6b6"
         id="path733"
         style="stroke-width:0.685849" /><path
         d="m 340.75856,393.99563 c 0,0 -1.95467,35.16349 -2.85313,55.21772 h -67.30924 c -1.38542,-18.25045 -1.85179,-31.6588 -1.85179,-31.6588 l -3.68301,31.6588 h -68.03624 l -4.21798,-58.63325 20.38344,-50.52651 c 0,0 110.46287,-7.66093 120.70946,2.05755 10.23973,9.71167 6.85849,51.88449 6.85849,51.88449 z"
         fill="#2f2e41"
         id="path735"
         style="stroke-width:0.685849" /><circle
         cx="281.23782"
         cy="61.43082"
         r="36.766262"
         fill="#ffb6b6"
         id="circle737"
         style="stroke-width:0.685849" /><path
         d="m 324.09258,49.484074 c -3.77639,1.72195 -6.22327,14.19326 -9.19148,11.29394 -2.9682,-2.89931 -2.7701,-6.67235 -6.77183,-7.74234 -3.23161,-0.86776 -6.70934,0.12398 -9.65701,1.6881 -0.52632,0.27599 -1.03658,0.57608 -1.5339,0.87452 -0.32828,-0.21934 -0.65499,-0.42573 -1.00572,-0.61614 a 11.682165,11.682165 0 0 0 -8.59822,-0.96715 11.462323,11.462323 0 0 1 5.66416,4.17491 c -0.98653,0.66111 -1.98583,1.32394 -3.00792,1.91124 -8.53892,4.92767 -20.68948,-5.78735 -29.67754,-9.81272 5.62986,10.56482 2.85771,14.9402 -2.03061,25.86648 l -0.1688,0.62216 c 0.2777,-2.73844 -8.19619,-4.77924 -7.7048,-0.92433 0.34889,2.73698 2.71749,8.82058 4.04412,11.2371 -9.44991,-10.92676 -15.9077,-24.29811 -14.54503,-38.09179 0.29663,-2.89761 0.20723,-5.95493 1.70178,-8.46989 1.49613,-2.50198 4.61529,-4.25775 7.37475,-3.30366 a 24.376452,24.376452 0 0 1 36.69755,-22.30687 c 3.52854,2.07048 6.47431,4.9988 9.70831,7.52472 3.23407,2.52589 6.96218,4.72763 11.063,4.93616 2.60155,0.12547 5.43262,-0.50967 7.66761,0.83774 2.58902,1.56346 3.03235,4.83684 3.42087,7.98665 a 11.668977,11.668977 0 0 0 -6.28711,2.61651 11.418018,11.418018 0 0 1 6.87387,1.47436 0.71072495,0.71072495 0 0 1 0.11256,0.064 c 1.36879,5.20558 1.22857,6.35958 5.85139,9.1263 z"
         fill="#2f2e41"
         id="path739"
         style="stroke-width:0.685849" /><path
         d="m 197.18831,357.84118 c 31.30956,-36.64846 20.73413,-83.2623 8.30761,-130.31655 l 2.3645,-69.51337 a 21.264021,21.264021 0 0 1 9.62183,-17.0789 l 31.96304,-20.88141 12.44061,-17.987 34.29246,3.42924 19.0162,20.11047 21.04913,16.06935 a 34.870713,34.870713 0 0 1 12.88852,35.24585 l -20.14318,91.09484 c 0,0 8.42486,47.2243 3.28421,52.43982 -5.14066,5.21552 -18.38654,0.003 -7.88241,5.85744 12.60575,7.02619 24.06758,5.72968 17.6884,12.10885 -6.37917,6.37917 1.69422,15.24797 1.69422,15.24797 z"
         fill="#000000"
         id="path741"
         style="stroke-width:0.685849" /><path
         d="m 210.57474,411.10386 5.21967,-37.18719 -20.82742,-5.94569 -4.11964,39.51295 a 12.570765,12.570765 0 1 0 19.72739,3.61991 z"
         fill="#ffb6b6"
         id="path743"
         style="stroke-width:0.685849" /><path
         d="m 250.22647,126.75452 c 0,0 -59.28371,19.29488 -60.69731,33.41274 -1.41361,14.11785 -0.94481,22.76035 -7.20176,79.25386 l 0.32962,152.17841 c 0,0 39.74614,8.50969 35.66999,-0.5888 -4.07615,-9.09849 -2.65388,-13.37915 -2.65388,-13.37915 0,0 8.52162,-3.3628 6.38847,-14.04583 -2.13315,-10.68303 8.56431,-63.6247 8.56431,-63.6247 l 6.75186,-94.94818 z"
         fill="#000000"
         id="path745"
         style="stroke-width:0.685849" /><path
         d="m 323.32463,409.13447 -2.77777,-37.44884 21.17153,-4.57159 1.52807,39.69773 a 12.570765,12.570765 0 1 1 -19.92186,2.3227 z"
         fill="#ffb6b6"
         id="path747"
         style="stroke-width:0.685849" /><path
         d="m 302.3442,122.80138 c 0,0 57.89572,23.1287 58.38348,37.30877 0.48776,14.18007 -0.54495,22.77343 2.00593,79.55511 l -10.27608,151.83142 c 0,0 -40.21738,5.8935 -35.55522,-2.91911 4.66217,-8.81262 3.52273,-13.17707 3.52273,-13.17707 0,0 -8.28358,-3.91262 -5.4567,-14.43338 2.82688,-10.52075 -4.38714,-64.04843 -4.38714,-64.04843 l -0.53113,-95.18646 z"
         fill="#000000"
         id="path749"
         style="stroke-width:0.685849" /><g
         id="g665"
         transform="matrix(0.64355403,0,0,0.64355403,-707.4381,143.36421)"><path
           d="m 948.01805,354.635 q 1.25976,4.92 2.36035,9.89 H 700.64793 v -9.89 z"
           transform="translate(-242.35207,-147.91501)"
           fill="#e6e6e6"
           id="path443" /><path
           d="m 940.05813,328.565 a 305.61151,305.61151 0 0 0 -14.04,-33.26 q -2.46,-4.995 -5.11,-9.89 c -0.29,-0.56 -0.6,-1.12 -0.91,-1.68 v 73.6 h 21.58 v -24.39 z"
           transform="translate(-242.35207,-147.91501)"
           fill="#e6e6e6"
           id="path445" /><path
           d="m 926.01805,295.305 h -6.02 v -9.89 h 0.91016 q 2.65501,4.89 5.10984,9.89 z"
           transform="translate(-242.35207,-147.91501)"
           fill="#cccccc"
           id="path447" /><polygon
           points="697.706,180.65 677.646,180.65 677.646,190.54 699.226,190.54 699.226,185.03 "
           fill="#cccccc"
           id="polygon449" /><rect
           x="644.38464"
           y="124.017"
           width="21.575741"
           height="85.404099"
           fill="#e6e6e6"
           id="rect451" /><rect
           x="644.38464"
           y="137.50186"
           width="21.575741"
           height="9.8888998"
           fill="#cccccc"
           id="rect453" /><rect
           x="644.38464"
           y="180.65341"
           width="21.575741"
           height="9.8888998"
           fill="#cccccc"
           id="rect455" /><path
           d="m 809.918,271.435 h -77.3999 a 4.50681,4.50681 0 0 0 -4.5,4.5 v 77.4 a 4.65641,4.65641 0 0 0 0.18994,1.3 4.50994,4.50994 0 0 0 4.31006,3.2 h 77.3999 a 4.50948,4.50948 0 0 0 4.31006,-3.2 4.63848,4.63848 0 0 0 0.18994,-1.3 v -77.4 a 4.50681,4.50681 0 0 0 -4.5,-4.5 z"
           transform="translate(-242.35207,-147.91501)"
           fill="#e6e6e6"
           id="path457" /><path
           d="m 804.418,276.935 h -66.3999 a 4.50681,4.50681 0 0 0 -4.5,4.5 v 66.4 a 4.50681,4.50681 0 0 0 4.5,4.5 h 66.3999 a 4.50681,4.50681 0 0 0 4.5,-4.5 v -66.4 a 4.50681,4.50681 0 0 0 -4.5,-4.5 z"
           transform="translate(-242.35207,-147.91501)"
           fill="#ffffff"
           id="path459" /><path
           d="m 792.83836,288.515 h -43.24023 a 4.50681,4.50681 0 0 0 -4.5,4.5 v 43.24 a 4.50676,4.50676 0 0 0 4.5,4.5 h 43.24023 a 4.52349,4.52349 0 0 0 4.5,-4.5 v -43.24 a 4.50681,4.50681 0 0 0 -4.5,-4.5 z"
           transform="translate(-242.35207,-147.91501)"
           fill="#cccccc"
           id="path461" /><path
           d="m 790.17235,328.62827 -9.13281,-15.819 a 2.00023,2.00023 0 0 0 -3.46436,0 l -6.66895,11.55108 -8.74609,-15.14728 a 1.99984,1.99984 0 0 0 -3.46387,7e-5 l -9.1333,15.81909 -10.86474,18.819 h 20.95507 l -2.07617,3.596 h 43.46094 z"
           transform="translate(-242.35207,-147.91501)"
           fill="#ffffff"
           id="path463" /><circle
           cx="544.59674"
           cy="150.08772"
           r="6.2929201"
           fill="#ffffff"
           id="circle465" /><path
           d="m 957.56834,424.515 q -0.10547,-5.82 -0.46045,-11.58 c -0.0996,-1.84 -0.21972,-3.67 -0.36962,-5.5 h -42.22022 a 4.50681,4.50681 0 0 0 -4.5,4.5 v 77.4 a 4.08953,4.08953 0 0 0 0.12988,1.05 4.50432,4.50432 0 0 0 4.37012,3.45 H 953.438 c 0.2002,-1.14 0.39014,-2.3 0.56006,-3.45 0.10986,-0.68 0.22022,-1.37 0.32031,-2.05 0.23975,-1.63 0.46973,-3.26 0.67969,-4.89 q 0.45043,-3.33 0.81006,-6.69 1.31982,-12.04494 1.7002,-24.35 v -0.01 q 0.13476,-4.635 0.13964,-9.31 v -12 c -3e-5,-2.2 -0.0196,-4.39 -0.0796,-6.57 z"
           transform="translate(-242.35207,-147.91501)"
           fill="#e6e6e6"
           id="path467" /><path
           d="m 957.56834,424.515 q -0.10547,-5.82 -0.46045,-11.58 h -37.08984 a 4.50681,4.50681 0 0 0 -4.5,4.5 v 66.4 a 4.50681,4.50681 0 0 0 4.5,4.5 h 34.30029 c 0.23975,-1.63 0.46973,-3.26 0.67969,-4.89 q 0.45043,-3.33 0.81006,-6.69 1.31982,-12.04494 1.7002,-24.35 v -0.01 q 0.13476,-4.635 0.13964,-9.31 v -12 c 0,-2.2 -0.0195,-4.39 -0.0796,-6.57 z"
           transform="translate(-242.35207,-147.91501)"
           fill="#ffffff"
           id="path469" /><path
           d="m 957.56834,424.515 h -25.97021 a 4.50681,4.50681 0 0 0 -4.5,4.5 v 43.24 a 4.50676,4.50676 0 0 0 4.5,4.5 h 24.21 q 1.31982,-12.04494 1.7002,-24.35 v -0.01 q 0.13476,-4.635 0.13964,-9.31 v -12 c -4e-5,-2.2 -0.0196,-4.39 -0.0796,-6.57 z"
           transform="translate(-242.35207,-147.91501)"
           fill="#cccccc"
           id="path471" /><path
           d="m 957.50829,452.405 q -0.375,12.3 -1.7002,24.35 -0.35962,3.36 -0.81006,6.69 h -15.41992 l 2.08008,-3.59 h -20.96 l 6.3999,-11.09 4.46,-7.73 9.14014,-15.82 a 1.99145,1.99145 0 0 1 3.46,0 l 8.75,15.15 z"
           transform="translate(-242.35207,-147.91501)"
           fill="#ffffff"
           id="path473" /><path
           d="M 881.73827,228.785 H 700.64793 v -9.89 h 172.11036 q 4.59008,4.845 8.97998,9.89 z"
           transform="translate(-242.35207,-147.91501)"
           fill="#e6e6e6"
           id="path475" /><path
           d="m 796.83836,160.195 q 11.06984,6.09 21.57959,13.05 v 48.34 h -21.57959 z"
           transform="translate(-242.35207,-147.91501)"
           fill="#e6e6e6"
           id="path477" /><rect
           x="554.48566"
           y="44.905819"
           width="21.575741"
           height="9.8888998"
           fill="#cccccc"
           id="rect479" /><path
           d="m 851.67821,198.645 v 22.94 h -21.58008 v -40.21 q 7.54541,5.50506 14.75,11.45 3.4497,2.85 6.83008,5.82 z"
           transform="translate(-242.35207,-147.91501)"
           fill="#e6e6e6"
           id="path481" /><path
           d="m 851.67821,198.645 v 4.06 h -21.58008 v -9.88 h 14.75 q 3.4497,2.85 6.83008,5.82 z"
           transform="translate(-242.35207,-147.91501)"
           fill="#cccccc"
           id="path483" /><path
           d="m 774.80809,149.175 q 8.56494,3.85491 16.83984,8.22 l -4.43994,8.96 -14.75,29.81 -4.38965,8.86 -6.87011,13.87 -1.51026,3.05 -6.1499,-3.05 -13.18018,-6.53 8.37012,-16.92 h 0.0103 l 4.37988,-8.86 14.76025,-29.81 4.33985,-8.76 0.0498,-0.1 z"
           transform="translate(-242.35207,-147.91501)"
           fill="#e6e6e6"
           id="path485" /><polygon
           points="532.456,1.26 549.246,9.57 544.856,18.44 525.526,8.86 529.866,0.1 529.916,0 "
           fill="#cccccc"
           id="polygon487" /><rect
           x="755.64819"
           y="185.01746"
           width="9.8888998"
           height="21.575741"
           transform="rotate(-63.6604,520.27564,317.05494)"
           fill="#cccccc"
           id="rect489" /><path
           d="m 953.998,490.385 c -0.16992,1.15 -0.35986,2.31 -0.56006,3.45 -0.34961,2.16 -0.73,4.3 -1.13965,6.44 H 700.64793 v -9.89 z"
           transform="translate(-242.35207,-147.91501)"
           fill="#e6e6e6"
           id="path491" /><rect
           x="554.48566"
           y="259.76453"
           width="21.575741"
           height="85.404114"
           fill="#e6e6e6"
           id="rect493" /><rect
           x="554.48566"
           y="273.24942"
           width="21.575741"
           height="9.8888903"
           fill="#cccccc"
           id="rect495" /><rect
           x="554.48566"
           y="316.40097"
           width="21.575741"
           height="9.8888903"
           fill="#cccccc"
           id="rect497" /><rect
           x="587.74829"
           y="259.76453"
           width="21.575741"
           height="85.404114"
           fill="#e6e6e6"
           id="rect499" /><rect
           x="587.74829"
           y="273.24942"
           width="21.575741"
           height="9.8888903"
           fill="#cccccc"
           id="rect501" /><rect
           x="587.74829"
           y="316.40097"
           width="21.575741"
           height="9.8888903"
           fill="#cccccc"
           id="rect503" /><rect
           x="726.26691"
           y="439.59375"
           width="85.404114"
           height="21.575741"
           transform="rotate(-63.6604,528.65196,571.63124)"
           fill="#e6e6e6"
           id="rect505" /><rect
           x="774.79413"
           y="417.84109"
           width="9.8888903"
           height="21.575741"
           transform="rotate(-63.6604,539.42153,549.87857)"
           fill="#cccccc"
           id="rect507" /><rect
           x="755.64819"
           y="456.51257"
           width="9.8888903"
           height="21.575741"
           transform="rotate(-63.6604,520.27561,588.55007)"
           fill="#cccccc"
           id="rect509" /><path
           d="m 535.15014,528.49686 a 19.79134,19.79134 0 0 1 2.57027,1.762 l 89.02874,-27.70586 5.02034,-22.08811 34.32513,3.21966 -5.08744,39.96635 a 15.0408,15.0408 0 0 1 -12.56839,12.95649 l -104.77312,16.58798 a 19.73558,19.73558 0 1 1 -8.51553,-24.69851 z"
           transform="translate(-242.35207,-147.91501)"
           fill="#ffb8b8"
           id="path511" /><path
           d="m 681.958,496.935 -0.58984,-10.08 v -0.01 l -0.16016,-2.76 -1.73974,-29.68 a 23.47273,23.47273 0 0 0 -21.33008,-25.35 23.14957,23.14957 0 0 0 -5.33985,0.14 23.54326,23.54326 0 0 0 -20.15039,21.18 l -3.60986,15.02 -6.31006,26.27 a 8.41756,8.41756 0 0 0 4.34033,9.48 8.27547,8.27547 0 0 0 3.12989,0.92 l 10.52,0.94 10.12988,0.9 11.68994,1.04 0.84033,0.07 2.15967,0.2 7.23,0.64 h 0.02 a 8.56288,8.56288 0 0 0 6.62012,-2.36005 8.58059,8.58059 0 0 0 1.58984,-2.12 8.24536,8.24536 0 0 0 0.96,-4.44 z"
           transform="translate(-242.35207,-147.91501)"
           fill="#d32f2f"
           id="path513" /><path
           d="m 779.65374,374.70751 c 0,34.22533 -31.64676,29.04864 -70.685,29.04864 -39.03824,0 -70.685,5.17669 -70.685,-29.04864 0,-34.22533 15.45864,-94.89222 70.685,-94.89222 57.12897,0 70.685,60.6669 70.685,94.89222 z"
           transform="translate(-242.35207,-147.91501)"
           fill="#2f2e41"
           id="path515" /><circle
           cx="708.73236"
           cy="356.13467"
           r="47.564289"
           transform="rotate(-45,409.00713,574.722)"
           fill="#ffb8b8"
           id="circle517" /><path
           d="m 775.688,423.695 a 29.37016,29.37016 0 0 0 -2.90967,-2.46 30.91983,30.91983 0 0 0 -22.63037,-5.99006 l -87.6499,11.09 a 31.11934,31.11934 0 0 0 -27.1499,33.78 c 0.25,2.8 0.53027,5.75 0.83984,8.82 0.40039,3.85 0.8501,7.89 1.37012,12.07 0.85986,7.03 1.91016,14.45 3.16016,22 1.08984,6.5 2.33007,13.09 3.75,19.6 q 0.61523,2.82 1.27978,5.62 a 0.03607,0.03607 0 0 0 0.0103,0.03 c 0.0498,0.23005 0.0996,0.46 0.15966,0.68 a 0.07353,0.07353 0 0 0 0.0103,0.05 q 0.93016,3.9 1.95019,7.71 c 0.25977,0.94 0.50977,1.87 0.76953,2.79 0.7002,2.5 1.44043,4.95 2.2002,7.36 5.71,17.93 13.25976,33.2 23.23,41.32 0.12988,0.12 0.26025,0.22 0.3999,0.32995 l 0.40039,0.31 0.57959,-0.18 2.46,-0.73 2.1001,-0.64 27.36035,-8.23 6.80957,-2.05 21.88037,-6.59 h 0.01 l 20.01025,-6.02 2.43994,-0.74 17.19,-5.17 0.5498,-6.42 0.74024,-8.52 0.43994,-5.12 3.48,-40.38 2.02978,-23.56 2.2002,-25.58 A 31.07666,31.07666 0 0 0 775.688,423.695 Z"
           transform="translate(-242.35207,-147.91501)"
           fill="#2f2e41"
           id="path519" /><path
           d="m 824.69823,619.085 c -0.23,-0.67 -0.4502,-1.34 -0.68018,-2 -10.27978,-30 -25.43994,-52.69 -47.75,-65.05 -0.01,0 -0.01,-0.01 -0.02,-0.01 l -0.37988,-0.21 -19.43994,6.73 -2.39991,0.83 -2.5,0.87 -0.0303,0.01 -18.19971,6.3 -0.0303,0.01 -14.27978,4.94 h -0.0103 l -13.21,4.57 h -0.01 l -3.07032,1.07 -23.08984,7.99 -2.68018,0.93 -2.3999,0.83 -0.37012,0.13 -0.0698,1.14 -1.6499,28.92 -0.10987,2 -2.06005,36.09 -68.41016,96.91 h 46.7998 a 308.16253,308.16253 0 0 0 46.84034,-3.57 l 43.90966,-47.32 a 2.9075,2.9075 0 0 1 4.94043,1.44 l 6.44971,32 a 309.22958,309.22958 0 0 0 88,-48.42 c -3.08002,-24.85 -7.58002,-47.5 -14.08979,-67.13 z"
           transform="translate(-242.35207,-147.91501)"
           fill="#2f2e41"
           id="path521" /><path
           d="m 653.77631,351.46855 v 0 h 18.81259 l 8.29947,-23.23891 1.65952,23.23891 h 8.99165 l 4.84144,-13.556 0.96829,13.556 h 66.81187 v 0 a 50.35092,50.35092 0 0 0 -50.35093,-50.35092 h -9.683 a 50.35092,50.35092 0 0 0 -50.3509,50.35092 z"
           transform="translate(-242.35207,-147.91501)"
           fill="#2f2e41"
           id="path523" /><path
           d="m 538.06146,603.47244 a 22.78775,22.78775 0 0 1 -31.05941,-16.00863 l -80.46558,-9.11312 26.973,-32.30021 72.27622,13.606 a 22.91124,22.91124 0 0 1 12.27573,43.816 z"
           transform="translate(-242.35207,-147.91501)"
           fill="#a0616a"
           id="path525" /><path
           d="m 494.67821,543.685 -34.01026,-6.08 -2.46972,-0.44 a 14.21295,14.21295 0 0 1 -11.10987,-18.09 l 16.69971,-55.49 0.5,-1.65 a 32.46828,32.46828 0 0 0 -15.23,-37.51 32.27694,32.27694 0 0 0 -47.02,20.54 l -21.2998,86.93 -0.79,3.22 a 43.43889,43.43889 0 0 0 38.16992,53.6 c 0.0698,0.01 0.12988,0.01 0.20019,0.02 l 12.75,1.13 16.53955,1.47 20.8003,1.85 19.41015,1.73 a 10.17352,10.17352 0 0 0 10.94,-8.38 c 0.0298,-0.14 0.0498,-0.28 0.0698,-0.42 l 4.12012,-30.76 0.04,-0.28 a 10.17007,10.17007 0 0 0 -8.31011,-11.39 z"
           transform="translate(-242.35207,-147.91501)"
           fill="#cccccc"
           id="path527" /><path
           d="m 442.27994,310.61657 c -13.57683,26.69293 -24.277,54.22413 -54.22412,54.22413 a 54.22413,54.22413 0 0 1 -54.22413,-54.22413 c 0,-29.94715 24.27906,-53.84919 54.22413,-54.22412 30.43488,-0.38108 79.49418,4.54055 54.22412,54.22412 z"
           transform="translate(-242.35207,-147.91501)"
           fill="#2f2e41"
           id="path529" /><path
           d="m 476.33836,659.815 -1.23047,-12.28 -0.91992,0.05 -161.68997,7.79 0.41992,12.43 0.71045,21.29 a 308.81037,308.81037 0 0 0 82.38965,44.85 l 1.05029,-8.14 a 2.90385,2.90385 0 0 1 5.67969,-0.36 l 3.18994,11.89 a 305.31881,305.31881 0 0 0 79.59033,14.41 z"
           transform="translate(-242.35207,-147.91501)"
           fill="#2f2e41"
           id="path531" /><circle
           cx="390.72433"
           cy="318.33237"
           r="47.564301"
           transform="rotate(-45,90.999084,536.91971)"
           fill="#a0616a"
           id="circle533" /><path
           d="m 485.6284,648.365 -9.43017,-29.28 -0.16016,-0.5 -0.48,-1.5 -2.68994,-8.34 c -0.87012,-2.71 -1.7002,-5.43 -2.47022,-8.16 q -1.06494,-3.69 -1.98974,-7.4 -1.31984,-5.16 -2.3999,-10.36 a 256.72524,256.72524 0 0 1 -4.87012,-35.33 q -0.33033,-4.935 -0.47022,-9.88995 a 255.64018,255.64018 0 0 1 5.43018,-60.31 81.78628,81.78628 0 0 0 -40.33984,-88.57 80.416,80.416 0 0 0 -32.64014,-9.79 c -0.79,-0.06 -1.58008,-0.11 -2.37988,-0.16 a 80.96226,80.96226 0 0 0 -64.94,26.26 82.57424,82.57424 0 0 0 -11.32031,15.68 81.446,81.446 0 0 0 -9.31982,51.69 l 11.23974,75.47 -2.55957,31.77 -3.02,37.44 -0.16015,2 -3.22022,39.92 a 8.69417,8.69417 0 0 0 5.48,8.8 8.50982,8.50982 0 0 0 3.2002,0.61005 c 0.16015,0 0.31006,0 0.47021,-0.01 l 159.75,-8.59 1.46,-0.08 a 8.70416,8.70416 0 0 0 7.83008,-11.37 z"
           transform="translate(-242.35207,-147.91501)"
           fill="#cccccc"
           id="path535" /><path
           d="m 441.1975,291.45155 a 64.691,64.691 0 0 1 -36.97056,11.42551 39.64324,39.64324 0 0 0 15.71262,6.4643 130.44529,130.44529 0 0 1 -53.28286,0.29939 34.48533,34.48533 0 0 1 -11.15425,-3.831 c -3.37787,-2.05046 -6.20359,-5.31552 -6.88493,-9.20785 -1.169,-6.67831 4.03481,-12.74571 9.44275,-16.8348 a 69.6535,69.6535 0 0 1 58.532,-11.69631 c 6.5384,1.6901 13.08839,4.54566 17.33526,9.79648 4.24687,5.25082 5.50486,13.34591 1.45867,18.75289 z"
           transform="translate(-242.35207,-147.91501)"
           fill="#2f2e41"
           id="path537" /><path
           d="m 443.62927,593.57759 a 22.78777,22.78777 0 0 1 -31.39874,-15.33241 l -80.644,-7.36881 26.26738,-32.87663 72.55386,12.03789 a 22.91125,22.91125 0 0 1 13.22153,43.54 z"
           transform="translate(-242.35207,-147.91501)"
           fill="#a0616a"
           id="path539" /><path
           d="m 398.96825,534.745 -18.23,-2.85 -18.39014,-2.88 a 14.211,14.211 0 0 1 -11.5,-17.84 l 15.96,-57.5 a 32.4688,32.4688 0 0 0 -16.04,-37.17005 31.98313,31.98313 0 0 0 -28.60986,-0.75 32.07774,32.07774 0 0 0 -17.9502,22.29 l -20.12988,90.61 a 43.46415,43.46415 0 0 0 39.51025,52.78 l 69.62989,4.67 A 10.18509,10.18509 0 0 0 403.978,577.495 c 0.0303,-0.13995 0.04,-0.28 0.0601,-0.42 l 3.4502,-30.84 0.0298,-0.28 a 10.17894,10.17894 0 0 0 -8.54979,-11.21 z"
           transform="translate(-242.35207,-147.91501)"
           fill="#cccccc"
           id="path541" /><path
           d="m 707.44512,486.94456 -4.173,2.27685 -51.41162,28.05132 -4.173,2.27685 a 8.71537,8.71537 0 0 0 -3.47236,11.8117 l 38.28506,70.16778 a 8.71535,8.71535 0 0 0 11.81168,3.47238 l 0.0108,-0.006 59.736,-32.59327 0.0108,-0.006 a 8.71535,8.71535 0 0 0 3.47237,-11.81168 L 719.2568,490.417 a 8.71535,8.71535 0 0 0 -11.81168,-3.47244 z"
           transform="translate(-242.35207,-147.91501)"
           fill="#e6e6e6"
           id="path543-9" /><path
           d="m 708.64555,489.14449 -4.94258,2.69678 -49.87257,27.21156 -4.9425,2.69673 a 6.2064,6.2064 0 0 0 -2.47276,8.41138 l 38.28506,70.16778 a 6.20638,6.20638 0 0 0 8.41137,2.47274 l 0.0108,-0.006 59.736,-32.59326 0.0109,-0.006 a 6.20637,6.20637 0 0 0 2.4727,-8.41132 L 717.0569,491.6171 a 6.20638,6.20638 0 0 0 -8.41128,-2.4728 z"
           transform="translate(-242.35207,-147.91501)"
           fill="#ffffff"
           id="path545-3" /><path
           d="m 710.04832,508.955 a 1.45948,1.45948 0 0 0 -1.97021,-0.58 l -1.98975,1.09 -20.29,11.07 a 1.45206,1.45206 0 0 0 1.38965,2.55 l 22.28028,-12.16 a 1.45963,1.45963 0 0 0 0.58003,-1.97 z"
           transform="translate(-242.35207,-147.91501)"
           fill="#e6e6e6"
           id="path547-8" /><path
           d="m 717.63817,510.385 a 1.43548,1.43548 0 0 0 -1.96,-0.57 l -27.53028,15.02 a 1.4477646,1.4477646 0 1 0 1.39014,2.54 l 1.28027,-0.69995 8.00977,-4.37006 h 0.0102 l 18.21973,-9.95 a 1.43939,1.43939 0 0 0 0.58012,-1.96999 z"
           transform="translate(-242.35207,-147.91501)"
           fill="#e6e6e6"
           id="path549" /><path
           d="m 687.71825,534.325 -8.74024,-16.03 a 0.70192,0.70192 0 0 0 -0.94971,-0.27 l -4.24023,2.31 -2.19971,1.2 -11.81006,6.44 -2.29,1.25 a 0.70222,0.70222 0 0 0 -0.27,0.95 l 0.56,1.03 8.17969,15 a 0.69309,0.69309 0 0 0 0.93994,0.27 l 14.1001,-7.69 2.2002,-1.2 4.23974,-2.31 a 0.69677,0.69677 0 0 0 0.28028,-0.95 z"
           transform="translate(-242.35207,-147.91501)"
           fill="#e6e6e6"
           id="path551" /><path
           d="m 721.09813,529.295 a 1.44744,1.44744 0 0 0 -1.96,-0.58 l -30.22013,16.49 a 1.44975,1.44975 0 0 0 -0.73,1.53 1.21141,1.21141 0 0 0 0.15039,0.44 1.47285,1.47285 0 0 0 0.29,0.37 l 0.01,0.01 a 1.462,1.462 0 0 0 1.66992,0.2 l 30.22021,-16.49 a 1.44715,1.44715 0 0 0 0.56984,-1.97 z"
           transform="translate(-242.35207,-147.91501)"
           fill="#e6e6e6"
           id="path553" /><path
           d="m 728.69823,530.725 a 1.44981,1.44981 0 0 0 -1.97022,-0.57 l -35.46972,19.35 a 1.41479,1.41479 0 0 0 -0.73,1.51 v 0.01 a 1.20984,1.20984 0 0 0 0.14991,0.44 1.39909,1.39909 0 0 0 0.2998,0.38 1.42971,1.42971 0 0 0 1.66992,0.2 l 35.47022,-19.35 a 1.45655,1.45655 0 0 0 0.58009,-1.97 z"
           transform="translate(-242.35207,-147.91501)"
           fill="#e6e6e6"
           id="path555" /><circle
           cx="436.44409"
           cy="407.19055"
           r="6.1504102"
           fill="#e6e6e6"
           id="circle557" /><path
           d="m 725.44512,459.94456 -4.173,2.27685 -51.41162,28.05132 -4.173,2.27685 a 8.71537,8.71537 0 0 0 -3.47236,11.8117 l 38.28506,70.16778 a 8.71535,8.71535 0 0 0 11.81168,3.47238 l 0.0108,-0.006 59.736,-32.59327 0.0108,-0.006 a 8.71535,8.71535 0 0 0 3.47237,-11.81168 L 737.2568,463.417 a 8.71535,8.71535 0 0 0 -11.81168,-3.47244 z"
           transform="translate(-242.35207,-147.91501)"
           fill="#cccccc"
           id="path559" /><path
           d="m 726.64555,462.14449 -4.94258,2.69678 -49.87257,27.21156 -4.9425,2.69673 a 6.2064,6.2064 0 0 0 -2.47276,8.41138 l 38.28506,70.16778 a 6.20638,6.20638 0 0 0 8.41137,2.47274 l 0.0108,-0.006 59.736,-32.59326 0.0109,-0.006 a 6.20637,6.20637 0 0 0 2.4727,-8.41132 L 735.0569,464.6171 a 6.20638,6.20638 0 0 0 -8.41128,-2.4728 z"
           transform="translate(-242.35207,-147.91501)"
           fill="#ffffff"
           id="path561" /><path
           d="m 728.04832,481.955 a 1.45948,1.45948 0 0 0 -1.97021,-0.58 l -10.25977,5.6 -2.86035,1.56 -9.15967,5 a 1.45206,1.45206 0 0 0 1.38965,2.55 l 10.8003,-5.89 2.25976,-1.24 9.22022,-5.03 a 1.45963,1.45963 0 0 0 0.58007,-1.97 z"
           transform="translate(-242.35207,-147.91501)"
           fill="#cccccc"
           id="path563" /><path
           d="m 735.63817,483.385 a 1.43548,1.43548 0 0 0 -1.96,-0.57 l -14.31006,7.81 -2.2002,1.2 -11.02,6.01 a 1.4477646,1.4477646 0 1 0 1.39014,2.54 l 11.02,-6.01 2.2002,-1.2 14.2998,-7.81 a 1.43939,1.43939 0 0 0 0.58012,-1.97 z"
           transform="translate(-242.35207,-147.91501)"
           fill="#cccccc"
           id="path565" /><path
           d="m 705.71825,507.325 -6.97022,-12.78 -1.19971,-2.2 -0.57031,-1.05 a 0.70192,0.70192 0 0 0 -0.94971,-0.27 l -14.1499,7.72 -6.39013,3.48005 a 0.70222,0.70222 0 0 0 -0.27,0.95 l 0.56982,1.04 0.62012,1.15 0.58008,1.05 v 0.01 l 6.96972,12.78 a 0.69309,0.69309 0 0 0 0.93994,0.27 l 20.54,-11.2 a 0.69677,0.69677 0 0 0 0.2803,-0.95005 z"
           transform="translate(-242.35207,-147.91501)"
           fill="#d32f2f"
           id="path567" /><path
           d="m 739.09813,502.295 a 1.44744,1.44744 0 0 0 -1.96,-0.58 l -9.03028,4.93 -2.1997,1.2 -8.72022,4.75 -10.27,5.61 a 1.4521526,1.4521526 0 0 0 1.39014,2.55 l 18.99023,-10.36 2.19971,-1.2 9.03027,-4.93 a 1.44715,1.44715 0 0 0 0.56985,-1.97 z"
           transform="translate(-242.35207,-147.91501)"
           fill="#cccccc"
           id="path569" /><path
           d="m 746.69823,503.725 a 1.44981,1.44981 0 0 0 -1.97022,-0.57 l -14.27,7.79 -2.1997,1.2 -19,10.36 a 1.44766,1.44766 0 1 0 1.38964,2.54 l 18.99024,-10.36 2.20019,-1.2 14.27979,-7.79 a 1.45655,1.45655 0 0 0 0.58006,-1.97 z"
           transform="translate(-242.35207,-147.91501)"
           fill="#cccccc"
           id="path571" /><circle
           cx="454.44409"
           cy="380.19055"
           r="6.1504102"
           fill="#cccccc"
           id="circle573" /><path
           d="m 700.92771,562.68332 a 19.79115,19.79115 0 0 1 3.06756,0.54874 l 69.75009,-61.87614 -4.5103,-22.19787 32.61085,-11.18542 11.80356,38.521 a 15.04079,15.04079 0 0 1 -6.12594,16.97964 l -88.67413,58.2191 a 19.73558,19.73558 0 1 1 -17.92169,-19.009 z"
           transform="translate(-242.35207,-147.91501)"
           fill="#ffb8b8"
           id="path575" /><path
           d="M 821.75829,473.515 801.998,435.775 a 23.47654,23.47654 0 0 0 -29.21973,-14.54 c -0.22021,0.06 -0.43017,0.13 -0.6499,0.21 a 23.52681,23.52681 0 0 0 -14.46045,29.93 l 7.93018,41.71 a 8.44646,8.44646 0 0 0 4.08008,5.74 8.25123,8.25123 0 0 0 3.77978,1.12 8.13863,8.13863 0 0 0 3.23,-0.45 l 4.24024,-1.48 27.21972,-9.48 8.90039,-3.1 a 8.47065,8.47065 0 0 0 4.71,-11.92 z"
           transform="translate(-242.35207,-147.91501)"
           fill="#d32f2f"
           id="path577" /><path
           d="m 896.35207,619.085 h -653 a 1,1 0 0 1 0,-2 h 653 a 1,1 0 0 1 0,2 z"
           transform="translate(-242.35207,-147.91501)"
           fill="#3f3d56"
           id="path579" /><path
           d="m 355.84813,600.585 v 0.5 a 17.5147,17.5147 0 0 0 10.43017,16 17.23214,17.23214 0 0 0 7.06983,1.5 h 161.5 v -18 z"
           transform="translate(-242.35207,-147.91501)"
           fill="#3f3d56"
           id="path581" /><path
           d="m 647.60789,481.955 a 32.59279,32.59279 0 0 0 -11.41992,-13.02 31.97294,31.97294 0 0 0 -7.1499,-3.54 32.37532,32.37532 0 0 0 -10.68994,-1.81 h -155 a 32.53759,32.53759 0 0 0 -32.5,32.5 v 90 a 31.37346,31.37346 0 0 0 0.22021,3.78 32.78466,32.78466 0 0 0 1.13965,5.54 31.94021,31.94021 0 0 0 2.06006,5.18 32.46476,32.46476 0 0 0 29.08008,18 h 155 a 32.48771,32.48771 0 0 0 32.5,-32.5 v -90 a 32.22154,32.22154 0 0 0 -3.24024,-14.13 z"
           transform="translate(-242.35207,-147.91501)"
           fill="#3f3d56"
           id="path583" /><circle
           cx="306.99606"
           cy="393.16998"
           r="8"
           fill="#ffffff"
           id="circle585" /></g></g></g></svg>
