<?xml version="1.0" encoding="UTF-8" standalone="no"?>
<svg
   data-name="Layer 1"
   width="649.05263"
   height="653.8814"
   viewBox="0 0 649.05263 653.8814"
   version="1.1"
   id="svg222"
   sodipodi:docname="treina_undraw_profile_element_base.svg"
   xml:space="preserve"
   inkscape:version="1.2 (dc2aeda, 2022-05-15)"
   inkscape:export-filename="treina_undraw_profile_element_othergender.png"
   inkscape:export-xdpi="96"
   inkscape:export-ydpi="96"
   xmlns:inkscape="http://www.inkscape.org/namespaces/inkscape"
   xmlns:sodipodi="http://sodipodi.sourceforge.net/DTD/sodipodi-0.dtd"
   xmlns="http://www.w3.org/2000/svg"
   xmlns:svg="http://www.w3.org/2000/svg"><defs
     id="defs226" /><sodipodi:namedview
     id="namedview224"
     pagecolor="#ffffff"
     bordercolor="#000000"
     borderopacity="0.25"
     inkscape:showpageshadow="2"
     inkscape:pageopacity="0.0"
     inkscape:pagecheckerboard="0"
     inkscape:deskcolor="#d1d1d1"
     showgrid="false"
     inkscape:zoom="0.51379735"
     inkscape:cx="568.31745"
     inkscape:cy="377.58077"
     inkscape:window-width="1440"
     inkscape:window-height="784"
     inkscape:window-x="0"
     inkscape:window-y="25"
     inkscape:window-maximized="0"
     inkscape:current-layer="g583" /><rect
     style="fill:#d32f2f;stroke-width:3.78;stroke-opacity:0.940171;paint-order:fill markers stroke;fill-opacity:0.80000001"
     id="rect602"
     width="490.41107"
     height="490.41104"
     x="72.037773"
     y="83.120514"
     ry="41.17012" /><rect
     style="fill:#d32f2f;fill-opacity:0.80000001;stroke-width:3.78;stroke-opacity:0.940171;paint-order:fill markers stroke"
     id="rect602-4"
     width="490.41107"
     height="490.41104"
     x="152.04146"
     y="-16.06489"
     ry="41.17012"
     transform="rotate(16.491526)"
     inkscape:transform-center-x="-74.808468"
     inkscape:transform-center-y="-36.018892" /><path
     style="fill:#000000;fill-opacity:0.8;stroke-width:3.5839;stroke-opacity:0.940171;paint-order:fill markers stroke"
     d=""
     id="path986" /><path
     style="fill:#000000;fill-opacity:0.8;stroke-width:3.5839;stroke-opacity:0.940171;paint-order:fill markers stroke"
     d=""
     id="path988" /><path
     style="fill:#000000;fill-opacity:0.8;stroke-width:3.5839;stroke-opacity:0.940171;paint-order:fill markers stroke"
     d=""
     id="path990" /><path
     style="fill:#000000;fill-opacity:0.8;stroke-width:3.5839;stroke-opacity:0.940171;paint-order:fill markers stroke"
     d=""
     id="path992" /><path
     style="fill:#000000;fill-opacity:0.8;stroke-width:0.766591;stroke-opacity:0.940171;paint-order:fill markers stroke"
     d=""
     id="path1032" /><path
     style="fill:#000000;fill-opacity:0.8;stroke-width:0.766591;stroke-opacity:0.940171;paint-order:fill markers stroke"
     d=""
     id="path1034" /><path
     style="fill:#000000;fill-opacity:0.8;stroke-width:0.766591;stroke-opacity:0.940171;paint-order:fill markers stroke"
     d=""
     id="path1040" /><g
     id="g583"
     transform="matrix(0.60347479,0,0,0.60347479,124.20276,120.28801)"><circle
       cx="143.68463"
       cy="245.54543"
       r="143.68463"
       fill="#ff6884"
       id="circle507" /><path
       d="m 27.36927,518.63871 c 19.90002,12.82996 38.54004,30.01001 56,51.20001 v 32.39996 c -8.52002,-2.89996 -41.03998,-14.91998 -53.88,-33.92999 -14.83997,-21.96997 -17.47998,-55.32001 -5.12,-63.66998 3.21997,-2.17004 7.13,-2.44 11.41998,-1.25 13.52997,9.72998 26.47003,21.52997 38.83002,35.27997 4.38,6.73004 7.09009,15.29999 8.75,23.96002 v 0.40997 c -15.98999,-22.25995 -34.79004,-36.69995 -56,-44.39996 z"
       fill="#000000"
       id="path543" /><path
       d="m 26.36927,319.63871 c 19.90002,12.82996 38.54004,30.01001 56,51.20001 v 7.39996 c -1.66992,-0.57001 -4.25,-1.47998 -7.42993,-2.72998 -14.28003,-16.92999 -30.56006,-28.33002 -48.57007,-34.87 12.59998,8.12 24.69995,17.98999 36.31006,29.51996 -12.28003,-5.90997 -26.64008,-14.66998 -34.19006,-25.84998 -0.79999,-1.17999 -1.56,-2.37 -2.27997,-3.57001 -12.70001,-21.08002 -13.54004,-44.20001 -1.84003,-52.09998 12.35999,-8.35004 34.03003,3.47998 48.87,25.44 8.57996,12.70996 10.98999,32.42999 11.47998,46.77997 -0.78992,1.04004 -1.56995,2.10004 -2.34998,3.17999 -15.98999,-22.25995 -34.79004,-36.69995 -56,-44.39996 z"
       fill="#000000"
       id="path545" /><path
       d="m 139.6493,437.84418 v 0.01 c -1.42004,3.92999 -3.19995,7.89996 -5.32007,11.81 -3.1499,5.82001 -7.98999,11.21997 -13.46997,16.04999 -5.87,5.17999 -12.48999,9.70001 -18.58008,13.37 -8.5,5.13 -15.96997,8.60999 -18.90991,9.92999 v -3.14996 c 16.89001,-20.10004 34.84998,-36.48004 54,-48.82001 -20.34009,7.38 -38.44995,20.97998 -54,41.70996 V 464.8642 c 16.89001,-20.10004 34.84998,-36.48004 54,-48.82001 -20.34009,7.38 -38.44995,20.97998 -54,41.70996 V 443.8642 c 16.66992,-19.83002 34.37,-36.04004 53.23999,-48.32001 8.84009,7.10999 9.60999,24.26001 3.04004,42.29999 z"
       fill="#000000"
       id="path547" /><rect
       x="82.36927"
       y="350.6387"
       width="2"
       height="348"
       fill="#3f3d56"
       id="rect549" /><g
       id="g788"
       transform="matrix(1.8302032,0,0,1.8302032,1235.7565,-267.39239)"><path
         d="m -327.22132,489.11499 v 0.55431 a 2.3528461,2.3528461 0 0 1 0,-0.55431 z"
         fill="#2f2e41"
         id="path693"
         style="stroke-width:0.617707" /><path
         d="m -310.17584,393.32426 a 9.4655323,9.4655323 0 0 1 1.34846,-0.2619 q -0.7839,0.12774 -1.34846,0.2619 z"
         fill="#2f2e41"
         id="path695"
         style="stroke-width:0.617707" /><path
         d="m -310.5703,393.42478 c 0.11962,-0.0335 0.25277,-0.0671 0.39445,-0.10052 -0.13196,0.0344 -0.25887,0.0596 -0.39445,0.10052 z"
         fill="#2f2e41"
         id="path697"
         style="stroke-width:0.617707" /><path
         d="M -302.83887,191.77655"
         fill="#2f2e41"
         id="path715"
         style="stroke-width:0.617707" /><path
         d="m -509.85825,187.53272 c -0.56669,1.32059 -18.03965,1.17908 -18.8399,2.35499 -6.17006,9.07851 16.07181,47.70524 9.90175,56.79552 l -0.85954,1.02442 a 40.61832,40.61832 0 0 0 5.78146,-3.26168 c 0.16487,-3.72085 0.32973,-7.45355 0.50631,-11.1744 a 30.713153,30.713153 0 0 1 4.42739,7.78321 c 1.43658,-1.01262 2.61501,-2.88982 8.77235,-6.58215 a 38.615954,38.615954 0 0 1 8.5328,-7.02399 z"
         fill="#2f2e41"
         id="path719"
         style="stroke-width:0.617707" /><path
         d="m -497.17015,261.93605 a 14.471455,14.471455 0 0 0 -21.92433,8.56018 l -26.55268,69.18537 -45.64099,-25.91156 a 14.130196,14.130196 0 1 0 -8.81582,14.05425 c 9.6116,10.25837 51.28136,52.31755 68.53236,35.884 14.5003,-13.81316 35.42599,-67.34804 40.46318,-85.83471 a 14.472962,14.472962 0 0 0 -6.06172,-15.93753 z"
         fill="#ffb6b6"
         id="path721"
         style="stroke-width:0.617707" /><polygon
         points="117.341,349.883 130.906,411.195 230.098,420.167 239.214,366.781 "
         fill="#ffb6b6"
         id="polygon723"
         transform="matrix(0.61770703,0,0,0.61770703,-619.51118,150.48229)" /><path
         d="m -453.43541,463.72762 c -0.028,0.54292 -0.0616,1.08027 -0.10074,1.62321 -0.5877,7.84727 -1.25938,16.89799 -1.987,26.81623 -1.14743,15.73936 -2.42921,33.66164 -3.72216,52.41231 h -128.51758 l 24.92463,-74.91646 c 0,0 10.06401,-5.54103 4.94031,-14.84915 -5.1237,-9.30812 4.95788,-1.89058 5.05167,-15.18392 0.0938,-13.29333 9.12786,-27.43575 9.12786,-27.43575 l 1.48327,-20.12759 0.84519,0.0168 66.88108,1.11384 1.22018,0.0224 2.05418,17.27862 a 76.390592,76.390592 0 0 1 17.79911,53.22948 z"
         fill="#2f2e41"
         id="path725"
         style="stroke-width:0.617707" /><path
         d="m -508.78716,243.58172 30.49778,-1.57107 14.16542,22.38308 c 0,0 26.65259,4.45597 24.80513,35.86274 -1.84746,31.40676 -32.42824,58.96635 -32.42824,58.96635 l 1.30723,-4.48172 -2.27033,6.48716 0.29114,3.64255 3.09718,3.85758 0.31887,3.98946 -2.74407,6.31205 v 0 a 3.6067357,3.6067357 0 0 1 -3.41978,5.49774 l -44.06696,-4.41623 c -1.00328,-2.75991 -1.80828,-6.0621 -5.82986,-0.56485 l -4.15117,-0.40216 -17.25651,-1.67189 -1.01569,-3.70003 a 14.3337,14.3337 0 0 1 2.33191,-12.36319 v 0 a 18.906382,18.906382 0 0 1 1.09418,-14.19541 l 0.0826,-0.16536 1.83255,-1.52746 c 0,0 -20.04876,-30.12042 2.9666,-52.80669 l 9.23729,-15.70338 10.33572,-12.61009 z"
         fill="#000000"
         id="path727"
         style="stroke-width:0.617707" /><circle
         cx="-501.19681"
         cy="201.44864"
         r="28.920334"
         fill="#ffb6b6"
         id="circle729"
         style="stroke-width:0.617707" /><path
         d="m -479.23163,243.11044 a 13.928182,13.928182 0 0 1 -4.6629,-7.6537 29.925607,29.925607 0 0 0 0.41216,10.9271 c -1.56608,1.17748 -3.08502,2.29612 -4.52161,3.30875 a 30.713011,30.713011 0 0 0 -4.42739,-7.78322 c -0.17658,3.72085 -0.34144,7.45356 -0.50631,11.17441 a 40.617202,40.617202 0 0 1 -5.78146,3.26167 l 0.85954,-1.02441 c 6.17006,-9.09029 -9.79675,-25.82242 -3.6267,-34.90093 1.73095,-2.54342 -6.08762,-22.64318 -12.04573,-23.54987 -5.29872,-0.80069 -5.075,0.73004 -10.20885,1.84867 a 25.689756,25.689756 0 0 0 -2.46099,-6.37027 21.048163,21.048163 0 0 1 -0.20014,6.71172 c -1.8251,0.0707 -3.26104,-1.09229 -5.2045,-1.38943 -12.39904,-1.89574 -11.13911,-15.30735 -7.68907,-19.55815 3.46184,-4.23895 14.95418,-5.51066 20.2529,-6.88838 0.48275,-0.47096 1.5778,-0.17658 2.06062,-0.62403 10.15469,-9.29341 23.73596,-10.83247 35.95783,-6.71343 13.03368,4.39266 21.15998,12.89438 25.3307,26.00077 l 1.1962,10.48848 c 1.07317,3.3724 -0.27684,19.0638 -1.1962,22.48134 -3.57374,13.28453 -11.18472,6.65285 -23.5381,20.25291 z"
         fill="#2f2e41"
         id="path731"
         style="stroke-width:0.617707" /><path
         d="m -437.0632,380.12749 -1.13854,-88.67359 a 14.313927,14.313927 0 0 0 -14.31217,-14.08778 h -5e-5 a 14.313946,14.313946 0 0 0 -14.2938,15.073 l 4.00646,92.0739 0.0761,56.05015 a 12.490969,12.490969 0 1 0 15.33556,4.67052 z"
         fill="#ffb6b6"
         id="path733"
         style="stroke-width:0.617707" /><path
         d="m -359.93683,494.8501 c 0,0 -1.76046,31.66984 -2.56966,49.73159 h -60.62177 c -1.24776,-16.43719 -1.66781,-28.51335 -1.66781,-28.51335 l -3.31708,28.51335 h -61.27654 l -3.7989,-52.80778 18.35826,-45.50647 c 0,0 99.48789,-6.89979 108.71644,1.85312 9.22235,8.74678 6.17706,46.72954 6.17706,46.72954 z"
         fill="#2f2e41"
         id="path735"
         style="stroke-width:0.617707" /><circle
         cx="-413.54391"
         cy="195.32709"
         r="33.113369"
         fill="#ffb6b6"
         id="circle737"
         style="stroke-width:0.617707" /><path
         d="m -374.94697,184.5673 c -3.40119,1.55087 -5.60496,12.78309 -8.27827,10.17183 -2.6733,-2.61125 -2.49487,-6.00942 -6.09901,-6.9731 -2.91054,-0.78154 -6.04274,0.11167 -8.69754,1.52038 -0.47403,0.24857 -0.9336,0.51884 -1.3815,0.78763 -0.29567,-0.19755 -0.58992,-0.38343 -0.9058,-0.55493 a 10.521491,10.521491 0 0 0 -7.74395,-0.87104 10.323491,10.323491 0 0 1 5.10139,3.7601 c -0.88851,0.59544 -1.78852,1.1924 -2.70907,1.72135 -7.69053,4.43809 -18.63389,-5.21235 -26.72895,-8.83778 5.07052,9.51516 2.57379,13.45583 -1.82884,23.29653 l -0.15204,0.56034 c 0.25011,-2.46636 -7.38186,-4.30439 -6.93929,-0.83249 0.31423,2.46505 2.44749,7.94422 3.64232,10.12064 -8.51102,-9.84114 -14.3272,-21.88398 -13.09992,-34.3072 0.26716,-2.60972 0.18664,-5.36328 1.5327,-7.62836 1.34749,-2.2534 4.15674,-3.83473 6.64203,-2.97543 a 21.954543,21.954543 0 0 1 33.0515,-20.09058 c 3.17796,1.86476 5.83105,4.50215 8.74373,6.7771 2.91276,2.27494 6.27046,4.25792 9.96386,4.44573 2.34306,0.11301 4.89285,-0.45903 6.90579,0.75451 2.33179,1.40812 2.73108,4.35628 3.08099,7.19314 a 10.509612,10.509612 0 0 0 -5.66246,2.35655 10.283586,10.283586 0 0 1 6.19092,1.32787 0.64011125,0.64011125 0 0 1 0.10138,0.0577 c 1.23279,4.68839 1.1065,5.72773 5.27003,8.21956 z"
         fill="#2f2e41"
         id="path739"
         style="stroke-width:0.617707" /><path
         d="m -489.24273,462.28776 c 28.1988,-33.00728 18.67409,-74.98983 7.4822,-117.36902 l 2.12958,-62.60691 a 19.151345,19.151345 0 0 1 8.66586,-15.38204 l 28.78737,-18.80675 11.20459,-16.19991 30.88534,3.08854 17.12685,18.1124 18.95781,14.47278 a 31.406152,31.406152 0 0 1 11.60798,31.74402 l -18.14186,82.04416 c 0,0 7.58782,42.53235 2.95791,47.22969 -4.6299,4.69733 -16.55975,0.003 -7.09925,5.27547 11.35331,6.32811 21.67635,5.16042 15.93098,10.90579 -5.74537,5.74538 1.52589,13.73302 1.52589,13.73302 z"
         fill="#000000"
         id="path741"
         style="stroke-width:0.617707" /><path
         d="m -477.18631,510.25854 4.70107,-33.49247 -18.75812,-5.35496 -3.71034,35.58717 a 11.321804,11.321804 0 1 0 17.76739,3.26025 z"
         fill="#ffb6b6"
         id="path743"
         style="stroke-width:0.617707" /><path
         d="m -441.47415,254.16058 c 0,0 -53.39362,17.37785 -54.66677,30.09304 -1.27315,12.71518 -0.85093,20.49901 -6.48623,71.37963 l 0.29687,137.05881 c 0,0 35.79719,7.66421 32.12602,-0.53031 -3.67117,-8.19451 -2.39021,-12.04986 -2.39021,-12.04986 0,0 7.67496,-3.02869 5.75375,-12.65032 -1.92121,-9.62162 7.71341,-57.3033 7.71341,-57.3033 l 6.08103,-85.51465 z"
         fill="#000000"
         id="path745"
         style="stroke-width:0.617707" /><path
         d="m -375.63862,508.48483 -2.50179,-33.72814 19.06804,-4.11738 1.37625,35.75359 a 11.321804,11.321804 0 1 1 -17.94253,2.09193 z"
         fill="#ffb6b6"
         id="path747"
         style="stroke-width:0.617707" /><path
         d="m -394.53456,250.60021 c 0,0 52.14352,20.83076 52.58283,33.60197 0.4393,12.77122 -0.49081,20.51079 1.80663,71.65096 l -9.2551,136.74629 c 0,0 -36.22161,5.30795 -32.02265,-2.62909 4.19895,-7.93704 3.17272,-11.86787 3.17272,-11.86787 0,0 -7.46056,-3.52388 -4.91455,-12.99935 2.54602,-9.47547 -3.95126,-57.68494 -3.95126,-57.68494 l -0.47836,-85.72925 z"
         fill="#000000"
         id="path749"
         style="stroke-width:0.617707" /></g></g></svg>
