<?xml version="1.0" encoding="UTF-8" standalone="no"?>
<svg
   data-name="Layer 1"
   width="649.05263"
   height="653.8814"
   viewBox="0 0 649.05263 653.8814"
   version="1.1"
   id="svg222"
   sodipodi:docname="treina_undraw_profile_element_base.svg"
   xml:space="preserve"
   inkscape:version="1.2 (dc2aeda, 2022-05-15)"
   inkscape:export-filename="treina_undraw_profile_element_man.png"
   inkscape:export-xdpi="96"
   inkscape:export-ydpi="96"
   xmlns:inkscape="http://www.inkscape.org/namespaces/inkscape"
   xmlns:sodipodi="http://sodipodi.sourceforge.net/DTD/sodipodi-0.dtd"
   xmlns="http://www.w3.org/2000/svg"
   xmlns:svg="http://www.w3.org/2000/svg"><defs
     id="defs226" /><sodipodi:namedview
     id="namedview224"
     pagecolor="#ffffff"
     bordercolor="#000000"
     borderopacity="0.25"
     inkscape:showpageshadow="2"
     inkscape:pageopacity="0.0"
     inkscape:pagecheckerboard="0"
     inkscape:deskcolor="#d1d1d1"
     showgrid="false"
     inkscape:zoom="0.51379735"
     inkscape:cx="568.31745"
     inkscape:cy="377.58077"
     inkscape:window-width="1440"
     inkscape:window-height="784"
     inkscape:window-x="0"
     inkscape:window-y="25"
     inkscape:window-maximized="0"
     inkscape:current-layer="g788" /><rect
     style="fill:#d32f2f;stroke-width:3.78;stroke-opacity:0.940171;paint-order:fill markers stroke;fill-opacity:0.80000001"
     id="rect602"
     width="490.41107"
     height="490.41104"
     x="72.037773"
     y="83.120514"
     ry="41.17012" /><rect
     style="fill:#d32f2f;fill-opacity:0.80000001;stroke-width:3.78;stroke-opacity:0.940171;paint-order:fill markers stroke"
     id="rect602-4"
     width="490.41107"
     height="490.41104"
     x="152.04146"
     y="-16.06489"
     ry="41.17012"
     transform="rotate(16.491526)"
     inkscape:transform-center-x="-74.808468"
     inkscape:transform-center-y="-36.018892" /><path
     style="fill:#000000;fill-opacity:0.8;stroke-width:3.5839;stroke-opacity:0.940171;paint-order:fill markers stroke"
     d=""
     id="path986" /><path
     style="fill:#000000;fill-opacity:0.8;stroke-width:3.5839;stroke-opacity:0.940171;paint-order:fill markers stroke"
     d=""
     id="path988" /><path
     style="fill:#000000;fill-opacity:0.8;stroke-width:3.5839;stroke-opacity:0.940171;paint-order:fill markers stroke"
     d=""
     id="path990" /><path
     style="fill:#000000;fill-opacity:0.8;stroke-width:3.5839;stroke-opacity:0.940171;paint-order:fill markers stroke"
     d=""
     id="path992" /><path
     style="fill:#000000;fill-opacity:0.8;stroke-width:0.766591;stroke-opacity:0.940171;paint-order:fill markers stroke"
     d=""
     id="path1032" /><path
     style="fill:#000000;fill-opacity:0.8;stroke-width:0.766591;stroke-opacity:0.940171;paint-order:fill markers stroke"
     d=""
     id="path1034" /><path
     style="fill:#000000;fill-opacity:0.8;stroke-width:0.766591;stroke-opacity:0.940171;paint-order:fill markers stroke"
     d=""
     id="path1040" /><g
     id="g583"
     transform="matrix(0.60347479,0,0,0.60347479,124.20276,120.28801)"><path
       d="m 526.36927,329.63871 c 19.90002,12.82996 38.54004,30.01001 56,51.20001 v 32.39996 c -8.52002,-2.89996 -41.03998,-14.91998 -53.88,-33.92999 -14.83997,-21.96997 -17.47998,-55.32001 -5.12,-63.66998 3.21997,-2.17004 7.13,-2.44 11.41998,-1.25 13.52997,9.72998 26.47003,21.52997 38.83002,35.27997 4.38,6.73004 7.09009,15.29999 8.75,23.96002 v 0.40997 c -15.98999,-22.25995 -34.79004,-36.69995 -56,-44.39996 z"
       fill="#000000"
       id="path501" /><path
       d="m 525.36927,130.63871 c 19.90002,12.82996 38.54004,30.01001 56,51.20001 v 7.39996 c -1.66992,-0.57001 -4.25,-1.47998 -7.42993,-2.72998 -14.28003,-16.92999 -30.56006,-28.33002 -48.57007,-34.87 12.59998,8.12 24.69995,17.98999 36.31006,29.51996 -12.28003,-5.90997 -26.64008,-14.66998 -34.19006,-25.84998 -0.79999,-1.17999 -1.56,-2.37 -2.27997,-3.57001 -12.70001,-21.08002 -13.54004,-44.20001 -1.84003,-52.09998 12.35999,-8.35004 34.03003,3.47998 48.87,25.44 8.57996,12.70996 10.98999,32.42999 11.47998,46.77997 -0.78992,1.04004 -1.56995,2.10004 -2.34998,3.17999 -15.98999,-22.25995 -34.79004,-36.69995 -56,-44.39996 z"
       fill="#000000"
       id="path503" /><path
       d="m 638.6493,248.84418 v 0.01 c -1.42004,3.92999 -3.19995,7.89996 -5.32007,11.81 -3.1499,5.82001 -7.98999,11.21997 -13.46997,16.04999 -5.87,5.17999 -12.48999,9.70001 -18.58008,13.37 -8.5,5.13 -15.96997,8.60999 -18.90991,9.92999 v -3.14996 c 16.89001,-20.10004 34.84998,-36.48004 54,-48.82001 -20.34009,7.38 -38.44995,20.97998 -54,41.70996 V 275.8642 c 16.89001,-20.10004 34.84998,-36.48004 54,-48.82001 -20.34009,7.38 -38.44995,20.97998 -54,41.70996 V 254.8642 c 16.66992,-19.83002 34.37,-36.04004 53.23999,-48.32001 8.84009,7.10999 9.60999,24.26001 3.04004,42.29999 z"
       fill="#000000"
       id="path505" /><circle
       cx="143.68463"
       cy="245.54543"
       r="143.68463"
       fill="#ff6884"
       id="circle507" /><rect
       x="581.36926"
       y="161.6387"
       width="2"
       height="348"
       fill="#3f3d56"
       id="rect541" /><path
       d="m 27.36927,518.63871 c 19.90002,12.82996 38.54004,30.01001 56,51.20001 v 32.39996 c -8.52002,-2.89996 -41.03998,-14.91998 -53.88,-33.92999 -14.83997,-21.96997 -17.47998,-55.32001 -5.12,-63.66998 3.21997,-2.17004 7.13,-2.44 11.41998,-1.25 13.52997,9.72998 26.47003,21.52997 38.83002,35.27997 4.38,6.73004 7.09009,15.29999 8.75,23.96002 v 0.40997 c -15.98999,-22.25995 -34.79004,-36.69995 -56,-44.39996 z"
       fill="#000000"
       id="path543" /><path
       d="m 26.36927,319.63871 c 19.90002,12.82996 38.54004,30.01001 56,51.20001 v 7.39996 c -1.66992,-0.57001 -4.25,-1.47998 -7.42993,-2.72998 -14.28003,-16.92999 -30.56006,-28.33002 -48.57007,-34.87 12.59998,8.12 24.69995,17.98999 36.31006,29.51996 -12.28003,-5.90997 -26.64008,-14.66998 -34.19006,-25.84998 -0.79999,-1.17999 -1.56,-2.37 -2.27997,-3.57001 -12.70001,-21.08002 -13.54004,-44.20001 -1.84003,-52.09998 12.35999,-8.35004 34.03003,3.47998 48.87,25.44 8.57996,12.70996 10.98999,32.42999 11.47998,46.77997 -0.78992,1.04004 -1.56995,2.10004 -2.34998,3.17999 -15.98999,-22.25995 -34.79004,-36.69995 -56,-44.39996 z"
       fill="#000000"
       id="path545" /><path
       d="m 139.6493,437.84418 v 0.01 c -1.42004,3.92999 -3.19995,7.89996 -5.32007,11.81 -3.1499,5.82001 -7.98999,11.21997 -13.46997,16.04999 -5.87,5.17999 -12.48999,9.70001 -18.58008,13.37 -8.5,5.13 -15.96997,8.60999 -18.90991,9.92999 v -3.14996 c 16.89001,-20.10004 34.84998,-36.48004 54,-48.82001 -20.34009,7.38 -38.44995,20.97998 -54,41.70996 V 464.8642 c 16.89001,-20.10004 34.84998,-36.48004 54,-48.82001 -20.34009,7.38 -38.44995,20.97998 -54,41.70996 V 443.8642 c 16.66992,-19.83002 34.37,-36.04004 53.23999,-48.32001 8.84009,7.10999 9.60999,24.26001 3.04004,42.29999 z"
       fill="#000000"
       id="path547" /><rect
       x="82.36927"
       y="350.6387"
       width="2"
       height="348"
       fill="#3f3d56"
       id="rect549" /><g
       id="g788"
       transform="matrix(1.65707,0,0,1.65707,1105.9216,-211.80895)"><path
         d="m 770.96283,679.20736 v 0.89737 a 3.809,3.809 0 0 1 0,-0.89737 z"
         fill="#2f2e41"
         id="path693"
         transform="translate(-181,-130.99812)" /><path
         d="m 798.5576,524.13266 a 15.32366,15.32366 0 0 1 2.183,-0.424 q -1.26905,0.20681 -2.183,0.424 z"
         fill="#2f2e41"
         id="path695"
         transform="translate(-181,-130.99812)" /><path
         d="m 797.919,524.2954 c 0.19365,-0.0543 0.40921,-0.1086 0.63857,-0.16274 -0.21363,0.0556 -0.41908,0.0965 -0.63857,0.16274 z"
         fill="#2f2e41"
         id="path697"
         transform="translate(-181,-130.99812)" /><path
         d="M 810.43534,197.849"
         fill="#2f2e41"
         id="path715"
         transform="translate(-181,-130.99812)" /><path
         d="m -476.68204,379.50242 -1.26413,-98.4556 a 15.892964,15.892964 0 0 0 -15.89102,-15.64187 h -5e-5 a 15.892985,15.892985 0 0 0 -15.87061,16.73578 l 4.44842,102.23099 0.0845,62.23331 a 13.868906,13.868906 0 1 0 17.0273,5.18575 z"
         fill="#ffb6b6"
         id="path733"
         style="stroke-width:0.685849" /><path
         d="m -391.04749,506.88061 c 0,0 -1.95467,35.16349 -2.85313,55.21772 h -67.30924 c -1.38542,-18.25045 -1.85179,-31.6588 -1.85179,-31.6588 l -3.68301,31.6588 h -68.03624 l -4.21798,-58.63325 20.38344,-50.52651 c 0,0 110.46287,-7.66093 120.70946,2.05755 10.23973,9.71167 6.85849,51.88449 6.85849,51.88449 z"
         fill="#2f2e41"
         id="path735"
         style="stroke-width:0.685849" /><circle
         cx="-450.56824"
         cy="174.3158"
         r="36.766262"
         fill="#ffb6b6"
         id="circle737"
         style="stroke-width:0.685849" /><path
         d="m -407.71347,162.36905 c -3.77639,1.72195 -6.22327,14.19326 -9.19148,11.29394 -2.9682,-2.89931 -2.7701,-6.67235 -6.77183,-7.74234 -3.23161,-0.86776 -6.70934,0.12398 -9.65701,1.6881 -0.52632,0.27599 -1.03658,0.57608 -1.5339,0.87452 -0.32828,-0.21934 -0.65499,-0.42573 -1.00572,-0.61614 a 11.682165,11.682165 0 0 0 -8.59822,-0.96715 11.462323,11.462323 0 0 1 5.66416,4.17491 c -0.98653,0.66111 -1.98583,1.32394 -3.00792,1.91124 -8.53892,4.92767 -20.68948,-5.78735 -29.67754,-9.81272 5.62986,10.56482 2.85771,14.9402 -2.03061,25.86648 l -0.1688,0.62216 c 0.2777,-2.73844 -8.19619,-4.77924 -7.7048,-0.92433 0.34889,2.73698 2.71749,8.82058 4.04412,11.2371 -9.44991,-10.92676 -15.9077,-24.29811 -14.54503,-38.09179 0.29663,-2.89761 0.20723,-5.95493 1.70178,-8.46989 1.49613,-2.50198 4.61529,-4.25775 7.37475,-3.30366 a 24.376452,24.376452 0 0 1 36.69755,-22.30687 c 3.52854,2.07048 6.47431,4.9988 9.70831,7.52472 3.23407,2.52589 6.96218,4.72763 11.063,4.93616 2.60155,0.12547 5.43262,-0.50967 7.66761,0.83774 2.58902,1.56346 3.03235,4.83684 3.42087,7.98665 a 11.668977,11.668977 0 0 0 -6.28711,2.61651 11.418018,11.418018 0 0 1 6.87387,1.47436 0.71072495,0.71072495 0 0 1 0.11256,0.064 c 1.36879,5.20558 1.22857,6.35958 5.85139,9.1263 z"
         fill="#2f2e41"
         id="path739"
         style="stroke-width:0.685849" /><path
         d="m -534.61774,470.72616 c 31.30956,-36.64846 20.73413,-83.2623 8.30761,-130.31655 l 2.3645,-69.51337 a 21.264021,21.264021 0 0 1 9.62183,-17.0789 l 31.96304,-20.88141 12.44061,-17.987 34.29246,3.42924 19.0162,20.11047 21.04913,16.06935 a 34.870713,34.870713 0 0 1 12.88852,35.24585 l -20.14318,91.09484 c 0,0 8.42486,47.2243 3.28421,52.43982 -5.14066,5.21552 -18.38654,0.003 -7.88241,5.85744 12.60575,7.02619 24.06758,5.72968 17.6884,12.10885 -6.37917,6.37917 1.69422,15.24797 1.69422,15.24797 z"
         fill="#000000"
         id="path741"
         style="stroke-width:0.685849" /><path
         d="m -521.23131,523.98884 5.21967,-37.18719 -20.82742,-5.94569 -4.11964,39.51295 a 12.570765,12.570765 0 1 0 19.72739,3.61991 z"
         fill="#ffb6b6"
         id="path743"
         style="stroke-width:0.685849" /><path
         d="m -481.57958,239.6395 c 0,0 -59.28371,19.29488 -60.69731,33.41274 -1.41361,14.11785 -0.94481,22.76035 -7.20176,79.25386 l 0.32962,152.17841 c 0,0 39.74614,8.50969 35.66999,-0.5888 -4.07615,-9.09849 -2.65388,-13.37915 -2.65388,-13.37915 0,0 8.52162,-3.3628 6.38847,-14.04583 -2.13315,-10.68303 8.56431,-63.6247 8.56431,-63.6247 l 6.75186,-94.94818 z"
         fill="#000000"
         id="path745"
         style="stroke-width:0.685849" /><path
         d="m -408.48142,522.01945 -2.77777,-37.44884 21.17153,-4.57159 1.52807,39.69773 a 12.570765,12.570765 0 1 1 -19.92186,2.3227 z"
         fill="#ffb6b6"
         id="path747"
         style="stroke-width:0.685849" /><path
         d="m -429.46185,235.68636 c 0,0 57.89572,23.1287 58.38348,37.30877 0.48776,14.18007 -0.54495,22.77343 2.00593,79.55511 l -10.27608,151.83142 c 0,0 -40.21738,5.8935 -35.55522,-2.91911 4.66217,-8.81262 3.52273,-13.17707 3.52273,-13.17707 0,0 -8.28358,-3.91262 -5.4567,-14.43338 2.82688,-10.52075 -4.38714,-64.04843 -4.38714,-64.04843 l -0.53113,-95.18646 z"
         fill="#000000"
         id="path749"
         style="stroke-width:0.685849" /></g></g></svg>
