<?xml version="1.0" encoding="UTF-8" standalone="no"?>
<svg
   data-name="Layer 1"
   width="649.05263"
   height="653.8814"
   viewBox="0 0 649.05263 653.8814"
   version="1.1"
   id="svg222"
   sodipodi:docname="treina_undraw_element_heightweight.svg"
   xml:space="preserve"
   inkscape:version="1.2 (dc2aedaf03, 2022-05-15)"
   inkscape:export-filename="treina_undraw_element_heightweight.png"
   inkscape:export-xdpi="96"
   inkscape:export-ydpi="96"
   xmlns:inkscape="http://www.inkscape.org/namespaces/inkscape"
   xmlns:sodipodi="http://sodipodi.sourceforge.net/DTD/sodipodi-0.dtd"
   xmlns="http://www.w3.org/2000/svg"
   xmlns:svg="http://www.w3.org/2000/svg"><defs
     id="defs226" /><sodipodi:namedview
     id="namedview224"
     pagecolor="#ffffff"
     bordercolor="#000000"
     borderopacity="0.25"
     inkscape:showpageshadow="2"
     inkscape:pageopacity="0.0"
     inkscape:pagecheckerboard="0"
     inkscape:deskcolor="#d1d1d1"
     showgrid="false"
     inkscape:zoom="0.51379735"
     inkscape:cx="507.98238"
     inkscape:cy="379.52706"
     inkscape:window-width="1920"
     inkscape:window-height="1009"
     inkscape:window-x="-8"
     inkscape:window-y="-8"
     inkscape:window-maximized="1"
     inkscape:current-layer="g788" /><rect
     style="fill:#d32f2f;stroke-width:3.78;stroke-opacity:0.940171;paint-order:fill markers stroke;fill-opacity:0.80000001"
     id="rect602"
     width="490.41107"
     height="490.41104"
     x="72.037773"
     y="83.120514"
     ry="41.17012" /><rect
     style="fill:#d32f2f;fill-opacity:0.80000001;stroke-width:3.78;stroke-opacity:0.940171;paint-order:fill markers stroke"
     id="rect602-4"
     width="490.41107"
     height="490.41104"
     x="152.04146"
     y="-16.06489"
     ry="41.17012"
     transform="rotate(16.491526)"
     inkscape:transform-center-x="-74.808468"
     inkscape:transform-center-y="-36.018892" /><path
     style="fill:#000000;fill-opacity:0.8;stroke-width:3.5839;stroke-opacity:0.940171;paint-order:fill markers stroke"
     d=""
     id="path986" /><path
     style="fill:#000000;fill-opacity:0.8;stroke-width:3.5839;stroke-opacity:0.940171;paint-order:fill markers stroke"
     d=""
     id="path988" /><path
     style="fill:#000000;fill-opacity:0.8;stroke-width:3.5839;stroke-opacity:0.940171;paint-order:fill markers stroke"
     d=""
     id="path990" /><path
     style="fill:#000000;fill-opacity:0.8;stroke-width:3.5839;stroke-opacity:0.940171;paint-order:fill markers stroke"
     d=""
     id="path992" /><path
     style="fill:#000000;fill-opacity:0.8;stroke-width:0.766591;stroke-opacity:0.940171;paint-order:fill markers stroke"
     d=""
     id="path1032" /><path
     style="fill:#000000;fill-opacity:0.8;stroke-width:0.766591;stroke-opacity:0.940171;paint-order:fill markers stroke"
     d=""
     id="path1034" /><path
     style="fill:#000000;fill-opacity:0.8;stroke-width:0.766591;stroke-opacity:0.940171;paint-order:fill markers stroke"
     d=""
     id="path1040" /><g
     id="g583"
     transform="matrix(0.60347479,0,0,0.60347479,124.20276,120.28801)"><g
       id="g788"
       transform="matrix(1.65707,0,0,1.65707,1105.9216,-211.80895)"><path
         d="m 770.96283,679.20736 v 0.89737 a 3.809,3.809 0 0 1 0,-0.89737 z"
         fill="#2f2e41"
         id="path693"
         transform="translate(-181,-130.99812)" /><path
         d="m 798.5576,524.13266 a 15.32366,15.32366 0 0 1 2.183,-0.424 q -1.26905,0.20681 -2.183,0.424 z"
         fill="#2f2e41"
         id="path695"
         transform="translate(-181,-130.99812)" /><path
         d="m 797.919,524.2954 c 0.19365,-0.0543 0.40921,-0.1086 0.63857,-0.16274 -0.21363,0.0556 -0.41908,0.0965 -0.63857,0.16274 z"
         fill="#2f2e41"
         id="path697"
         transform="translate(-181,-130.99812)" /><path
         d="M 810.43534,197.849"
         fill="#2f2e41"
         id="path715"
         transform="translate(-181,-130.99812)" /><g
         id="g1175"
         transform="matrix(0.45188905,0,0,0.45188905,-695.23275,168.19069)"><path
           d="m 896.56784,736.779 a 4.09761,4.09761 0 0 1 0.22949,-0.34 6.95859,6.95859 0 0 1 0.76025,-1.35 l 25.16016,-35.2 20.73,-28.99 h 35.35986 l -2.5,3.49 -4.45019,6.23 -13.78955,19.28 -29.5503,41.33 27.39014,55.02 c 1.12012,2.24 -0.79,5.46 -4.24023,7.18 l -13.21,6.58 a 9.71164,9.71164 0 0 1 -4.23,1.06 c -1.85987,0 -3.40967,-0.69 -4.06006,-2 l -34.04981,-68.4 a 3.96261,3.96261 0 0 1 0.45024,-3.89 z"
           transform="translate(-144.54248,-86.26723)"
           fill="#ffffff"
           id="path1079" /><path
           d="M 944.14975,734.67051 908.529,721.43565 a 6.50839,6.50839 0 0 1 -3.82922,-8.35743 l 10.44873,-28.12158 a 6.50873,6.50873 0 0 1 8.35693,-3.8291 l 35.62073,13.23486 a 6.5084,6.5084 0 0 1 3.82922,8.35743 l -10.44873,28.12158 a 6.49918,6.49918 0 0 1 -8.35693,3.8291 z"
           transform="translate(-144.54248,-86.26723)"
           fill="#2f2e41"
           id="path1081" /><path
           d="m 913.86066,719.03843 a 1.99366,1.99366 0 0 1 -0.70435,-0.1289 h -2.4e-4 a 2.00295,2.00295 0 0 1 -1.16406,-2.57813 l 13.07885,-34.61133 a 2.0001115,2.0001115 0 0 1 3.74195,1.41407 L 915.734,717.74547 a 2.00366,2.00366 0 0 1 -1.87334,1.29296 z"
           transform="translate(-144.54248,-86.26723)"
           fill="#ffffff"
           id="path1083" /><path
           d="M 971.33737,805.919 V 680.90879 a 1.96788,1.96788 0 0 1 0.0219,-0.34766 7.44252,7.44252 0 0 1 4.76367,-6.63671 7.31307,7.31307 0 0 1 2.71448,-0.51563 h 14.76025 a 7.50836,7.50836 0 0 1 7.50003,7.5 V 805.919 a 7.50835,7.50835 0 0 1 -7.50003,7.5 h -14.76025 a 7.50835,7.50835 0 0 1 -7.5,-7.5 z"
           transform="translate(-144.54248,-86.26723)"
           fill="#ffffff"
           id="path1085" /><path
           d="m 963.3276,727.899 v -30 a 6.50745,6.50745 0 0 1 6.5,-6.5 h 38 a 6.50745,6.50745 0 0 1 6.5,6.5 v 30 a 6.50744,6.50744 0 0 1 -6.5,6.5 h -38 a 6.50745,6.50745 0 0 1 -6.5,-6.5 z"
           transform="translate(-144.54248,-86.26723)"
           fill="#2f2e41"
           id="path1087" /><path
           d="m 992.40241,731.23277 a 2.00213,2.00213 0 0 1 -2,-2 v -37 a 2,2 0 0 1 4,0 v 37 a 2.00213,2.00213 0 0 1 -2,2 z"
           transform="translate(-144.54248,-86.26723)"
           fill="#ffffff"
           id="path1089" /><path
           d="M 924.0682,585.82334 814.7297,529.45371 a 7.51681,7.51681 0 0 1 -3.22656,-10.10351 l 6.7605,-13.1211 a 7.51613,7.51613 0 0 1 10.103,-3.22461 L 937.708,559.3751 a 7.10577,7.10577 0 0 1 1.518,1.0469 7.47123,7.47123 0 0 1 1.7063,9.05616 l -6.76086,13.1206 a 7.47761,7.47761 0 0 1 -4.386,3.708 7.77128,7.77128 0 0 1 -2.29773,0.352 7.44214,7.44214 0 0 1 -3.41951,-0.83542 z"
           transform="translate(-144.54248,-86.26723)"
           fill="#ffffff"
           id="path1091" /><path
           d="m 926.19381,589.06455 -53.15844,-20.98779 a 7.50864,7.50864 0 0 1 -3.34717,-10.05713 l 12.12231,-24.98438 a 7.53735,7.53735 0 0 1 4.33985,-3.751 7.514,7.514 0 0 1 5.79626,0.457 l 48.00391,29.1001 a 2.18527,2.18527 0 0 1 0.51135,0.356 c 1.22327,1.10108 1.83289,3.74463 2.322,5.86622 l 0.0775,0.33007 c 0.13354,0.56934 0.2489,1.06055 0.366,1.40479 l 0.0395,0.13183 c 0.0427,0.14014 0.0863,0.28516 0.11573,0.418 a 7.46786,7.46786 0 0 1 -0.57825,5.15479 l -6.61977,13.18995 a 7.58376,7.58376 0 0 1 -6.72717,4.146 7.19913,7.19913 0 0 1 -3.26368,-0.77445 z"
           transform="translate(-144.54248,-86.26723)"
           fill="#2f2e41"
           id="path1093" /><circle
           cx="820.86298"
           cy="380.80957"
           r="53.519161"
           fill="#ffffff"
           id="circle1095" /><path
           d="m 968.52989,495.9128 0.0557,-2 c -3.7207,-0.10352 -7.001,-0.33692 -9.46582,-2.1377 a 6.148,6.148 0 0 1 -2.38135,-4.52832 3.51438,3.51438 0 0 1 1.15283,-2.89453 c 1.63623,-1.38183 4.269,-0.93457 6.188,-0.0547 l 1.65479,0.75879 -3.17334,-23.19043 -1.98145,0.27149 2.69922,19.72656 c -2.60742,-0.7666 -5.02344,-0.43652 -6.67822,0.96094 a 5.471,5.471 0 0 0 -1.86035,4.49219 8.13263,8.13263 0 0 0 3.20019,6.07324 c 3.16694,2.31445 7.28271,2.42966 10.58983,2.52246 z"
           transform="translate(-144.54248,-86.26723)"
           fill="#2f2e41"
           id="path1097" /><rect
           x="795.46594"
           y="377.57135"
           width="10.77148"
           height="2"
           fill="#2f2e41"
           id="rect1099" /><rect
           x="829.46594"
           y="377.57135"
           width="10.77148"
           height="2"
           fill="#2f2e41"
           id="rect1101" /><path
           d="m 916.61837,700.37363 c -3.5343,-0.2041 -6.29077,-6.01513 -6.29077,-13.30224 V 593.399 a 54.36262,54.36262 0 0 1 1.70569,-13.52441 l 2.5e-4,-10e-4 c 0.41247,-1.58886 0.90161,-3.16845 1.45312,-4.69238 a 53.86523,53.86523 0 0 1 17.0249,-23.87939 c 0.87793,-0.7168 1.79639,-1.41065 2.72791,-2.06153 a 53.64212,53.64212 0 0 1 14.81018,-7.335 9.37219,9.37219 0 0 1 -0.22205,-2.00635 9.51081,9.51081 0 0 1 9.5,-9.5 h 14 a 9.51081,9.51081 0 0 1 9.5,9.5 9.3728,9.3728 0 0 1 -0.22143,2.00245 54.03126,54.03126 0 0 1 37.72143,51.49761 v 93.67237 c 0,7.47363 -2.8551,13.32763 -6.5,13.32763 h -95 a 0.74093,0.74093 0 0 1 -0.20923,-0.0254 z"
           transform="translate(-144.54248,-86.26723)"
           fill="#2f2e41"
           id="path1103" /><path
           d="m 978.46151,708.92438 a 7.51092,7.51092 0 0 1 -0.9835,-3.57572 L 975.37424,582.355 a 7.48958,7.48958 0 0 1 2.10409,-5.34169 l 0.002,-0.002 a 7.49632,7.49632 0 0 1 5.26326,-2.28966 l 14.75988,-0.24764 a 7.495,7.495 0 0 1 7.57833,6.62095 5.95524,5.95524 0 0 1 0.048,0.74176 l 2.1117,123.00221 a 7.51848,7.51848 0 0 1 -7.37679,7.62463 l -14.755,0.25433 a 7.52937,7.52937 0 0 1 -6.64839,-3.79384 z"
           transform="translate(-144.54248,-86.26723)"
           fill="#ffffff"
           id="path1105" /><path
           d="m 972.25818,624.46265 a 7.50794,7.50794 0 0 1 -0.96461,-3.208 l 0.63044,-56.98316 a 7.50884,7.50884 0 0 1 6.89142,-8.06357 l 14.7133,-1.1526 a 7.547,7.547 0 0 1 5.023,1.428 c 0.15081,0.11428 0.30177,0.25358 0.44881,0.35319 a 14.035,14.035 0 0 0 1.14836,0.86009 l 0.3188,0.22647 c 2.1149,1.49743 4.5126,3.19425 4.6286,4.84783 l 8.8517,55.59545 a 7.38239,7.38239 0 0 1 -1.0961,4.52576 6.81529,6.81529 0 0 1 -0.6772,0.93941 6.47467,6.47467 0 0 1 -0.7211,0.72433 7.42677,7.42677 0 0 1 -4.4085,1.88415 l -27.69062,1.78652 a 7.50756,7.50756 0 0 1 -7.09631,-3.76383 z"
           transform="translate(-144.54248,-86.26723)"
           fill="#2f2e41"
           id="path1107" /><path
           d="m 920.40241,687.23277 a 2.00213,2.00213 0 0 1 -2,-2 v -97 a 2,2 0 0 1 4,0 v 97 a 2.00213,2.00213 0 0 1 -2,2 z"
           transform="translate(-144.54248,-86.26723)"
           fill="#ffffff"
           id="path1109" /><path
           d="m 1013.944,454.36317 -92.97388,-34.01261 a 4,4 0 0 1 -2.38227,-5.13077 l 0.31452,-1.487 c 7.26106,-19.84821 31.328,-32.33975 51.17618,-25.07868 l 28.61019,10.46646 c 19.84826,7.26107 28.47466,30.764 21.21366,50.61222 l -0.8276,2.24813 a 4,4 0 0 1 -5.1308,2.38225 z"
           transform="translate(-144.54248,-86.26723)"
           fill="#2f2e41"
           id="path1111" /><path
           d="M 1018.9522,456.25047 C 889.36481,461.03199 878.04157,444.74962 917.52594,419.14579 l 8.37647,-15.413 95.99999,35 z"
           transform="translate(-144.54248,-86.26723)"
           fill="#2f2e41"
           id="path1113" /><ellipse
           cx="985.4024"
           cy="394.23276"
           rx="4.5"
           ry="8.5"
           transform="rotate(-73.26954,855.12522,448.2892)"
           fill="#2f2e41"
           id="ellipse1115" /><path
           d="m 428.12825,86.26723 c -92.916,0 -168.497,75.581 -168.497,168.497 a 167.59284,167.59284 0 0 0 14.77387,68.98941 c 26.40679,58.61 85.36724,99.5076 153.72314,99.5076 a 168.59048,168.59048 0 0 0 168.497,-168.497 C 596.62532,161.84831 521.03078,86.26723 428.12825,86.26723 Z M 567.5359,322.5 a 155.17518,155.17518 0 0 1 -139.40765,87.2815 c -65.68683,0 -121.96484,-41.07287 -144.48956,-98.88751 A 153.876,153.876 0 0 1 273.111,254.76423 C 273.111,169.289 342.65309,99.747 428.12825,99.747 c 85.47516,0 155.01721,69.542 155.01721,155.01724 A 153.93514,153.93514 0 0 1 567.5359,322.5 Z"
           transform="translate(-144.54248,-86.26723)"
           fill="#e6e6e6"
           id="path1117" /><path
           d="M 428.12848,423.76109 A 169.20025,169.20025 0 0 1 275.59174,327.495 a 7.2787,7.2787 0 0 1 0.54761,-7.2334 l 0.0903,-0.13233 a 7.17286,7.17286 0 0 1 12.37878,0.99024 c 25.5636,53.55615 80.32837,88.16211 139.51978,88.16211 a 155.14522,155.14522 0 0 0 133.61865,-76.97608 7.17631,7.17631 0 0 1 6.259,-3.58789 7.04924,7.04924 0 0 1 6.16211,3.59229 l 0.0786,0.13818 a 7.26593,7.26593 0 0 1 -0.0381,7.22168 169.6463,169.6463 0 0 1 -146.08005,84.09129 z"
           transform="translate(-144.54248,-86.26723)"
           fill="#ffffff"
           id="path1119" /><path
           d="m 390.15022,270.1757 a 19.77648,19.77648 0 1 1 -13.87091,5.80713 19.51462,19.51462 0 0 1 13.87091,-5.80713 m 0,-8.42487 a 28.08785,28.08785 0 1 0 28.07278,28.10291 28.08787,28.08787 0 0 0 -28.07282,-28.10291 z m 58.52265,-40.16848 a 9.58,9.58 0 0 0 9.62841,-9.53122 q 2.8e-4,-0.0486 0,-0.0972 a 9.47824,9.47824 0 0 0 -9.38745,-9.56822 q -0.0904,-8.7e-4 -0.18078,0 a 9.5985516,9.5985516 0 0 0 -0.181,19.19625 q 0.0605,5.7e-4 0.12082,3.8e-4 z m 20.12939,48.59332 a 19.7765,19.7765 0 1 1 -13.87091,5.80713 19.51462,19.51462 0 0 1 13.87091,-5.80713 m 0,-8.42484 a 28.07282,28.07282 0 1 0 28.07282,28.07282 28.07281,28.07281 0 0 0 -28.07282,-28.07282 z"
           transform="translate(-144.54248,-86.26723)"
           fill="#e6e6e6"
           id="path1121" /><path
           d="M 463.17561,240.8993 H 448.73305 L 439.85689,222.816 A 9.41355,9.41355 0 0 0 424.963,220.8301 l -21.5737,20.79137 a 9.79742,9.79742 0 0 0 -2.79828,6.73987 c 0,5.23544 3.7912,7.101 5.5664,8.15405 13.69037,7.88324 18.50458,8.75583 18.50458,12.69745 v 19.82846 a 4.81421,4.81421 0 0 0 9.62842,0 v 0 -27.07983 c 0,-3.97171 -9.147,-7.22132 -14.5329,-11.43372 l 14.71344,-15.4957 c 5.62659,8.57529 8.21424,15.4957 11.43372,15.4957 h 17.27093 a 4.8142012,4.8142012 0 1 0 0.0155,-9.62839 h -0.0155 z"
           transform="translate(-144.54248,-86.26723)"
           fill="#e6e6e6"
           id="path1123" /><path
           d="m 292.59863,514.12375 c -4.14722,0 -7.58081,12.07434 -8.24628,27.90612 h -79.78344 c -0.6655,-15.83184 -4.09906,-27.90612 -8.24631,-27.90612 -4.62354,0 -8.37183,14.99285 -8.37183,33.48736 0,18.49451 3.74829,33.48724 8.37183,33.48724 4.14725,0 7.58081,-12.07434 8.24631,-27.90612 h 79.78338 c 0.66547,15.83184 4.09906,27.90612 8.24628,27.90612 4.62353,0 8.37182,-14.99285 8.37182,-33.48724 0,-18.49439 -3.74823,-33.48736 -8.37176,-33.48736 z"
           transform="translate(-144.54248,-86.26723)"
           fill="#e6e6e6"
           id="path1125" /><path
           d="m 331.46167,498.16922 a 99.77255,99.77255 0 1 0 12.644,48.581 99.7726,99.7726 0 0 0 -12.644,-48.581 z m -87.1601,140.39166 a 91.35849,91.35849 0 1 1 0.92169,6e-5 q -0.46087,0.002 -0.92169,-6e-5 z"
           transform="translate(-144.54248,-86.26723)"
           fill="#e6e6e6"
           id="path1127" /><path
           d="m 244.35028,647.05455 a 100.09561,100.09561 0 0 1 -53.6969,-15.5918 4.48982,4.48982 0 0 1 -1.76721,-2.14941 l -0.0503,-0.12989 a 4.40313,4.40313 0 0 1 1.34607,-5.06738 4.34494,4.34494 0 0 1 5.166,-0.31592 A 91.26948,91.26948 0 0 0 324.549,503.223 a 4.34957,4.34957 0 0 1 0.67261,-5.13378 4.40914,4.40914 0 0 1 5.15393,-0.99122 l 0.12512,0.0586 a 4.4564,4.4564 0 0 1 2.0149,1.88818 100.267,100.267 0 0 1 -88.11856,148.00977 z"
           transform="translate(-144.54248,-86.26723)"
           fill="#ffffff"
           id="path1129" /><path
           d="m 611.9087,446.96406 a 99.80413,99.80413 0 1 0 -0.0362,199.60825 h 0.0362 c 0.647,0 1.28052,0 1.92761,-0.0269 A 99.79994,99.79994 0 0 0 611.9087,446.964 Z M 632.24964,636.3007 A 91.81821,91.81821 0 1 1 611.85475,454.944 h 0.054 a 91.81841,91.81841 0 0 1 20.34089,181.3567 z"
           transform="translate(-144.54248,-86.26723)"
           fill="#e6e6e6"
           id="path1131" /><path
           d="m 611.90875,647.07213 a 100.30546,100.30546 0 0 1 -21.23632,-198.33692 4.59848,4.59848 0 0 1 1.80786,-0.0234 l 0.20825,0.0396 a 4.44178,4.44178 0 0 1 0.10132,8.7002 91.32829,91.32829 0 0 0 19.13257,180.62748 c 0.88208,-0.008 1.7395,-0.0122 2.61035,-0.0376 a 4.13764,4.13764 0 0 1 4.21216,3.24219 4.00259,4.00259 0 0 1 -2.272,4.63818 v 4.9e-4 q -0.88146,0.40429 -1.7705,0.793 a 4.10692,4.10692 0 0 1 -1.584,0.35059 c -0.40231,0.006 -0.80344,0.006 -1.20969,0.006 z"
           transform="translate(-144.54248,-86.26723)"
           fill="#ffffff"
           id="path1133" /><path
           d="m 661.145,542.52488 a 12.19813,12.19813 0 0 0 -12.17865,8.31281 h -9.82886 l -7.17578,-21.578 a 4.04334,4.04334 0 0 0 -3.84058,-2.77936 h -0.0758 a 3.99554,3.99554 0 0 0 -3.79,2.931 l -11.24377,39.2395 -13.2146,-79.3634 a 4.05669,4.05669 0 0 0 -7.93384,-0.32846 l -13.39154,61.87869 H 563.463 a 4.042725,4.042725 0 0 0 0,8.08545 h 18.1922 a 4.02974,4.02974 0 0 0 3.91638,-3.05731 l 9.44983,-46.03638 12.96192,77.79688 a 4.01359,4.01359 0 0 0 3.76477,3.36047 h 0.22742 a 4.05538,4.05538 0 0 0 3.89111,-2.931 l 12.55768,-43.8634 3.96685,11.95135 a 4.07645,4.07645 0 0 0 3.84058,2.77936 h 12.91146 a 12.13065,12.13065 0 1 0 12.00177,-16.3982 z"
           transform="translate(-144.54248,-86.26723)"
           fill="#e6e6e6"
           id="path1135" /><path
           d="M 1054.4575,813.73277 H 871.45752 a 1,1 0 0 1 0,-2 h 182.99998 a 1,1 0 0 1 0,2 z"
           transform="translate(-144.54248,-86.26723)"
           fill="#3f3d56"
           id="path1137" /></g></g></g></svg>
