<?xml version="1.0" encoding="UTF-8" standalone="no"?>
<svg
   data-name="Layer 1"
   width="649.05263"
   height="653.8814"
   viewBox="0 0 649.05263 653.8814"
   version="1.1"
   id="svg222"
   sodipodi:docname="treina_undraw_profile_element_base.svg"
   xml:space="preserve"
   inkscape:version="1.2 (dc2aedaf03, 2022-05-15)"
   inkscape:export-filename="treina_undraw_profile_element_age.png"
   inkscape:export-xdpi="96"
   inkscape:export-ydpi="96"
   xmlns:inkscape="http://www.inkscape.org/namespaces/inkscape"
   xmlns:sodipodi="http://sodipodi.sourceforge.net/DTD/sodipodi-0.dtd"
   xmlns="http://www.w3.org/2000/svg"
   xmlns:svg="http://www.w3.org/2000/svg"><defs
     id="defs226"><linearGradient
       id="8fcae9e5-a837-46bd-859d-51e037a86afe-56"
       x1="294.12"
       y1="842.7"
       x2="294.12"
       y2="213.7"
       gradientUnits="userSpaceOnUse"><stop
         offset="0"
         stop-color="gray"
         stop-opacity="0.25"
         id="stop1183" /><stop
         offset="0.54"
         stop-color="gray"
         stop-opacity="0.12"
         id="stop1185" /><stop
         offset="1"
         stop-color="gray"
         stop-opacity="0.1"
         id="stop1187" /></linearGradient></defs><sodipodi:namedview
     id="namedview224"
     pagecolor="#ffffff"
     bordercolor="#000000"
     borderopacity="0.25"
     inkscape:showpageshadow="2"
     inkscape:pageopacity="0.0"
     inkscape:pagecheckerboard="0"
     inkscape:deskcolor="#d1d1d1"
     showgrid="false"
     inkscape:zoom="0.51379735"
     inkscape:cx="498.25092"
     inkscape:cy="377.58077"
     inkscape:window-width="1920"
     inkscape:window-height="1009"
     inkscape:window-x="-8"
     inkscape:window-y="-8"
     inkscape:window-maximized="1"
     inkscape:current-layer="g788" /><rect
     style="fill:#d32f2f;stroke-width:3.78;stroke-opacity:0.940171;paint-order:fill markers stroke;fill-opacity:0.80000001"
     id="rect602"
     width="490.41107"
     height="490.41104"
     x="72.037773"
     y="83.120514"
     ry="41.17012" /><rect
     style="fill:#d32f2f;fill-opacity:0.80000001;stroke-width:3.78;stroke-opacity:0.940171;paint-order:fill markers stroke"
     id="rect602-4"
     width="490.41107"
     height="490.41104"
     x="152.04146"
     y="-16.06489"
     ry="41.17012"
     transform="rotate(16.491526)"
     inkscape:transform-center-x="-74.808468"
     inkscape:transform-center-y="-36.018892" /><path
     style="fill:#000000;fill-opacity:0.8;stroke-width:3.5839;stroke-opacity:0.940171;paint-order:fill markers stroke"
     d=""
     id="path986" /><path
     style="fill:#000000;fill-opacity:0.8;stroke-width:3.5839;stroke-opacity:0.940171;paint-order:fill markers stroke"
     d=""
     id="path988" /><path
     style="fill:#000000;fill-opacity:0.8;stroke-width:3.5839;stroke-opacity:0.940171;paint-order:fill markers stroke"
     d=""
     id="path990" /><path
     style="fill:#000000;fill-opacity:0.8;stroke-width:3.5839;stroke-opacity:0.940171;paint-order:fill markers stroke"
     d=""
     id="path992" /><path
     style="fill:#000000;fill-opacity:0.8;stroke-width:0.766591;stroke-opacity:0.940171;paint-order:fill markers stroke"
     d=""
     id="path1032" /><path
     style="fill:#000000;fill-opacity:0.8;stroke-width:0.766591;stroke-opacity:0.940171;paint-order:fill markers stroke"
     d=""
     id="path1034" /><path
     style="fill:#000000;fill-opacity:0.8;stroke-width:0.766591;stroke-opacity:0.940171;paint-order:fill markers stroke"
     d=""
     id="path1040" /><g
     id="g583"
     transform="matrix(0.60347479,0,0,0.60347479,124.20276,120.28801)"><g
       id="g788"
       transform="matrix(1.65707,0,0,1.65707,1105.9216,-211.80895)"><path
         d="m 770.96283,679.20736 v 0.89737 a 3.809,3.809 0 0 1 0,-0.89737 z"
         fill="#2f2e41"
         id="path693"
         transform="translate(-181,-130.99812)" /><path
         d="m 798.5576,524.13266 a 15.32366,15.32366 0 0 1 2.183,-0.424 q -1.26905,0.20681 -2.183,0.424 z"
         fill="#2f2e41"
         id="path695"
         transform="translate(-181,-130.99812)" /><path
         d="m 797.919,524.2954 c 0.19365,-0.0543 0.40921,-0.1086 0.63857,-0.16274 -0.21363,0.0556 -0.41908,0.0965 -0.63857,0.16274 z"
         fill="#2f2e41"
         id="path697"
         transform="translate(-181,-130.99812)" /><path
         d="M 810.43534,197.849"
         fill="#2f2e41"
         id="path715"
         transform="translate(-181,-130.99812)" /><g
         id="g1574"
         transform="matrix(0.42414677,0,0,0.42414677,-706.69309,167.91275)"><path
           d="M 697.42,182.16 C 632.7,179.5 571.06,154.79 512.2,127.75 453.34,100.71 395,70.75 331.86,56.42 291.23,47.21 244.77,45.91 212,71.67 c -31.5,24.8 -41.68,67.6 -47.15,107.32 -4.12,29.88 -6.54,61.33 4.74,89.3 7.83,19.42 21.74,35.75 31.36,54.35 33.47,64.73 9.81,144.54 -26.45,207.75 -17,29.64 -36.75,57.93 -49.88,89.49 -13.13,31.56 -19.2,67.72 -7.71,99.91 11.38,31.91 38.51,55.88 67.9,72.74 59.69,34.24 130,44 198.61,49.59 151.82,12.28 304.46,7 456.69,1.64 56.33,-2 112.92,-4 168.34,-14.28 30.78,-5.72 62.55,-14.8 84.89,-36.73 28.37,-27.83 35.4,-75 16.39,-109.86 -31.88,-58.54 -120,-73.08 -142.31,-135.91 -12.26,-34.58 0.33,-73.1 18.16,-105.17 38.23,-68.8 102.33,-129.16 105.7,-207.8 2.32,-54 -28.49,-108.1 -76.13,-133.65 -49.93,-26.79 -119.18,-23.42 -156,20.92 -37.92,45.66 -104.58,63.23 -161.73,60.88 z"
           transform="translate(-79.59,-50.39)"
           fill="#ffffff"
           opacity="0.1"
           id="path1194" /><path
           d="m 505.48,311.93 -53.28,8.35 -27.3,2.6 v 0 l -7.28,0.7 c 0,0 -13,2.06 -14.27,0 -1.27,-2.06 -26.32,0 -26.32,0 0,0 -15.22,-18.14 -51.38,-8.56 a 26.72,26.72 0 0 1 -12,3.68 1.62,1.62 0 0 1 0,-0.22 c 0.13,-4.17 -0.39,-18.55 -13.08,-26.42 a 27.91,27.91 0 0 0 -10.31,3.16 l -0.29,0.16 -0.86,0.5 L 289,296 a 34.86,34.86 0 0 0 0.76,-5 c 0,-0.63 0,-1.26 0.07,-1.89 a 6.62,6.62 0 0 0 3.61,-2.52 4.45,4.45 0 0 0 0.45,-2.35 c 0,-0.29 0,-0.59 0,-0.88 a 1.23,1.23 0 0 1 0,-0.19 c 0,0 0,0 0,0.06 a 58.57,58.57 0 0 0 -1.3,-8.8 l 3.92,2.6 c 0.94,0.62 2.12,1.28 3.24,0.93 a 2.45,2.45 0 0 0 1.52,-1.59 c 0.7,-1.9 0.19,-4.17 1.67,-5.74 0.35,-0.37 0.79,-0.67 1.09,-1.06 a 2.72,2.72 0 0 0 0.55,-1.87 6.7,6.7 0 0 0 -0.09,-1.16 v 0.08 a 6.91,6.91 0 0 1 -0.12,-3 2.6,2.6 0 0 0 3,-0.83 4.87,4.87 0 0 0 0.76,-2.83 c 0.09,-1.69 0.16,-3.42 0.12,-5.14 a 0.34,0.34 0 0 0 0,-0.1 v 0 c -0.1,-4.07 -0.87,-8.08 -3.67,-11.33 0.73,-4.66 -4.34,-9.74 -10,-10.38 -1.39,-0.15 -3.1,-0.23 -3.72,-1.28 a 3.54,3.54 0 0 1 -0.27,-1.58 c -0.14,-1.77 -1.36,-3.34 -2.53,-4.83 a 7.83,7.83 0 0 0 -1.7,-1.7 c -1.86,-1.2 -4.5,-0.88 -6.8,-0.47 q -6.32,1.11 -12.56,2.48 a 12,12 0 0 1 0.09,-6.12 10.82,10.82 0 0 0 0.7,-3.12 3.05,3.05 0 0 0 -0.11,-1 v 0.13 a 5,5 0 0 0 -0.2,-0.49 2.51,2.51 0 0 0 -2,-1.3 2.81,2.81 0 0 0 -2.62,1.58 31,31 0 0 0 -4.85,11.5 11.62,11.62 0 0 0 -11.01,-1.24 9.54,9.54 0 0 1 -2.89,1 4.83,4.83 0 0 1 -4.17,-2.37 c -1.15,-1.71 -1.66,-3.75 -3.88,-4.88 a 3.51,3.51 0 0 0 -3.2,0 2.18,2.18 0 0 0 -1.08,1.32 0.77,0.77 0 0 0 0,-0.15 2.12,2.12 0 0 0 0,0.44 c 0,0.06 0,0.12 0,0.18 0,0.06 0,0.15 0,0.22 -0.08,1.93 1.27,4.43 -0.26,5.95 a 5.71,5.71 0 0 1 -2.1,1.11 l -5.44,1.95 a 30.88,30.88 0 0 1 -9.11,2.24 c -2.85,0.1 -5.73,-0.53 -8.54,-0.46 a 3,3 0 0 1 -0.38,-0.23 14.67,14.67 0 0 0 -1.87,0.22 2.09,2.09 0 0 0 0.2,0.22 h -0.2 a 10.39,10.39 0 0 0 5.41,3.18 c 1.29,0.32 2.65,0.42 3.9,0.82 1.25,0.4 2.44,1.2 2.66,2.3 a 5.23,5.23 0 0 1 -0.64,2.64 l -0.05,-0.08 a 3.09,3.09 0 0 0 -0.19,1.11 2,2 0 0 0 0,0.54 2.75,2.75 0 0 0 3.15,1.79 l -6.43,4.05 a 8.31,8.31 0 0 0 -1.34,1 l -0.18,-0.05 a 1.87,1.87 0 0 0 -0.56,1.38 1.31,1.31 0 0 0 0.07,0.58 l 2.07,0.59 -5.65,7.82 a 9.17,9.17 0 0 0 -0.9,1.45 l -0.06,-0.1 a 2.75,2.75 0 0 0 -0.2,1 2.18,2.18 0 0 0 0,0.51 2,2 0 0 0 2.57,1.57 14.18,14.18 0 0 0 -2.94,4.31 l -0.09,-0.06 -0.09,0.21 a 2.4,2.4 0 0 0 -0.21,1 1.12,1.12 0 0 0 0.15,0.76 2.3,2.3 0 0 0 2,0.69 c 3,0 5.79,-2.05 6.26,-4.5 0.92,1 -0.07,2.19 -0.94,3.22 -3.54,4.14 -7.14,8.35 -9,13.18 a 17.56,17.56 0 0 0 -1.18,5.18 c 0,0 0,-0.08 0,-0.12 0,0.13 0,0.26 0,0.39 a 12.83,12.83 0 0 0 2.92,9.16 16.57,16.57 0 0 1 2.1,2.61 c 1.12,2.08 0.48,4.75 2.22,6.51 a 75.59,75.59 0 0 1 5.08,-10.84 12.07,12.07 0 0 1 -0.42,2.78 v -0.08 c 0,0.24 -0.08,0.47 -0.1,0.7 a 4.34,4.34 0 0 0 0,0.51 2.85,2.85 0 0 0 1.77,2.86 c 1.77,0.63 3.6,-0.65 4.8,-1.93 0.17,0.44 0.34,0.87 0.53,1.3 a 35.83,35.83 0 0 0 18.82,18.35 l 0.16,0.33 v 0 c -6.75,4 -22.44,13.73 -23.46,17.46 -1.31,4.76 -0.84,17.28 8.56,19.82 a 19.61,19.61 0 0 0 6.25,0.66 c -0.4,0.63 -0.79,1.27 -1.17,1.89 -2.6,4.22 -4.78,8.13 -5.44,10.23 -1.9,6.13 -19.66,13.55 -19.66,13.55 0,0 -16.18,13 -19.66,38 0,0 -17.13,22.26 -26.64,26.9 -9.51,4.64 -26,33.08 -26,33.08 0,0 -16.33,11.46 -19.8,22.63 -3.47,11.17 -12,13.92 -12,13.92 0,0 0.78,0.38 2,1.14 -0.39,0.21 -0.8,0.45 -1.26,0.73 -7.76,4.62 -24.89,17.27 -21.1,37 3.68,19 25.16,0.51 35.6,-9.83 l 0.94,-0.94 a 28.31,28.31 0 0 1 -0.66,3.16 39.73,39.73 0 0 1 8.3,-9.32 32.37,32.37 0 0 0 8.41,-10.31 c 1.58,-3 4.11,-6 8,-7 8.56,-2.16 52,-35.55 61.53,-52.87 9.53,-17.32 29.49,-24 29.49,-24 l 9.16,28.65 a 26.75,26.75 0 0 1 0.71,13.55 c -2,9.76 -4.51,28.62 1.55,43.29 0,0 0.28,-0.26 0.79,-0.69 0.83,3.72 1.89,8.61 2.85,13.42 0.23,1.18 0.45,2.36 0.66,3.52 0.61,3.27 1.12,6.34 1.41,8.79 1.27,10.52 4.76,34.64 7.61,37.11 2.85,2.47 19,52.56 19,52.56 0,0 14.27,32.78 12.06,47.31 a 20.72,20.72 0 0 0 0.09,5.35 83.46,83.46 0 0 0 2.18,10.71 c 0.28,1.06 0.56,2.14 0.88,3.24 0.26,0.95 0.54,1.92 0.82,2.89 6.91,23.45 20.13,54.8 20.13,54.8 0,0 1.1,2.85 2.53,6.66 0.47,1.28 1,2.67 1.51,4.1 2.35,6.4 4.83,13.58 4.83,15.21 0,0.37 0.5,0.78 1.37,1.2 a 96.38,96.38 0 0 0 -6,11.72 c -2.78,6.56 -10.78,13.06 -10.78,13.06 0,0 -9.52,2.7 -9.52,11 v 6.34 c 0,0 20.22,-0.39 26.88,1.47 6.66,1.86 15.54,-1.32 15.54,-1.32 l 1.9,-2.46 c 0,0 23.07,1 24.5,-4.73 0.42,-1.68 0.4,-5.26 0.06,-9.53 a 122.65,122.65 0 0 0 -2.3,-15.49 c 1.52,-0.06 2.56,-0.16 2.56,-0.16 0,0 10.55,6.8 11.65,13.53 a 13.85,13.85 0 0 0 6.58,9.58 c 0,0 10.95,5 31.95,2.71 11,-1.17 13.07,-6.77 12.06,-11.75 -0.92,-4.56 -4.44,-8.6 -6.11,-8.27 -3.48,0.7 -17.52,-19.48 -17.52,-19.48 l -7.13,-15 c 0.64,-8 -1.24,-11.79 -3.88,-13.4 1.81,-16.87 2.05,-39.48 2.05,-39.48 0,0 1.59,-27.21 0,-51.64 -1.59,-24.43 -1.59,-72.35 -7,-88.43 -2.5,-7.48 -6.12,-28.43 -9.26,-48.69 -0.24,-1.52 -0.48,-3 -0.7,-4.53 -0.76,-4.93 -1.47,-9.75 -2.13,-14.27 0.31,-0.15 0.63,-0.3 0.91,-0.46 l -1.7,-14.84 -0.24,-2.05 c 0.06,0.06 0.14,0.1 0.2,0.15 5.71,5.25 -1.9,-23.81 -1.9,-23.81 0,0 -3.43,-33.42 -3.2,-52.64 a 181.93,181.93 0 0 0 -1.09,-20.47 c -0.58,-5.72 0.77,-13.15 9.41,-18.38 a 42.62,42.62 0 0 0 6.36,-4.91 c 2.41,-2.19 7.67,-5 19,-5.33 19,-0.61 38,-10.51 38,-10.51 0,0 21.89,1.24 32,-11.75 10.11,-12.99 35.52,-16.07 35.52,-16.07 z m -391.8,219.39 -2.81,-3.94 a 29.25,29.25 0 0 1 2.81,3.94 z m 239.17,160.85 c -0.16,2 -0.28,4.35 -0.3,7 -0.08,8.28 0.74,19.32 4.47,29.87 l -1.59,41.55 h -0.13 c -1.34,-0.14 -2.59,4.1 -3.56,9.69 a 44.14,44.14 0 0 0 -2.94,-6.69 c -1.9,-2.78 -0.31,-18.23 -0.31,-18.23 0,0 -7.94,-12.68 -8.56,-15.47 -0.62,-2.79 -10.16,-47.93 -10.16,-47.93 0,0 -0.63,-35.24 -4.12,-44.2 -3.49,-8.96 -4.44,-47.93 -4.44,-47.93 0,0 17.44,28.13 18.72,42.36 l 13.63,43.6 c 0,0 -0.42,2.38 -0.71,6.38 z"
           transform="translate(-79.59,-50.39)"
           fill="url(#8fcae9e5-a837-46bd-859d-51e037a86afe-56)"
           id="path1196"
           style="fill:url(#8fcae9e5-a837-46bd-859d-51e037a86afe-56)" /><path
           d="m 391,725.57 c 0,0 -0.52,49.47 -5.73,56.2 -5.21,6.73 -32.46,0.31 -32.46,0.31 l 2,-54.37 c -3.61,-10.44 -4.41,-21.38 -4.32,-29.58 0,-2.62 0.13,-5 0.28,-6.93 0.29,-4 0.69,-6.36 0.69,-6.36 l -13.17,-43.18 c -1.23,-14.1 -18.07,-42 -18.07,-42 0,0 0.92,38.59 4.29,47.47 3.37,8.88 4,43.79 4,43.79 0,0 9.19,44.72 9.8,47.48 0.61,2.76 8.27,15.31 8.27,15.31 0,0 -1.53,15.31 0.31,18.07 1.84,2.76 9.49,24.2 7.65,28.18 -1.84,3.98 -34.91,-1.54 -34.91,-4.6 0,-1.61 -2.4,-8.73 -4.67,-15.07 l -1.46,-4.06 c -1.38,-3.77 -2.45,-6.59 -2.45,-6.59 0,0 -12.76,-31.06 -19.43,-54.29 -0.28,-1 -0.54,-1.92 -0.8,-2.85 -0.3,-1.1 -0.58,-2.17 -0.84,-3.22 a 86,86 0 0 1 -2.11,-10.6 21.26,21.26 0 0 1 -0.09,-5.3 c 2.14,-14.4 -11.64,-46.86 -11.64,-46.86 0,0 -15.62,-49.62 -18.38,-52.07 -2.76,-2.45 -6.13,-26.33 -7.35,-36.75 -0.28,-2.44 -0.77,-5.48 -1.36,-8.71 -0.2,-1.15 -0.42,-2.32 -0.64,-3.5 -1.87,-9.65 -4.17,-19.64 -4.17,-19.64 l 34.35,-22.67 90.35,-9.8 c 0,0 2.52,19.36 5.69,40.7 0.22,1.48 0.45,3 0.68,4.49 3,20.06 6.53,40.82 8.94,48.22 5.2,15.93 5.2,63.4 6.74,87.59 1.54,24.19 0.01,51.19 0.01,51.19 z"
           transform="translate(-79.59,-50.39)"
           fill="#63667e"
           id="path1198" /><polygon
           points="233.91,529.33 239.31,529.33 228.51,469.26 222.54,471.28 "
           opacity="0.1"
           id="polygon1200" /><path
           d="m 249.09,549 c -0.2,-1.15 -0.42,-2.32 -0.64,-3.5 5.29,-1.08 17.26,-5.49 15.4,-23.17 h 3.67 c 0,0 3.48,23.29 -18.43,26.67 z"
           transform="translate(-79.59,-50.39)"
           opacity="0.1"
           id="path1202" /><path
           d="m 375.35,538.61 c -6.86,1.26 -28.3,4.95 -32.79,2.51 -5.35,-2.91 -10.64,-18.68 -10.64,-18.68 l 4.9,-0.77 c 0,0 -4.32,23.13 37.85,12.45 0.22,1.48 0.45,2.98 0.68,4.49 z"
           transform="translate(-79.59,-50.39)"
           opacity="0.1"
           id="path1204" /><path
           d="m 373.5,519.53 c -6.18,3.59 -20.69,5.32 -37.58,6 -1.54,0.06 -3.09,0.12 -4.67,0.16 -27.38,0.86 -59.35,-0.69 -72.09,-1.42 -3.59,-0.2 -5.65,-0.34 -5.65,-0.34 l 11.18,-7.73 18.38,-6.74 38.66,-7.58 49.54,-1.38 0.5,4.25 z"
           transform="translate(-79.59,-50.39)"
           fill="#33363d"
           id="path1206" /><path
           d="m 335.92,525.57 c -1.54,0.06 -3.09,0.12 -4.67,0.16 -1.94,-8.22 -8.06,-21.36 -8.06,-21.36 l 5.2,-0.69 z"
           transform="translate(-79.59,-50.39)"
           fill="#63667e"
           id="path1208" /><path
           d="m 127.33,542.62 c 0,0 -2.16,2.5 -5.48,5.88 -10.08,10.25 -30.83,28.56 -34.37,9.74 -3.67,-19.51 12.88,-32 20.37,-36.62 2.12,-1.31 3.51,-2 3.51,-2 z"
           transform="translate(-79.59,-50.39)"
           fill="#ffa2a2"
           id="path1210" /><path
           d="m 312.93,322.22 c 0,0 -11.71,-7.35 -13.89,-6.66 -2.18,0.69 0,10.55 0,10.55 a 28.66,28.66 0 0 1 -12.75,12.42 179.24,179.24 0 0 0 -18.15,10.9 32.53,32.53 0 0 0 -25,8.27 20,20 0 0 1 -16.19,2.76 c -9.08,-2.52 -9.53,-14.92 -8.27,-19.63 1,-3.7 16.14,-13.3 22.66,-17.3 v 0 c 1.8,-1.1 2.94,-1.77 2.94,-1.77 0,0 29.42,-1 36.06,-13.55 a 24.51,24.51 0 0 1 8.82,-9.44 v 0 l 0.17,-0.09 0.84,-0.5 0.27,-0.15 a 26.45,26.45 0 0 1 10,-3.14 c 14.37,9.18 12.49,27.33 12.49,27.33 z"
           transform="translate(-79.59,-50.39)"
           fill="#ced7e7"
           id="path1212" /><path
           d="m 312.93,322.22 c 0,0 -11.71,-7.35 -13.89,-6.66 -2.18,0.69 0,10.55 0,10.55 a 28.66,28.66 0 0 1 -12.75,12.42 179.24,179.24 0 0 0 -18.15,10.9 32.53,32.53 0 0 0 -25,8.27 20,20 0 0 1 -16.19,2.76 c -9.08,-2.52 -9.53,-14.92 -8.27,-19.63 1,-3.7 16.14,-13.3 22.66,-17.3 v 0 c 1.8,-1.1 2.94,-1.77 2.94,-1.77 0,0 29.42,-1 36.06,-13.55 a 24.51,24.51 0 0 1 8.82,-9.44 v 0 l 0.17,-0.09 0.84,-0.5 0.27,-0.15 a 26.45,26.45 0 0 1 10,-3.14 c 14.37,9.18 12.49,27.33 12.49,27.33 z"
           transform="translate(-79.59,-50.39)"
           opacity="0.1"
           id="path1214" /><path
           d="m 371.77,504.79 v 0 c -5.51,-5.21 -39.81,4.28 -39.81,4.28 0,0 -23.62,6.78 -41.64,7.88 a 68.06,68.06 0 0 1 -7.37,0.09 c -7.57,-0.39 -15.46,2.67 -22.08,6.34 l -1.67,1 c -3.59,-0.2 -5.65,-0.34 -5.65,-0.34 l 11.18,-7.73 18.38,-6.74 38.66,-7.58 49.54,-1.38 z"
           transform="translate(-79.59,-50.39)"
           opacity="0.1"
           id="path1216" /><path
           d="m 121.85,548.5 c 2.29,-15.26 -9.55,-24.13 -14,-26.88 2.12,-1.31 3.51,-2 3.51,-2 l 16,23 c 0,0 -2.19,2.5 -5.51,5.88 z"
           transform="translate(-79.59,-50.39)"
           opacity="0.1"
           id="path1218" /><path
           d="m 501.29,340.6 c 0,0 -24.51,3 -34.3,15.92 -9.79,12.92 -30.94,11.64 -30.94,11.64 0,0 -18.38,9.8 -36.75,10.41 -10.91,0.36 -16,3.1 -18.32,5.27 a 41.05,41.05 0 0 1 -6.14,4.87 c -8.34,5.18 -9.65,12.53 -9.08,18.2 a 188.29,188.29 0 0 1 1.05,20.28 c -0.22,19 3.09,52.14 3.09,52.14 0,0 7.35,28.79 1.83,23.59 -5.52,-5.2 -39.81,4.28 -39.81,4.28 0,0 -23.62,6.78 -41.64,7.89 a 67.94,67.94 0 0 1 -7.37,0.08 c -7.57,-0.39 -15.46,2.67 -22.08,6.35 a 89.78,89.78 0 0 0 -15.89,11.41 c -5.86,-14.53 -3.42,-33.22 -1.5,-42.88 a 27.25,27.25 0 0 0 -0.68,-13.42 l -8.85,-28.38 c 0,0 -19.29,6.58 -28.48,23.73 -9.19,17.15 -51.15,50.23 -59.43,52.38 -3.79,1 -6.23,3.95 -7.76,6.89 a 31.77,31.77 0 0 1 -8.11,10.22 39.08,39.08 0 0 0 -8,9.23 c 5.52,-20.83 -15,-30.94 -15,-30.94 0,0 8.26,-2.76 11.63,-13.76 3.37,-11 19,-22.35 19,-22.35 0,0 15.93,-28.18 25.12,-32.78 9.19,-4.6 25.73,-26.64 25.73,-26.64 3.36,-24.81 19,-37.67 19,-37.67 0,0 17.16,-7.35 19,-13.42 0.64,-2.08 2.74,-5.95 5.25,-10.13 2.34,-3.94 5,-8.13 7.15,-11.4 2.15,-3.27 3.84,-5.79 3.84,-5.79 l 27.5,-0.26 5,-0.05 14.65,-27.58 c 0,0 5.21,-5.2 14.24,0.92 a 14.49,14.49 0 0 0 8.8,2.42 25.49,25.49 0 0 0 11.57,-3.64 c 34.92,-9.5 49.62,8.48 49.62,8.48 0,0 24.19,-2.05 25.41,0 1.22,2.05 13.78,0 13.78,0 l 33.39,-3.28 51.46,-8.26 z"
           transform="translate(-79.59,-50.39)"
           fill="#ced7e7"
           id="path1220" /><path
           d="m 300.37,331.41 -15.62,25.72 c 0,0 -42.57,30.94 -36.44,6.74 a 40.41,40.41 0 0 0 1.05,-12.45 c -0.09,-1.63 -0.28,-3.26 -0.52,-4.87 A 79,79 0 0 0 243,327.2 c -0.31,-0.74 -0.63,-1.45 -1,-2.15 -0.48,-1 -0.95,-2 -1.42,-2.94 a 97.74,97.74 0 0 0 -6.71,-11.53 c 0,0 46.25,-37.67 47.78,-14.09 a 48.26,48.26 0 0 0 3.6,15.49 l 0.36,0.83 a 48.07,48.07 0 0 0 10.89,15.43 32.57,32.57 0 0 0 3.87,3.17 z"
           transform="translate(-79.59,-50.39)"
           fill="#ffa2a2"
           id="path1222" /><path
           d="m 238.51,355.3 7.2,21.43 29.29,4.75 16.8,-18.48 c 0,0 9.65,-13.78 10.26,-14.09 0.61,-0.31 2.14,-13.47 2.14,-13.47 l 1.8,-7.44 -11.33,-3.81 -15.93,17.3 -6.51,4 -7.23,1.76 -24,7 z"
           transform="translate(-79.59,-50.39)"
           fill="#ced7e7"
           id="path1224" /><path
           d="m 312.93,324.06 c 0,0 -8,-0.08 -10.13,0.61 -2.13,0.69 -3.76,3.27 -3.76,3.27 a 28.65,28.65 0 0 1 -12.75,12.43 179.24,179.24 0 0 0 -18.15,10.9 32.49,32.49 0 0 0 -25,8.27 20.39,20.39 0 0 1 -11.33,3.46 c 2.34,-3.94 5,-8.13 7.15,-11.4 9.88,-1.08 30.79,-4.91 30.79,-4.91 l 0.55,-1.14 c 1.94,-4 8.51,-17.51 10.93,-21.59 2.82,-4.76 11.66,-19.63 11.94,-20.1 l -8.68,7.94 4.64,-11.18 v 0 l 0.17,-0.09 0.84,-0.5 0.27,-0.15 a 26.45,26.45 0 0 1 10,-3.14 c 10.95,7 12.51,19.1 12.63,24.55 a 24.44,24.44 0 0 1 -0.11,2.77 z"
           transform="translate(-79.59,-50.39)"
           opacity="0.1"
           id="path1226" /><path
           d="m 241.31,321.7 2.27,5 c 0,0 -0.19,0.16 -0.59,0.46 -0.31,-0.74 -0.63,-1.45 -1,-2.15 -0.48,-1 -0.95,-2 -1.42,-2.94 0.24,-0.14 0.46,-0.29 0.68,-0.41 z"
           transform="translate(-79.59,-50.39)"
           opacity="0.1"
           id="path1228" /><path
           d="m 296.54,328.24 a 30.54,30.54 0 0 1 -10.25,8.45 178.28,178.28 0 0 0 -18.15,10.91 32.5,32.5 0 0 0 -18.78,3.82 c -0.09,-1.63 -0.28,-3.26 -0.52,-4.87 9.84,-1.52 20.91,-3.55 20.91,-3.55 0,0 8.62,-17.91 11.48,-22.73 1,-1.62 2.64,-4.45 4.42,-7.46 a 48.07,48.07 0 0 0 10.89,15.43 z"
           transform="translate(-79.59,-50.39)"
           opacity="0.1"
           id="path1230" /><path
           d="m 312.93,322.22 c 0,0 -8,-0.08 -10.14,0.61 -2.14,0.69 -3.75,3.28 -3.75,3.28 a 28.66,28.66 0 0 1 -12.75,12.42 179.24,179.24 0 0 0 -18.15,10.9 32.53,32.53 0 0 0 -25,8.27 20,20 0 0 1 -16.19,2.76 c -9.08,-2.52 -9.53,-14.92 -8.27,-19.63 1,-3.7 16.14,-13.3 22.66,-17.3 v 0 l 2.27,5.05 a 141.74,141.74 0 0 1 -14.83,9.95 c -9.77,5.85 -4.83,12.17 -4.83,12.17 A 50.48,50.48 0 0 1 234.6,350 c 5.06,0.34 35.15,-5.17 35.15,-5.17 0,0 8.62,-17.92 11.48,-22.73 2.86,-4.81 11.66,-19.63 11.94,-20.1 l -8.68,8 4.64,-11.18 v 0 l 0.17,-0.09 0.84,-0.5 0.27,-0.15 a 26.45,26.45 0 0 1 10,-3.14 c 14.4,9.13 12.52,27.28 12.52,27.28 z"
           transform="translate(-79.59,-50.39)"
           fill="#ced7e7"
           id="path1232" /><path
           d="M 285.29,312 A 34.94,34.94 0 0 1 242,325.05 101.51,101.51 0 0 0 233.87,310.58 c 0,0 46.25,-37.67 47.78,-14.09 a 48.26,48.26 0 0 0 3.64,15.51 z"
           transform="translate(-79.59,-50.39)"
           opacity="0.1"
           id="path1234" /><path
           d="m 290,291.19 q 0,1.31 -0.09,2.58 a 35,35 0 1 1 0.09,-2.58 z"
           transform="translate(-79.59,-50.39)"
           fill="#ffa2a2"
           id="path1236" /><path
           d="m 199.31,403.69 c 0,0 7.69,14.39 17.15,22.31 9.46,7.92 15,20.22 15,20.22 0,0 -2.75,-23.85 -32.15,-42.53 z"
           transform="translate(-79.59,-50.39)"
           opacity="0.1"
           id="path1238" /><path
           d="m 187.36,439.83 c 0,0 27,-6.74 40.59,0 z"
           transform="translate(-79.59,-50.39)"
           opacity="0.1"
           id="path1240" /><path
           d="m 177.56,480 29.05,-10 c 0,0 -18.61,13.32 -29.05,10 z"
           transform="translate(-79.59,-50.39)"
           opacity="0.1"
           id="path1242" /><path
           d="m 127.33,519.15 c 0,0 12.56,-0.61 16.54,3.37 0,0 -12.25,0.92 -16.54,-3.37 z"
           transform="translate(-79.59,-50.39)"
           opacity="0.1"
           id="path1244" /><path
           d="m 420.41,325.41 c 0,0 -28.16,16.72 -29.41,43.67 z"
           transform="translate(-79.59,-50.39)"
           opacity="0.1"
           id="path1246" /><path
           d="m 454.43,350.7 c 0,0 -34.92,7.05 -40.74,10.72 -5.82,3.67 -18.37,5.51 -18.37,5.51 0,0 50.53,-6.73 59.11,-16.23 z"
           transform="translate(-79.59,-50.39)"
           opacity="0.1"
           id="path1248" /><path
           d="m 352,498.51 c -2.54,2.64 -33.89,10.08 -61.91,16.3 a 70.46,70.46 0 0 1 -7.64,0.09 c -7.85,-0.4 -16,2.75 -22.9,6.53 -8.46,1.8 -13.93,2.93 -13.93,2.93 0,0 -9.21,-7.26 3.49,-23.65 12.7,-16.39 14.93,-42.25 14.93,-42.25 L 320.58,444 c 0,0 15.25,21 22.55,24.37 7.3,3.37 13.57,25.28 8.87,30.14 z"
           transform="translate(-79.59,-50.39)"
           opacity="0.1"
           id="path1250" /><path
           d="m 350,499.24 c -2.46,2.58 -32.69,9.8 -59.71,15.85 a 67.94,67.94 0 0 1 -7.37,0.08 c -7.57,-0.39 -15.46,2.67 -22.08,6.35 -8.16,1.74 -13.44,2.84 -13.44,2.84 0,0 -8.88,-7.05 3.37,-23 12.25,-15.95 14.39,-41.05 14.39,-41.05 l 54.52,-14.08 c 0,0 14.7,20.4 21.74,23.68 7.04,3.28 13.08,24.62 8.58,29.33 z"
           transform="translate(-79.59,-50.39)"
           fill="#ced7e7"
           id="path1252" /><path
           d="M 305.74,700 290,709.32 a 86,86 0 0 1 -2.11,-10.6 c 2.29,1.91 17.85,1.28 17.85,1.28 z"
           transform="translate(-79.59,-50.39)"
           opacity="0.1"
           id="path1254" /><path
           d="m 290.86,712.54 c 5.56,-1.06 18.76,-3.7 26,-6.18 -6.56,3.2 -18.43,8.55 -25.17,9 -0.31,-0.93 -0.57,-1.89 -0.83,-2.82 z"
           transform="translate(-79.59,-50.39)"
           opacity="0.1"
           id="path1256" /><path
           d="m 321.5,704 c -0.58,0.71 -2.28,1.51 -4.63,2.32 2.81,-1.32 4.63,-2.32 4.63,-2.32 z"
           transform="translate(-79.59,-50.39)"
           opacity="0.1"
           id="path1258" /><path
           d="m 331,781 c -4.46,0.37 -11.71,-0.23 -16,-0.67 l -1.46,-4.06 c 4.59,0.49 13.7,1.26 17.46,0.14 5.13,-1.52 6.67,4.06 0,4.59 z"
           transform="translate(-79.59,-50.39)"
           opacity="0.1"
           id="path1260" /><path
           d="m 370.85,699.61 c -0.74,-0.1 -12.64,-1.44 -20.3,-1.48 0,-2.62 0.13,-5 0.28,-6.93 5.28,2.23 19.23,8.14 20.02,8.41 z"
           transform="translate(-79.59,-50.39)"
           opacity="0.1"
           id="path1262" /><path
           d="M 362.09,831.31 C 360.71,837 338.43,836 338.43,836 l -1.84,2.44 c 0,0 -8.57,3.14 -15,1.3 -6.43,-1.84 -26,-1.45 -26,-1.45 V 832 c 0,-8.19 9.19,-10.87 9.19,-10.87 0,0 7.73,-6.43 10.41,-12.94 A 97,97 0 0 1 321,796.48 c 0,0 -7.19,-8.73 12.1,-11 19,-2.2 11.55,15.05 11.34,15.53 0.31,-0.28 7.44,-6.69 11.4,-4.67 2.86,1.47 5.45,15.39 6.26,25.47 0.37,4.28 0.39,7.83 -0.01,9.5 z"
           transform="translate(-79.59,-50.39)"
           fill="#ced7e7"
           id="path1264" /><path
           d="M 362.09,831.31 C 360.71,837 338.43,836 338.43,836 l -1.84,2.44 c 0,0 -8.57,3.14 -15,1.3 -6.43,-1.84 -26,-1.45 -26,-1.45 v -6 c 11.78,0.58 35.36,1.36 40.66,-1.37 0,0 6.35,-1.61 7.81,-2.68 1.23,-0.91 14.17,-5.14 18,-6.39 0.41,4.24 0.43,7.79 0.03,9.46 z"
           transform="translate(-79.59,-50.39)"
           opacity="0.1"
           id="path1266" /><path
           d="M 410.86,831.94 C 390.57,834.16 380,829.25 380,829.25 a 13.66,13.66 0 0 1 -6.35,-9.49 c -1.07,-6.66 -11.26,-13.39 -11.26,-13.39 0,0 -12.55,1.22 -14.09,-2.46 a 16.59,16.59 0 0 1 -0.42,-4.77 c 0,-9.87 2.47,-30.6 5.32,-30.3 3.36,0.37 13.75,14.13 14.79,15.51 -0.91,-1.48 -9.95,-16.89 10.1,-18.72 0,0 16.38,-9.26 14.7,12.33 l 6.89,14.85 c 0,0 13.56,20 16.92,19.3 1.61,-0.33 5,3.67 5.9,8.19 0.97,4.93 -1.04,10.48 -11.64,11.64 z"
           transform="translate(-79.59,-50.39)"
           fill="#ced7e7"
           id="path1268" /><path
           d="m 290,291.19 q 0,1.31 -0.09,2.58 l -0.85,0.32 -3.29,1.2 a 5,5 0 0 1 -1.75,0.4 3.1,3.1 0 0 1 -2.39,-1.29 7.17,7.17 0 0 1 -1,-2.37 l -2.49,-9.57 c -0.5,-1.9 -1.27,-4.09 -3.4,-4.8 a 13.37,13.37 0 0 1 -1.83,-0.54 c -1.33,-0.63 -1.61,-2.11 -2.06,-3.35 -1,-2.89 -3.67,-5.2 -6.56,-7 a 11.84,11.84 0 0 0 -6.66,-2.14 5.77,5.77 0 0 0 -3.51,1.26 c -2.09,1.77 -1.8,4.16 -1.55,6.68 0.25,2.52 0.92,5.21 0.18,7.73 -0.5,1.64 -1.57,3.17 -1.76,4.87 -0.16,1.37 0.29,2.76 0.21,4.13 a 3.28,3.28 0 0 1 -2.6,3.14 c -0.13,-0.83 -1.34,-1.1 -2.15,-1.55 -1.83,-1 -1.93,-3.18 -1.85,-5 0.14,-2.72 0.27,-5.45 0.4,-8.17 a 125.42,125.42 0 0 1 -3.75,18 5.92,5.92 0 0 1 -1.38,2.76 2.9,2.9 0 0 1 -3.19,0.61 3.05,3.05 0 0 1 -1.29,-1.69 19.91,19.91 0 0 1 -1.28,-10 c -1.11,4.43 -2.22,8.91 -4.36,13.07 -0.85,1.65 -2.14,3.44 -4.23,3.77 a 7.25,7.25 0 0 0 -1.88,0.31 2.21,2.21 0 0 0 -0.65,0.47 34.91,34.91 0 1 1 67,-13.84 z"
           transform="translate(-79.59,-50.39)"
           opacity="0.1"
           id="path1270" /><path
           d="m 254.12,264.1 a 5.74,5.74 0 0 1 3.51,-1.27 11.89,11.89 0 0 1 6.66,2.14 c 2.89,1.76 5.52,4.06 6.56,7 0.45,1.24 0.72,2.73 2,3.36 a 16,16 0 0 0 1.83,0.53 c 2.14,0.71 2.91,2.9 3.4,4.8 l 2.51,9.57 a 6.75,6.75 0 0 0 0.95,2.37 3.1,3.1 0 0 0 2.39,1.3 4.92,4.92 0 0 0 1.76,-0.41 l 3.29,-1.2 c 1.73,-0.63 3.61,-1.38 4.4,-2.84 a 5.44,5.44 0 0 0 0.4,-3 59.42,59.42 0 0 0 -1.28,-9.08 l 3.78,2.57 c 0.91,0.61 2.05,1.26 3.13,0.92 a 2.41,2.41 0 0 0 1.47,-1.58 c 0.68,-1.88 0.19,-4.13 1.61,-5.68 0.34,-0.36 0.76,-0.67 1.06,-1.05 1.29,-1.66 -0.24,-3.91 0.29,-5.85 a 2.5,2.5 0 0 0 2.92,-0.83 4.9,4.9 0 0 0 0.73,-2.8 c 0.3,-5.65 0.44,-11.77 -3.43,-16.37 0.71,-4.62 -4.19,-9.65 -9.61,-10.28 -1.35,-0.16 -3,-0.24 -3.59,-1.27 a 3.5,3.5 0 0 1 -0.27,-1.57 c -0.14,-1.75 -1.31,-3.31 -2.44,-4.78 a 7.3,7.3 0 0 0 -1.64,-1.69 c -1.79,-1.18 -4.34,-0.86 -6.56,-0.46 q -6.11,1.09 -12.14,2.45 a 12.16,12.16 0 0 1 0.09,-6 c 0.41,-1.48 1.11,-3 0.35,-4.48 a 2.41,2.41 0 0 0 -2,-1.29 2.71,2.71 0 0 0 -2.53,1.57 31.08,31.08 0 0 0 -4.68,11.38 11,11 0 0 0 -10.52,-1.2 8.89,8.89 0 0 1 -2.78,1 4.69,4.69 0 0 1 -4,-2.35 c -1.1,-1.7 -1.6,-3.72 -3.74,-4.83 a 3.31,3.31 0 0 0 -3.09,0 c -2.83,1.65 0.7,5.74 -1.4,7.89 a 5.53,5.53 0 0 1 -2,1.1 l -5.25,1.93 a 28.89,28.89 0 0 1 -8.8,2.21 c -3.48,0.14 -7,-0.93 -10.42,-0.21 a 10.07,10.07 0 0 0 5.23,3.15 c 1.24,0.31 2.55,0.41 3.76,0.81 a 3.54,3.54 0 0 1 2.57,2.28 c 0.27,1.41 -1.09,2.77 -0.82,4.18 a 2.67,2.67 0 0 0 3,1.77 l -6.21,4 c -1.12,0.72 -2.37,1.77 -1.95,2.91 l 2,0.58 -5.39,7.73 a 4.45,4.45 0 0 0 -1.13,2.84 2,2 0 0 0 2.48,1.55 14.44,14.44 0 0 0 -3,4.66 1.64,1.64 0 0 0 -0.05,1.49 2.2,2.2 0 0 0 1.89,0.69 c 2.9,0 5.59,-2 6,-4.47 0.89,1 -0.06,2.18 -0.91,3.19 -3.41,4.1 -6.89,8.28 -8.7,13.06 -1.81,4.78 -1.73,10.36 1.66,14.47 a 16.58,16.58 0 0 1 2,2.59 c 1.08,2.06 0.46,4.7 2.14,6.45 a 75.57,75.57 0 0 1 4.9,-10.74 32.06,32.06 0 0 1 -0.53,3.61 3,3 0 0 0 1.71,3.1 c 1.76,0.64 3.59,-0.73 4.74,-2 a 3.25,3.25 0 0 1 1.07,-0.91 7.54,7.54 0 0 1 1.87,-0.31 c 2.09,-0.33 3.37,-2.11 4.23,-3.77 2.14,-4.15 3.26,-8.63 4.36,-13.08 a 19.77,19.77 0 0 0 1.29,10 3,3 0 0 0 1.28,1.69 2.92,2.92 0 0 0 3.19,-0.62 5.87,5.87 0 0 0 1.38,-2.76 126.51,126.51 0 0 0 3.75,-18 l -0.4,8.17 c -0.09,1.84 0,4 1.84,5 0.83,0.45 2,0.72 2.16,1.54 a 3.23,3.23 0 0 0 2.59,-3.13 c 0.09,-1.38 -0.36,-2.76 -0.2,-4.14 0.19,-1.69 1.27,-3.22 1.76,-4.87 0.74,-2.51 0.09,-5.14 -0.18,-7.72 -0.27,-2.58 -0.42,-4.95 1.7,-6.71 z"
           transform="translate(-79.59,-50.39)"
           fill="#896363"
           id="path1272" /><path
           d="M 410.86,831.94 C 390.57,834.16 380,829.25 380,829.25 a 13.66,13.66 0 0 1 -6.35,-9.49 c -1.07,-6.66 -11.26,-13.39 -11.26,-13.39 0,0 -12.55,1.22 -14.09,-2.46 a 16.59,16.59 0 0 1 -0.42,-4.77 c 4.64,1.11 15.33,3.66 18.64,4.61 4.3,1.22 16.86,21.59 16.86,21.59 12.09,6.36 32.1,-1.8 39.12,-5 0.97,4.89 -1.04,10.44 -11.64,11.6 z"
           transform="translate(-79.59,-50.39)"
           opacity="0.1"
           id="path1274" /><path
           d="m 321,796.48 c 0,0 -6.18,9.48 23.44,4.58"
           transform="translate(-79.59,-50.39)"
           opacity="0.1"
           id="path1276" /><path
           d="m 368,784.35 c 0,0 31.24,6.79 24.8,-6.39"
           transform="translate(-79.59,-50.39)"
           opacity="0.1"
           id="path1278" /><g
           opacity="0.1"
           id="g1310"><path
             d="m 218,244.54 a 2.77,2.77 0 0 0 -0.16,1.39 2.12,2.12 0 0 0 0.94,1.3 l 2.11,-1.36 A 2.79,2.79 0 0 1 218,244.54 Z"
             transform="translate(-79.59,-50.39)"
             id="path1280" /><path
             d="m 212.28,238.67 c 1.25,0.31 2.56,0.41 3.77,0.81 a 4,4 0 0 1 2.41,1.82 2.72,2.72 0 0 0 0.16,-1.38 3.54,3.54 0 0 0 -2.57,-2.28 c -1.21,-0.4 -2.52,-0.5 -3.77,-0.81 a 10.64,10.64 0 0 1 -3.41,-1.53 11,11 0 0 0 -1.81,0.22 10.08,10.08 0 0 0 5.22,3.15 z"
             transform="translate(-79.59,-50.39)"
             id="path1282" /><path
             d="m 216.66,296.87 a 75.63,75.63 0 0 0 -4.91,10.74 c -1.67,-1.75 -1.06,-4.39 -2.14,-6.45 a 15.94,15.94 0 0 0 -2,-2.59 12.56,12.56 0 0 1 -2.81,-7.37 13,13 0 0 0 2.81,9.21 15.94,15.94 0 0 1 2,2.59 c 1.08,2.06 0.47,4.69 2.14,6.45 a 76.21,76.21 0 0 1 4.55,-10.07 10.71,10.71 0 0 0 0.36,-2.51 z"
             transform="translate(-79.59,-50.39)"
             id="path1284" /><path
             d="m 208.39,264.51 a 2.51,2.51 0 0 0 -0.21,1.26 2,2 0 0 0 1.09,1.43 14.14,14.14 0 0 1 1.39,-1.72 1.92,1.92 0 0 1 -2.27,-0.97 z"
             transform="translate(-79.59,-50.39)"
             id="path1286" /><path
             d="m 267.58,225.12 a 11.45,11.45 0 0 1 0.37,-2.32 c 0.36,-1.28 0.92,-2.58 0.57,-3.88 -0.14,0.68 -0.38,1.37 -0.57,2 a 11.94,11.94 0 0 0 -0.37,4.2 z"
             transform="translate(-79.59,-50.39)"
             id="path1288" /><path
             d="m 233.9,224 a 10.07,10.07 0 0 0 0.27,3.47 9.91,9.91 0 0 0 -0.27,-3.47 z"
             transform="translate(-79.59,-50.39)"
             id="path1290" /><path
             d="m 215.53,267.85 c -0.45,2.43 -3.15,4.42 -6,4.47 a 2.48,2.48 0 0 1 -1.75,-0.54 l -0.09,0.2 a 1.67,1.67 0 0 0 -0.06,1.49 2.22,2.22 0 0 0 1.9,0.68 6.79,6.79 0 0 0 3.35,-0.95 c 0.59,-0.73 1.19,-1.45 1.78,-2.16 a 10.32,10.32 0 0 0 0.86,-1.14 1.6,1.6 0 0 0 0.05,-0.21 v 0.05 a 1.5,1.5 0 0 0 -0.04,-1.89 z"
             transform="translate(-79.59,-50.39)"
             id="path1292" /><path
             d="m 213.17,252.92 a 1.66,1.66 0 0 0 -0.48,1.7 l 0.94,0.27 1.06,-1.53 z"
             transform="translate(-79.59,-50.39)"
             id="path1294" /><path
             d="m 303.6,270.47 c -0.3,0.38 -0.72,0.69 -1.06,1 -1.43,1.55 -0.93,3.8 -1.61,5.68 a 2.43,2.43 0 0 1 -1.47,1.58 c -1.08,0.34 -2.22,-0.31 -3.13,-0.92 l -3.78,-2.57 c 0.15,0.7 0.29,1.41 0.42,2.12 l 3.36,2.28 c 0.91,0.62 2.05,1.27 3.13,0.93 a 2.45,2.45 0 0 0 1.47,-1.58 c 0.68,-1.88 0.18,-4.13 1.61,-5.68 0.34,-0.37 0.76,-0.67 1.06,-1.05 a 3.41,3.41 0 0 0 0.43,-2.76 2.34,2.34 0 0 1 -0.43,0.97 z"
             transform="translate(-79.59,-50.39)"
             id="path1296" /><path
             d="m 293.81,286 a 3.59,3.59 0 0 1 -0.38,1.31 c -0.79,1.46 -2.67,2.21 -4.41,2.84 l -3.28,1.2 a 5.14,5.14 0 0 1 -1.76,0.41 3.1,3.1 0 0 1 -2.39,-1.3 7,7 0 0 1 -1,-2.37 l -2.5,-9.57 c -0.5,-1.9 -1.26,-4.09 -3.4,-4.8 a 16,16 0 0 1 -1.83,-0.53 c -1.33,-0.64 -1.61,-2.12 -2,-3.36 -1,-2.9 -3.67,-5.2 -6.56,-7 a 11.92,11.92 0 0 0 -6.66,-2.14 5.72,5.72 0 0 0 -3.51,1.27 c -1.67,1.41 -1.82,3.22 -1.69,5.18 a 4.73,4.73 0 0 1 1.69,-3.35 5.84,5.84 0 0 1 3.51,-1.27 12.07,12.07 0 0 1 6.66,2.14 c 2.89,1.77 5.52,4.07 6.56,7 0.44,1.24 0.72,2.72 2,3.36 a 16,16 0 0 0 1.83,0.53 c 2.14,0.71 2.9,2.9 3.4,4.8 l 2.5,9.56 a 6.88,6.88 0 0 0 1,2.37 3.08,3.08 0 0 0 2.39,1.31 5.38,5.38 0 0 0 1.76,-0.41 L 289,292 c 1.74,-0.63 3.62,-1.38 4.41,-2.84 a 5.44,5.44 0 0 0 0.4,-3 c 0.01,-0.02 0.01,-0.08 0,-0.16 z"
             transform="translate(-79.59,-50.39)"
             id="path1298" /><path
             d="m 307.54,261 a 4.9,4.9 0 0 1 -0.73,2.8 2.5,2.5 0 0 1 -2.92,0.83 4.71,4.71 0 0 0 0,2 v -0.14 a 2.5,2.5 0 0 0 2.92,-0.83 4.92,4.92 0 0 0 0.73,-2.8 c 0.09,-1.63 0.16,-3.3 0.12,-4.95 -0.02,1.01 -0.07,2.09 -0.12,3.09 z"
             transform="translate(-79.59,-50.39)"
             id="path1300" /><path
             d="m 234.11,283.48 a 59,59 0 0 1 -4.36,13.08 c -0.86,1.66 -2.14,3.44 -4.24,3.77 a 7.7,7.7 0 0 0 -1.87,0.31 3.31,3.31 0 0 0 -1.06,0.91 c -1.15,1.3 -3,2.67 -4.74,2 a 2.59,2.59 0 0 1 -1.61,-1.95 c 0,0.24 -0.08,0.47 -0.1,0.7 a 2.93,2.93 0 0 0 1.71,3.09 c 1.76,0.65 3.59,-0.73 4.74,-2 a 3.41,3.41 0 0 1 1.06,-0.9 6.84,6.84 0 0 1 1.87,-0.31 c 2.1,-0.33 3.38,-2.11 4.24,-3.77 a 56.54,56.54 0 0 0 4.19,-12.41 19.24,19.24 0 0 1 0.17,-2.52 z"
             transform="translate(-79.59,-50.39)"
             id="path1302" /><path
             d="m 245,273.82 a 126.51,126.51 0 0 1 -3.75,18 5.8,5.8 0 0 1 -1.39,2.76 2.91,2.91 0 0 1 -3.19,0.62 3.05,3.05 0 0 1 -1.27,-1.69 20,20 0 0 1 -1.4,-6.51 19.84,19.84 0 0 0 1.43,8.35 3.07,3.07 0 0 0 1.27,1.7 2.93,2.93 0 0 0 3.19,-0.62 5.84,5.84 0 0 0 1.39,-2.76 126.08,126.08 0 0 0 3.62,-17.11 z"
             transform="translate(-79.59,-50.39)"
             id="path1304" /><path
             d="m 252.74,276.42 c -0.49,1.65 -1.56,3.17 -1.75,4.87 a 7,7 0 0 0 0,1.65 c 0.24,-1.62 1.25,-3.09 1.72,-4.68 a 10,10 0 0 0 0.31,-3.57 8.61,8.61 0 0 1 -0.28,1.73 z"
             transform="translate(-79.59,-50.39)"
             id="path1306" /><path
             d="m 248.6,288.56 c -0.14,-0.82 -1.34,-1.09 -2.16,-1.54 a 4,4 0 0 1 -1.83,-3.42 v 0.23 c -0.09,1.84 0,4 1.84,5 0.82,0.45 2,0.71 2.16,1.54 a 3.26,3.26 0 0 0 2.59,-3.14 8.43,8.43 0 0 0 -0.05,-1.42 3.15,3.15 0 0 1 -2.55,2.75 z"
             transform="translate(-79.59,-50.39)"
             id="path1308" /></g><path
           d="M 560.3,849.61 H 443.81 a 9.73,9.73 0 0 1 -9.68,-10.87 l 28.36,-241 0.59,-5.09 a 9.74,9.74 0 0 1 9.67,-8.6 h 61.16 a 9.74,9.74 0 0 1 9.68,8.7 l 0.51,4.83 25.9,241.25 a 9.74,9.74 0 0 1 -9.7,10.78 z"
           transform="translate(-79.59,-50.39)"
           fill="#4e5a86"
           id="path1312" /><path
           d="m 470.53,612.87 c 0,0 4.28,109.33 -12.25,151 0,0 1.72,8.88 6.37,0 4.65,-8.88 20.58,-101.38 12.92,-149.46 0,-0.01 -1.57,-5.22 -7.04,-1.54 z"
           transform="translate(-79.59,-50.39)"
           opacity="0.1"
           id="path1314" /><path
           d="m 491.05,612.87 c 0,0 4.28,109.33 -12.25,151 0,0 1.72,8.88 6.37,0 4.65,-8.88 20.58,-101.38 12.92,-149.46 0,-0.01 -1.53,-5.22 -7.04,-1.54 z"
           transform="translate(-79.59,-50.39)"
           opacity="0.1"
           id="path1316" /><path
           d="m 541,612.87 c 0,0 -4.29,109.33 12.25,151 0,0 -1.73,8.88 -6.38,0 -4.65,-8.88 -20.6,-101.39 -12.95,-149.47 0,0 1.54,-5.21 7.08,-1.53 z"
           transform="translate(-79.59,-50.39)"
           opacity="0.1"
           id="path1318" /><path
           d="m 520.45,612.87 c 0,0 -4.29,109.33 12.25,151 0,0 -1.73,8.88 -6.38,0 -4.65,-8.88 -20.57,-101.39 -12.92,-149.47 0,0 1.54,-5.21 7.05,-1.53 z"
           transform="translate(-79.59,-50.39)"
           opacity="0.1"
           id="path1320" /><rect
           x="395.64001"
           y="19.42"
           width="55.360001"
           height="483.03"
           fill="#4e5a86"
           id="rect1322" /><polygon
           points=""
           fill="none"
           stroke="#c1272d"
           stroke-miterlimit="10"
           id="polygon1324" /><path
           d="m 544.1,597.61 a 7.46,7.46 0 0 1 -1.91,0.25 h -78.55 a 7.24,7.24 0 0 1 -1.15,-0.09 l 0.59,-5.09 a 9.74,9.74 0 0 1 9.67,-8.6 h 61.16 a 9.74,9.74 0 0 1 9.68,8.7 z"
           transform="translate(-79.59,-50.39)"
           opacity="0.1"
           id="path1326" /><rect
           x="395.64001"
           y="492.79999"
           width="55.93"
           height="9.6499996"
           opacity="0.1"
           id="rect1328" /><rect
           x="376.69"
           y="494.64001"
           width="93.260002"
           height="50.990002"
           rx="8"
           ry="8"
           fill="#4e5a86"
           id="rect1330" /><rect
           x="399.35999"
           y="19.42"
           width="7.96"
           height="460.06"
           opacity="0.1"
           id="rect1332" /><rect
           x="412.67999"
           y="19.42"
           width="7.96"
           height="460.06"
           opacity="0.1"
           id="rect1334" /><rect
           x="426"
           y="19.42"
           width="7.96"
           height="460.06"
           opacity="0.1"
           id="rect1336" /><rect
           x="439.32999"
           y="19.42"
           width="7.96"
           height="460.06"
           opacity="0.1"
           id="rect1338" /><path
           d="m 534.05,300.44 c 0,0 -18.22,-5.67 -15.46,14.39 2.76,20.06 9.8,21.29 9.8,21.29 0,0 6.12,-1.38 6.89,-9.34 0.77,-7.96 -1.23,-26.34 -1.23,-26.34 z"
           transform="translate(-79.59,-50.39)"
           fill="#ffa2a2"
           id="path1340" /><g
           opacity="0.1"
           id="g1352"><path
             d="m 949.48,727.76 c 15.33,22.63 10.43,103.65 10.43,103.65 0,0 -77,-25.5 -92.38,-48.13 a 49.513812,49.513812 0 0 1 82,-55.52 z"
             transform="translate(-79.59,-50.39)"
             fill="#ffffff"
             id="path1342" /><path
             d="m 949.48,727.76 c 15.33,22.63 10.43,103.65 10.43,103.65 0,0 -77,-25.5 -92.38,-48.13 a 49.513812,49.513812 0 0 1 82,-55.52 z"
             transform="translate(-79.59,-50.39)"
             opacity="0.1"
             id="path1344" /><path
             d="m 881.05,714.6 c 0,0 57.74,44.58 79.16,116.87"
             transform="translate(-79.59,-50.39)"
             fill="none"
             stroke="#535461"
             stroke-miterlimit="10"
             id="path1346" /><path
             d="m 974.75,770.06 c 0,0 -41,-7 -13,60.91 0,0 28.49,-10.85 30.71,-37.87 a 21.55,21.55 0 0 0 -17.15,-22.92 z"
             transform="translate(-79.59,-50.39)"
             fill="#ffffff"
             id="path1348" /><path
             d="m 975.36,770 c 0,0 7.81,37.56 -13.56,61"
             transform="translate(-79.59,-50.39)"
             fill="none"
             stroke="#535461"
             stroke-miterlimit="10"
             id="path1350" /></g><g
           opacity="0.1"
           id="g1370"><path
             d="m 526.05,660 c 0,0 61.58,-157 179.31,-216.39 49.42,-24.92 90.06,-64.4 114.65,-114 a 430,430 0 0 0 28.22,-73.36"
             transform="translate(-79.59,-50.39)"
             fill="none"
             stroke="#535461"
             stroke-miterlimit="10"
             stroke-width="2"
             id="path1354" /><path
             d="m 922.2,218.38 c -12.16,15.67 -75.78,39.07 -75.78,39.07 0,0 6.9,-67.44 19.06,-83.1 a 35.9,35.9 0 1 1 56.72,44 z"
             transform="translate(-79.59,-50.39)"
             fill="#ffffff"
             id="path1356" /><path
             d="m 901.72,341.54 c -18.72,6.54 -84.85,-8.4 -84.85,-8.4 0,0 42.45,-52.85 61.17,-59.39 a 35.903435,35.903435 0 1 1 23.68,67.79 z"
             transform="translate(-79.59,-50.39)"
             fill="#ffffff"
             id="path1358" /><path
             d="m 784.57,488.21 c -19.47,-3.8 -69,-50.08 -69,-50.08 0,0 63.33,-24.2 82.79,-20.39 a 35.90233,35.90233 0 0 1 -13.78,70.47 z"
             transform="translate(-79.59,-50.39)"
             fill="#ffffff"
             id="path1360" /><path
             d="m 670.93,579.23 c -19.82,-0.46 -76.47,-37.7 -76.47,-37.7 0,0 58.32,-34.55 78.15,-34.09 a 35.904827,35.904827 0 0 1 -1.68,71.79 z"
             transform="translate(-79.59,-50.39)"
             fill="#ffffff"
             id="path1362" /><path
             d="m 755,290 c 2.76,19.63 46.32,71.57 46.32,71.57 0,0 27.55,-61.94 24.79,-81.58 A 35.91,35.91 0 0 0 755,290 Z"
             transform="translate(-79.59,-50.39)"
             fill="#ffffff"
             id="path1364" /><path
             d="m 623.43,398.07 c 8.51,17.93 65.57,54.44 65.57,54.44 0,0 7.76,-67.35 -0.76,-85.26 a 35.900539,35.900539 0 1 0 -64.85,30.82 z"
             transform="translate(-79.59,-50.39)"
             fill="#ffffff"
             id="path1366" /><path
             d="m 510,520.71 c 5.36,19.09 55.48,64.75 55.48,64.75 0,0 19,-65.07 13.66,-84.16 A 35.91,35.91 0 0 0 510,520.71 Z"
             transform="translate(-79.59,-50.39)"
             fill="#ffffff"
             id="path1368" /></g><g
           opacity="0.1"
           id="g1388"><path
             d="m 515.86,377.22 c 0,0 22.25,-56.73 64.78,-78.17 a 92.36,92.36 0 0 0 41.42,-41.18 155.26,155.26 0 0 0 10.2,-26.5"
             transform="translate(-79.59,-50.39)"
             fill="none"
             stroke="#535461"
             stroke-miterlimit="10"
             stroke-width="2"
             id="path1372" /><path
             d="m 659,217.7 c -4.4,5.66 -27.38,14.11 -27.38,14.11 0,0 2.49,-24.36 6.89,-30 A 13,13 0 1 1 659,217.7 Z"
             transform="translate(-79.59,-50.39)"
             fill="#ffffff"
             id="path1374" /><path
             d="m 651.58,262.19 c -6.76,2.36 -30.65,-3 -30.65,-3 0,0 15.33,-19.1 22.09,-21.46 a 13,13 0 1 1 8.56,24.49 z"
             transform="translate(-79.59,-50.39)"
             fill="#ffffff"
             id="path1376" /><path
             d="m 609.25,315.18 c -7,-1.38 -24.92,-18.1 -24.92,-18.1 0,0 22.87,-8.74 29.9,-7.36 a 13,13 0 1 1 -5,25.46 z"
             transform="translate(-79.59,-50.39)"
             fill="#ffffff"
             id="path1378" /><path
             d="m 568.2,348.06 c -7.16,-0.17 -27.62,-13.62 -27.62,-13.62 0,0 21.07,-12.49 28.23,-12.32 a 13,13 0 0 1 -0.61,25.94 z"
             transform="translate(-79.59,-50.39)"
             fill="#ffffff"
             id="path1380" /><path
             d="m 598.56,243.55 c 1,7.09 16.74,25.86 16.74,25.86 0,0 10,-22.38 9,-29.47 a 13,13 0 1 0 -25.69,3.61 z"
             transform="translate(-79.59,-50.39)"
             fill="#ffffff"
             id="path1382" /><path
             d="m 551,282.61 c 3.08,6.47 23.71,19.67 23.71,19.67 0,0 2.8,-24.33 -0.28,-30.8 A 13,13 0 0 0 551,282.61 Z"
             transform="translate(-79.59,-50.39)"
             fill="#ffffff"
             id="path1384" /><path
             d="m 510.06,326.92 c 1.94,6.89 20,23.39 20,23.39 0,0 6.94,-23.51 4.94,-30.41 a 13,13 0 1 0 -25,7 z"
             transform="translate(-79.59,-50.39)"
             fill="#ffffff"
             id="path1386" /></g><g
           opacity="0.1"
           id="g1406"><path
             d="m 703.25,847.76 c 0,0 0.94,-60.92 33.25,-95.92 a 92.26,92.26 0 0 0 24.36,-53.08 155.39,155.39 0 0 0 0.25,-28.4"
             transform="translate(-79.59,-50.39)"
             fill="none"
             stroke="#535461"
             stroke-miterlimit="10"
             stroke-width="2"
             id="path1390" /><path
             d="M 781.34,648.19 C 779.21,655 760.65,671 760.65,671 c 0,0 -6.2,-23.7 -4.07,-30.54 a 13,13 0 0 1 24.76,7.72 z"
             transform="translate(-79.59,-50.39)"
             fill="#ffffff"
             id="path1392" /><path
             d="m 790,692.45 c -5.51,4.58 -29.77,7.91 -29.77,7.91 0,0 7.66,-23.26 13.17,-27.85 a 13,13 0 0 1 16.6,19.94 z"
             transform="translate(-79.59,-50.39)"
             fill="#ffffff"
             id="path1394" /><path
             d="m 769,756.91 c -7.07,1.18 -29.69,-8.2 -29.69,-8.2 0,0 18.36,-16.21 25.42,-17.39 a 13,13 0 0 1 4.27,25.59 z"
             transform="translate(-79.59,-50.39)"
             fill="#ffffff"
             id="path1396" /><path
             d="m 742,802.1 c -6.77,2.35 -30.65,-3.07 -30.65,-3.07 0,0 15.4,-19.03 22.16,-21.43 a 13,13 0 1 1 8.49,24.5 z"
             transform="translate(-79.59,-50.39)"
             fill="#ffffff"
             id="path1398" /><path
             d="m 733.83,693.58 c 3.42,6.3 24.74,18.35 24.74,18.35 0,0 1.47,-24.44 -2,-30.74 a 13,13 0 0 0 -22.79,12.39 z"
             transform="translate(-79.59,-50.39)"
             fill="#ffffff"
             id="path1400" /><path
             d="m 703,746.83 c 5.15,5 29.1,10.1 29.1,10.1 0,0 -5.91,-23.76 -11.06,-28.75 a 13,13 0 0 0 -18,18.65 z"
             transform="translate(-79.59,-50.39)"
             fill="#ffffff"
             id="path1402" /><path
             d="m 680.18,802.69 c 4.23,5.78 27,14.88 27,14.88 0,0 -1.81,-24.43 -6,-30.21 a 13,13 0 0 0 -20.93,15.33 z"
             transform="translate(-79.59,-50.39)"
             fill="#ffffff"
             id="path1404" /></g><g
           opacity="0.1"
           id="g1424"><path
             d="m 553.3,838.18 c 0,0 0.94,-60.93 33.25,-95.93 a 92.26,92.26 0 0 0 24.36,-53.08 155.28,155.28 0 0 0 0.25,-28.39"
             transform="translate(-79.59,-50.39)"
             fill="none"
             stroke="#535461"
             stroke-miterlimit="10"
             stroke-width="2"
             id="path1408" /><path
             d="m 631.39,638.6 c -2.13,6.84 -20.69,22.82 -20.69,22.82 0,0 -6.2,-23.69 -4.07,-30.53 a 13,13 0 1 1 24.76,7.71 z"
             transform="translate(-79.59,-50.39)"
             fill="#ffffff"
             id="path1410" /><path
             d="m 640.07,682.86 c -5.51,4.59 -29.77,7.91 -29.77,7.91 0,0 7.66,-23.26 13.17,-27.84 a 13,13 0 0 1 16.6,19.93 z"
             transform="translate(-79.59,-50.39)"
             fill="#ffffff"
             id="path1412" /><path
             d="m 619,747.33 c -7.07,1.17 -29.69,-8.21 -29.69,-8.21 0,0 18.36,-16.21 25.42,-17.38 a 13,13 0 1 1 4.27,25.59 z"
             transform="translate(-79.59,-50.39)"
             fill="#ffffff"
             id="path1414" /><path
             d="m 592.09,792.51 c -6.77,2.36 -30.65,-3.07 -30.65,-3.07 0,0 15.36,-19.07 22.12,-21.44 a 13,13 0 1 1 8.53,24.5 z"
             transform="translate(-79.59,-50.39)"
             fill="#ffffff"
             id="path1416" /><path
             d="m 583.88,684 c 3.42,6.3 24.74,18.35 24.74,18.35 0,0 1.47,-24.44 -2,-30.74 A 13,13 0 1 0 583.88,684 Z"
             transform="translate(-79.59,-50.39)"
             fill="#ffffff"
             id="path1418" /><path
             d="m 553.07,737.24 c 5.15,5 29.1,10.11 29.1,10.11 0,0 -5.91,-23.77 -11.06,-28.75 a 13,13 0 1 0 -18,18.64 z"
             transform="translate(-79.59,-50.39)"
             fill="#ffffff"
             id="path1420" /><path
             d="m 530.23,793.1 c 4.23,5.78 27,14.88 27,14.88 0,0 -1.81,-24.43 -6,-30.21 A 13,13 0 1 0 530.3,793.1 Z"
             transform="translate(-79.59,-50.39)"
             fill="#ffffff"
             id="path1422" /></g><path
           d="m 485,127.86 c 2,6.16 -3.42,27.6 -3.42,27.6 0,0 -16.88,-14.27 -18.86,-20.46 A 11.71,11.71 0 1 1 485,127.86 Z"
           transform="translate(-79.59,-50.39)"
           fill="#ffffff"
           id="path1426" /><path
           d="m 402,265 c 2,6.16 -3.42,27.6 -3.42,27.6 0,0 -16.9,-14.27 -18.88,-20.43 A 11.712161,11.712161 0 0 1 402,265 Z"
           transform="translate(-79.59,-50.39)"
           fill="#ffffff"
           id="path1428" /><path
           d="m 576.86,204.55 c 2,6.16 -3.43,27.6 -3.43,27.6 0,0 -16.89,-14.26 -18.87,-20.42 a 11.713693,11.713693 0 1 1 22.3,-7.18 z"
           transform="translate(-79.59,-50.39)"
           fill="#ffffff"
           id="path1430" /><path
           d="m 667.32,308.18 c 2,6.15 -3.42,27.59 -3.42,27.59 0,0 -16.9,-14.26 -18.9,-20.42 a 11.71,11.71 0 1 1 22.29,-7.17 z"
           transform="translate(-79.59,-50.39)"
           fill="#ffffff"
           id="path1432" /><path
           d="m 606.28,138 c -3.29,5.57 -22.91,15.76 -22.91,15.76 0,0 -0.55,-22.1 2.74,-27.67 A 11.711928,11.711928 0 0 1 606.28,138 Z"
           transform="translate(-79.59,-50.39)"
           fill="#ffffff"
           id="path1434" /><path
           d="m 827.53,121.31 c -3.29,5.57 -22.91,15.76 -22.91,15.76 0,0 -0.54,-22.11 2.75,-27.67 a 11.71,11.71 0 1 1 20.16,11.91 z"
           transform="translate(-79.59,-50.39)"
           fill="#ffffff"
           id="path1436" /><path
           d="m 382,164.23 c -6.26,1.63 -27.36,-5 -27.36,-5 0,0 15.21,-16.05 21.47,-17.68 a 11.716169,11.716169 0 1 1 5.89,22.68 z"
           transform="translate(-79.59,-50.39)"
           fill="#ffffff"
           id="path1438" /><path
           d="m 584.72,417.3 c -3.29,5.57 -22.91,15.76 -22.91,15.76 0,0 -0.55,-22.1 2.74,-27.67 a 11.711928,11.711928 0 1 1 20.17,11.91 z"
           transform="translate(-79.59,-50.39)"
           fill="#ffffff"
           id="path1440" /></g></g></g></svg>
