<?xml version="1.0" encoding="UTF-8" standalone="no"?>
<!-- Created with Inkscape (http://www.inkscape.org/) -->

<svg
   width="750mm"
   height="1334mm"
   viewBox="0 0 750 1334"
   version="1.1"
   id="svg5"
   xml:space="preserve"
   inkscape:export-filename="background-iphone.png"
   inkscape:export-xdpi="25.4"
   inkscape:export-ydpi="25.4"
   inkscape:version="1.2 (dc2aedaf03, 2022-05-15)"
   sodipodi:docname="treina-icon.svg"
   xmlns:inkscape="http://www.inkscape.org/namespaces/inkscape"
   xmlns:sodipodi="http://sodipodi.sourceforge.net/DTD/sodipodi-0.dtd"
   xmlns="http://www.w3.org/2000/svg"
   xmlns:svg="http://www.w3.org/2000/svg"><sodipodi:namedview
     id="namedview7"
     pagecolor="#ffffff"
     bordercolor="#000000"
     borderopacity="0.25"
     inkscape:showpageshadow="2"
     inkscape:pageopacity="0.0"
     inkscape:pagecheckerboard="0"
     inkscape:deskcolor="#d1d1d1"
     inkscape:document-units="mm"
     showgrid="false"
     inkscape:zoom="0.13055262"
     inkscape:cx="1332.796"
     inkscape:cy="2979.6416"
     inkscape:window-width="1920"
     inkscape:window-height="1009"
     inkscape:window-x="-8"
     inkscape:window-y="-8"
     inkscape:window-maximized="1"
     inkscape:current-layer="layer1" /><defs
     id="defs2" /><g
     inkscape:label="Capa 1"
     inkscape:groupmode="layer"
     id="layer1"><rect
       style="fill:#000000;stroke-width:0.264561"
       id="rect222"
       width="749.06635"
       height="1333.5778"
       x="1.0133207"
       y="0"
       rx="0"
       ry="0" /><path
       style="fill:#ffffff;fill-opacity:1;stroke-width:0.417929"
       d="m 46.6744,1063.1466 c -0.4857,-0.1906 -2.7088,-2.5186 -5.1599,-5.4021 -4.8511,-5.7067 -5.0483,-6.2516 -2.9184,-8.0621 2.0232,-1.7199 2.9054,-1.2789 7.2969,3.6479 2.9564,3.3169 3.9399,4.6503 4.3276,5.8647 0.4823,1.512 0.4406,1.6236 -1.0957,2.9296 -1.2533,1.0653 -1.781,1.2854 -2.4505,1.022 z"
       id="path829-7-3-3-2" /><path
       style="fill:#ffffff;fill-opacity:1;stroke-width:0.417929"
       d="m 57.7007,1059.6492 c -0.9256,-0.2415 -2.2106,-1.5959 -8.2102,-8.6537 -6.752,-7.9429 -7.1084,-8.4269 -7.0174,-9.5456 0.1206,-1.4892 1.5594,-2.7335 3.2051,-2.7721 l 1.2696,-0.03 7.3539,8.6509 c 6.9672,8.1961 7.3414,8.7026 7.1199,9.6281 -0.3737,1.5596 -2.4249,3.0602 -3.7209,2.7221 z"
       id="path831-1-4-6-8" /><path
       id="path495-4-78-2"
       style="fill:#ffffff;fill-opacity:1;stroke-width:0.417929"
       d="m 58.2509,1041.2023 c -1.6232,1.3798 -1.7214,1.9418 -0.5752,3.2901 1.0217,1.2019 1.0872,1.2111 2.1562,0.3023 0.9985,-0.8486 1.3883,-0.8559 4.1247,-0.078 1.662,0.4727 3.7035,0.9413 4.5365,1.0415 0.3877,0.047 0.677,0.083 0.9307,0.1675 l 7.6464,-6.4999 c -0.139,-0.795 -0.2452,-1.6227 -0.3055,-2.4428 -0.1565,-2.1296 -0.3304,-4.3729 -0.3865,-4.9849 -0.061,-0.6675 0.2784,-1.5048 0.8484,-2.0927 0.7976,-0.8224 0.8445,-1.1378 0.2922,-1.962 -0.8729,-1.3026 -1.9775,-1.4415 -3.1903,-0.4013 -1.7259,1.4802 -1.9996,2.2376 -1.7291,4.7866 0.1451,1.3669 0.094,2.6298 -0.1142,2.8065 -0.208,0.1767 -1.4733,0.021 -2.8119,-0.3455 -3.7177,-1.0187 -4.2335,-0.5766 -3.8223,3.2763 0.1456,1.3649 0.092,2.6285 -0.1176,2.8078 -0.2102,0.1793 -1.3706,0.059 -2.5788,-0.2669 -2.5084,-0.6771 -3.5571,-0.5498 -4.9039,0.5951 z" /><path
       style="fill:#ffffff;fill-opacity:1;stroke-width:0.417929"
       d="m 88.8687,1033.4937 c -0.7211,-0.1259 -2.3987,-1.8707 -8.0839,-8.4075 -6.955,-7.997 -7.176,-8.292 -7.2285,-9.6794 -0.069,-1.8079 1.4744,-3.275 3.2056,-3.0483 1.0824,0.1417 1.7342,0.7982 8.2011,8.25 8.2132,9.4649 8.3131,9.6542 6.188,11.7138 -1.0045,0.9737 -1.6163,1.2877 -2.2823,1.1714 z"
       id="path835-2-7-5-9" /><path
       style="fill:#ffffff;fill-opacity:1;stroke-width:0.417929"
       d="m 93.8264,1023.2199 c -0.6305,-0.1099 -1.9966,-1.4026 -4.77,-4.5143 -4.1797,-4.6894 -4.8081,-5.636 -4.6919,-7.0685 0.1066,-1.3155 2.0079,-2.8013 3.4366,-2.6856 1.0754,0.087 1.5391,0.5201 5.3136,4.9603 4.9215,5.7896 5.1537,6.4373 2.9713,8.2925 -0.8898,0.7564 -1.6881,1.1152 -2.2596,1.0156 z"
       id="path837-1-5-03-7" /><path
       style="fill:#ffffff;stroke-width:0.121582"
       d="m 77.5212,1039.9361 -7.6056,6.4652 z"
       id="path482-0-72-7" /><path
       style="fill:#ffffff;stroke-width:0.121582"
       d="m 74.3193,1041.7412 2.693,-0.876"
       id="path484-8-76-5" /><path
       style="fill:#ffffff;stroke-width:0.121582"
       d="m 78.2541,1039.8096 -9.9096,8.653"
       id="path486-1-8-5" /><path
       style="fill:#ffffff;fill-opacity:1;stroke-width:0.417929"
       d="m 532.479,284.99944 c -0.4857,-0.1906 -2.7088,-2.5186 -5.1599,-5.4021 -4.8511,-5.7067 -5.0483,-6.2516 -2.9184,-8.0621 2.0232,-1.7199 2.9054,-1.2789 7.2969,3.6479 2.9564,3.3169 3.9399,4.6503 4.3276,5.8647 0.4823,1.512 0.4406,1.6236 -1.0957,2.9296 -1.2533,1.0653 -1.781,1.2854 -2.4505,1.022 z"
       id="path829-7-3-3-7" /><path
       style="fill:#ffffff;fill-opacity:1;stroke-width:0.417929"
       d="m 543.5053,281.50204 c -0.9256,-0.2415 -2.2106,-1.5959 -8.2102,-8.6537 -6.752,-7.9429 -7.1084,-8.4269 -7.0174,-9.5456 0.1206,-1.4892 1.5594,-2.7335 3.2051,-2.7721 l 1.2696,-0.03 7.3539,8.6509 c 6.9672,8.1961 7.3414,8.7026 7.1199,9.6281 -0.3737,1.5596 -2.4249,3.0602 -3.7209,2.7221 z"
       id="path831-1-4-6-9" /><path
       id="path495-4-78-7"
       style="fill:#ffffff;fill-opacity:1;stroke-width:0.417929"
       d="m 544.0555,263.05514 c -1.6232,1.3798 -1.7214,1.9418 -0.5752,3.2901 1.0217,1.2019 1.0872,1.2111 2.1562,0.3023 0.9985,-0.8486 1.3883,-0.8559 4.1247,-0.078 1.662,0.4727 3.7035,0.9413 4.5365,1.0415 0.3877,0.047 0.677,0.083 0.9307,0.1675 l 7.6464,-6.4999 c -0.139,-0.795 -0.2452,-1.6227 -0.3055,-2.4428 -0.1565,-2.1296 -0.3304,-4.3729 -0.3865,-4.9849 -0.061,-0.6675 0.2784,-1.5048 0.8484,-2.0927 0.7976,-0.8224 0.8445,-1.1378 0.2922,-1.962 -0.8729,-1.3026 -1.9775,-1.4415 -3.1903,-0.4013 -1.7259,1.4802 -1.9996,2.2376 -1.7291,4.7866 0.1451,1.3669 0.094,2.6298 -0.1142,2.8065 -0.208,0.1767 -1.4733,0.021 -2.8119,-0.3455 -3.7177,-1.0187 -4.2335,-0.5766 -3.8223,3.2763 0.1456,1.3649 0.092,2.6285 -0.1176,2.8078 -0.2102,0.1793 -1.3706,0.059 -2.5788,-0.2669 -2.5084,-0.6771 -3.5571,-0.5498 -4.9039,0.5951 z" /><path
       style="fill:#ffffff;fill-opacity:1;stroke-width:0.417929"
       d="m 574.6733,255.34654 c -0.7211,-0.1259 -2.3987,-1.8707 -8.0839,-8.4075 -6.955,-7.997 -7.176,-8.292 -7.2285,-9.6794 -0.069,-1.8079 1.4744,-3.275 3.2056,-3.0483 1.0824,0.1417 1.7342,0.7982 8.2011,8.25 8.2132,9.4649 8.3131,9.6542 6.188,11.7138 -1.0045,0.9737 -1.6163,1.2877 -2.2823,1.1714 z"
       id="path835-2-7-5-8" /><path
       style="fill:#ffffff;fill-opacity:1;stroke-width:0.417929"
       d="m 579.631,245.07274 c -0.6305,-0.1099 -1.9966,-1.4026 -4.77,-4.5143 -4.1797,-4.6894 -4.8081,-5.636 -4.6919,-7.0685 0.1066,-1.3155 2.0079,-2.8013 3.4366,-2.6856 1.0754,0.087 1.5391,0.5201 5.3136,4.9603 4.9215,5.7896 5.1537,6.4373 2.9713,8.2925 -0.8898,0.7564 -1.6881,1.1152 -2.2596,1.0156 z"
       id="path837-1-5-03-9" /><path
       style="fill:#ffffff;stroke-width:0.121582"
       d="m 563.3258,261.78894 -7.6056,6.4652 z"
       id="path482-0-72-74" /><path
       style="fill:#ffffff;stroke-width:0.121582"
       d="m 560.1239,263.59404 2.693,-0.876"
       id="path484-8-76-8" /><path
       style="fill:#ffffff;stroke-width:0.121582"
       d="m 564.0587,261.66244 -9.9096,8.653"
       id="path486-1-8-4" /><path
       style="fill:#ffffff;fill-opacity:1;stroke-width:0.417929"
       d="m 46.6744,320.82574 c -0.4857,-0.1906 -2.7088,-2.5186 -5.1599,-5.4021 -4.8511,-5.7067 -5.0483,-6.2516 -2.9184,-8.0621 2.0232,-1.7199 2.9054,-1.2789 7.2969,3.6479 2.9564,3.3169 3.9399,4.6503 4.3276,5.8647 0.4823,1.512 0.4406,1.6236 -1.0957,2.9296 -1.2533,1.0653 -1.781,1.2854 -2.4505,1.022 z"
       id="path829-7-3-3-83" /><path
       style="fill:#ffffff;fill-opacity:1;stroke-width:0.417929"
       d="m 57.7007,317.32834 c -0.9256,-0.2415 -2.2106,-1.5959 -8.2102,-8.6537 -6.752,-7.9429 -7.1084,-8.4269 -7.0174,-9.5456 0.1206,-1.4892 1.5594,-2.7335 3.2051,-2.7721 l 1.2696,-0.03 7.3539,8.6509 c 6.9672,8.1961 7.3414,8.7026 7.1199,9.6281 -0.3737,1.5596 -2.4249,3.0602 -3.7209,2.7221 z"
       id="path831-1-4-6-3" /><path
       id="path495-4-78-22"
       style="fill:#ffffff;fill-opacity:1;stroke-width:0.417929"
       d="m 58.2509,298.88144 c -1.6232,1.3798 -1.7214,1.9418 -0.5752,3.2901 1.0217,1.2019 1.0872,1.2111 2.1562,0.3023 0.9985,-0.8486 1.3883,-0.8559 4.1247,-0.078 1.662,0.4727 3.7035,0.9413 4.5365,1.0415 0.3877,0.047 0.677,0.083 0.9307,0.1675 l 7.6464,-6.4999 c -0.139,-0.795 -0.2452,-1.6227 -0.3055,-2.4428 -0.1565,-2.1296 -0.3304,-4.3729 -0.3865,-4.9849 -0.061,-0.6675 0.2784,-1.5048 0.8484,-2.0927 0.7976,-0.8224 0.8445,-1.1378 0.2922,-1.962 -0.8729,-1.3026 -1.9775,-1.4415 -3.1903,-0.4013 -1.7259,1.4802 -1.9996,2.2376 -1.7291,4.7866 0.1451,1.3669 0.094,2.6298 -0.1142,2.8065 -0.208,0.1767 -1.4733,0.021 -2.8119,-0.3455 -3.7177,-1.0187 -4.2335,-0.5766 -3.8223,3.2763 0.1456,1.3649 0.092,2.6285 -0.1176,2.8078 -0.2102,0.1793 -1.3706,0.059 -2.5788,-0.2669 -2.5084,-0.6771 -3.5571,-0.5498 -4.9039,0.5951 z" /><path
       style="fill:#ffffff;fill-opacity:1;stroke-width:0.417929"
       d="m 88.8687,291.17284 c -0.7211,-0.1259 -2.3987,-1.8707 -8.0839,-8.4075 -6.955,-7.997 -7.176,-8.292 -7.2285,-9.6794 -0.069,-1.8079 1.4744,-3.275 3.2056,-3.0483 1.0824,0.1417 1.7342,0.7982 8.2011,8.25 8.2132,9.4649 8.3131,9.6542 6.188,11.7138 -1.0045,0.9737 -1.6163,1.2877 -2.2823,1.1714 z"
       id="path835-2-7-5-7" /><path
       style="fill:#ffffff;fill-opacity:1;stroke-width:0.417929"
       d="m 93.8264,280.89904 c -0.6305,-0.1099 -1.9966,-1.4026 -4.77,-4.5143 -4.1797,-4.6894 -4.8081,-5.636 -4.6919,-7.0685 0.1066,-1.3155 2.0079,-2.8013 3.4366,-2.6856 1.0754,0.087 1.5391,0.5201 5.3136,4.9603 4.9215,5.7896 5.1537,6.4373 2.9713,8.2925 -0.8898,0.7564 -1.6881,1.1152 -2.2596,1.0156 z"
       id="path837-1-5-03-4" /><path
       style="fill:#ffffff;stroke-width:0.121582"
       d="m 77.5212,297.61524 -7.6056,6.4652 z"
       id="path482-0-72-1" /><path
       style="fill:#ffffff;stroke-width:0.121582"
       d="m 74.3193,299.42034 2.693,-0.876"
       id="path484-8-76-4" /><path
       style="fill:#ffffff;stroke-width:0.121582"
       d="m 78.2541,297.48874 -9.9096,8.653"
       id="path486-1-8-8" /><path
       style="fill:#ffffff;fill-opacity:1;stroke-width:0.417929"
       d="m 658.58756,1156.295 c -0.4857,-0.1906 -2.7088,-2.5186 -5.1599,-5.4021 -4.8511,-5.7067 -5.0483,-6.2516 -2.9184,-8.0621 2.0232,-1.7199 2.9054,-1.2789 7.2969,3.6479 2.9564,3.3169 3.9399,4.6503 4.3276,5.8647 0.4823,1.512 0.4406,1.6236 -1.0957,2.9296 -1.2533,1.0653 -1.781,1.2854 -2.4505,1.022 z"
       id="path829-7-3-3-8" /><path
       style="fill:#ffffff;fill-opacity:1;stroke-width:0.417929"
       d="m 669.61386,1152.7976 c -0.9256,-0.2415 -2.2106,-1.5959 -8.2102,-8.6537 -6.752,-7.9429 -7.1084,-8.4269 -7.0174,-9.5456 0.1206,-1.4892 1.5594,-2.7335 3.2051,-2.7721 l 1.2696,-0.03 7.3539,8.6509 c 6.9672,8.1961 7.3414,8.7026 7.1199,9.6281 -0.3737,1.5596 -2.4249,3.0602 -3.7209,2.7221 z"
       id="path831-1-4-6-0" /><path
       id="path495-4-78-5"
       style="fill:#ffffff;fill-opacity:1;stroke-width:0.417929"
       d="m 670.16406,1134.3507 c -1.6232,1.3798 -1.7214,1.9418 -0.5752,3.2901 1.0217,1.2019 1.0872,1.2111 2.1562,0.3023 0.9985,-0.8486 1.3883,-0.8559 4.1247,-0.078 1.662,0.4727 3.7035,0.9413 4.5365,1.0415 0.3877,0.047 0.677,0.083 0.9307,0.1675 l 7.6464,-6.4999 c -0.139,-0.795 -0.2452,-1.6227 -0.3055,-2.4428 -0.1565,-2.1296 -0.3304,-4.3729 -0.3865,-4.9849 -0.061,-0.6675 0.2784,-1.5048 0.8484,-2.0927 0.7976,-0.8224 0.8445,-1.1378 0.2922,-1.962 -0.8729,-1.3026 -1.9775,-1.4415 -3.1903,-0.4013 -1.7259,1.4802 -1.9996,2.2376 -1.7291,4.7866 0.1451,1.3669 0.094,2.6298 -0.1142,2.8065 -0.208,0.1767 -1.4733,0.021 -2.8119,-0.3455 -3.7177,-1.0187 -4.2335,-0.5766 -3.8223,3.2763 0.1456,1.3649 0.092,2.6285 -0.1176,2.8078 -0.2102,0.1793 -1.3706,0.059 -2.5788,-0.2669 -2.5084,-0.6771 -3.5571,-0.5498 -4.9039,0.5951 z" /><path
       style="fill:#ffffff;fill-opacity:1;stroke-width:0.417929"
       d="m 700.78186,1126.6421 c -0.7211,-0.1259 -2.3987,-1.8707 -8.0839,-8.4075 -6.955,-7.997 -7.176,-8.292 -7.2285,-9.6794 -0.069,-1.8079 1.4744,-3.275 3.2056,-3.0483 1.0824,0.1417 1.7342,0.7982 8.2011,8.25 8.2132,9.4649 8.3131,9.6542 6.188,11.7138 -1.0045,0.9737 -1.6163,1.2877 -2.2823,1.1714 z"
       id="path835-2-7-5-1" /><path
       style="fill:#ffffff;fill-opacity:1;stroke-width:0.417929"
       d="m 705.73956,1116.3683 c -0.6305,-0.1099 -1.9966,-1.4026 -4.77,-4.5143 -4.1797,-4.6894 -4.8081,-5.636 -4.6919,-7.0685 0.1066,-1.3155 2.0079,-2.8013 3.4366,-2.6856 1.0754,0.087 1.5391,0.5201 5.3136,4.9603 4.9215,5.7896 5.1537,6.4373 2.9713,8.2925 -0.8898,0.7564 -1.6881,1.1152 -2.2596,1.0156 z"
       id="path837-1-5-03-3" /><path
       style="fill:#ffffff;stroke-width:0.121582"
       d="m 689.43436,1133.0845 -7.6056,6.4652 z"
       id="path482-0-72-0" /><path
       style="fill:#ffffff;stroke-width:0.121582"
       d="m 686.23246,1134.8896 2.693,-0.876"
       id="path484-8-76-9" /><path
       style="fill:#ffffff;stroke-width:0.121582"
       d="m 690.16726,1132.958 -9.9096,8.653"
       id="path486-1-8-1" /><path
       id="path833-5-2-4-1"
       style="fill:#ffffff;fill-opacity:1;stroke-width:0.417929"
       d="m 714.35653,273.71883 -7.6462,6.4999 c 0.7309,0.2434 1.1652,0.8876 2.7969,3.3396 1.2169,1.8289 2.5878,3.7665 3.0463,4.3059 0.7932,0.933 0.896,0.9274 2.1172,-0.1106 0.8307,-0.7061 1.4858,-0.9808 1.8562,-0.7785 0.315,0.1719 1.8475,2.2737 3.4051,4.671 1.5578,2.3971 3.0559,4.6214 3.3292,4.943 0.2738,0.3221 0.2869,-1.0538 0.029,-3.0653 -0.744,-5.8059 -2.3294,-16.4176 -2.4792,-16.5939 -0.075,-0.089 -0.9527,0.3815 -1.95,1.0443 -0.9973,0.6629 -2.0335,1.1874 -2.3027,1.1655 -0.753,-0.061 -1.6955,-2.5228 -2.2018,-5.421 z" /><path
       id="path833-5-2-4-6"
       style="fill:#ffffff;fill-opacity:1;stroke-width:0.417929"
       d="m 138.2697,676.40641 -7.6462,6.4999 c 0.7309,0.2434 1.1652,0.8876 2.7969,3.3396 1.2169,1.8289 2.5878,3.7665 3.0463,4.3059 0.7932,0.933 0.896,0.9274 2.1172,-0.1106 0.8307,-0.7061 1.4858,-0.9808 1.8562,-0.7785 0.315,0.1719 1.8475,2.2737 3.4051,4.671 1.5578,2.3971 3.0559,4.6214 3.3292,4.943 0.2738,0.3221 0.2869,-1.0538 0.029,-3.0653 -0.744,-5.8059 -2.3294,-16.4176 -2.4792,-16.5939 -0.075,-0.089 -0.9527,0.3815 -1.95,1.0443 -0.9973,0.6629 -2.0335,1.1874 -2.3027,1.1655 -0.753,-0.061 -1.6955,-2.5228 -2.2018,-5.421 z" /><path
       id="path833-5-2-4-5"
       style="fill:#ffffff;fill-opacity:1;stroke-width:0.417929"
       d="m 419.14785,801.08192 -7.6462,6.4999 c 0.7309,0.2434 1.1652,0.8876 2.7969,3.3396 1.2169,1.8289 2.5878,3.7665 3.0463,4.3059 0.7932,0.933 0.896,0.9274 2.1172,-0.1106 0.8307,-0.7061 1.4858,-0.9808 1.8562,-0.7785 0.315,0.1719 1.8475,2.2737 3.4051,4.671 1.5578,2.3971 3.0559,4.6214 3.3292,4.943 0.2738,0.3221 0.2869,-1.0538 0.029,-3.0653 -0.744,-5.8059 -2.3294,-16.4176 -2.4792,-16.5939 -0.075,-0.089 -0.9527,0.3815 -1.95,1.0443 -0.9973,0.6629 -2.0335,1.1874 -2.3027,1.1655 -0.753,-0.061 -1.6955,-2.5228 -2.2018,-5.421 z" /><path
       id="path833-5-2-4-9"
       style="fill:#ffffff;fill-opacity:1;stroke-width:0.417929"
       d="m 679.96328,1258.2255 -7.6462,6.4999 c 0.7309,0.2434 1.1652,0.8876 2.7969,3.3396 1.2169,1.8289 2.5878,3.7665 3.0463,4.3059 0.7932,0.933 0.896,0.9274 2.1172,-0.1106 0.8307,-0.7061 1.4858,-0.9808 1.8562,-0.7785 0.315,0.1719 1.8475,2.2737 3.4051,4.671 1.5578,2.3971 3.0559,4.6214 3.3292,4.943 0.2738,0.3221 0.2869,-1.0538 0.029,-3.0653 -0.744,-5.8059 -2.3294,-16.4176 -2.4792,-16.5939 -0.075,-0.089 -0.9527,0.3815 -1.95,1.0443 -0.9973,0.6629 -2.0335,1.1874 -2.3027,1.1655 -0.753,-0.061 -1.6955,-2.5228 -2.2018,-5.421 z" /><path
       style="fill:#ffffff;fill-opacity:1;stroke-width:0.64282"
       d="m 232.32689,80.19988 c -0.3787,-0.70764 -0.6654,-5.65016 -0.6654,-11.4711 0,-11.52042 0.3117,-12.35544 4.6114,-12.35544 4.0843,0 4.6788,1.39569 4.9172,11.54434 0.1604,6.83219 -0.015,9.37455 -0.7708,11.18391 -0.9411,2.2524 -1.1013,2.34166 -4.2026,2.34166 -2.5299,0 -3.3676,-0.26778 -3.8898,-1.24337 z"
       id="path829-7-3-92" /><path
       style="fill:#ffffff;fill-opacity:1;stroke-width:0.64282"
       d="m 248.73269,87.0856 c -0.8441,-1.20507 -1.0007,-4.07244 -1.0007,-18.32033 0,-16.03457 0.065,-16.95689 1.2856,-18.17729 1.6249,-1.62488 4.5507,-1.64986 6.5177,-0.0557 l 1.5175,1.22999 v 17.46406 c 0,16.54576 -0.066,17.512 -1.2477,18.37596 -1.9917,1.45554 -5.8905,1.17066 -7.0724,-0.51676 z"
       id="path831-1-4-1" /><path
       id="path495-4-37"
       style="fill:#ffffff;fill-opacity:1;stroke-width:0.64282"
       d="m 267.75419,66.01566 c -3.2766,0 -3.9516,0.56086 -3.9516,3.28284 0,2.42633 0.068,2.5023 2.2258,2.5023 2.0155,0 2.4797,0.37993 4.9111,4.01771 1.4769,2.20969 3.4024,4.79258 4.2789,5.73985 0.4079,0.44079 0.7106,0.77179 0.9237,1.1235 h 15.436 c 0.6293,-1.07007 1.3293,-2.14579 2.0758,-3.16705 1.938,-2.65162 3.9688,-5.45366 4.5129,-6.22672 0.5934,-0.84322 1.8253,-1.48621 3.0791,-1.60709 1.7539,-0.1691 2.1232,-0.49197 2.297,-2.00813 0.2748,-2.39607 -0.8813,-3.65918 -3.3391,-3.64844 -3.497,0.0153 -4.5723,0.63023 -6.7946,3.88695 -1.1917,1.74631 -2.5101,3.17509 -2.9297,3.17509 -0.4197,0 -1.7478,-1.44268 -2.9511,-3.20613 -3.3419,-4.89724 -4.3868,-4.89305 -7.7433,0.0318 -1.1891,1.74459 -2.5099,3.17256 -2.9348,3.17327 -0.425,6.8e-4 -1.6651,-1.29613 -2.7561,-2.8818 -2.2652,-3.29231 -3.6211,-4.18791 -6.34,-4.18791 z" /><path
       style="fill:#ffffff;fill-opacity:1;stroke-width:0.64282"
       d="m 311.31469,87.4835 c -0.7195,-0.8659 -0.9473,-4.58184 -1.0979,-17.90594 -0.1842,-16.30021 -0.1485,-16.86611 1.1716,-18.54425 1.7205,-2.18724 4.9902,-2.36969 6.7933,-0.37907 1.1272,1.24443 1.2379,2.66272 1.3922,17.83822 0.196,19.27394 0.1246,19.5953 -4.4176,19.89206 -2.1473,0.14028 -3.177,-0.10124 -3.8416,-0.90102 z"
       id="path835-2-7-0" /><path
       style="fill:#ffffff;fill-opacity:1;stroke-width:0.64282"
       d="m 327.35949,80.38254 c -0.6296,-0.75696 -0.9426,-3.63275 -1.0929,-10.04229 -0.2265,-9.65937 -0.02,-11.39465 1.5432,-12.95773 1.4354,-1.43542 5.1438,-1.28247 6.7027,0.27645 1.1734,1.17345 1.2856,2.14274 1.2856,11.1063 0,11.68771 -0.3733,12.67798 -4.7789,12.67798 -1.7962,0 -3.0892,-0.37474 -3.6597,-1.06071 z"
       id="path837-1-5-26" /><path
       style="fill:#ffffff;stroke-width:0.187006"
       d="m 291.59859,83.72887 h -15.3537 z"
       id="path482-0-0" /><path
       style="fill:#ffffff;stroke-width:0.187006"
       d="m 286.04799,82.65455 4.0287,1.65624"
       id="path484-8-0" /><path
       style="fill:#ffffff;stroke-width:0.187006"
       d="m 292.58349,84.31079 -20.233,0.26858"
       id="path486-1-2" /><path
       style="fill:#ffffff;fill-opacity:1;stroke-width:0.64282"
       d="m 570.776,615.2332 c -0.3787,-0.70763 -0.6654,-5.65016 -0.6654,-11.47109 0,-11.52042 0.3117,-12.35545 4.6114,-12.35545 4.0843,0 4.6788,1.39569 4.9172,11.54434 0.1604,6.83219 -0.015,9.37455 -0.7708,11.18391 -0.9411,2.2524 -1.1013,2.34167 -4.2026,2.34167 -2.5299,0 -3.3676,-0.26779 -3.8898,-1.24338 z"
       id="path829-7-3-8" /><path
       style="fill:#ffffff;fill-opacity:1;stroke-width:0.64282"
       d="m 587.1818,622.11892 c -0.8441,-1.20507 -1.0007,-4.07244 -1.0007,-18.32033 0,-16.03457 0.065,-16.95689 1.2856,-18.17729 1.6249,-1.62487 4.5507,-1.64985 6.5177,-0.0557 l 1.5175,1.23 v 17.46406 c 0,16.54576 -0.066,17.512 -1.2477,18.37596 -1.9917,1.45554 -5.8905,1.17066 -7.0724,-0.51676 z"
       id="path831-1-4-4" /><path
       id="path495-4-72"
       style="fill:#ffffff;fill-opacity:1;stroke-width:0.64282"
       d="m 606.2033,601.04899 c -3.2766,0 -3.9516,0.56086 -3.9516,3.28283 0,2.42633 0.068,2.5023 2.2258,2.5023 2.0155,0 2.4797,0.37993 4.9111,4.01771 1.4769,2.20969 3.4024,4.79258 4.2789,5.73985 0.4079,0.44079 0.7106,0.77179 0.9237,1.12351 h 15.436 c 0.6293,-1.07007 1.3293,-2.1458 2.0758,-3.16706 1.938,-2.65161 3.9688,-5.45366 4.5129,-6.22672 0.5934,-0.84321 1.8253,-1.48621 3.0791,-1.60708 1.7539,-0.1691 2.1232,-0.49198 2.297,-2.00814 0.2748,-2.39607 -0.8813,-3.65918 -3.3391,-3.64844 -3.497,0.0153 -4.5723,0.63023 -6.7946,3.88695 -1.1917,1.74631 -2.5101,3.17509 -2.9297,3.17509 -0.4197,0 -1.7478,-1.44268 -2.9511,-3.20613 -3.3419,-4.89724 -4.3868,-4.89305 -7.7433,0.0318 -1.1891,1.74459 -2.5099,3.17256 -2.9348,3.17327 -0.425,6.8e-4 -1.6651,-1.29613 -2.7561,-2.8818 -2.2652,-3.29231 -3.6211,-4.18791 -6.34,-4.18791 z" /><path
       style="fill:#ffffff;fill-opacity:1;stroke-width:0.64282"
       d="m 649.7638,622.51683 c -0.7195,-0.8659 -0.9473,-4.58185 -1.0979,-17.90594 -0.1842,-16.30021 -0.1485,-16.86612 1.1716,-18.54425 1.7205,-2.18724 4.9902,-2.36969 6.7933,-0.37907 1.1272,1.24443 1.2379,2.66272 1.3922,17.83822 0.196,19.27394 0.1246,19.59529 -4.4176,19.89206 -2.1473,0.14028 -3.177,-0.10124 -3.8416,-0.90102 z"
       id="path835-2-7-6" /><path
       style="fill:#ffffff;fill-opacity:1;stroke-width:0.64282"
       d="m 665.8086,615.41587 c -0.6296,-0.75697 -0.9426,-3.63275 -1.0929,-10.04229 -0.2265,-9.65937 -0.02,-11.39465 1.5432,-12.95773 1.4354,-1.43542 5.1438,-1.28247 6.7027,0.27645 1.1734,1.17345 1.2856,2.14274 1.2856,11.1063 0,11.68771 -0.3733,12.67798 -4.7789,12.67798 -1.7962,0 -3.0892,-0.37474 -3.6597,-1.06071 z"
       id="path837-1-5-35" /><path
       style="fill:#ffffff;stroke-width:0.187006"
       d="M 630.0477,618.7622 H 614.694 Z"
       id="path482-0-9" /><path
       style="fill:#ffffff;stroke-width:0.187006"
       d="m 624.4971,617.68788 4.0287,1.65624"
       id="path484-8-78" /><path
       style="fill:#ffffff;stroke-width:0.187006"
       d="m 631.0326,619.34411 -20.233,0.26859"
       id="path486-1-6" /><path
       style="fill:#ffffff;fill-opacity:1;stroke-width:0.64282"
       d="m 566.72272,988.13522 c -0.3787,-0.70764 -0.6654,-5.65016 -0.6654,-11.4711 0,-11.52042 0.3117,-12.35544 4.6114,-12.35544 4.0843,0 4.6788,1.39569 4.9172,11.54434 0.1604,6.83219 -0.015,9.37455 -0.7708,11.18391 -0.9411,2.2524 -1.1013,2.34166 -4.2026,2.34166 -2.5299,0 -3.3676,-0.26778 -3.8898,-1.24337 z"
       id="path829-7-3-40" /><path
       style="fill:#ffffff;fill-opacity:1;stroke-width:0.64282"
       d="m 583.12852,995.02094 c -0.8441,-1.20507 -1.0007,-4.07244 -1.0007,-18.32033 0,-16.03457 0.065,-16.95689 1.2856,-18.17729 1.6249,-1.62488 4.5507,-1.64986 6.5177,-0.0557 l 1.5175,1.22999 v 17.46406 c 0,16.54576 -0.066,17.512 -1.2477,18.37596 -1.9917,1.45554 -5.8905,1.17066 -7.0724,-0.51676 z"
       id="path831-1-4-20" /><path
       id="path495-4-8"
       style="fill:#ffffff;fill-opacity:1;stroke-width:0.64282"
       d="m 602.15002,973.951 c -3.2766,0 -3.9516,0.56086 -3.9516,3.28284 0,2.42633 0.068,2.5023 2.2258,2.5023 2.0155,0 2.4797,0.37993 4.9111,4.01771 1.4769,2.20969 3.4024,4.79258 4.2789,5.73985 0.4079,0.44079 0.7106,0.77179 0.9237,1.1235 h 15.436 c 0.6293,-1.07007 1.3293,-2.14579 2.0758,-3.16705 1.938,-2.65162 3.9688,-5.45366 4.5129,-6.22672 0.5934,-0.84322 1.8253,-1.48621 3.0791,-1.60709 1.7539,-0.1691 2.1232,-0.49197 2.297,-2.00813 0.2748,-2.39607 -0.8813,-3.65918 -3.3391,-3.64844 -3.497,0.0153 -4.5723,0.63023 -6.7946,3.88695 -1.1917,1.74631 -2.5101,3.17509 -2.9297,3.17509 -0.4197,0 -1.7478,-1.44268 -2.9511,-3.20613 -3.3419,-4.89724 -4.3868,-4.89305 -7.7433,0.0318 -1.1891,1.74459 -2.5099,3.17256 -2.9348,3.17327 -0.425,6.8e-4 -1.6651,-1.29613 -2.7561,-2.8818 -2.2652,-3.29231 -3.6211,-4.18791 -6.34,-4.18791 z" /><path
       style="fill:#ffffff;fill-opacity:1;stroke-width:0.64282"
       d="m 645.71052,995.41884 c -0.7195,-0.8659 -0.9473,-4.58184 -1.0979,-17.90594 -0.1842,-16.30021 -0.1485,-16.86611 1.1716,-18.54425 1.7205,-2.18724 4.9902,-2.36969 6.7933,-0.37907 1.1272,1.24443 1.2379,2.66272 1.3922,17.83822 0.196,19.27394 0.1246,19.5953 -4.4176,19.89206 -2.1473,0.14028 -3.177,-0.10124 -3.8416,-0.90102 z"
       id="path835-2-7-48" /><path
       style="fill:#ffffff;fill-opacity:1;stroke-width:0.64282"
       d="m 661.75532,988.31788 c -0.6296,-0.75696 -0.9426,-3.63275 -1.0929,-10.04229 -0.2265,-9.65937 -0.02,-11.39465 1.5432,-12.95773 1.4354,-1.43542 5.1438,-1.28247 6.7027,0.27645 1.1734,1.17345 1.2856,2.14274 1.2856,11.1063 0,11.68771 -0.3733,12.67798 -4.7789,12.67798 -1.7962,0 -3.0892,-0.37474 -3.6597,-1.06071 z"
       id="path837-1-5-08" /><path
       style="fill:#ffffff;stroke-width:0.187006"
       d="m 625.99442,991.66421 h -15.3537 z"
       id="path482-0-45" /><path
       style="fill:#ffffff;stroke-width:0.187006"
       d="m 620.44382,990.58989 4.0287,1.65624"
       id="path484-8-1" /><path
       style="fill:#ffffff;stroke-width:0.187006"
       d="m 626.97932,992.24613 -20.233,0.26858"
       id="path486-1-4" /><path
       style="fill:#ffffff;fill-opacity:1;stroke-width:0.64282"
       d="m 333.65896,1215.1191 c -0.3787,-0.7077 -0.6654,-5.6502 -0.6654,-11.4711 0,-11.5205 0.3117,-12.3555 4.6114,-12.3555 4.0843,0 4.6788,1.3957 4.9172,11.5444 0.1604,6.8321 -0.015,9.3745 -0.7708,11.1839 -0.9411,2.2524 -1.1013,2.3416 -4.2026,2.3416 -2.5299,0 -3.3676,-0.2678 -3.8898,-1.2433 z"
       id="path829-7-3-4" /><path
       style="fill:#ffffff;fill-opacity:1;stroke-width:0.64282"
       d="m 350.06476,1222.0048 c -0.8441,-1.2051 -1.0007,-4.0725 -1.0007,-18.3204 0,-16.0345 0.065,-16.9569 1.2856,-18.1772 1.6249,-1.6249 4.5507,-1.6499 6.5177,-0.056 l 1.5175,1.2299 v 17.4641 c 0,16.5458 -0.066,17.512 -1.2477,18.376 -1.9917,1.4555 -5.8905,1.1706 -7.0724,-0.5168 z"
       id="path831-1-4-0" /><path
       id="path495-4-42"
       style="fill:#ffffff;fill-opacity:1;stroke-width:0.64282"
       d="m 369.08626,1200.9348 c -3.2766,0 -3.9516,0.5609 -3.9516,3.2829 0,2.4263 0.068,2.5023 2.2258,2.5023 2.0155,0 2.4797,0.3799 4.9111,4.0177 1.4769,2.2097 3.4024,4.7926 4.2789,5.7398 0.4079,0.4408 0.7106,0.7718 0.9237,1.1235 h 15.436 c 0.6293,-1.07 1.3293,-2.1458 2.0758,-3.167 1.938,-2.6516 3.9688,-5.4537 4.5129,-6.2267 0.5934,-0.8433 1.8253,-1.4863 3.0791,-1.6071 1.7539,-0.1691 2.1232,-0.492 2.297,-2.0082 0.2748,-2.396 -0.8813,-3.6591 -3.3391,-3.6484 -3.497,0.015 -4.5723,0.6302 -6.7946,3.887 -1.1917,1.7463 -2.5101,3.175 -2.9297,3.175 -0.4197,0 -1.7478,-1.4426 -2.9511,-3.2061 -3.3419,-4.8972 -4.3868,-4.893 -7.7433,0.032 -1.1891,1.7446 -2.5099,3.1726 -2.9348,3.1733 -0.425,7e-4 -1.6651,-1.2962 -2.7561,-2.8818 -2.2652,-3.2923 -3.6211,-4.1879 -6.34,-4.1879 z" /><path
       style="fill:#ffffff;fill-opacity:1;stroke-width:0.64282"
       d="m 412.64676,1222.4027 c -0.7195,-0.8659 -0.9473,-4.5819 -1.0979,-17.906 -0.1842,-16.3002 -0.1485,-16.8661 1.1716,-18.5442 1.7205,-2.1873 4.9902,-2.3697 6.7933,-0.3791 1.1272,1.2444 1.2379,2.6627 1.3922,17.8382 0.196,19.274 0.1246,19.5953 -4.4176,19.8921 -2.1473,0.1403 -3.177,-0.1012 -3.8416,-0.901 z"
       id="path835-2-7-40" /><path
       style="fill:#ffffff;fill-opacity:1;stroke-width:0.64282"
       d="m 428.69156,1215.3017 c -0.6296,-0.7569 -0.9426,-3.6327 -1.0929,-10.0423 -0.2265,-9.6593 -0.02,-11.3946 1.5432,-12.9577 1.4354,-1.4354 5.1438,-1.2825 6.7027,0.2764 1.1734,1.1735 1.2856,2.1428 1.2856,11.1063 0,11.6878 -0.3733,12.678 -4.7789,12.678 -1.7962,0 -3.0892,-0.3747 -3.6597,-1.0607 z"
       id="path837-1-5-9" /><path
       style="fill:#ffffff;stroke-width:0.187006"
       d="m 392.93066,1218.648 h -15.3537 z"
       id="path482-0-70" /><path
       style="fill:#ffffff;stroke-width:0.187006"
       d="m 387.38006,1217.5737 4.0287,1.6563"
       id="path484-8-7" /><path
       style="fill:#ffffff;stroke-width:0.187006"
       d="m 393.91556,1219.23 -20.233,0.2685"
       id="path486-1-72" /><path
       style="fill:#ffffff;stroke-width:0.187006"
       d="M 251.0658,1082.8631 H 235.7121 Z"
       id="path482-0-1" /><path
       style="fill:#ffffff;stroke-width:0.187006"
       d="m 245.5152,1081.7888 4.0287,1.6562"
       id="path484-8-45" /><path
       style="fill:#ffffff;fill-opacity:1;stroke-width:0.64282"
       d="m 199.9006,848.29696 c -0.3787,-0.70764 -0.6654,-5.65016 -0.6654,-11.4711 0,-11.52042 0.3117,-12.35544 4.6114,-12.35544 4.0843,0 4.6788,1.39569 4.9172,11.54434 0.1604,6.83219 -0.015,9.37455 -0.7708,11.18391 -0.9411,2.2524 -1.1013,2.34166 -4.2026,2.34166 -2.5299,0 -3.3676,-0.26778 -3.8898,-1.24337 z"
       id="path829-7-3-58" /><path
       style="fill:#ffffff;fill-opacity:1;stroke-width:0.64282"
       d="m 216.3064,855.18268 c -0.8441,-1.20507 -1.0007,-4.07244 -1.0007,-18.32033 0,-16.03457 0.065,-16.95689 1.2856,-18.17729 1.6249,-1.62488 4.5507,-1.64986 6.5177,-0.0557 l 1.5175,1.22999 v 17.46406 c 0,16.54576 -0.066,17.512 -1.2477,18.37596 -1.9917,1.45554 -5.8905,1.17066 -7.0724,-0.51676 z"
       id="path831-1-4-5" /><path
       id="path495-4-3"
       style="fill:#ffffff;fill-opacity:1;stroke-width:0.64282"
       d="m 235.3279,834.11274 c -3.2766,0 -3.9516,0.56086 -3.9516,3.28284 0,2.42633 0.068,2.5023 2.2258,2.5023 2.0155,0 2.4797,0.37993 4.9111,4.01771 1.4769,2.20969 3.4024,4.79258 4.2789,5.73985 0.4079,0.44079 0.7106,0.77179 0.9237,1.1235 h 15.436 c 0.6293,-1.07007 1.3293,-2.14579 2.0758,-3.16705 1.938,-2.65162 3.9688,-5.45366 4.5129,-6.22672 0.5934,-0.84322 1.8253,-1.48621 3.0791,-1.60709 1.7539,-0.1691 2.1232,-0.49197 2.297,-2.00813 0.2748,-2.39607 -0.8813,-3.65918 -3.3391,-3.64844 -3.497,0.0153 -4.5723,0.63023 -6.7946,3.88695 -1.1917,1.74631 -2.5101,3.17509 -2.9297,3.17509 -0.4197,0 -1.7478,-1.44268 -2.9511,-3.20613 -3.3419,-4.89724 -4.3868,-4.89305 -7.7433,0.0318 -1.1891,1.74459 -2.5099,3.17256 -2.9348,3.17327 -0.425,6.8e-4 -1.6651,-1.29613 -2.7561,-2.8818 -2.2652,-3.29231 -3.6211,-4.18791 -6.34,-4.18791 z" /><path
       style="fill:#ffffff;fill-opacity:1;stroke-width:0.64282"
       d="m 278.8884,855.58058 c -0.7195,-0.8659 -0.9473,-4.58184 -1.0979,-17.90594 -0.1842,-16.30021 -0.1485,-16.86611 1.1716,-18.54425 1.7205,-2.18724 4.9902,-2.36969 6.7933,-0.37907 1.1272,1.24443 1.2379,2.66272 1.3922,17.83822 0.196,19.27394 0.1246,19.5953 -4.4176,19.89206 -2.1473,0.14028 -3.177,-0.10124 -3.8416,-0.90102 z"
       id="path835-2-7-8" /><path
       style="fill:#ffffff;fill-opacity:1;stroke-width:0.64282"
       d="m 294.9332,848.47962 c -0.6296,-0.75696 -0.9426,-3.63275 -1.0929,-10.04229 -0.2265,-9.65937 -0.02,-11.39465 1.5432,-12.95773 1.4354,-1.43542 5.1438,-1.28247 6.7027,0.27645 1.1734,1.17345 1.2856,2.14274 1.2856,11.1063 0,11.68771 -0.3733,12.67798 -4.7789,12.67798 -1.7962,0 -3.0892,-0.37474 -3.6597,-1.06071 z"
       id="path837-1-5-3" /><path
       style="fill:#ffffff;stroke-width:0.187006"
       d="M 259.1723,851.82595 H 243.8186 Z"
       id="path482-0-4" /><path
       style="fill:#ffffff;stroke-width:0.187006"
       d="m 253.6217,850.75163 4.0287,1.65624"
       id="path484-8-4" /><path
       style="fill:#ffffff;stroke-width:0.187006"
       d="m 260.1572,852.40787 -20.233,0.26858"
       id="path486-1-5" /><path
       style="fill:#ffffff;fill-opacity:1;stroke-width:0.64282"
       d="m 179.63425,386.22273 c -0.3787,-0.70764 -0.6654,-5.65016 -0.6654,-11.4711 0,-11.52042 0.3117,-12.35544 4.6114,-12.35544 4.0843,0 4.6788,1.39569 4.9172,11.54434 0.1604,6.83219 -0.015,9.37455 -0.7708,11.18391 -0.9411,2.2524 -1.1013,2.34166 -4.2026,2.34166 -2.5299,0 -3.3676,-0.26778 -3.8898,-1.24337 z"
       id="path829-7-3-5" /><path
       style="fill:#ffffff;fill-opacity:1;stroke-width:0.64282"
       d="m 196.04005,393.10845 c -0.8441,-1.20507 -1.0007,-4.07244 -1.0007,-18.32033 0,-16.03457 0.065,-16.95689 1.2856,-18.17729 1.6249,-1.62488 4.5507,-1.64986 6.5177,-0.0557 l 1.5175,1.22999 v 17.46406 c 0,16.54576 -0.066,17.512 -1.2477,18.37596 -1.9917,1.45554 -5.8905,1.17066 -7.0724,-0.51676 z"
       id="path831-1-4-3" /><path
       id="path495-4-7"
       style="fill:#ffffff;fill-opacity:1;stroke-width:0.64282"
       d="m 215.06155,372.03851 c -3.2766,0 -3.9516,0.56086 -3.9516,3.28284 0,2.42633 0.068,2.5023 2.2258,2.5023 2.0155,0 2.4797,0.37993 4.9111,4.01771 1.4769,2.20969 3.4024,4.79258 4.2789,5.73985 0.4079,0.44079 0.7106,0.77179 0.9237,1.1235 h 15.436 c 0.6293,-1.07007 1.3293,-2.14579 2.0758,-3.16705 1.938,-2.65162 3.9688,-5.45366 4.5129,-6.22672 0.5934,-0.84322 1.8253,-1.48621 3.0791,-1.60709 1.7539,-0.1691 2.1232,-0.49197 2.297,-2.00813 0.2748,-2.39607 -0.8813,-3.65918 -3.3391,-3.64844 -3.497,0.0153 -4.5723,0.63023 -6.7946,3.88695 -1.1917,1.74631 -2.5101,3.17509 -2.9297,3.17509 -0.4197,0 -1.7478,-1.44268 -2.9511,-3.20613 -3.3419,-4.89724 -4.3868,-4.89305 -7.7433,0.0318 -1.1891,1.74459 -2.5099,3.17256 -2.9348,3.17327 -0.425,6.8e-4 -1.6651,-1.29613 -2.7561,-2.8818 -2.2652,-3.29231 -3.6211,-4.18791 -6.34,-4.18791 z" /><path
       style="fill:#ffffff;fill-opacity:1;stroke-width:0.64282"
       d="m 258.62205,393.50635 c -0.7195,-0.8659 -0.9473,-4.58184 -1.0979,-17.90594 -0.1842,-16.30021 -0.1485,-16.86611 1.1716,-18.54425 1.7205,-2.18724 4.9902,-2.36969 6.7933,-0.37907 1.1272,1.24443 1.2379,2.66272 1.3922,17.83822 0.196,19.27394 0.1246,19.5953 -4.4176,19.89206 -2.1473,0.14028 -3.177,-0.10124 -3.8416,-0.90102 z"
       id="path835-2-7-4" /><path
       style="fill:#ffffff;fill-opacity:1;stroke-width:0.64282"
       d="m 274.66685,386.40539 c -0.6296,-0.75696 -0.9426,-3.63275 -1.0929,-10.04229 -0.2265,-9.65937 -0.02,-11.39465 1.5432,-12.95773 1.4354,-1.43542 5.1438,-1.28247 6.7027,0.27645 1.1734,1.17345 1.2856,2.14274 1.2856,11.1063 0,11.68771 -0.3733,12.67798 -4.7789,12.67798 -1.7962,0 -3.0892,-0.37474 -3.6597,-1.06071 z"
       id="path837-1-5-0" /><path
       style="fill:#ffffff;stroke-width:0.187006"
       d="m 238.90595,389.75172 h -15.3537 z"
       id="path482-0-7" /><path
       style="fill:#ffffff;stroke-width:0.187006"
       d="m 233.35535,388.6774 4.0287,1.65624"
       id="path484-8-6" /><path
       style="fill:#ffffff;stroke-width:0.187006"
       d="m 239.89085,390.33364 -20.233,0.26858"
       id="path486-1-71" /><path
       style="fill:#ffffff;fill-opacity:1;stroke-width:0.64282"
       d="m 526.18989,434.86212 c -0.3787,-0.70764 -0.6654,-5.65016 -0.6654,-11.4711 0,-11.52042 0.3117,-12.35544 4.6114,-12.35544 4.0843,0 4.6788,1.39569 4.9172,11.54434 0.1604,6.83219 -0.015,9.37455 -0.7708,11.18391 -0.9411,2.2524 -1.1013,2.34166 -4.2026,2.34166 -2.5299,0 -3.3676,-0.26778 -3.8898,-1.24337 z"
       id="path829-7-3-7" /><path
       style="fill:#ffffff;fill-opacity:1;stroke-width:0.64282"
       d="m 542.59569,441.74784 c -0.8441,-1.20507 -1.0007,-4.07244 -1.0007,-18.32033 0,-16.03457 0.065,-16.95689 1.2856,-18.17729 1.6249,-1.62488 4.5507,-1.64986 6.5177,-0.0557 l 1.5175,1.22999 v 17.46406 c 0,16.54576 -0.066,17.512 -1.2477,18.37596 -1.9917,1.45554 -5.8905,1.17066 -7.0724,-0.51676 z"
       id="path831-1-4-7" /><path
       id="path495-4-4"
       style="fill:#ffffff;fill-opacity:1;stroke-width:0.64282"
       d="m 561.61719,420.6779 c -3.2766,0 -3.9516,0.56086 -3.9516,3.28284 0,2.42633 0.068,2.5023 2.2258,2.5023 2.0155,0 2.4797,0.37993 4.9111,4.01771 1.4769,2.20969 3.4024,4.79258 4.2789,5.73985 0.4079,0.44079 0.7106,0.77179 0.9237,1.1235 h 15.436 c 0.6293,-1.07007 1.3293,-2.14579 2.0758,-3.16705 1.938,-2.65162 3.9688,-5.45366 4.5129,-6.22672 0.5934,-0.84322 1.8253,-1.48621 3.0791,-1.60709 1.7539,-0.1691 2.1232,-0.49197 2.297,-2.00813 0.2748,-2.39607 -0.8813,-3.65918 -3.3391,-3.64844 -3.497,0.0153 -4.5723,0.63023 -6.7946,3.88695 -1.1917,1.74631 -2.5101,3.17509 -2.9297,3.17509 -0.4197,0 -1.7478,-1.44268 -2.9511,-3.20613 -3.3419,-4.89724 -4.3868,-4.89305 -7.7433,0.0318 -1.1891,1.74459 -2.5099,3.17256 -2.9348,3.17327 -0.425,6.8e-4 -1.6651,-1.29613 -2.7561,-2.8818 -2.2652,-3.29231 -3.6211,-4.18791 -6.34,-4.18791 z" /><path
       style="fill:#ffffff;fill-opacity:1;stroke-width:0.64282"
       d="m 605.17769,442.14574 c -0.7195,-0.8659 -0.9473,-4.58184 -1.0979,-17.90594 -0.1842,-16.30021 -0.1485,-16.86611 1.1716,-18.54425 1.7205,-2.18724 4.9902,-2.36969 6.7933,-0.37907 1.1272,1.24443 1.2379,2.66272 1.3922,17.83822 0.196,19.27394 0.1246,19.5953 -4.4176,19.89206 -2.1473,0.14028 -3.177,-0.10124 -3.8416,-0.90102 z"
       id="path835-2-7-1" /><path
       style="fill:#ffffff;fill-opacity:1;stroke-width:0.64282"
       d="m 621.22249,435.04478 c -0.6296,-0.75696 -0.9426,-3.63275 -1.0929,-10.04229 -0.2265,-9.65937 -0.02,-11.39465 1.5432,-12.95773 1.4354,-1.43542 5.1438,-1.28247 6.7027,0.27645 1.1734,1.17345 1.2856,2.14274 1.2856,11.1063 0,11.68771 -0.3733,12.67798 -4.7789,12.67798 -1.7962,0 -3.0892,-0.37474 -3.6597,-1.06071 z"
       id="path837-1-5-7" /><path
       style="fill:#ffffff;stroke-width:0.187006"
       d="m 585.46159,438.39111 h -15.3537 z"
       id="path482-0-2" /><path
       style="fill:#ffffff;stroke-width:0.187006"
       d="m 579.91099,437.31679 4.0287,1.65624"
       id="path484-8-8" /><path
       style="fill:#ffffff;stroke-width:0.187006"
       d="m 586.44649,438.97303 -20.233,0.26858"
       id="path486-1-7" /><path
       id="path833-5-2-31"
       style="fill:#ffffff;fill-opacity:1;stroke-width:0.64282"
       d="m 188.3174,1165.6498 h -15.4361 c 0.6141,1.0134 0.4813,2.2012 -0.049,6.7001 -0.3958,3.3556 -0.7196,6.9919 -0.7196,8.0807 0,1.8836 0.1257,1.9796 2.5914,1.9796 1.6769,0 2.7182,0.3307 2.9508,0.9369 0.1978,0.5153 -0.1005,4.5049 -0.6629,8.866 -0.5624,4.3611 -1.0226,8.4602 -1.0226,9.1092 0,0.6504 1.386,-0.949 3.0877,-3.5629 4.9121,-7.5452 13.6256,-21.5605 13.6256,-21.9163 0,-0.1787 -1.4965,-0.5022 -3.3256,-0.7188 -1.8291,-0.2166 -3.5658,-0.6343 -3.8596,-0.9281 -0.8217,-0.8217 0.5263,-4.6456 2.8201,-8.5464 z" /><path
       id="path833-5-2-7"
       style="fill:#ffffff;fill-opacity:1;stroke-width:0.64282"
       d="m 409.22133,192.86195 h -15.4361 c 0.6141,1.01336 0.4813,2.20119 -0.049,6.70008 -0.3958,3.35559 -0.7196,6.99193 -0.7196,8.08072 0,1.88355 0.1257,1.97963 2.5914,1.97963 1.6769,0 2.7182,0.33066 2.9508,0.93686 0.1978,0.51525 -0.1005,4.50488 -0.6629,8.86599 -0.5624,4.3611 -1.0226,8.46023 -1.0226,9.10925 0,0.65035 1.386,-0.94904 3.0877,-3.56298 4.9121,-7.54518 13.6256,-21.56043 13.6256,-21.91625 0,-0.17868 -1.4965,-0.50218 -3.3256,-0.7188 -1.8291,-0.21663 -3.5658,-0.63436 -3.8596,-0.9281 -0.8217,-0.82167 0.5263,-4.64558 2.8201,-8.5464 z" /><path
       id="path833-5-2-29"
       style="fill:#ffffff;fill-opacity:1;stroke-width:0.64282"
       d="m 624.04532,132.06271 h -15.4361 c 0.6141,1.01336 0.4813,2.20119 -0.049,6.70008 -0.3958,3.35559 -0.7196,6.99193 -0.7196,8.08072 0,1.88355 0.1257,1.97963 2.5914,1.97963 1.6769,0 2.7182,0.33066 2.9508,0.93686 0.1978,0.51525 -0.1005,4.50488 -0.6629,8.86599 -0.5624,4.3611 -1.0226,8.46023 -1.0226,9.10925 0,0.65035 1.386,-0.94904 3.0877,-3.56298 4.9121,-7.54518 13.6256,-21.56043 13.6256,-21.91625 0,-0.17868 -1.4965,-0.50218 -3.3256,-0.7188 -1.8291,-0.21663 -3.5658,-0.63436 -3.8596,-0.9281 -0.8217,-0.82167 0.5263,-4.64558 2.8201,-8.5464 z" /><path
       id="path833-5-2-37"
       style="fill:#ffffff;fill-opacity:1;stroke-width:0.64282"
       d="m 157.9178,511.04465 h -15.4361 c 0.6141,1.01336 0.4813,2.20119 -0.049,6.70008 -0.3958,3.35559 -0.7196,6.99193 -0.7196,8.08072 0,1.88355 0.1257,1.97963 2.5914,1.97963 1.6769,0 2.7182,0.33066 2.9508,0.93686 0.1978,0.51525 -0.1005,4.50488 -0.6629,8.86599 -0.5624,4.3611 -1.0226,8.46023 -1.0226,9.10925 0,0.65035 1.386,-0.94904 3.0877,-3.56298 4.9121,-7.54518 13.6256,-21.56043 13.6256,-21.91625 0,-0.17868 -1.4965,-0.50218 -3.3256,-0.7188 -1.8291,-0.21663 -3.5658,-0.63436 -3.8596,-0.9281 -0.8217,-0.82167 0.5263,-4.64558 2.8201,-8.5464 z" /><path
       id="path833-5-2-2"
       style="fill:#ffffff;fill-opacity:1;stroke-width:0.64282"
       d="m 654.44494,746.13505 h -15.4361 c 0.6141,1.01336 0.4813,2.20119 -0.049,6.70008 -0.3958,3.35559 -0.7196,6.99193 -0.7196,8.08072 0,1.88355 0.1257,1.97963 2.5914,1.97963 1.6769,0 2.7182,0.33066 2.9508,0.93686 0.1978,0.51525 -0.1005,4.50488 -0.6629,8.86599 -0.5624,4.3611 -1.0226,8.46023 -1.0226,9.10925 0,0.65035 1.386,-0.94904 3.0877,-3.56298 4.9121,-7.54518 13.6256,-21.56043 13.6256,-21.91625 0,-0.17868 -1.4965,-0.50218 -3.3256,-0.7188 -1.8291,-0.21663 -3.5658,-0.63436 -3.8596,-0.9281 -0.8217,-0.82167 0.5263,-4.64558 2.8201,-8.5464 z" /><path
       id="path833-5-2-3"
       style="fill:#ffffff;fill-opacity:1;stroke-width:0.64282"
       d="m 119.4116,887.99994 h -15.4361 c 0.6141,1.01336 0.4813,2.20119 -0.049,6.70008 -0.3958,3.35559 -0.7196,6.99193 -0.7196,8.08072 0,1.88355 0.1257,1.97963 2.5914,1.97963 1.6769,0 2.7182,0.33066 2.9508,0.93686 0.1978,0.51525 -0.1005,4.50488 -0.6629,8.86599 -0.5624,4.3611 -1.0226,8.46023 -1.0226,9.10925 0,0.65035 1.386,-0.94904 3.0877,-3.56298 4.9121,-7.54518 13.6256,-21.56043 13.6256,-21.91625 0,-0.17868 -1.4965,-0.50218 -3.3256,-0.7188 -1.8291,-0.21663 -3.5658,-0.63436 -3.8596,-0.9281 -0.8217,-0.82167 0.5263,-4.64558 2.8201,-8.5464 z" /><path
       id="path833-5-2-1"
       style="fill:#ffffff;fill-opacity:1;stroke-width:0.64282"
       d="m 437.59431,977.17216 h -15.4361 c 0.6141,1.01336 0.4813,2.20119 -0.049,6.70008 -0.3958,3.35559 -0.7196,6.99193 -0.7196,8.08072 0,1.88355 0.1257,1.97963 2.5914,1.97963 1.6769,0 2.7182,0.33066 2.9508,0.93686 0.1978,0.51525 -0.1005,4.50488 -0.6629,8.86595 -0.5624,4.3611 -1.0226,8.4603 -1.0226,9.1093 0,0.6503 1.386,-0.949 3.0877,-3.563 4.9121,-7.5452 13.6256,-21.56042 13.6256,-21.91624 0,-0.17868 -1.4965,-0.50218 -3.3256,-0.7188 -1.8291,-0.21663 -3.5658,-0.63436 -3.8596,-0.9281 -0.8217,-0.82167 0.5263,-4.64558 2.8201,-8.5464 z" /><path
       id="path833-5-2-6"
       style="fill:#ffffff;fill-opacity:1;stroke-width:0.64282"
       d="m 577.43257,1155.5166 h -15.4361 c 0.6141,1.0134 0.4813,2.2012 -0.049,6.7001 -0.3958,3.3556 -0.7196,6.9919 -0.7196,8.0807 0,1.8836 0.1257,1.9796 2.5914,1.9796 1.6769,0 2.7182,0.3307 2.9508,0.9369 0.1978,0.5153 -0.1005,4.5049 -0.6629,8.866 -0.5624,4.3611 -1.0226,8.4602 -1.0226,9.1092 0,0.6504 1.386,-0.949 3.0877,-3.5629 4.9121,-7.5452 13.6256,-21.5605 13.6256,-21.9163 0,-0.1787 -1.4965,-0.5022 -3.3256,-0.7188 -1.8291,-0.2166 -3.5658,-0.6343 -3.8596,-0.9281 -0.8217,-0.8217 0.5263,-4.6456 2.8201,-8.5464 z" /><path
       id="path833-5-2-9"
       style="fill:#ffffff;fill-opacity:1;stroke-width:0.64282"
       d="m 421.38118,387.41952 h -15.4361 c 0.6141,1.01336 0.4813,2.20119 -0.049,6.70008 -0.3958,3.35559 -0.7196,6.99193 -0.7196,8.08072 0,1.88355 0.1257,1.97963 2.5914,1.97963 1.6769,0 2.7182,0.33066 2.9508,0.93686 0.1978,0.51525 -0.1005,4.50488 -0.6629,8.86599 -0.5624,4.3611 -1.0226,8.46023 -1.0226,9.10925 0,0.65035 1.386,-0.94904 3.0877,-3.56298 4.9121,-7.54518 13.6256,-21.56043 13.6256,-21.91625 0,-0.17868 -1.4965,-0.50218 -3.3256,-0.7188 -1.8291,-0.21663 -3.5658,-0.63436 -3.8596,-0.9281 -0.8217,-0.82167 0.5263,-4.64558 2.8201,-8.5464 z" /><g
       id="g844"
       transform="matrix(0.35112164,0,0,0.35112164,287.98938,580.8538)"><path
         style="fill:#ff0000;fill-opacity:1;stroke-width:2.59023"
         d="m 40.680879,230.49779 c -1.526048,-2.85145 -2.681354,-22.76722 -2.681354,-46.22255 0,-46.42129 1.255805,-49.78599 18.581618,-49.78599 16.45755,0 18.85297,5.62391 19.813508,46.51768 0.646632,27.53017 -0.05938,37.77455 -3.10561,45.06531 -3.7922,9.076 -4.437774,9.4357 -16.934654,9.4357 -10.193983,0 -13.56965,-1.07904 -15.673508,-5.01015 z"
         id="path829" /><path
         style="fill:#ff0000;fill-opacity:1;stroke-width:2.59023"
         d="m 106.78732,258.24363 c -3.40112,-4.85579 -4.03221,-16.4098 -4.03221,-73.82136 0,-64.61095 0.26285,-68.32743 5.18044,-73.24502 6.54742,-6.54742 18.33716,-6.64806 26.26284,-0.22431 l 6.11495,4.95624 v 70.37104 c 0,66.67078 -0.26438,70.56421 -5.02796,74.04552 -8.02527,5.86506 -23.73557,4.71716 -28.49806,-2.08224 z"
         id="path831" /><path
         style="fill:#ff0000;fill-opacity:1;stroke-width:2.59023"
         d="m 229.67604,384.24086 c 0,-2.61522 1.85404,-19.13286 4.1201,-36.70583 2.26606,-17.573 3.46826,-33.64965 2.67151,-35.72586 -0.93733,-2.44264 -5.13399,-3.77498 -11.89075,-3.77498 -9.93556,0 -10.4422,-0.38699 -10.4422,-7.97673 0,-4.38723 1.30474,-19.03964 2.89938,-32.56094 2.88002,-24.42008 2.85652,-24.63049 -3.52224,-31.52414 -3.53189,-3.817 -11.29084,-14.225 -17.24212,-23.12888 -9.79751,-14.65838 -11.66848,-16.1889 -19.78976,-16.1889 -8.69626,0 -8.96926,-0.30692 -8.96926,-10.08375 0,-10.96818 2.72056,-13.22825 15.92348,-13.22825 10.9559,0 16.4193,3.60896 25.5468,16.87529 4.39606,6.38943 9.39383,11.61492 11.10616,11.61217 1.71233,-0.003 7.03341,-5.75667 11.82458,-12.78644 13.52506,-19.84447 17.73626,-19.86176 31.20234,-0.12835 4.84897,7.10583 10.19988,12.91968 11.89087,12.91968 1.69103,0 7.00334,-5.75731 11.80516,-12.79402 8.95504,-13.12293 13.28756,-15.60154 27.37861,-15.66306 9.90396,-0.0434 14.56251,5.04682 13.45544,14.7018 -0.70052,6.10934 -2.18865,7.41025 -9.25598,8.09161 -5.05202,0.48708 -10.01602,3.07788 -12.40729,6.47558 -2.19228,3.11501 -10.37548,14.40567 -18.18489,25.09033 -13.9721,19.11636 -23.94599,42.98072 -19.72678,47.19993 1.18362,1.18359 8.18213,2.86618 15.55231,3.73906 7.37019,0.87288 13.40034,2.17615 13.40034,2.89616 0,1.43377 -35.1107,57.90873 -54.90383,88.3119 -6.8571,10.53284 -12.44198,16.9771 -12.44198,14.35653 z"
         id="path833" /><path
         style="fill:#ff0000;fill-opacity:1;stroke-width:2.59023"
         d="m 358.96034,259.847 c -2.89925,-3.48916 -3.81736,-18.46244 -4.42405,-72.15163 -0.7422,-65.68132 -0.59814,-67.96162 4.72089,-74.72367 6.93265,-8.81343 20.10788,-9.5486 27.37345,-1.52743 4.54202,5.01436 4.98806,10.72934 5.60979,71.87872 0.78963,77.66393 0.50206,78.95886 -17.80053,80.15462 -8.65236,0.56528 -12.80177,-0.40796 -15.47955,-3.63061 z"
         id="path835" /><path
         style="fill:#ff0000;fill-opacity:1;stroke-width:2.59023"
         d="m 423.61237,231.23382 c -2.53689,-3.05016 -3.79799,-14.63809 -4.4038,-40.46519 -0.91288,-38.92226 -0.0801,-45.9145 6.21823,-52.21291 5.78401,-5.78402 20.72676,-5.1677 27.00843,1.11397 4.72832,4.72835 5.18047,8.6341 5.18047,44.75258 0,47.09537 -1.50412,51.08567 -19.25639,51.08567 -7.23786,0 -12.44794,-1.51004 -14.74694,-4.27412 z"
         id="path837" /></g><path
       style="fill:#ffffff;fill-opacity:1;stroke-width:0.417929"
       d="m 438.40629,524.80553 c -0.016,-0.52157 1.2488,-3.48164 2.9344,-6.87001 3.336,-6.70605 3.7593,-7.10183 6.2621,-5.85677 2.3775,1.18271 2.3194,2.16729 -0.4806,8.14386 -1.8851,4.02348 -2.7236,5.45247 -3.6873,6.28697 -1.2001,1.03858 -1.3191,1.04418 -3.1244,0.14613 -1.4727,-0.73263 -1.8828,-1.13108 -1.9042,-1.85018 z"
       id="path829-7-3-6" /><path
       style="fill:#ffffff;fill-opacity:1;stroke-width:0.417929"
       d="m 445.96219,533.56441 c -0.1424,-0.94591 0.5967,-2.66035 4.7226,-10.95406 4.6432,-9.33373 4.9478,-9.85191 6.012,-10.2087 1.4164,-0.47534 3.1267,0.35736 3.8101,1.85491 l 0.5271,1.15541 -5.0571,10.16584 c -4.7913,9.6313 -5.1096,10.1746 -6.0475,10.33541 -1.5808,0.27051 -3.7678,-1.0243 -3.9672,-2.34884 z"
       id="path831-1-4-63" /><path
       id="path495-4-6"
       style="fill:#ffffff;fill-opacity:1;stroke-width:0.417929"
       d="m 463.13599,526.80775 c -1.9074,-0.94883 -2.4627,-0.81784 -3.2509,0.76663 -0.7026,1.41237 -0.6852,1.47619 0.571,2.10113 1.1732,0.58365 1.3334,0.93922 1.6954,3.76086 0.2198,1.71393 0.5927,3.77503 0.8286,4.58023 0.1098,0.3747 0.1901,0.65502 0.2124,0.92149 l 8.9853,4.46987 c 0.6761,-0.44068 1.3951,-0.86416 2.1253,-1.24248 1.896,-0.98231 3.8896,-2.02528 4.4301,-2.31774 0.5896,-0.31901 1.4929,-0.33657 2.2578,-0.0438 1.0699,0.40945 1.3783,0.32845 1.9186,-0.50378 0.8537,-1.31521 0.5465,-2.38522 -0.8872,-3.09067 -2.0401,-1.0037 -2.8441,-0.95717 -5.0807,0.29505 -1.1994,0.67144 -2.3806,1.12134 -2.6249,0.99984 -0.2443,-0.12155 -0.5996,-1.34589 -0.7894,-2.72083 -0.5272,-3.81845 -1.1366,-4.11856 -4.5165,-2.22373 -1.1974,0.67118 -2.3798,1.1199 -2.6273,0.9973 -0.2476,-0.12267 -0.594,-1.23667 -0.7699,-2.47561 -0.3652,-2.57239 -0.8951,-3.48633 -2.4777,-4.27366 z" /><path
       style="fill:#ffffff;fill-opacity:1;stroke-width:0.417929"
       d="m 482.27599,551.91819 c -0.1681,-0.71239 0.7753,-2.94141 4.546,-10.74098 4.613,-9.54168 4.7972,-9.86098 6.0519,-10.45537 1.6349,-0.77497 3.591,0.0657 4.0642,1.74653 0.2958,1.05077 -0.051,1.90842 -4.3551,10.78677 -5.4671,11.27616 -5.6018,11.44252 -8.3317,10.29996 -1.2905,-0.54012 -1.82,-0.97888 -1.9753,-1.63691 z"
       id="path835-2-7-14" /><path
       style="fill:#ffffff;fill-opacity:1;stroke-width:0.417929"
       d="m 493.67189,552.43088 c -0.1472,-0.62293 0.5033,-2.38757 2.2719,-6.16209 2.6652,-5.68833 3.2879,-6.63862 4.6505,-7.09583 1.2512,-0.41992 3.3655,0.74297 3.8216,2.10187 0.3432,1.02282 0.1279,1.61955 -2.4678,6.83725 -3.3844,6.80342 -3.8885,7.27177 -6.453,5.99602 -1.0456,-0.52014 -1.6897,-1.11268 -1.8232,-1.67722 z"
       id="path837-1-5-6" /><path
       style="fill:#ffffff;stroke-width:0.121582"
       d="m 471.88649,544.02334 -8.9374,-4.44604 z"
       id="path482-0-5" /><path
       style="fill:#ffffff;stroke-width:0.121582"
       d="m 468.96659,541.79068 1.8655,2.13068"
       id="path484-8-5" /><path
       style="fill:#ffffff;stroke-width:0.121582"
       d="m 472.29129,544.64727 -11.8555,-5.70264"
       id="path486-1-56" /><path
       style="fill:#ffffff;fill-opacity:1;stroke-width:0.417929"
       d="m 216.2833,940.39057 c -0.016,-0.52157 1.2488,-3.48164 2.9344,-6.87001 3.336,-6.70605 3.7593,-7.10183 6.2621,-5.85677 2.3775,1.18271 2.3194,2.16729 -0.4806,8.14386 -1.8851,4.02348 -2.7236,5.45247 -3.6873,6.28697 -1.2001,1.03858 -1.3191,1.04418 -3.1244,0.14613 -1.4727,-0.73263 -1.8828,-1.13108 -1.9042,-1.85018 z"
       id="path829-7-3-49" /><path
       style="fill:#ffffff;fill-opacity:1;stroke-width:0.417929"
       d="m 223.8392,949.14945 c -0.1424,-0.94591 0.5967,-2.66035 4.7226,-10.95406 4.6432,-9.33373 4.9478,-9.85191 6.012,-10.2087 1.4164,-0.47534 3.1267,0.35736 3.8101,1.85491 l 0.5271,1.15541 -5.0571,10.16584 c -4.7913,9.6313 -5.1096,10.1746 -6.0475,10.33541 -1.5808,0.27051 -3.7678,-1.0243 -3.9672,-2.34884 z"
       id="path831-1-4-29" /><path
       id="path495-4-5"
       style="fill:#ffffff;fill-opacity:1;stroke-width:0.417929"
       d="m 241.013,942.39279 c -1.9074,-0.94883 -2.4627,-0.81784 -3.2509,0.76663 -0.7026,1.41237 -0.6852,1.47619 0.571,2.10113 1.1732,0.58365 1.3334,0.93922 1.6954,3.76086 0.2198,1.71393 0.5927,3.77503 0.8286,4.58023 0.1098,0.3747 0.1901,0.65502 0.2124,0.92149 l 8.9853,4.46987 c 0.6761,-0.44068 1.3951,-0.86416 2.1253,-1.24248 1.896,-0.98231 3.8896,-2.02528 4.4301,-2.31774 0.5896,-0.31901 1.4929,-0.33657 2.2578,-0.0438 1.0699,0.40945 1.3783,0.32845 1.9186,-0.50378 0.8537,-1.31521 0.5465,-2.38522 -0.8872,-3.09067 -2.0401,-1.0037 -2.8441,-0.95717 -5.0807,0.29505 -1.1994,0.67144 -2.3806,1.12134 -2.6249,0.99984 -0.2443,-0.12155 -0.5996,-1.34589 -0.7894,-2.72083 -0.5272,-3.81845 -1.1366,-4.11856 -4.5165,-2.22373 -1.1974,0.67118 -2.3798,1.1199 -2.6273,0.9973 -0.2476,-0.12267 -0.594,-1.23667 -0.7699,-2.47561 -0.3652,-2.57239 -0.8951,-3.48633 -2.4777,-4.27366 z" /><path
       style="fill:#ffffff;fill-opacity:1;stroke-width:0.417929"
       d="m 260.153,967.50323 c -0.1681,-0.71239 0.7753,-2.94141 4.546,-10.74098 4.613,-9.54168 4.7972,-9.86098 6.0519,-10.45537 1.6349,-0.77497 3.591,0.0657 4.0642,1.74653 0.2958,1.05077 -0.051,1.90842 -4.3551,10.78677 -5.4671,11.27616 -5.6018,11.44252 -8.3317,10.29996 -1.2905,-0.54012 -1.82,-0.97888 -1.9753,-1.63691 z"
       id="path835-2-7-9" /><path
       style="fill:#ffffff;fill-opacity:1;stroke-width:0.417929"
       d="m 271.5489,968.01592 c -0.1472,-0.62293 0.5033,-2.38757 2.2719,-6.16209 2.6652,-5.68833 3.2879,-6.63862 4.6505,-7.09583 1.2512,-0.41992 3.3655,0.74297 3.8216,2.10187 0.3432,1.02282 0.1279,1.61955 -2.4678,6.83725 -3.3844,6.80342 -3.8885,7.27177 -6.453,5.99602 -1.0456,-0.52014 -1.6897,-1.11268 -1.8232,-1.67722 z"
       id="path837-1-5-5" /><path
       style="fill:#ffffff;stroke-width:0.121582"
       d="m 249.7635,959.60838 -8.9374,-4.44604 z"
       id="path482-0-3" /><path
       style="fill:#ffffff;stroke-width:0.121582"
       d="m 246.8436,957.37572 1.8655,2.13068"
       id="path484-8-3" /><path
       style="fill:#ffffff;stroke-width:0.121582"
       d="m 250.1683,960.23231 -11.8555,-5.70264"
       id="path486-1-1" /><path
       style="fill:#ffffff;fill-opacity:1;stroke-width:0.417929"
       d="m 104.5052,597.89118 c -0.016,-0.52157 1.2488,-3.48164 2.9344,-6.87001 3.336,-6.70605 3.7593,-7.10183 6.2621,-5.85677 2.3775,1.18271 2.3194,2.16729 -0.4806,8.14386 -1.8851,4.02348 -2.7236,5.45247 -3.6873,6.28697 -1.2001,1.03858 -1.3191,1.04418 -3.1244,0.14613 -1.4727,-0.73263 -1.8828,-1.13108 -1.9042,-1.85018 z"
       id="path829-7-3-84" /><path
       style="fill:#ffffff;fill-opacity:1;stroke-width:0.417929"
       d="m 112.0611,606.65006 c -0.1424,-0.94591 0.5967,-2.66035 4.7226,-10.95406 4.6432,-9.33373 4.9478,-9.85191 6.012,-10.2087 1.4164,-0.47534 3.1267,0.35736 3.8101,1.85491 l 0.5271,1.15541 -5.0571,10.16584 c -4.7913,9.6313 -5.1096,10.1746 -6.0475,10.33541 -1.5808,0.27051 -3.7678,-1.0243 -3.9672,-2.34884 z"
       id="path831-1-4-69" /><path
       id="path495-4-67"
       style="fill:#ffffff;fill-opacity:1;stroke-width:0.417929"
       d="m 129.2349,599.8934 c -1.9074,-0.94883 -2.4627,-0.81784 -3.2509,0.76663 -0.7026,1.41237 -0.6852,1.47619 0.571,2.10113 1.1732,0.58365 1.3334,0.93922 1.6954,3.76086 0.2198,1.71393 0.5927,3.77503 0.8286,4.58023 0.1098,0.3747 0.1901,0.65502 0.2124,0.92149 l 8.9853,4.46987 c 0.6761,-0.44068 1.3951,-0.86416 2.1253,-1.24248 1.896,-0.98231 3.8896,-2.02528 4.4301,-2.31774 0.5896,-0.31901 1.4929,-0.33657 2.2578,-0.0438 1.0699,0.40945 1.3783,0.32845 1.9186,-0.50378 0.8537,-1.31521 0.5465,-2.38522 -0.8872,-3.09067 -2.0401,-1.0037 -2.8441,-0.95717 -5.0807,0.29505 -1.1994,0.67144 -2.3806,1.12134 -2.6249,0.99984 -0.2443,-0.12155 -0.5996,-1.34589 -0.7894,-2.72083 -0.5272,-3.81845 -1.1366,-4.11856 -4.5165,-2.22373 -1.1974,0.67118 -2.3798,1.1199 -2.6273,0.9973 -0.2476,-0.12267 -0.594,-1.23667 -0.7699,-2.47561 -0.3652,-2.57239 -0.8951,-3.48633 -2.4777,-4.27366 z" /><path
       style="fill:#ffffff;fill-opacity:1;stroke-width:0.417929"
       d="m 148.3749,625.00384 c -0.1681,-0.71239 0.7753,-2.94141 4.546,-10.74098 4.613,-9.54168 4.7972,-9.86098 6.0519,-10.45537 1.6349,-0.77497 3.591,0.0657 4.0642,1.74653 0.2958,1.05077 -0.051,1.90842 -4.3551,10.78677 -5.4671,11.27616 -5.6018,11.44252 -8.3317,10.29996 -1.2905,-0.54012 -1.82,-0.97888 -1.9753,-1.63691 z"
       id="path835-2-7-42" /><path
       style="fill:#ffffff;fill-opacity:1;stroke-width:0.417929"
       d="m 159.7708,625.51653 c -0.1472,-0.62293 0.5033,-2.38757 2.2719,-6.16209 2.6652,-5.68833 3.2879,-6.63862 4.6505,-7.09583 1.2512,-0.41992 3.3655,0.74297 3.8216,2.10187 0.3432,1.02282 0.1279,1.61955 -2.4678,6.83725 -3.3844,6.80342 -3.8885,7.27177 -6.453,5.99602 -1.0456,-0.52014 -1.6897,-1.11268 -1.8232,-1.67722 z"
       id="path837-1-5-24" /><path
       style="fill:#ffffff;stroke-width:0.121582"
       d="m 137.9854,617.10899 -8.9374,-4.44604 z"
       id="path482-0-35" /><path
       style="fill:#ffffff;stroke-width:0.121582"
       d="m 135.0655,614.87633 1.8655,2.13068"
       id="path484-8-35" /><path
       style="fill:#ffffff;stroke-width:0.121582"
       d="m 138.3902,617.73292 -11.8555,-5.70264"
       id="path486-1-46" /><path
       style="fill:#ffffff;fill-opacity:1;stroke-width:0.417929"
       d="m 47.1831,787.05402 c -0.016,-0.52157 1.2488,-3.48164 2.9344,-6.87001 3.336,-6.70605 3.7593,-7.10183 6.2621,-5.85677 2.3775,1.18271 2.3194,2.16729 -0.4806,8.14386 -1.8851,4.02348 -2.7236,5.45247 -3.6873,6.28697 -1.2001,1.03858 -1.3191,1.04418 -3.1244,0.14613 -1.4727,-0.73263 -1.8828,-1.13108 -1.9042,-1.85018 z"
       id="path829-7-3-80" /><path
       style="fill:#ffffff;fill-opacity:1;stroke-width:0.417929"
       d="m 54.739,795.8129 c -0.1424,-0.94591 0.5967,-2.66035 4.7226,-10.95406 4.6432,-9.33373 4.9478,-9.85191 6.012,-10.2087 1.4164,-0.47534 3.1267,0.35736 3.8101,1.85491 l 0.5271,1.15541 -5.0571,10.16584 c -4.7913,9.6313 -5.1096,10.1746 -6.0475,10.33541 -1.5808,0.27051 -3.7678,-1.0243 -3.9672,-2.34884 z"
       id="path831-1-4-13" /><path
       id="path495-4-51"
       style="fill:#ffffff;fill-opacity:1;stroke-width:0.417929"
       d="m 71.9128,789.05624 c -1.9074,-0.94883 -2.4627,-0.81784 -3.2509,0.76663 -0.7026,1.41237 -0.6852,1.47619 0.571,2.10113 1.1732,0.58365 1.3334,0.93922 1.6954,3.76086 0.2198,1.71393 0.5927,3.77503 0.8286,4.58023 0.1098,0.3747 0.1901,0.65502 0.2124,0.92149 l 8.9853,4.46987 c 0.6761,-0.44068 1.3951,-0.86416 2.1253,-1.24248 1.896,-0.98231 3.8896,-2.02528 4.4301,-2.31774 0.5896,-0.31901 1.4929,-0.33657 2.2578,-0.0438 1.0699,0.40945 1.3783,0.32845 1.9186,-0.50378 0.8537,-1.31521 0.5465,-2.38522 -0.8872,-3.09067 -2.0401,-1.0037 -2.8441,-0.95717 -5.0807,0.29505 -1.1994,0.67144 -2.3806,1.12134 -2.6249,0.99984 -0.2443,-0.12155 -0.5996,-1.34589 -0.7894,-2.72083 -0.5272,-3.81845 -1.1366,-4.11856 -4.5165,-2.22373 -1.1974,0.67118 -2.3798,1.1199 -2.6273,0.9973 -0.2476,-0.12267 -0.594,-1.23667 -0.7699,-2.47561 -0.3652,-2.57239 -0.8951,-3.48633 -2.4777,-4.27366 z" /><path
       style="fill:#ffffff;fill-opacity:1;stroke-width:0.417929"
       d="m 91.0528,814.16668 c -0.1681,-0.71239 0.7753,-2.94141 4.546,-10.74098 4.613,-9.54168 4.7972,-9.86098 6.0519,-10.45537 1.6349,-0.77497 3.591,0.0657 4.0642,1.74653 0.2958,1.05077 -0.051,1.90842 -4.3551,10.78677 -5.4671,11.27616 -5.6018,11.44252 -8.3317,10.29996 -1.2905,-0.54012 -1.82,-0.97888 -1.9753,-1.63691 z"
       id="path835-2-7-489" /><path
       style="fill:#ffffff;fill-opacity:1;stroke-width:0.417929"
       d="m 102.4487,814.67937 c -0.1472,-0.62293 0.5033,-2.38757 2.2719,-6.16209 2.6652,-5.68833 3.2879,-6.63862 4.6505,-7.09583 1.2512,-0.41992 3.3655,0.74297 3.8216,2.10187 0.3432,1.02282 0.1279,1.61955 -2.4678,6.83725 -3.3844,6.80342 -3.8885,7.27177 -6.453,5.99602 -1.0456,-0.52014 -1.6897,-1.11268 -1.8232,-1.67722 z"
       id="path837-1-5-32" /><path
       style="fill:#ffffff;stroke-width:0.121582"
       d="m 80.6633,806.27183 -8.9374,-4.44604 z"
       id="path482-0-05" /><path
       style="fill:#ffffff;stroke-width:0.121582"
       d="m 77.7434,804.03917 1.8655,2.13068"
       id="path484-8-14" /><path
       style="fill:#ffffff;stroke-width:0.121582"
       d="M 81.0681,806.89576 69.2126,801.19312"
       id="path486-1-25" /><path
       style="fill:#ffffff;fill-opacity:1;stroke-width:0.417929"
       d="m 557.3496,838.64389 c -0.016,-0.52157 1.2488,-3.48164 2.9344,-6.87001 3.336,-6.70605 3.7593,-7.10183 6.2621,-5.85677 2.3775,1.18271 2.3194,2.16729 -0.4806,8.14386 -1.8851,4.02348 -2.7236,5.45247 -3.6873,6.28697 -1.2001,1.03858 -1.3191,1.04418 -3.1244,0.14613 -1.4727,-0.73263 -1.8828,-1.13108 -1.9042,-1.85018 z"
       id="path829-7-3-57" /><path
       style="fill:#ffffff;fill-opacity:1;stroke-width:0.417929"
       d="m 564.9055,847.40277 c -0.1424,-0.94591 0.5967,-2.66035 4.7226,-10.95406 4.6432,-9.33373 4.9478,-9.85191 6.012,-10.2087 1.4164,-0.47534 3.1267,0.35736 3.8101,1.85491 l 0.5271,1.15541 -5.0571,10.16584 c -4.7913,9.6313 -5.1096,10.1746 -6.0475,10.33541 -1.5808,0.27051 -3.7678,-1.0243 -3.9672,-2.34884 z"
       id="path831-1-4-58" /><path
       id="path495-4-2"
       style="fill:#ffffff;fill-opacity:1;stroke-width:0.417929"
       d="m 582.0793,840.64611 c -1.9074,-0.94883 -2.4627,-0.81784 -3.2509,0.76663 -0.7026,1.41237 -0.6852,1.47619 0.571,2.10113 1.1732,0.58365 1.3334,0.93922 1.6954,3.76086 0.2198,1.71393 0.5927,3.77503 0.8286,4.58023 0.1098,0.3747 0.1901,0.65502 0.2124,0.92149 l 8.9853,4.46987 c 0.6761,-0.44068 1.3951,-0.86416 2.1253,-1.24248 1.896,-0.98231 3.8896,-2.02528 4.4301,-2.31774 0.5896,-0.31901 1.4929,-0.33657 2.2578,-0.0438 1.0699,0.40945 1.3783,0.32845 1.9186,-0.50378 0.8537,-1.31521 0.5465,-2.38522 -0.8872,-3.09067 -2.0401,-1.0037 -2.8441,-0.95717 -5.0807,0.29505 -1.1994,0.67144 -2.3806,1.12134 -2.6249,0.99984 -0.2443,-0.12155 -0.5996,-1.34589 -0.7894,-2.72083 -0.5272,-3.81845 -1.1366,-4.11856 -4.5165,-2.22373 -1.1974,0.67118 -2.3798,1.1199 -2.6273,0.9973 -0.2476,-0.12267 -0.594,-1.23667 -0.7699,-2.47561 -0.3652,-2.57239 -0.8951,-3.48633 -2.4777,-4.27366 z" /><path
       style="fill:#ffffff;fill-opacity:1;stroke-width:0.417929"
       d="m 601.2193,865.75655 c -0.1681,-0.71239 0.7753,-2.94141 4.546,-10.74098 4.613,-9.54168 4.7972,-9.86098 6.0519,-10.45537 1.6349,-0.77497 3.591,0.0657 4.0642,1.74653 0.2958,1.05077 -0.051,1.90842 -4.3551,10.78677 -5.4671,11.27616 -5.6018,11.44252 -8.3317,10.29996 -1.2905,-0.54012 -1.82,-0.97888 -1.9753,-1.63691 z"
       id="path835-2-7-46" /><path
       style="fill:#ffffff;fill-opacity:1;stroke-width:0.417929"
       d="m 612.6152,866.26924 c -0.1472,-0.62293 0.5033,-2.38757 2.2719,-6.16209 2.6652,-5.68833 3.2879,-6.63862 4.6505,-7.09583 1.2512,-0.41992 3.3655,0.74297 3.8216,2.10187 0.3432,1.02282 0.1279,1.61955 -2.4678,6.83725 -3.3844,6.80342 -3.8885,7.27177 -6.453,5.99602 -1.0456,-0.52014 -1.6897,-1.11268 -1.8232,-1.67722 z"
       id="path837-1-5-1" /><path
       style="fill:#ffffff;stroke-width:0.121582"
       d="m 590.8298,857.8617 -8.9374,-4.44604 z"
       id="path482-0-71" /><path
       style="fill:#ffffff;stroke-width:0.121582"
       d="m 587.9099,855.62904 1.8655,2.13068"
       id="path484-8-09" /><path
       style="fill:#ffffff;stroke-width:0.121582"
       d="m 591.2346,858.48563 -11.8555,-5.70264"
       id="path486-1-42" /><path
       id="path833-5-2-0"
       style="fill:#ffffff;fill-opacity:1;stroke-width:0.64282"
       d="m 202.5039,207.04844 h -15.4361 c 0.6141,1.01336 0.4813,2.20119 -0.049,6.70008 -0.3958,3.35559 -0.7196,6.99193 -0.7196,8.08072 0,1.88355 0.1257,1.97963 2.5914,1.97963 1.6769,0 2.7182,0.33066 2.9508,0.93686 0.1978,0.51525 -0.1005,4.50488 -0.6629,8.86599 -0.5624,4.3611 -1.0226,8.46023 -1.0226,9.10925 0,0.65035 1.386,-0.94904 3.0877,-3.56298 4.9121,-7.54518 13.6256,-21.56043 13.6256,-21.91625 0,-0.17868 -1.4965,-0.50218 -3.3256,-0.7188 -1.8291,-0.21663 -3.5658,-0.63436 -3.8596,-0.9281 -0.8217,-0.82167 0.5263,-4.64558 2.8201,-8.5464 z" /><path
       id="path833-5-2-46"
       style="fill:#ffffff;fill-opacity:1;stroke-width:0.417929"
       d="m 563.35913,697.20757 -8.9853,-4.46987 c 0.064,0.76769 -0.3572,1.42068 -1.9688,3.88588 -1.2021,1.83868 -2.4435,3.86165 -2.7588,4.49544 -0.5454,1.09641 -0.4998,1.18886 0.9352,1.90274 0.9761,0.48557 1.4865,0.97958 1.4463,1.3998 -0.034,0.3572 -1.3627,2.59334 -2.9532,4.96893 -1.5902,2.37576 -3.0451,4.62861 -3.2331,5.0064 -0.1883,0.37858 1.0816,-0.15109 2.8292,-1.17988 5.0442,-2.96964 14.1747,-8.60475 14.2778,-8.81187 0.052,-0.10402 -0.7257,-0.72565 -1.7277,-1.3814 -1.002,-0.65578 -1.892,-1.40183 -1.9779,-1.65789 -0.2404,-0.71623 1.6516,-2.55178 4.1164,-4.15823 z" /><path
       id="path833-5-2-67"
       style="fill:#ffffff;fill-opacity:1;stroke-width:0.417929"
       d="m 516.06841,73.83001 -8.9853,-4.46987 c 0.064,0.76769 -0.3572,1.42068 -1.9688,3.88588 -1.2021,1.83868 -2.4435,3.86165 -2.7588,4.49544 -0.5454,1.09641 -0.4998,1.18886 0.9352,1.90274 0.9761,0.48557 1.4865,0.97958 1.4463,1.3998 -0.034,0.3572 -1.3627,2.59334 -2.9532,4.96893 -1.5902,2.37576 -3.0451,4.62861 -3.2331,5.0064 -0.1883,0.37858 1.0816,-0.15109 2.8292,-1.17988 5.0442,-2.96964 14.1747,-8.60475 14.2778,-8.81187 0.052,-0.10402 -0.7257,-0.72565 -1.7277,-1.3814 -1.002,-0.65578 -1.892,-1.40183 -1.9779,-1.65789 -0.2404,-0.71623 1.6516,-2.55178 4.1164,-4.15823 z" /><path
       id="path833-5-2-00"
       style="fill:#ffffff;fill-opacity:1;stroke-width:0.417929"
       d="M 99.0503,93.89273 90.065,89.42286 c 0.064,0.76769 -0.3572,1.42068 -1.9688,3.88588 -1.2021,1.83868 -2.4435,3.86165 -2.7588,4.49544 -0.5454,1.09641 -0.4998,1.18886 0.9352,1.90274 0.9761,0.48557 1.4865,0.97958 1.4463,1.3998 -0.034,0.3572 -1.3627,2.59334 -2.9532,4.96893 -1.5902,2.37576 -3.0451,4.62861 -3.2331,5.0064 -0.1883,0.37858 1.0816,-0.15109 2.8292,-1.17988 5.0442,-2.96964 14.1747,-8.60475 14.2778,-8.81187 0.052,-0.10402 -0.7257,-0.72565 -1.7277,-1.3814 -1.002,-0.65578 -1.892,-1.40183 -1.9779,-1.65789 -0.2404,-0.71623 1.6516,-2.55178 4.1164,-4.15823 z" /><text
       xml:space="preserve"
       style="font-size:41.0788px;fill:#ff0000;fill-opacity:1;stroke-width:0.481392"
       x="312.04672"
       y="1092.2568"
       id="text1858"><tspan
         sodipodi:role="line"
         id="tspan1856"
         x="312.04672"
         y="1092.2568"
         style="font-style:normal;font-variant:normal;font-weight:bold;font-stretch:normal;font-size:41.0788px;font-family:sans-serif;-inkscape-font-specification:'sans-serif Bold';fill:#ff0000;fill-opacity:1;stroke-width:0.481392">Treina</tspan></text></g></svg>
