<?xml version="1.0" encoding="UTF-8" standalone="no"?>
<!-- Created with Inkscape (http://www.inkscape.org/) -->

<svg
   width="500mm"
   height="500mm"
   viewBox="0 0 500 500"
   version="1.1"
   id="svg5"
   xml:space="preserve"
   inkscape:export-filename="icon-clean.png"
   inkscape:export-xdpi="25.4"
   inkscape:export-ydpi="25.4"
   inkscape:version="1.2 (dc2aedaf03, 2022-05-15)"
   sodipodi:docname="treina-icon.svg"
   xmlns:inkscape="http://www.inkscape.org/namespaces/inkscape"
   xmlns:sodipodi="http://sodipodi.sourceforge.net/DTD/sodipodi-0.dtd"
   xmlns="http://www.w3.org/2000/svg"
   xmlns:svg="http://www.w3.org/2000/svg"><sodipodi:namedview
     id="namedview7"
     pagecolor="#ffffff"
     bordercolor="#000000"
     borderopacity="0.25"
     inkscape:showpageshadow="2"
     inkscape:pageopacity="0.0"
     inkscape:pagecheckerboard="0"
     inkscape:deskcolor="#d1d1d1"
     inkscape:document-units="mm"
     showgrid="false"
     inkscape:zoom="0.18462928"
     inkscape:cx="330.3918"
     inkscape:cy="314.14302"
     inkscape:window-width="1920"
     inkscape:window-height="1009"
     inkscape:window-x="1912"
     inkscape:window-y="-5"
     inkscape:window-maximized="1"
     inkscape:current-layer="layer1" /><defs
     id="defs2" /><g
     inkscape:label="Capa 1"
     inkscape:groupmode="layer"
     id="layer1"><g
       id="g844"
       transform="translate(2.1923875,4.6542564)"><path
         style="fill:#ff0000;fill-opacity:1;stroke-width:2.59023"
         d="m 40.680879,230.49779 c -1.526048,-2.85145 -2.681354,-22.76722 -2.681354,-46.22255 0,-46.42129 1.255805,-49.78599 18.581618,-49.78599 16.45755,0 18.85297,5.62391 19.813508,46.51768 0.646632,27.53017 -0.05938,37.77455 -3.10561,45.06531 -3.7922,9.076 -4.437774,9.4357 -16.934654,9.4357 -10.193983,0 -13.56965,-1.07904 -15.673508,-5.01015 z"
         id="path829" /><path
         style="fill:#ff0000;fill-opacity:1;stroke-width:2.59023"
         d="m 106.78732,258.24363 c -3.40112,-4.85579 -4.03221,-16.4098 -4.03221,-73.82136 0,-64.61095 0.26285,-68.32743 5.18044,-73.24502 6.54742,-6.54742 18.33716,-6.64806 26.26284,-0.22431 l 6.11495,4.95624 v 70.37104 c 0,66.67078 -0.26438,70.56421 -5.02796,74.04552 -8.02527,5.86506 -23.73557,4.71716 -28.49806,-2.08224 z"
         id="path831" /><path
         style="fill:#ff0000;fill-opacity:1;stroke-width:2.59023"
         d="m 229.67604,384.24086 c 0,-2.61522 1.85404,-19.13286 4.1201,-36.70583 2.26606,-17.573 3.46826,-33.64965 2.67151,-35.72586 -0.93733,-2.44264 -5.13399,-3.77498 -11.89075,-3.77498 -9.93556,0 -10.4422,-0.38699 -10.4422,-7.97673 0,-4.38723 1.30474,-19.03964 2.89938,-32.56094 2.88002,-24.42008 2.85652,-24.63049 -3.52224,-31.52414 -3.53189,-3.817 -11.29084,-14.225 -17.24212,-23.12888 -9.79751,-14.65838 -11.66848,-16.1889 -19.78976,-16.1889 -8.69626,0 -8.96926,-0.30692 -8.96926,-10.08375 0,-10.96818 2.72056,-13.22825 15.92348,-13.22825 10.9559,0 16.4193,3.60896 25.5468,16.87529 4.39606,6.38943 9.39383,11.61492 11.10616,11.61217 1.71233,-0.003 7.03341,-5.75667 11.82458,-12.78644 13.52506,-19.84447 17.73626,-19.86176 31.20234,-0.12835 4.84897,7.10583 10.19988,12.91968 11.89087,12.91968 1.69103,0 7.00334,-5.75731 11.80516,-12.79402 8.95504,-13.12293 13.28756,-15.60154 27.37861,-15.66306 9.90396,-0.0434 14.56251,5.04682 13.45544,14.7018 -0.70052,6.10934 -2.18865,7.41025 -9.25598,8.09161 -5.05202,0.48708 -10.01602,3.07788 -12.40729,6.47558 -2.19228,3.11501 -10.37548,14.40567 -18.18489,25.09033 -13.9721,19.11636 -23.94599,42.98072 -19.72678,47.19993 1.18362,1.18359 8.18213,2.86618 15.55231,3.73906 7.37019,0.87288 13.40034,2.17615 13.40034,2.89616 0,1.43377 -35.1107,57.90873 -54.90383,88.3119 -6.8571,10.53284 -12.44198,16.9771 -12.44198,14.35653 z"
         id="path833" /><path
         style="fill:#ff0000;fill-opacity:1;stroke-width:2.59023"
         d="m 358.96034,259.847 c -2.89925,-3.48916 -3.81736,-18.46244 -4.42405,-72.15163 -0.7422,-65.68132 -0.59814,-67.96162 4.72089,-74.72367 6.93265,-8.81343 20.10788,-9.5486 27.37345,-1.52743 4.54202,5.01436 4.98806,10.72934 5.60979,71.87872 0.78963,77.66393 0.50206,78.95886 -17.80053,80.15462 -8.65236,0.56528 -12.80177,-0.40796 -15.47955,-3.63061 z"
         id="path835" /><path
         style="fill:#ff0000;fill-opacity:1;stroke-width:2.59023"
         d="m 423.61237,231.23382 c -2.53689,-3.05016 -3.79799,-14.63809 -4.4038,-40.46519 -0.91288,-38.92226 -0.0801,-45.9145 6.21823,-52.21291 5.78401,-5.78402 20.72676,-5.1677 27.00843,1.11397 4.72832,4.72835 5.18047,8.6341 5.18047,44.75258 0,47.09537 -1.50412,51.08567 -19.25639,51.08567 -7.23786,0 -12.44794,-1.51004 -14.74694,-4.27412 z"
         id="path837" /></g></g></svg>
