<?xml version="1.0" encoding="utf-8"?>
<!-- Generator: Adobe Illustrator 22.0.0, SVG Export Plug-In . SVG Version: 6.00 Build 0)  -->
<svg version="1.1" id="Layer_1" xmlns="http://www.w3.org/2000/svg" xmlns:xlink="http://www.w3.org/1999/xlink" x="0px" y="0px"
	 viewBox="0 0 32 32" style="enable-background:new 0 0 32 32;" xml:space="preserve">
<g>
	<rect x="13.5" y="13.5" width="5" height="5"/>
	<path d="M16,2C8.3,2,2,8.3,2,16s6.3,14,14,14s14-6.3,14-14S23.7,2,16,2z M23,18.5c0.6,0,1,0.4,1,1s-0.4,1-1,1h-2.5V23
		c0,0.6-0.4,1-1,1s-1-0.4-1-1v-2.5h-5V23c0,0.6-0.4,1-1,1s-1-0.4-1-1v-2.5H9c-0.6,0-1-0.4-1-1s0.4-1,1-1h2.5v-5H9c-0.6,0-1-0.4-1-1
		s0.4-1,1-1h2.5V9c0-0.6,0.4-1,1-1s1,0.4,1,1v2.5h5V9c0-0.6,0.4-1,1-1s1,0.4,1,1v2.5H23c0.6,0,1,0.4,1,1s-0.4,1-1,1h-2.5v5H23z"/>
</g>
</svg>
