<?xml version="1.0" encoding="UTF-8" standalone="no"?>
<!-- Created with Inkscape (http://www.inkscape.org/) -->

<svg
   width="386"
   height="386"
   viewBox="0 0 102.12916 102.12917"
   version="1.1"
   id="svg5"
   xml:space="preserve"
   inkscape:export-filename="food.png"
   inkscape:export-xdpi="96"
   inkscape:export-ydpi="96"
   inkscape:version="1.2 (dc2aeda, 2022-05-15)"
   xmlns:inkscape="http://www.inkscape.org/namespaces/inkscape"
   xmlns:sodipodi="http://sodipodi.sourceforge.net/DTD/sodipodi-0.dtd"
   xmlns="http://www.w3.org/2000/svg"
   xmlns:svg="http://www.w3.org/2000/svg"><sodipodi:namedview
     id="namedview7"
     pagecolor="#ffffff"
     bordercolor="#000000"
     borderopacity="0.25"
     inkscape:showpageshadow="2"
     inkscape:pageopacity="0.0"
     inkscape:pagecheckerboard="0"
     inkscape:deskcolor="#d1d1d1"
     inkscape:document-units="mm"
     showgrid="false"
     inkscape:zoom="0.57407706"
     inkscape:cx="247.35355"
     inkscape:cy="452.90087"
     inkscape:window-width="1440"
     inkscape:window-height="900"
     inkscape:window-x="0"
     inkscape:window-y="0"
     inkscape:window-maximized="0"
     inkscape:current-layer="layer1" /><defs
     id="defs2" /><g
     inkscape:label="Capa 1"
     inkscape:groupmode="layer"
     id="layer1"><rect
       style="fill:#9a0007;fill-opacity:1;stroke-width:1.31712;stroke-dasharray:none;stroke-opacity:0.940171;paint-order:normal"
       id="rect1175"
       width="101.85552"
       height="101.39464"
       x="0"
       y="0.46088469"
       ry="0" /><g
       id="g279"
       transform="matrix(0.10525659,0,0,0.10525659,147.28617,4.9011997)"><path
         d="m 181.20339,329.37224 c -10.24371,-0.68884 -15.01477,1.30524 -18.09552,3.33612 -0.98901,0.65198 -1.96478,1.41541 -2.88696,2.24054 4.65588,-9.44641 9.42505,-18.85083 14.28485,-28.18945 0.0315,1.2536 0.25433,1.84845 0.80518,2.14581 1.26013,0.68024 4.20001,-1.4975 10.0285,-5.88043 4.43042,-3.33167 4.9964,-4.17627 5.32574,-4.755 1.15814,-2.03461 1.05963,-3.71143 0.3457,-11.0213 -1.28125,-13.12006 -1.61133,-14.35168 -0.99011,-17.44971 0.21387,-1.06683 0.79773,-3.63751 0.38324,-3.78497 -0.42596,-0.15155 -1.08789,2.54535 -3.4447,4.30481 -2.29706,1.71484 -3.91351,0.82941 -6.00104,1.93335 -2.6983,1.427 -3.44098,4.72784 -4.55804,10.04053 -0.9892,4.70496 -0.73676,6.36908 -1.32642,15.2337 -0.16705,2.51111 -0.32568,4.46503 -0.4339,6.00317 -4.35114,8.31989 -8.62091,16.70062 -12.81372,25.11383 0.0569,-0.23096 0.11011,-0.44855 0.15625,-0.63763 1.29742,-5.31873 0.86505,-7.77362 0.21307,-9.49792 -1.0564,-2.79346 -3.1557,-4.46594 -7.3114,-7.69727 -4.07227,-3.16632 -7.51691,-4.98938 -11.65631,-7.1546 -5.42603,-2.83813 -8.13904,-4.25732 -8.87494,-3.84259 -1.84808,1.04144 -1.57336,6.5 -0.0296,13.32983 -3.51392,-1.81287 -5.38013,-2.66248 -5.9704,-2.32983 -0.25421,0.14325 -0.46692,0.37268 -0.64301,0.67511 -2.62695,-0.12952 -6.10907,0.0198 -10.09326,0.5423 3.14355,-1.13678 6.67639,-2.6358 10.48187,-4.68085 3.29871,-1.77271 4.94489,-2.67426 4.78699,-3.41925 -0.56519,-2.66644 -23.08972,-2.61249 -42.39862,7.52234 -9.0907,4.77161 -12.11377,8.96686 -13.67694,12.30927 -0.50201,1.07349 -0.93439,2.23511 -1.28876,3.42126 -0.97357,-10.48737 -1.82867,-20.99799 -2.5719,-31.49951 0.68286,1.05237 1.18396,1.44293 1.80908,1.4082 1.42981,-0.0795 2.7962,-3.47333 5.47083,-10.25775 2.03296,-5.15704 2.07355,-6.17297 2.05151,-6.8385 -0.07727,-2.33984 -1.03845,-3.71741 -5.47076,-9.57385 -7.95526,-10.51147 -8.88086,-11.38849 -9.97211,-14.35382 -0.37579,-1.02106 -1.2229,-3.5174 -1.65332,-3.42621 -0.44226,0.0936 0.40436,2.7384 -0.68384,5.47076 -1.06067,2.66309 -2.90155,2.75409 -4.10309,4.78693 -1.55322,2.62775 -0.45947,5.82941 1.36768,10.94159 1.6181,4.52734 2.70386,5.81354 6.8385,13.67694 1.1712,2.22754 2.05817,3.97583 2.77057,5.34332 0.64392,9.36646 1.38892,18.74243 2.21655,28.10608 -0.07227,-0.22638 -0.14062,-0.43945 -0.2002,-0.62463 -1.67657,-5.21173 -3.32928,-7.07776 -4.78693,-8.20624 -2.36157,-1.82812 -5.0257,-2.15533 -10.25775,-2.73535 -5.12701,-0.5683 -9.01642,-0.32007 -13.67694,0 -6.10907,0.41956 -9.1637,0.62921 -9.57391,1.36768 -1.12592,2.02649 2.67902,7.22473 8.36462,12.78564 -4.64136,0.32904 -7.00732,0.57111 -7.36462,1.21436 -0.93427,1.68152 1.5329,5.55042 5.64362,9.99432 -2.8573,0.24554 -4.36444,0.50317 -4.64362,1.00568 -3.1366,5.64545 31.91113,35.89136 39.66321,30.08936 0.58868,-0.44061 1.00568,-1.08771 1.29279,-1.8761 0.12695,1.06671 0.25671,2.13385 0.38617,3.20105 -9.15778,-1.03088 -26.74982,1.72949 -37.1875,12.65436 -5.18878,5.43091 -5.97083,10.11932 -6.15466,11.62543 -0.81549,6.67981 2.43512,13.78888 5.13202,14.31116 0.7962,4.9729 3.2912,9.08545 5.33881,9.04968 2.56726,-0.0447 2.11298,-6.56738 8.20618,-13.677 4.25165,-4.96088 9.30756,-7.42633 12.30927,-8.89001 6.4472,-3.1438 10.19318,-3.05139 14.8374,-5.61212 0.09326,0.68964 0.19263,1.37915 0.28693,2.06879 -8.50714,1.42749 -18.2218,5.07568 -24.95593,12.12408 -5.18878,5.43091 -5.97083,10.11932 -6.15466,11.62543 -0.50238,4.11517 0.54297,8.38831 2.0473,11.19452 -4.09241,4.29834 -5.22382,8.7865 -7.47339,17.72644 -1.43719,5.71136 -1.12329,7.73785 0,8.89001 0.92889,0.95294 2.39648,1.29254 8.20618,0.68384 6.30219,-0.66028 9.45331,-0.99054 12.30927,-2.05151 4.51764,-1.67828 7.6322,-4.56091 13.67694,-10.25775 2.48566,-2.34259 4.58746,-4.3327 6.30084,-6.06848 0.89148,0.3042 1.72803,0.53577 2.57294,0.70245 0.09814,0.0193 0.19489,0.0334 0.2926,0.0513 1.55884,9.23834 3.20593,18.44904 4.93909,27.62152 -5.63824,1.25842 -10.45575,4.96954 -13.10291,10.31085 l -20.91888,42.20276 c -1.32062,2.66357 -2.0188,5.64331 -2.0188,8.61694 v 108.51923 c 0,10.69971 8.70465,19.40436 19.4043,19.40436 h 48.82788 c 10.69965,0 19.4043,-8.70465 19.4043,-19.40436 v -99.92529 c 0,-2.43585 -0.45123,-4.82092 -1.34137,-7.08905 l -19.93677,-50.79626 c -2.88269,-7.34442 -9.77155,-12.1261 -17.62646,-12.29858 4.07281,-10.74463 8.27454,-21.47644 12.62347,-32.16461 0.67017,-0.25989 1.26324,-0.52997 1.7785,-0.81635 0.80225,0.87988 2.44623,1.90582 5.93207,3.573 5.71655,2.73401 8.57489,4.10095 11.5639,4.69067 4.72815,0.93298 8.8905,0.10547 17.02234,-1.58765 11.06464,-2.30365 16.62061,-3.52112 17.77802,-6.74054 1.60187,-4.45551 -3.42249,-10.19519 -4.80725,-11.77698 -3.00977,-3.43829 -6.33191,-5.00604 -8.38452,-5.94879 -2.66553,-1.2243 -10.26251,-4.7135 -19.44604,-2.30719 -5.7804,1.51453 -9.09082,4.74915 -15.71204,11.2182 -0.63751,0.62286 -1.18793,1.18933 -1.6767,1.71692 -0.11005,-0.31647 -0.23431,-0.62958 -0.37067,-0.93988 0.92853,-2.23895 1.85724,-4.47681 2.797,-6.71106 6.78979,-6.44135 10.13116,-9.98773 9.49689,-13.03253 -0.29767,-1.42896 -1.19806,-2.63086 -2.35706,-3.63043 1.28796,-2.95746 2.57867,-5.91248 3.88513,-8.85809 0.60065,-0.0138 1.22028,-0.0421 1.88757,-0.10504 3.4986,-0.3299 7.45966,-0.70325 7.88214,-2.38348 0.22345,-0.88885 -0.54614,-2.18842 -2.05853,-3.65161 2.18549,-0.61011 5.51459,-5.05865 12.98737,-7.46667 6.21869,-2.00385 11.81732,-1.46021 15.14124,-1.13745 8.57758,0.83289 11.3764,3.61713 19.08832,2.89001 3.4986,-0.3299 7.45966,-0.70325 7.88214,-2.38354 0.1897,-0.75446 -0.34064,-1.80615 -1.42578,-3.00061 1.94342,0.26801 4.02271,0.48083 6.23914,0.60815 3.73865,0.21478 5.61328,0.30756 5.86835,-0.40997 0.91321,-2.56812 -18.31183,-14.30511 -40.06976,-15.76831 -5.28253,-0.35522 -9.10211,0.006 -11.99261,0.71466 6.95459,-2.59576 17.30505,-6.54297 28.66821,-3.34766 3.91199,1.09998 11.82867,4.13934 23.52582,4.81128 3.73865,0.21478 5.61328,0.30756 5.86835,-0.40997 0.91284,-2.56702 -18.29584,-14.2948 -40.04242,-15.76605 5.04742,-1.02026 10.70898,-1.30536 16.64825,0.36475 3.91199,1.09998 11.82867,4.13934 23.52582,4.81128 3.73865,0.21478 5.61328,0.30756 5.86835,-0.40997 0.91321,-2.56812 -18.31183,-14.30511 -40.06976,-15.76831 z M 80.69094,374.33776 c 0.29462,-0.23151 0.5835,-0.46344 0.86188,-0.69507 0.49915,0.73309 1.02631,1.29694 1.55353,1.65356 0.05615,0.29419 0.11639,0.58429 0.18372,0.87054 -0.74286,-0.0795 -1.5387,-0.13361 -2.38141,-0.16156 -0.07098,-0.55566 -0.1474,-1.11182 -0.21771,-1.66748 z m 42.97211,-38.48004 c 0.085,0.48688 0.177,0.98315 0.27844,1.49115 -0.92957,-0.17804 -1.99426,-0.30475 -3.15857,-0.38 0.92853,-0.33807 1.88727,-0.70483 2.88013,-1.11115 z m 2.21423,9.19958 c -0.71375,-0.0717 -1.47711,-0.11902 -2.28009,-0.14404 0.62781,-0.47772 1.24835,-0.96283 1.82312,-1.4455 0.14691,0.52649 0.29889,1.05634 0.45697,1.58954 z m -16.46246,15.84619 c 7.36334,-3.4585 11.17657,-2.72144 17.21289,-7.25818 0.56189,-0.4223 1.13776,-0.85583 1.69678,-1.29236 2.00317,5.34119 4.40063,10.43616 6.87024,14.12903 -6.91602,-3.4917 -16.41779,-6.32928 -25.77991,-5.57849 z m 17.72534,-44.05536 c 0.22211,2.91449 0.93726,6.61896 2.00171,10.60028 -0.0606,-4.9e-4 -0.12067,-0.001 -0.18195,-0.001 -2.64246,-1.32953 -4.09821,-1.92065 -4.60706,-1.63391 -0.52985,0.29858 -0.88489,0.96094 -1.08588,1.91394 -8.30444,0.79108 -19.49768,3.32867 -29.78015,8.72571 -9.0907,4.77161 -12.11377,8.96686 -13.67694,12.30927 -0.66638,1.4248 -1.21094,3.00439 -1.61084,4.59137 -0.20508,-1.84052 -0.41608,-3.67792 -0.61426,-5.52167 4.46887,-1.73889 11.2254,-18.53296 27.94672,-23.27588 3.78693,-1.07416 11.73438,-2.57458 21.60864,-7.70782 z m -48.64569,59.14832 c 0.12323,-0.0896 0.24182,-0.16779 0.36694,-0.26184 0.19073,-0.14337 0.38324,-0.28815 0.57611,-0.43378 0.02899,0.22766 0.06018,0.45551 0.08923,0.68317 -0.33917,4.9e-4 -0.68146,0.004 -1.03229,0.0125 z m 3.70374,9.88495 c 0.53925,-0.3443 1.0885,-0.71484 1.66321,-1.14679 0.86493,-0.65002 1.7644,-1.32648 2.58087,-1.99976 0.63239,0.63715 1.28064,1.01038 1.88995,0.99976 0.2384,-0.004 0.44452,-0.0815 0.63849,-0.19269 -0.52399,1.56787 -0.83276,3.10431 -0.93103,4.46979 -1.72046,0.0602 -3.56018,0.21509 -5.48291,0.48938 -0.11938,-0.87335 -0.24084,-1.7464 -0.35858,-2.61969 z m 22.00385,74.59833 h -6.95258 c -0.99579,0 -1.9762,0.0801 -2.93823,0.22479 -1.70416,-9.01904 -3.32452,-18.07501 -4.86005,-27.1579 4.08856,0.45306 8.16809,-0.36536 15.30634,-1.85162 5.05768,-1.05298 8.95178,-1.87994 11.81348,-2.77399 -4.25763,10.48865 -8.3775,21.01697 -12.36896,31.55872 z m 16.27789,-43.74896 c 0.57172,-0.53326 1.17706,-1.10266 1.80792,-1.6969 -0.38556,0.92224 -0.76086,1.84839 -1.14447,2.77142 -0.21381,-0.37115 -0.43634,-0.72894 -0.66345,-1.07452 z m 3.51544,-24.5838 c -4.36371,-1.35583 -8.01514,-0.9541 -10.25769,-0.68384 -2.81171,0.33881 -10.64093,1.2995 -17.08954,7.53333 -2.15253,-0.0566 -4.5896,0.0624 -7.18646,0.38867 1.38269,-0.63434 2.81378,-1.45856 4.39972,-2.65051 2.8092,-2.11127 5.98969,-4.50159 5.47083,-6.1546 -0.23975,-0.76361 -1.29242,-1.39716 -2.91998,-1.85016 1.83331,-1.21484 4.11053,-2.46686 7.02698,-3.40662 6.21869,-2.00391 11.81732,-1.46027 15.14124,-1.13751 7.1955,0.69873 10.33362,2.763 15.70764,2.98334 -1.1814,2.66669 -2.34705,5.34283 -3.51331,8.01923 -2.49506,-1.7027 -5.57867,-2.66827 -6.77942,-3.04132 z m 15.82281,-13.98981 c 0.0474,-0.10474 0.0936,-0.21021 0.14093,-0.31494 0.37207,-0.0432 0.73944,-0.0897 1.09772,-0.14148 0.0256,0.53992 0.0949,1.02771 0.2027,1.4624 -0.44806,-0.33301 -0.93494,-0.66919 -1.44135,-1.00598 z m 11.28967,-20.44879 c -0.0333,0.022 -0.0662,0.0472 -0.0994,0.0694 0.0795,-0.2854 0.15393,-0.55994 0.22607,-0.82874 0.61279,-0.0845 1.31311,-0.25696 2.09436,-0.49603 -0.83722,0.40076 -1.57031,0.82642 -2.22101,1.25537 z"
         fill="#f2f2f2"
         id="path132" /><g
         id="g138"><polygon
           points="241.16945,582.02801 241.17251,640.85807 256.4246,640.85658 263.68011,582.02643 "
           fill="#ffb6b6"
           id="polygon134" /><path
           d="m 293.42808,640.51208 v 0 c 0.4749,0.79982 0.72548,3.38126 0.72548,4.31137 v 0 c 0,2.85894 -2.31759,5.17662 -5.17662,5.17662 H 241.743 c -1.95035,0 -3.53151,-1.58107 -3.53151,-3.53151 v -1.9665 c 0,0 -2.33662,-5.91036 2.47406,-13.19519 0,0 5.97903,5.70414 14.91325,-3.23007 l 2.63462,-4.77281 19.07102,13.94758 10.57078,1.30116 c 2.31267,0.28464 4.36307,-0.0442 5.55268,1.95935 h 1.9e-4 z"
           fill="#2f2e41"
           id="path136" /></g><g
         id="g144"><polygon
           points="325.16945,582.02801 325.17251,640.85807 340.4246,640.85658 347.68011,582.02643 "
           fill="#ffb6b6"
           id="polygon140" /><path
           d="m 377.42808,640.51208 v 0 c 0.4749,0.79982 0.72548,3.38126 0.72548,4.31137 v 0 c 0,2.85894 -2.31759,5.17662 -5.17662,5.17662 H 325.743 c -1.95035,0 -3.53151,-1.58107 -3.53151,-3.53151 v -1.9665 c 0,0 -2.33662,-5.91036 2.47406,-13.19519 0,0 5.97903,5.70414 14.91325,-3.23007 l 2.63462,-4.77281 19.07102,13.94758 10.57078,1.30116 c 2.31267,0.28464 4.36307,-0.0442 5.55268,1.95935 h 1.9e-4 z"
           fill="#2f2e41"
           id="path142" /></g><path
         d="m 319.04527,172.54728 c 0,0 17.56693,-8 28.78346,0 11.21653,8 21.21654,80 9.21654,92 -12,12 -32,-15 -32,-15 z"
         fill="#ffb6b6"
         id="path146" /><path
         d="m 252.65354,173.5 c 0,0 -17.56693,-8 -28.78346,0 -11.21653,8 -21.21654,80 -9.21654,92 12,12 32,-15 32,-15 z"
         fill="#ffb6b6"
         id="path148" /><path
         d="m 253.15354,262 c 0,0 -6,27 -13,39 l 51,30 40,-26 c 0,0 -19,-31 -16,-40 z"
         fill="#ffb6b6"
         id="path150" /><g
         id="g156"><polygon
           points="600.63055,562.31011 600.62661,637.85995 581.03981,637.85804 571.72225,562.30808 "
           fill="#ffb6b6"
           id="polygon152" /><path
           d="m 533.51976,637.41563 v 0 c -0.60986,1.02713 -0.93166,4.34223 -0.93166,5.53669 v 0 c 0,3.67146 2.97626,6.64784 6.64784,6.64784 h 60.65805 c 2.50465,0 4.53519,-2.03042 4.53519,-4.53519 v -2.52539 c 0,0 3.00069,-7.59011 -3.1772,-16.94533 0,0 -7.6783,7.32528 -19.15166,-4.14808 l -3.38339,-6.12927 -24.4911,17.91155 -13.57505,1.67096 c -2.96994,0.36554 -5.60307,-0.0567 -7.13077,2.51621 h -2.4e-4 z"
           fill="#2f2e41"
           id="path154" /></g><g
         id="g162"><polygon
           points="661.17531,562.31011 661.17138,637.85995 641.58458,637.85804 632.26702,562.30808 "
           fill="#ffb6b6"
           id="polygon158" /><path
           d="m 594.06453,637.41563 v 0 c -0.60986,1.02713 -0.93166,4.34223 -0.93166,5.53669 v 0 c 0,3.67146 2.97626,6.64784 6.64784,6.64784 h 60.65805 c 2.50465,0 4.53519,-2.03042 4.53519,-4.53519 v -2.52539 c 0,0 3.00069,-7.59011 -3.1772,-16.94533 0,0 -7.6783,7.32528 -19.15166,-4.14808 l -3.38339,-6.12927 -24.4911,17.91155 -13.57505,1.67096 c -2.96994,0.36554 -5.60307,-0.0567 -7.13077,2.51621 h -2.4e-4 z"
           fill="#2f2e41"
           id="path160" /></g><g
         id="g168"><path
           d="m 559.87774,202.03374 c 0,0 -2.8368,18.25975 0.44853,30.04219 l -48.24223,85.54714 18.76617,13.67763 62.67044,-78.85065 8.68465,-38.9589 z"
           fill="#ffb6b6"
           id="path164" /><ellipse
           cx="514.78625"
           cy="336.30896"
           rx="24.50622"
           ry="15.13619"
           transform="rotate(-60.58023,514.78628,336.30896)"
           fill="#ffb6b6"
           id="ellipse166" /></g><path
         d="m 578.69796,289.07025 c 0,0 -23.06467,16.27694 -15.13619,40.57317 l -6.48694,81.95791 14.41542,168.66042 h 31.04991 l 4.98864,-121.08954 20.18159,-76.40173 2.61634,197.49127 38.46761,-0.72077 c 0,0 2.16231,-98.74563 -0.72077,-104.5118 -2.88308,-5.76617 0,-1.14075 0,-1.14075 l 23.78544,-115.64119 -3.60386,-79.26779 -109.5572,10.09079 z"
         fill="#2f2e41"
         id="path170" /><polygon
         points="684.65131,112.48135 652.93738,100.94901 635.63888,87.97513 593.83416,103.83209 598.15878,115.36443 563.56177,141.31219 586.62645,222.03854 573.65257,294.11565 611.13266,292.67411 691.85902,285.4664 683.20977,197.53233 "
         fill="#ffffff"
         id="polygon172" /><path
         d="m 574.37334,139.14987 -10.81157,2.16231 c 0,0 -5.0454,3.60386 -5.0454,16.57773 0,12.97387 0,21.62313 1.44154,28.83084 0,0 -8.64925,23.06467 -5.76617,28.83084 2.88308,5.76617 38.92164,5.76617 38.92164,5.76617 l -18.74005,-82.1679 z"
         fill="#ffffff"
         id="path174" /><path
         d="m 633.94762,54.52454 c 0,18.14827 -14.71208,32.86035 -32.86035,32.86035 -18.14827,0 -32.86035,-14.71208 -32.86035,-32.86035 0,-18.14827 14.71208,-32.86035 32.86035,-32.86035 18.14827,0 32.86035,14.71208 32.86035,32.86035 z"
         fill="#ffb6b6"
         id="path176" /><path
         d="m 621.62253,77.40612 c 0,0 5.82133,-22.36488 -0.38166,-18.42126 l -9.62679,-0.9148 6.07816,-16.25953 c 0,0 -10.8813,-8.15741 -15.21991,-3.38904 -4.33861,4.76837 -3.29898,7.45749 -7.24261,1.2545 -3.94363,-6.20299 -12.1839,-6.08574 -19.73144,-1.6223 -7.54754,4.46343 -13.44559,5.19813 -12.01098,-3.08411 1.43461,-8.28223 0.63035,-22.3556 5.11118,-20.75956 4.48084,1.59603 3.25239,2.49689 5.66857,-3.28675 2.41618,-5.78364 2.72112,-8.99257 8.31423,-6.51833 5.59311,2.47424 19.64857,-9.14175 25.45656,-2.11402 5.80799,7.02773 10.8813,8.15741 15.9546,9.28709 5.0733,1.12968 25.45656,-2.11402 23.75179,29.45547 0,0 13.60518,27.19611 -10.90181,39.76167 0,0 -6.65081,-6.56349 -11.29436,1.41381 l -3.92555,-4.80284 z"
         fill="#2f2e41"
         id="path178" /><path
         d="m 306.15354,148 -32,1 -17,21 -19,4 c 0,0 -6,56 3,76 9,20 5,26 5,26 l 72,-1 c 0,0 -2,-13.58268 10,-25.29134 l 6.01784,-22.27074 c 3.21745,-11.90708 2.12131,-24.5683 -3.09461,-35.74527 l -12.92323,-27.69264 -11,-4 -1,-12 z"
         fill="#2f2e41"
         id="path180" /><path
         d="m 246.15354,288 -4.5,7.5 c 0,0 -14,19 -16,73 -2,54 14.5,228.73622 14.5,228.73622 h 22.83465 L 287.67395,360.82677 320.65354,597.5 l 29.5,0.5 -2.5,-241.5 c 0,0 -6,-55 -22,-67 0,0 -51.5,46.5 -79.5,-1.5 z"
         fill="#2f2e41"
         id="path182" /><g
         id="g190"><path
           d="m 204.50705,169.53298 c 0,10.3817 -0.62537,18.10648 -11.96219,18.79773 -10.64788,0.64924 -11.96219,-8.41603 -11.96219,-18.79773 0,-10.3817 0.24795,-18.71364 11.96219,-18.79773 13.33682,-0.0957 11.96219,8.41603 11.96219,18.79773 z"
           fill="#ffffff"
           id="path184" /><path
           d="m 271.15354,169.53298 c 0,10.3817 2.72814,18.10653 -11.96219,18.79773 -11.30138,0.53174 -11.96219,-8.41603 -11.96219,-18.79773 0,-10.3817 1.66011,-17.63281 11.96219,-18.79773 9.69033,-1.09574 11.96219,8.41603 11.96219,18.79773 z"
           fill="#ffffff"
           id="path186" /><rect
           x="194.25374"
           y="160.98856"
           width="66.646492"
           height="15.37996"
           fill="#ffffff"
           id="rect188" /></g><g
         id="g198"><path
           d="m 319.50705,166.53298 c 0,10.3817 -0.62537,18.10648 -11.96219,18.79773 -10.64788,0.64924 -11.96219,-8.41603 -11.96219,-18.79773 0,-10.3817 0.24795,-18.71364 11.96219,-18.79773 13.33682,-0.0957 11.96219,8.41603 11.96219,18.79773 z"
           fill="#ffffff"
           id="path192" /><path
           d="m 386.15354,166.53298 c 0,10.3817 2.72814,18.10653 -11.96219,18.79773 -11.30138,0.53174 -11.96219,-8.41603 -11.96219,-18.79773 0,-10.3817 1.66011,-17.63281 11.96219,-18.79773 9.69033,-1.09574 11.96219,8.41603 11.96219,18.79773 z"
           fill="#ffffff"
           id="path194" /><rect
           x="309.25375"
           y="157.98856"
           width="66.646492"
           height="15.37996"
           fill="#ffffff"
           id="rect196" /></g><g
         id="g206"><path
           d="m 493.50705,330.53298 c 0,10.3817 -0.62537,18.10648 -11.96219,18.79773 -10.64788,0.64924 -11.96219,-8.41603 -11.96219,-18.79773 0,-10.3817 0.24795,-18.71364 11.96219,-18.79773 13.33682,-0.0957 11.96219,8.41603 11.96219,18.79773 z"
           fill="#ffffff"
           id="path200" /><path
           d="m 560.15354,330.53298 c 0,10.3817 2.72814,18.10653 -11.96219,18.79773 -11.30138,0.53174 -11.96219,-8.41603 -11.96219,-18.79773 0,-10.3817 1.66011,-17.63281 11.96219,-18.79773 9.69033,-1.09574 11.96219,8.41603 11.96219,18.79773 z"
           fill="#ffffff"
           id="path202" /><rect
           x="483.25375"
           y="321.98856"
           width="66.646492"
           height="15.37996"
           fill="#ffffff"
           id="rect204" /></g><ellipse
         cx="343.08856"
         cy="169.11815"
         rx="12.99252"
         ry="21.035509"
         fill="#ffb6b6"
         id="ellipse208" /><circle
         cx="281.65353"
         cy="100.5"
         r="35.5"
         fill="#ffb6b6"
         id="circle210" /><path
         d="m 274.52614,111.65484 8.21357,-13.0713 3.69905,-17.77667 c 0,0 37.41739,9.12619 27.37858,-9.12619 C 303.77853,53.42829 278.22519,48.8652 260.88542,62.55449 l -7.47342,7.30095 c 0,0 16.59961,-15.51453 6.5608,-20.99025 -10.03881,-5.47572 -8.21357,-9.12619 -13.68929,-4.5631 -5.47572,4.5631 -2.73786,8.21357 -9.12619,5.47572 -6.38834,-2.73786 -20.07763,-6.38834 -18.25239,-1.82524 1.82524,4.5631 -11.9431,16.42715 -6.88417,21.90286 5.05893,5.47571 0.49583,16.42715 9.62203,13.68929 9.12619,-2.73786 4.5631,10.95143 12.77667,5.47572 0,0 -6.74164,8.59122 -1.26592,14.97955 5.47572,6.38833 13.91262,8.87381 13,18 -0.91262,9.12619 21,11 21,11 l -1.70502,-26.63978 c 0,0 5.42715,-4.44956 9.07763,5.29463 z"
         fill="#2f2e41"
         id="path212" /><g
         id="g218"><path
           d="m 635.952,172.91127 c 0,0 -5.23404,17.72205 -3.54078,29.83617 l -59.1644,78.39133 16.78586,16.04623 72.57675,-69.83999 13.77611,-37.46248 -40.43354,-16.97125 z"
           fill="#ffb6b6"
           id="path214" /><ellipse
           cx="573.44629"
           cy="300.01797"
           rx="24.50622"
           ry="15.13619"
           transform="rotate(-52.957,573.44628,300.01799)"
           fill="#ffb6b6"
           id="ellipse216" /></g><path
         d="m 678.82781,107.74546 c 0,0 18.43162,6.68681 16.08684,19.36535 -2.34478,12.67854 -3.23496,21.03684 -3.23496,21.03684 0,0 1.99724,6.92547 -0.60797,10.37731 -2.60521,3.45184 -15.98067,43.92576 -15.98067,43.92576 l -48.10713,-16.44165 c 0,0 28.20184,-78.04673 51.8439,-78.26361 z"
         fill="#ffffff"
         id="path220" /><path
         d="m 805.04004,650.40666 v 0 c 0,0.46393 -0.3761,0.84003 -0.84003,0.84003 H 0.84003 C 0.3761,651.24669 0,650.8706 0,650.40666 v 0 c 0,-0.46394 0.37609,-0.84003 0.84003,-0.84003 h 803.35998 c 0.46393,0 0.84003,0.3761 0.84003,0.84003 z"
         fill="#e6e6e6"
         id="path222" /><path
         d="m 241.60275,170.07087 c 0,11.61759 -5.81695,21.03551 -12.99252,21.03551 -7.17557,0 -12.99252,-9.41792 -12.99252,-21.03551 0,-11.61759 5.81695,-21.03551 12.99252,-21.03551 7.17557,0 12.99252,9.41792 12.99252,21.03551 z"
         fill="#ffb6b6"
         id="path224" /></g><g
       id="g4255"
       transform="matrix(0.06716435,0,0,0.06716435,34.78882,9.840659)"><path
         d="m 275.41211,460.30048 h -28.41882 a 3.76777,3.76777 0 0 0 -3.76777,3.76776 v 12.47387 a 3.76777,3.76777 0 0 0 3.76777,3.76777 h 4.70941 V 499 h 19 v -18.69012 h 4.70941 a 3.76777,3.76777 0 0 0 3.76776,-3.76777 v -12.47387 a 3.76777,3.76777 0 0 0 -3.76776,-3.76776 z"
         transform="translate(-156,-207.2555)"
         fill="#ffffff"
         id="path3901" /><path
         d="m 303.87661,574.46128 a 146.10549,146.10549 0 0 1 -25.418,-86.62437 3.08142,3.08142 0 0 0 -2.40522,-3.075 V 479.372 h -30.01406 v 5.315 h -0.41356 a 3.07971,3.07971 0 0 0 -3.06724,3.30786 q 3.54683,49.44186 -23.95358,88.677 a 8.4873,8.4873 0 0 0 -1.53606,5.14352 l 3.28188,101.51817 a 8.78815,8.78815 0 0 0 8.713,8.48191 h 67.88732 a 8.79123,8.79123 0 0 0 8.71824,-8.63152 l 1.26471,-98.56588 a 17.78875,17.78875 0 0 0 -3.05743,-10.15678 z"
         transform="translate(-156,-207.2555)"
         fill="#3f3d56"
         id="path3903" /><path
         d="m 269.48783,464.36493 a 8.128815,8.128815 0 0 1 -16.25763,0"
         transform="translate(-156,-207.2555)"
         opacity="0.2"
         id="path3905" /><path
         d="m 293.12991,608.18244 h -8.22064 a 21.57614,21.57614 0 0 0 -42.6488,0 h -8.22118 a 6.06671,6.06671 0 0 0 -5.99616,6.98918 l 8.92944,58.04135 h 51.27407 l 10.84608,-57.84582 a 6.0667,6.0667 0 0 0 -5.96281,-7.18471 z"
         transform="translate(-156,-207.2555)"
         fill="#ffffff"
         id="path3907" /><polygon
         points="827.952,307.634 825.98,386.448 823.538,484.181 740.414,484.181 737.552,369.675 736,307.634 "
         fill="#e6e6e6"
         id="polygon3909" /><rect
         x="775.72314"
         y="265.70392"
         width="11.76981"
         height="155.95003"
         fill="#ffffff"
         id="rect3911" /><path
         d="m 978.06676,574.27527 -2.22611,112.02 h -75.76674 l -2.60826,-131.24365 a 51.63393,51.63393 0 0 1 40.82688,5.61536 c 12.65908,7.48707 26.88047,11.51726 39.77423,13.60829 z"
         transform="translate(-156,-207.2555)"
         fill="#3f3d56"
         id="path3913" /><rect
         x="752.03076"
         y="379.63031"
         width="10.79992"
         height="10.79992"
         fill="#e6e6e6"
         id="rect3915" /><rect
         x="759.3869"
         y="357.56192"
         width="10.79992"
         height="10.79992"
         fill="#e6e6e6"
         id="rect3917" /><rect
         x="936.42383"
         y="575.81561"
         width="10.79992"
         height="10.79992"
         transform="rotate(36.56259,1177.5087,241.47909)"
         fill="#e6e6e6"
         id="rect3919" /><rect
         x="955.93677"
         y="594.95129"
         width="10.79992"
         height="10.79992"
         transform="rotate(36.56259,1197.0216,260.61478)"
         fill="#e6e6e6"
         id="rect3921" /><rect
         x="922.83417"
         y="605.98553"
         width="10.79992"
         height="10.79992"
         transform="rotate(36.56259,1163.919,271.64898)"
         fill="#e6e6e6"
         id="rect3923" /><circle
         cx="805.14764"
         cy="351.0351"
         r="2.20684"
         fill="#3f3d56"
         id="circle3925" /><circle
         cx="760.27527"
         cy="336.32281"
         r="2.20684"
         fill="#3f3d56"
         id="circle3927" /><circle
         cx="797.7915"
         cy="320.87494"
         r="2.20684"
         fill="#3f3d56"
         id="circle3929" /><circle
         cx="444.50809"
         cy="241.75401"
         r="241.75401"
         fill="#ffffff"
         id="circle3931" /><path
         d="m 600.50808,625.46663 a 176.45595,176.45595 0 1 1 124.77436,-51.68275 175.30352,175.30352 0 0 1 -124.77436,51.68275 z m 0,-342.0314 c -91.29808,0 -165.5743,74.27621 -165.5743,165.57429 0,91.2977 74.27622,165.5743 165.5743,165.5743 91.2977,0 165.57429,-74.2766 165.57429,-165.5743 0,-91.29808 -74.27659,-165.57429 -165.57429,-165.57429 z"
         transform="translate(-156,-207.2555)"
         opacity="0.2"
         id="path3933" /><circle
         cx="444.50809"
         cy="241.75401"
         r="171.0157"
         fill="#3f3d56"
         id="circle3935" /><path
         d="m 473.32742,380.62742 a 21.704,21.704 0 1 1 38.68118,-19.69819 l 48.31632,94.87836 a 21.704,21.704 0 1 1 -38.68118,19.69819 z"
         transform="translate(-156,-207.2555)"
         fill="#ff6584"
         id="path3937" /><path
         d="m 478.71655,391.21 -2.23,-4.379 c 11.12916,-8.64736 24.19788,-15.007 38.68118,-19.69819 l 2.23,4.379 c -15.67541,3.26426 -29.01157,9.30519 -38.68118,19.69819 z"
         transform="translate(-156,-207.2555)"
         opacity="0.2"
         id="path3939" /><path
         d="m 489.12314,411.64534 -2.23,-4.379 c 11.12915,-8.64736 24.19788,-15.007 38.68117,-19.69819 l 2.23,4.379 c -15.6754,3.26426 -29.01156,9.30521 -38.68117,19.69819 z"
         transform="translate(-156,-207.2555)"
         opacity="0.2"
         id="path3941" /><path
         d="m 499.52973,432.08068 -2.23,-4.379 c 11.12915,-8.64736 24.19788,-15.007 38.68118,-19.69819 l 2.23,4.379 c -15.67541,3.26426 -29.01156,9.30521 -38.68118,19.69819 z"
         transform="translate(-156,-207.2555)"
         opacity="0.2"
         id="path3943" /><path
         d="m 509.93632,452.516 -2.23,-4.379 c 11.12916,-8.64736 24.19788,-15.007 38.68118,-19.69819 l 2.23,4.379 c -15.67541,3.26428 -29.01156,9.30519 -38.68118,19.69819 z"
         transform="translate(-156,-207.2555)"
         opacity="0.2"
         id="path3945" /><path
         d="m 520.34292,472.95136 -2.23,-4.379 c 11.12916,-8.64736 24.19788,-15.007 38.68118,-19.69819 l 2.23,4.379 c -15.67542,3.26426 -29.01157,9.30521 -38.68118,19.69819 z"
         transform="translate(-156,-207.2555)"
         opacity="0.2"
         id="path3947" /><path
         d="m 437.07906,416.14643 a 21.704,21.704 0 1 1 38.68118,-19.6982 l 48.31632,94.87837 a 21.704,21.704 0 0 1 -38.68118,19.69819 z"
         transform="translate(-156,-207.2555)"
         fill="#ff6584"
         id="path3949" /><path
         d="m 442.46819,426.729 -2.23,-4.379 c 11.12916,-8.64736 24.19788,-15.007 38.68118,-19.69819 l 2.23,4.379 C 465.474,410.29508 452.1378,416.336 442.46819,426.729 Z"
         transform="translate(-156,-207.2555)"
         opacity="0.2"
         id="path3951" /><path
         d="m 452.87478,447.16435 -2.23,-4.379 c 11.12915,-8.64736 24.19788,-15.007 38.68118,-19.69819 l 2.23,4.379 c -15.67541,3.26426 -29.01156,9.30521 -38.68118,19.69819 z"
         transform="translate(-156,-207.2555)"
         opacity="0.2"
         id="path3953" /><path
         d="m 463.28137,467.59969 -2.23,-4.379 c 11.12915,-8.64736 24.19788,-15.007 38.68118,-19.69819 l 2.23,4.379 c -15.67541,3.26426 -29.01155,9.30521 -38.68118,19.69819 z"
         transform="translate(-156,-207.2555)"
         opacity="0.2"
         id="path3955" /><path
         d="m 473.688,488.035 -2.23,-4.379 c 11.12916,-8.64736 24.19788,-15.007 38.68118,-19.69819 l 2.23,4.379 c -15.67545,3.26429 -29.0116,9.30524 -38.68118,19.69819 z"
         transform="translate(-156,-207.2555)"
         opacity="0.2"
         id="path3957" /><path
         d="m 484.09456,508.47037 -2.23,-4.379 c 11.12916,-8.64736 24.19788,-15.007 38.68118,-19.69819 l 2.23,4.379 c -15.67542,3.26426 -29.01157,9.30521 -38.68118,19.69819 z"
         transform="translate(-156,-207.2555)"
         opacity="0.2"
         id="path3959" /><path
         d="m 714.77766,454.45093 0.15257,1.3e-4 a 25.8881,25.8881 0 0 0 24.23924,-16.23619 84.50284,84.50284 0 0 0 5.9231,-31.69393 c -0.27144,-45.91073 -37.62223,-83.57515 -83.52936,-84.21021 a 84.74394,84.74394 0 0 0 -35.27687,162.32018 25.66668,25.66668 0 0 0 28.50566,-5.28585 84.45815,84.45815 0 0 1 59.98566,-24.89413 z"
         transform="translate(-156,-207.2555)"
         fill="#e6e6e6"
         id="path3961" /><circle
         cx="515.2464"
         cy="193.55869"
         r="27.98439"
         fill="#f9a825"
         id="circle3963" /><circle
         cx="454.42624"
         cy="187.11516"
         r="3.29669"
         fill="#3f3d56"
         id="circle3965" /><circle
         cx="345.59805"
         cy="190.22453"
         r="3.29669"
         fill="#3f3d56"
         id="circle3967" /><circle
         cx="471.99609"
         cy="152.94948"
         r="3.29669"
         fill="#3f3d56"
         id="circle3969" /><circle
         cx="471.90244"
         cy="247.97276"
         r="3.29669"
         fill="#3f3d56"
         id="circle3971" /><circle
         cx="537.19934"
         cy="146.14069"
         r="3.29669"
         fill="#3f3d56"
         id="circle3973" /><circle
         cx="324.20706"
         cy="236.31261"
         r="3.29669"
         fill="#3f3d56"
         id="circle3975" /><circle
         cx="348.30472"
         cy="283.73059"
         r="3.29669"
         fill="#3f3d56"
         id="circle3977" /><circle
         cx="499.69952"
         cy="289.94934"
         r="12.43751"
         fill="#ff6584"
         id="circle3979" /><path
         d="m 665.02764,497.9822 a 9.32813,9.32813 0 0 1 -18.65626,0"
         transform="translate(-156,-207.2555)"
         opacity="0.2"
         id="path3981" /><path
         d="m 646.37138,496.42751 a 9.32813,9.32813 0 0 1 18.65626,0"
         transform="translate(-156,-207.2555)"
         opacity="0.2"
         id="path3983" /><ellipse
         cx="495.03546"
         cy="285.67395"
         rx="0.77733999"
         ry="1.16602"
         fill="#ff6584"
         id="ellipse3985" /><ellipse
         cx="499.69952"
         cy="284.11926"
         rx="0.77733999"
         ry="1.16602"
         fill="#ff6584"
         id="ellipse3987" /><ellipse
         cx="499.69952"
         cy="294.22476"
         rx="0.77733999"
         ry="1.16602"
         fill="#ff6584"
         id="ellipse3989" /><ellipse
         cx="504.36356"
         cy="288.00598"
         rx="0.77733999"
         ry="1.16602"
         fill="#ff6584"
         id="ellipse3991" /><ellipse
         cx="503.58624"
         cy="296.55679"
         rx="0.77733999"
         ry="1.16602"
         fill="#ff6584"
         id="ellipse3993" /><ellipse
         cx="494.25809"
         cy="292.67007"
         rx="0.77733999"
         ry="1.16602"
         fill="#ff6584"
         id="ellipse3995" /><circle
         cx="524.57452"
         cy="256.52356"
         r="12.43751"
         fill="#ff6584"
         id="circle3997" /><path
         d="m 689.90265,464.5564 a 9.32813,9.32813 0 0 1 -18.65626,0"
         transform="translate(-156,-207.2555)"
         opacity="0.2"
         id="path3999" /><path
         d="m 671.24639,463.00172 a 9.32813,9.32813 0 0 1 18.65626,0"
         transform="translate(-156,-207.2555)"
         opacity="0.2"
         id="path4001" /><ellipse
         cx="519.91046"
         cy="252.24815"
         rx="0.77733999"
         ry="1.16602"
         fill="#ff6584"
         id="ellipse4003" /><ellipse
         cx="524.57452"
         cy="250.69348"
         rx="0.77733999"
         ry="1.16602"
         fill="#ff6584"
         id="ellipse4005" /><ellipse
         cx="524.57452"
         cy="260.79895"
         rx="0.77733999"
         ry="1.16602"
         fill="#ff6584"
         id="ellipse4007" /><ellipse
         cx="529.23859"
         cy="254.5802"
         rx="0.77733999"
         ry="1.16602"
         fill="#ff6584"
         id="ellipse4009" /><ellipse
         cx="528.46124"
         cy="263.13098"
         rx="0.77733999"
         ry="1.16602"
         fill="#ff6584"
         id="ellipse4011" /><ellipse
         cx="519.13312"
         cy="259.24426"
         rx="0.77733999"
         ry="1.16602"
         fill="#ff6584"
         id="ellipse4013" /><circle
         cx="549.44952"
         cy="273.62512"
         r="12.43751"
         fill="#ffffff"
         id="circle4015" /><path
         d="m 714.77766,481.658 a 9.32813,9.32813 0 0 1 -18.65626,0"
         transform="translate(-156,-207.2555)"
         opacity="0.2"
         id="path4017" /><path
         d="m 696.1214,480.10329 a 9.32813,9.32813 0 0 1 18.65626,0"
         transform="translate(-156,-207.2555)"
         opacity="0.2"
         id="path4019" /><ellipse
         cx="544.78546"
         cy="269.34973"
         rx="0.77733999"
         ry="1.16602"
         fill="#ffffff"
         id="ellipse4021" /><ellipse
         cx="549.44952"
         cy="267.79504"
         rx="0.77733999"
         ry="1.16602"
         fill="#ffffff"
         id="ellipse4023" /><ellipse
         cx="549.44952"
         cy="277.90051"
         rx="0.77733999"
         ry="1.16602"
         fill="#ffffff"
         id="ellipse4025" /><ellipse
         cx="554.11359"
         cy="271.68176"
         rx="0.77733999"
         ry="1.16602"
         fill="#ffffff"
         id="ellipse4027" /><ellipse
         cx="553.33624"
         cy="280.23254"
         rx="0.77733999"
         ry="1.16602"
         fill="#ffffff"
         id="ellipse4029" /><ellipse
         cx="544.00812"
         cy="276.34583"
         rx="0.77733999"
         ry="1.16602"
         fill="#ffffff"
         id="ellipse4031" /><circle
         cx="487.26199"
         cy="275.17981"
         r="12.43751"
         fill="#ffffff"
         id="circle4033" /><path
         d="m 652.59013,483.21266 a 9.32813,9.32813 0 0 1 -18.65626,0"
         transform="translate(-156,-207.2555)"
         opacity="0.2"
         id="path4035" /><path
         d="m 633.93387,481.658 a 9.32813,9.32813 0 0 1 18.65626,0"
         transform="translate(-156,-207.2555)"
         opacity="0.2"
         id="path4037" /><ellipse
         cx="482.59793"
         cy="270.90442"
         rx="0.77733999"
         ry="1.16602"
         fill="#ffffff"
         id="ellipse4039" /><ellipse
         cx="487.26199"
         cy="269.34973"
         rx="0.77733999"
         ry="1.16602"
         fill="#ffffff"
         id="ellipse4041" /><ellipse
         cx="487.26199"
         cy="279.4552"
         rx="0.77733999"
         ry="1.16602"
         fill="#ffffff"
         id="ellipse4043" /><ellipse
         cx="491.92606"
         cy="273.23645"
         rx="0.77733999"
         ry="1.16602"
         fill="#ffffff"
         id="ellipse4045" /><ellipse
         cx="491.14871"
         cy="281.78723"
         rx="0.77733999"
         ry="1.16602"
         fill="#ffffff"
         id="ellipse4047" /><ellipse
         cx="481.82059"
         cy="277.90051"
         rx="0.77733999"
         ry="1.16602"
         fill="#ffffff"
         id="ellipse4049" /><circle
         cx="515.2464"
         cy="280.62122"
         r="12.43751"
         fill="#ffffff"
         id="circle4051" /><path
         d="m 680.57452,488.65407 a 9.32813,9.32813 0 1 1 -18.65626,0"
         transform="translate(-156,-207.2555)"
         opacity="0.2"
         id="path4053" /><path
         d="m 661.91826,487.09938 a 9.32813,9.32813 0 1 1 18.65626,0"
         transform="translate(-156,-207.2555)"
         opacity="0.2"
         id="path4055" /><ellipse
         cx="510.58234"
         cy="276.34583"
         rx="0.77733999"
         ry="1.16602"
         fill="#ffffff"
         id="ellipse4057" /><ellipse
         cx="515.2464"
         cy="274.79114"
         rx="0.77733999"
         ry="1.16602"
         fill="#ffffff"
         id="ellipse4059" /><ellipse
         cx="515.2464"
         cy="284.89661"
         rx="0.77733999"
         ry="1.16602"
         fill="#ffffff"
         id="ellipse4061" /><ellipse
         cx="519.91046"
         cy="278.67786"
         rx="0.77733999"
         ry="1.16602"
         fill="#ffffff"
         id="ellipse4063" /><ellipse
         cx="519.13312"
         cy="287.22864"
         rx="0.77733999"
         ry="1.16602"
         fill="#ffffff"
         id="ellipse4065" /><ellipse
         cx="509.80499"
         cy="283.34192"
         rx="0.77733999"
         ry="1.16602"
         fill="#ffffff"
         id="ellipse4067" /><circle
         cx="534.67999"
         cy="293.83606"
         r="12.43751"
         fill="#ff6584"
         id="circle4069" /><path
         d="m 700.00812,501.86892 a 9.328125,9.328125 0 1 1 -18.65625,0"
         transform="translate(-156,-207.2555)"
         opacity="0.2"
         id="path4071" /><path
         d="m 681.35187,500.31423 a 9.328125,9.328125 0 1 1 18.65625,0"
         transform="translate(-156,-207.2555)"
         opacity="0.2"
         id="path4073" /><ellipse
         cx="530.01593"
         cy="289.56067"
         rx="0.77733999"
         ry="1.16602"
         fill="#ff6584"
         id="ellipse4075" /><ellipse
         cx="534.67999"
         cy="288.00598"
         rx="0.77733999"
         ry="1.16602"
         fill="#ff6584"
         id="ellipse4077" /><ellipse
         cx="534.67999"
         cy="298.11148"
         rx="0.77733999"
         ry="1.16602"
         fill="#ff6584"
         id="ellipse4079" /><ellipse
         cx="539.34406"
         cy="291.8927"
         rx="0.77733999"
         ry="1.16602"
         fill="#ff6584"
         id="ellipse4081" /><ellipse
         cx="538.56671"
         cy="300.44351"
         rx="0.77733999"
         ry="1.16602"
         fill="#ff6584"
         id="ellipse4083" /><ellipse
         cx="529.23859"
         cy="296.55679"
         rx="0.77733999"
         ry="1.16602"
         fill="#ff6584"
         id="ellipse4085" /><circle
         cx="374.73441"
         cy="246.41808"
         r="3.29669"
         fill="#3f3d56"
         id="circle4087" /><polygon
         points="464.345,366.08 385.17,344.123 388.203,332.857 467.378,354.815 "
         fill="#f9a825"
         id="polygon4089" /><path
         d="m 608.73806,569.57043 a 218.26828,218.26828 0 0 1 -82.07767,0 v -11.67831 a 250.99129,250.99129 0 0 0 82.07767,0 z"
         transform="translate(-156,-207.2555)"
         fill="#f9a825"
         id="path4091" /><path
         d="m 617.17595,534.53552 a 218.26828,218.26828 0 0 1 -82.07767,0 v -11.67831 a 250.99184,250.99184 0 0 0 82.07767,0 z"
         transform="translate(-156,-207.2555)"
         fill="#f9a825"
         id="path4093" /><path
         d="m 645.558,548.54948 a 218.26833,218.26833 0 0 1 -82.07768,0 v -11.6783 a 250.9919,250.9919 0 0 0 82.07768,0 z"
         transform="translate(-156,-207.2555)"
         fill="#f9a825"
         id="path4095" /><path
         d="m 652.46168,561.78489 a 218.26787,218.26787 0 0 1 -82.07767,0 v -11.6783 a 250.99184,250.99184 0 0 0 82.07767,0 z"
         transform="translate(-156,-207.2555)"
         fill="#f9a825"
         id="path4097" /><polygon
         points="520.531,371.824 439.554,385.426 437.676,373.904 518.652,360.302 "
         fill="#f9a825"
         id="polygon4099" /><path
         d="m 664.43494,580.57677 a 219.97,219.97 0 0 1 -74.58008,34.78439 l -4.80446,-10.61152 a 252.95437,252.95437 0 0 0 74.58007,-34.78439 z"
         transform="translate(-156,-207.2555)"
         fill="#f9a825"
         id="path4101" /><path
         d="m 657.68866,545.16625 a 219.96991,219.96991 0 0 1 -74.58007,34.78439 l -4.80446,-10.61152 a 252.95437,252.95437 0 0 0 74.58007,-34.78439 z"
         transform="translate(-156,-207.2555)"
         fill="#f9a825"
         id="path4103" /><path
         d="m 689.24339,545.87182 a 219.96977,219.96977 0 0 1 -74.58008,34.78439 l -4.80446,-10.61151 a 252.95471,252.95471 0 0 0 74.58008,-34.7844 z"
         transform="translate(-156,-207.2555)"
         fill="#f9a825"
         id="path4105" /><path
         d="m 700.96153,554.97242 a 219.96991,219.96991 0 0 1 -74.58007,34.78439 L 621.577,579.14529 a 252.95437,252.95437 0 0 0 74.58007,-34.78439 z"
         transform="translate(-156,-207.2555)"
         fill="#f9a825"
         id="path4107" /><rect
         x="442.9534"
         y="324.92984"
         width="3.8867199"
         height="3.8867199"
         fill="#00bf71"
         id="rect4109" /><rect
         x="454.61356"
         y="392.55878"
         width="3.8867199"
         height="3.8867199"
         fill="#00bf71"
         id="rect4111" /><rect
         x="392.42603"
         y="324.92984"
         width="3.8867199"
         height="3.8867199"
         fill="#00bf71"
         id="rect4113" /><rect
         x="482.59793"
         y="373.12518"
         width="3.8867199"
         height="3.8867199"
         fill="#00bf71"
         id="rect4115" /><rect
         x="484.92996"
         y="350.58221"
         width="3.8867199"
         height="3.8867199"
         fill="#00bf71"
         id="rect4117" /><rect
         x="574.85571"
         y="545.40021"
         width="5.4414101"
         height="3.10938"
         transform="rotate(34.15572,836.88741,189.4351)"
         fill="#00bf71"
         id="rect4119" /><rect
         x="620.71899"
         y="553.95099"
         width="5.4414101"
         height="3.10938"
         transform="rotate(34.15572,882.7507,197.98589)"
         fill="#00bf71"
         id="rect4121" /><rect
         x="564.75024"
         y="568.72052"
         width="5.4414101"
         height="3.10938"
         transform="rotate(34.15572,826.78193,212.75542)"
         fill="#00bf71"
         id="rect4123" /><rect
         x="596.62134"
         y="565.61115"
         width="5.4414101"
         height="3.10938"
         transform="rotate(124.15572,576.26141,422.20059)"
         fill="#00bf71"
         id="rect4125" /><rect
         x="617.60968"
         y="571.05255"
         width="5.4414101"
         height="3.10938"
         transform="rotate(124.15572,597.2497,427.642)"
         fill="#00bf71"
         id="rect4127" /><rect
         x="673.57843"
         y="552.3963"
         width="5.4414101"
         height="3.10938"
         transform="matrix(-0.56144,0.82751,-0.82751,-0.56144,1358.4058,98.06043)"
         fill="#00bf71"
         id="rect4129" /><rect
         y="483.24829"
         width="888"
         height="2.24072"
         fill="#3f3d56"
         id="rect4131"
         x="0" /></g><g
       id="g4419"
       transform="matrix(0.07674796,0,0,0.07674796,7.7581613,42.023913)"><path
         d="m 934.27043,694.14829 c 0,0 -112.306,-51.70032 -72.853,-87.55227 39.453,-35.85195 72.853,87.55227 72.853,87.55227 z"
         transform="translate(-214.84928,-124.57498)"
         fill="#e6e6e6"
         id="path4257" /><path
         d="m 932.31571,706.21205 c 0,0 -51.62,-169.6065 24.39237,-161.49519 76.01242,8.11131 -24.39237,161.49519 -24.39237,161.49519 z"
         transform="translate(-214.84928,-124.57498)"
         fill="#e6e6e6"
         id="path4259" /><path
         d="m 894.679,691.17 2.16658,28.37159 0.0344,0.49006 a 130.35307,130.35307 0 0 0 0.67063,13.26586 c 2.94031,28.939 15.57857,42.12751 30.349,42.12751 14.77043,0 26.85843,-13.18851 29.79875,-42.12751 a 130.356,130.356 0 0 0 0.67062,-13.26586 l 0.0172,-0.3955 0.009,-0.0946 2.17518,-28.37159 z"
         transform="translate(-214.84928,-124.57498)"
         fill="#e6e6e6"
         id="path4261" /><path
         d="m 958.39472,719.54159 -0.009,0.0946 -0.0172,0.3955 a 130.356,130.356 0 0 1 -0.67062,13.26586 h -60.1473 a 130.35307,130.35307 0 0 1 -0.67063,-13.26586 l -0.0344,-0.49006 z"
         transform="translate(-214.84928,-124.57498)"
         fill="#ffffff"
         id="path4263" /><path
         d="m 299.65949,718.83877 c 0,0 -41.76,-19.22429 -27.08972,-32.55551 14.67028,-13.33122 27.08972,32.55551 27.08972,32.55551 z"
         transform="translate(-214.84928,-124.57498)"
         fill="#e6e6e6"
         id="path4265" /><path
         d="m 272.00407,716.80251 1.50745,19.74023 0.0239,0.341 a 90.69705,90.69705 0 0 0 0.46661,9.23 c 2.0458,20.135 10.83918,29.31126 21.11606,29.31126 10.27688,0 18.68741,-9.17623 20.73321,-29.31126 a 90.6971,90.6971 0 0 0 0.4666,-9.23 l 0.012,-0.27518 0.006,-0.0658 1.51344,-19.74023 z"
         transform="translate(-214.84928,-124.57498)"
         fill="#e6e6e6"
         id="path4267" /><path
         d="m 738.253,430.9007 v 0 a 10.1878,10.1878 0 0 0 -2.69545,-18.08783 l -23.38075,-7.45712 -12.84708,11.13339 28.36128,15.03145 a 10.18778,10.18778 0 0 0 10.562,-0.61989 z"
         transform="translate(-214.84928,-124.57498)"
         fill="#ffb9b9"
         id="path4269" /><path
         d="m 698.93534,423.75854 15.41366,-17.87227 -57.39472,-62.816 -26.42595,-61.26771 A 18.81833,18.81833 0 0 0 609.06682,270.9078 v 0 a 18.81832,18.81832 0 0 0 -12.51968,27.01861 l 34.49078,66.43564 z"
         transform="translate(-214.84928,-124.57498)"
         fill="#e6e6e6"
         id="path4271" /><polygon
         points="519.045,529.35 522.591,534.851 520.909,535.935 517.955,531.35 512.5,531.35 512.5,529.35 "
         fill="#3f3d56"
         id="polygon4273" /><path
         d="m 723.51724,655.925 h -11.49707 v -2 h 11.49707 z m -15.33007,0 H 696.6901 v -2 h 11.49707 z m -15.32911,0 H 681.361 v -2 h 11.49707 z m -15.33007,0 h -11.49707 v -2 H 677.528 Z m -15.32911,0 h -11.49707 v -2 h 11.49707 z m -15.33007,0 -10.65137,-0.009 -0.96875,-0.12891 0.26367,-1.98242 0.90332,0.12012 h 10.45313 z m -15.419,-0.64258 -11.39746,-1.51367 0.26367,-1.98242 11.39751,1.51367 z m -15.19629,-2.01855 -11.397,-1.51465 0.26367,-1.98242 11.397,1.51464 z m -15.1958,-2.01954 -11.397,-1.51367 0.26367,-1.98242 11.397,1.51367 z m -15.19629,-2.01855 -11.397,-1.51465 0.26367,-1.98242 11.397,1.51465 z"
         transform="translate(-214.84928,-124.57498)"
         fill="#3f3d56"
         id="path4275" /><polygon
         points="355.816,522.631 350.968,521.988 350.828,526.876 348.829,526.82 349.032,519.712 356.08,520.649 "
         fill="#3f3d56"
         id="polygon4277" /><path
         d="m 564.1481,704.99338 -1.999,-0.0566 0.38232,-13.38575 1.999,0.0566 z m 0.50977,-17.84766 -1.999,-0.0566 0.38232,-13.38574 1.999,0.0566 z m 0.50976,-17.84765 -1.999,-0.0567 0.38233,-13.38574 1.999,0.0566 z"
         transform="translate(-214.84928,-124.57498)"
         fill="#3f3d56"
         id="path4279" /><polygon
         points="353.904,589.388 354.06,591.382 346.969,591.933 347.172,584.824 349.171,584.88 349.031,589.767 "
         fill="#3f3d56"
         id="polygon4281" /><path
         d="m 572.736,715.66037 -0.15527,-1.99414 11.48193,-0.89258 0.15528,1.99414 z m 15.30909,-1.18945 -0.15528,-1.99414 11.48194,-0.89258 0.15527,1.99414 z m 15.30908,-1.18946 -0.15528,-1.99414 11.48243,-0.89258 0.15429,1.99415 z m 15.30859,-1.18945 -0.1543,-1.99414 11.48145,-0.89258 0.1543,1.99414 z m 15.3086,-1.18945 -0.1543,-1.99414 11.48242,-0.89258 0.1543,1.99414 z m 15.30957,-1.18946 -0.1543,-1.99414 11.48144,-0.89257 0.1543,1.99414 z m 15.30859,-1.18945 -0.1543,-1.99414 11.48242,-0.89258 0.1543,1.99414 z m 15.30957,-1.18945 -0.1543,-1.99414 11.48145,-0.89258 0.1543,1.99414 z m 15.30859,-1.18946 -0.15429,-1.99414 11.48242,-0.89257 0.1543,1.99414 z m 15.30957,-1.18945 -0.15429,-1.99414 11.48144,-0.89258 0.1543,1.99414 z m 15.3086,-1.18945 -0.1543,-1.99414 11.48242,-0.89258 0.1543,1.99414 z m 15.30957,-1.18945 -0.1543,-1.99415 11.48145,-0.89257 0.15429,1.99414 z"
         transform="translate(-214.84928,-124.57498)"
         fill="#3f3d56"
         id="path4283" /><polygon
         points="545.091,569.765 549.248,576.217 541.595,576.812 541.44,574.818 545.752,574.483 543.409,570.849 "
         fill="#3f3d56"
         id="polygon4285" /><path
         d="m 755.75845,691.54416 -7.5,-11.6377 1.68165,-1.084 7.5,11.63769 z m -10,-15.5166 -7.5,-11.6377 1.68165,-1.084 7.5,11.63769 z"
         transform="translate(-214.84928,-124.57498)"
         fill="#3f3d56"
         id="path4287" /><circle
         cx="504"
         cy="551.85004"
         r="68"
         fill="#ffffff"
         id="circle4289" /><polygon
         points="438.5,476.35 536.5,630.35 560,630.85 460.5,454.35 "
         fill="#3f3d56"
         id="polygon4291" /><polygon
         points="500.5,436.35 288.5,636.35 258.5,626.35 482,399.85 "
         fill="#3f3d56"
         id="polygon4293" /><circle
         cx="349.5"
         cy="557.35004"
         r="45"
         fill="#3f3d56"
         id="circle4295" /><path
         d="m 504.34928,694.925 a 1.001,1.001 0 0 0 -1,1 v 8 a 1.001,1.001 0 0 0 1,1 h 25 a 1.001,1.001 0 0 0 1,-1 v -8 a 1.001,1.001 0 0 0 -1,-1 z"
         transform="translate(-214.84928,-124.57498)"
         fill="#ffffff"
         id="path4297" /><path
         d="m 561.84928,583.425 a 1.001,1.001 0 0 0 -1,1 v 8 a 1.001,1.001 0 0 0 1,1 h 25 a 1.001,1.001 0 0 0 1,-1 v -8 a 1.001,1.001 0 0 0 -1,-1 z"
         transform="translate(-214.84928,-124.57498)"
         fill="#ffffff"
         id="path4299" /><polygon
         points="468.5,442.35 442.5,442.35 442.5,422.35 452.5,418.35 468.5,430.35 "
         fill="#3f3d56"
         id="polygon4301" /><rect
         x="660.3493"
         y="537.92505"
         width="3"
         height="12"
         transform="rotate(-25.31588,277.08416,959.95519)"
         fill="#3f3d56"
         id="rect4303" /><path
         d="m 663.51431,524.88058 a 0.99073,0.99073 0 0 0 -0.53808,0.15918 l -17.66309,11.35987 a 1.001,1.001 0 0 0 -0.2998,1.38183 l 4.32715,6.72852 a 1.00071,1.00071 0 0 0 1.38183,0.30029 l 17.66309,-11.35986 v 4.9e-4 a 1.00171,1.00171 0 0 0 0.2998,-1.38233 l -4.32715,-6.72851 a 0.99406,0.99406 0 0 0 -0.6289,-0.436 1.00559,1.00559 0 0 0 -0.21485,-0.0235 z"
         transform="translate(-214.84928,-124.57498)"
         fill="#ffffff"
         id="path4305" /><path
         d="m 703.3493,564.925 v 0 l -20.5,-99.5 24,-4 16.36394,80.15542 A 18.943,18.943 0 0 1 703.3493,564.925 Z"
         transform="translate(-214.84928,-124.57498)"
         fill="#3f3d56"
         id="path4307" /><path
         d="m 778.88078,445.82013 -23.74151,-1.69583 a 2,2 0 0 1 -1.69914,-2.7749 l 34.48634,-81.42609 a 2,2 0 0 1 1.49,-1.18887 l 23.41745,-4.18169 a 2,2 0 0 1 2.21407,2.69766 L 780.88576,444.554 a 2,2 0 0 1 -2.00498,1.26613 z"
         transform="translate(-214.84928,-124.57498)"
         fill="#3f3d56"
         id="path4309" /><polygon
         points="593.5,237.35 573.5,240.35 543.5,313.35 562.5,315.35 "
         fill="#ffffff"
         id="polygon4311" /><polygon
         points="275.5,395.35 295.5,398.35 336.5,527.35 311.5,552.35 "
         fill="#3f3d56"
         id="polygon4313" /><path
         d="m 522.21516,522.68706 -4.31816,-1.29545 a 60.41115,60.41115 0 0 1 -26.97938,5.07729 7.73239,7.73239 0 0 1 -7.41086,-7.7685 v 0 a 7.77536,7.77536 0 0 1 7.77536,-7.77536 h 37.71724 a 3.84992,3.84992 0 0 1 3.84992,3.84992 v 0 a 8.26049,8.26049 0 0 1 -10.63412,7.9121 z"
         transform="translate(-214.84928,-124.57498)"
         fill="#3f3d56"
         id="path4315" /><path
         d="m 761.11783,424.50363 a 4.39372,4.39372 0 0 0 -2.67285,0.90137 l -30.70117,23.47705 -34.36621,4.48242 c -5.917,0.772 -10.01465,7.2085 -10.52832,13.06055 l 40.45312,-5.61768 a 27.16006,27.16006 0 0 0 15.19434,-6.521 l 25.50195,-22.05567 a 4.39754,4.39754 0 0 0 -2.88086,-7.72705 z"
         transform="translate(-214.84928,-124.57498)"
         fill="#3f3d56"
         id="path4317" /><path
         d="m 746.11783,409.50363 a 4.39372,4.39372 0 0 0 -2.67285,0.90137 l -30.70117,23.47705 -34.36621,4.48242 c -5.917,0.772 -10.01465,7.2085 -10.52832,13.06055 l 40.45312,-5.61768 a 27.16006,27.16006 0 0 0 15.19434,-6.521 l 25.50195,-22.05567 a 4.39754,4.39754 0 0 0 -2.88086,-7.72705 z"
         transform="translate(-214.84928,-124.57498)"
         fill="#3f3d56"
         id="path4319" /><path
         d="m 764.84961,469.9248 a 45.69581,45.69581 0 0 1 -36.71289,-18.61718 l 4.03125,-2.957 a 40.50175,40.50175 0 1 0 63.04394,-50.72852 l 3.74805,-3.31055 a 45.50091,45.50091 0 0 1 -34.11035,75.61328 z"
         transform="translate(-214.84928,-124.57498)"
         fill="#3f3d56"
         id="path4321" /><rect
         x="231"
         y="625.85004"
         width="354"
         height="25"
         fill="#3f3d56"
         id="rect4323" /><path
         d="m 713.09656,456.6261 v 0 a 10.18779,10.18779 0 0 0 1.3916,-18.23454 l -21.13888,-12.46656 -15,8 24.31162,20.95829 a 10.18779,10.18779 0 0 0 10.43566,1.74281 z"
         transform="translate(-214.84928,-124.57498)"
         fill="#ffb9b9"
         id="path4325" /><path
         d="m 547.34928,544.925 14,8 86.44745,-63.63076 a 27.85052,27.85052 0 0 0 11.83683,-18.91318 v 0 a 27.94167,27.94167 0 0 0 -10.08083,-25.7766 c -19.09112,-15.50607 -42.68561,-29.57057 -67.70346,-43.17943 l -37,18 c 15.24829,31.26617 32.175,57.04474 57,57 z"
         transform="translate(-214.84928,-124.57498)"
         fill="#ffffff"
         id="path4327" /><path
         d="m 541.24647,565.295 c 11.61559,11.76791 26.91121,20.18759 43.99575,26.97972 a 6.69787,6.69787 0 0 0 7.51557,-1.82588 v 0 a 6.69441,6.69441 0 0 0 -0.24922,-9.072 l -11.07453,-11.369 -6.69114,-23.83116 c -14.3684,7.10225 -23.78973,5.51252 -25.6472,-9.36705 l -9.0567,12.35062 a 12.46738,12.46738 0 0 0 1.20747,16.13475 z"
         transform="translate(-214.84928,-124.57498)"
         fill="#2f2e41"
         id="path4329" /><path
         d="m 502.34928,670.925 21,1 48,-247 -82.5,-26.5 c -8.23685,30.79541 3.99267,81.20257 25.5,140.5 z"
         transform="translate(-214.84928,-124.57498)"
         fill="#ffffff"
         id="path4331" /><circle
         cx="449"
         cy="105.85004"
         r="33"
         fill="#ffb9b9"
         id="circle4333" /><polygon
         points="441.5,129.35 425.5,109.35 388.5,146.35 409.5,161.35 "
         fill="#ffb9b9"
         id="polygon4335" /><path
         d="m 485.34928,400.925 c 25.89825,21.10455 54.17919,34.97693 89,29 10.52213,-16.82209 18.29108,-52.25879 31.5,-67.5 28.84538,-33.28345 43.15165,-62.95014 34,-90 -8.89618,-5.816 -8.5047,-5.8064 -15,-25 -50.87684,9.41265 -100.13111,66.845 -139.5,153.5 z"
         transform="translate(-214.84928,-124.57498)"
         fill="#e6e6e6"
         id="path4337" /><path
         d="m 502.01324,691.5052 c 14.9478,7.06888 32.20363,9.73025 50.58148,10.24912 a 6.69788,6.69788 0 0 0 6.43309,-4.29338 v 0 a 6.69441,6.69441 0 0 0 -3.34636,-8.43594 l -14.30271,-6.87979 -14.46064,-20.08943 c -11.05991,11.60048 -20.45486,13.33933 -27.30422,0 l -4.2701,14.70812 a 12.46735,12.46735 0 0 0 6.66946,14.7413 z"
         transform="translate(-214.84928,-124.57498)"
         fill="#2f2e41"
         id="path4339" /><path
         d="m 676.34928,440.925 19,-14 -42,-74 -12.14969,-65.60829 A 18.81832,18.81832 0 0 0 622.69587,271.925 v 0 a 18.81832,18.81832 0 0 0 -18.21094,23.56075 l 18.86435,72.43925 z"
         transform="translate(-214.84928,-124.57498)"
         fill="#e6e6e6"
         id="path4341" /><rect
         x="355"
         y="467.85004"
         width="11"
         height="60"
         fill="#3f3d56"
         id="rect4343" /><path
         d="m 689.96913,220.85418 a 12.15211,12.15211 0 0 0 10.72753,4.28654 c 3.97236,-0.61923 7.50788,-4.00777 7.76214,-8.02 0.21954,-3.46474 -1.817,-6.64247 -3.954,-9.3784 a 76.02955,76.02955 0 0 0 -16.60985,-15.67969 c -3.00151,-2.07795 -6.31336,-3.99085 -9.95711,-4.21488 -1.80292,-0.11085 -3.60978,0.19994 -5.41441,0.12238 -3.31827,-0.14258 -6.42792,-1.57847 -9.66489,-2.32218 a 23.77775,23.77775 0 0 0 -19.309,4.09142 28.651,28.651 0 0 0 -4.91809,4.79389 36.93227,36.93227 0 0 0 -7.76576,16.88814 c -1.73992,9.82683 0.43206,20.60434 -4.29013,29.39613 5.54093,-0.51744 9.98318,-4.74231 15.24715,-6.54817 a 18.22945,18.22945 0 0 1 12.02739,0.10722 5.79481,5.79481 0 0 0 3.24482,0.60684 4.99254,4.99254 0 0 0 2.32073,-1.6968 l 10.06553,-10.95218 c 2.04848,-2.22892 4.37544,-4.60362 7.387,-4.91222 a 11.66222,11.66222 0 0 1 5.22417,1.03624 78.79971,78.79971 0 0 1 11.67145,5.54606"
         transform="translate(-214.84928,-124.57498)"
         fill="#2f2e41"
         id="path4345" /><polygon
         points="456,324.85 453,326.85 473,346.85 485,335.85 465,319.85 "
         fill="#3f3d56"
         id="polygon4347" /><rect
         width="247.65997"
         height="256.25"
         fill="#e6e6e6"
         id="rect4349"
         x="0"
         y="0" /><rect
         x="13.21997"
         y="13.67999"
         width="221.22003"
         height="228.89001"
         fill="#ffffff"
         id="rect4351" /><polygon
         points="57.795,163.694 57.778,164.032 56.26,246.57 64.139,246.57 64.089,243.398 63.954,236.362 62.705,164.015 62.688,163.677 62.047,126.711 60.478,36.85 60.124,36.85 58.453,127.369 "
         fill="#e6e6e6"
         id="polygon4353" /><rect
         x="283.01614"
         y="348.73676"
         width="6.2905102"
         height="23.76413"
         transform="rotate(62.23413,281.9224,120.37136)"
         fill="#e6e6e6"
         id="rect4355" /><rect
         x="119"
         y="6.85004"
         width="10"
         height="242"
         fill="#e6e6e6"
         id="rect4357" /><rect
         y="122.85004"
         width="247.65997"
         height="10"
         fill="#e6e6e6"
         id="rect4359"
         x="0" /></g></g></svg>
