<?xml version="1.0" encoding="UTF-8" standalone="no"?>
<svg
   data-name="Layer 1"
   width="649.05263"
   height="653.8814"
   viewBox="0 0 649.05263 653.8814"
   version="1.1"
   id="svg222"
   sodipodi:docname="planes.svg"
   xml:space="preserve"
   inkscape:version="1.2 (dc2aeda, 2022-05-15)"
   inkscape:export-filename="../../../../RESOURCES/Treina-Web/producto_plan_empresarial.png"
   inkscape:export-xdpi="96"
   inkscape:export-ydpi="96"
   xmlns:inkscape="http://www.inkscape.org/namespaces/inkscape"
   xmlns:sodipodi="http://sodipodi.sourceforge.net/DTD/sodipodi-0.dtd"
   xmlns:xlink="http://www.w3.org/1999/xlink"
   xmlns="http://www.w3.org/2000/svg"
   xmlns:svg="http://www.w3.org/2000/svg"><defs
     id="defs226" /><sodipodi:namedview
     id="namedview224"
     pagecolor="#ffffff"
     bordercolor="#000000"
     borderopacity="0.25"
     inkscape:showpageshadow="2"
     inkscape:pageopacity="0.0"
     inkscape:pagecheckerboard="0"
     inkscape:deskcolor="#d1d1d1"
     showgrid="false"
     inkscape:zoom="1.4532384"
     inkscape:cx="293.48248"
     inkscape:cy="276.62358"
     inkscape:window-width="1440"
     inkscape:window-height="784"
     inkscape:window-x="0"
     inkscape:window-y="25"
     inkscape:window-maximized="0"
     inkscape:current-layer="g788" /><rect
     style="fill:#d32f2f;stroke-width:3.78;stroke-opacity:0.940171;paint-order:fill markers stroke;fill-opacity:0.80000001"
     id="rect602"
     width="490.41107"
     height="490.41104"
     x="72.037773"
     y="83.120514"
     ry="41.17012" /><rect
     style="fill:#d32f2f;fill-opacity:0.80000001;stroke-width:3.78;stroke-opacity:0.940171;paint-order:fill markers stroke"
     id="rect602-4"
     width="490.41107"
     height="490.41104"
     x="152.04146"
     y="-16.06489"
     ry="41.17012"
     transform="rotate(16.491526)"
     inkscape:transform-center-x="-74.808468"
     inkscape:transform-center-y="-36.018892" /><path
     style="fill:#000000;fill-opacity:0.8;stroke-width:3.5839;stroke-opacity:0.940171;paint-order:fill markers stroke"
     d=""
     id="path986" /><path
     style="fill:#000000;fill-opacity:0.8;stroke-width:3.5839;stroke-opacity:0.940171;paint-order:fill markers stroke"
     d=""
     id="path988" /><path
     style="fill:#000000;fill-opacity:0.8;stroke-width:3.5839;stroke-opacity:0.940171;paint-order:fill markers stroke"
     d=""
     id="path990" /><path
     style="fill:#000000;fill-opacity:0.8;stroke-width:3.5839;stroke-opacity:0.940171;paint-order:fill markers stroke"
     d=""
     id="path992" /><path
     style="fill:#000000;fill-opacity:0.8;stroke-width:0.766591;stroke-opacity:0.940171;paint-order:fill markers stroke"
     d=""
     id="path1032" /><path
     style="fill:#000000;fill-opacity:0.8;stroke-width:0.766591;stroke-opacity:0.940171;paint-order:fill markers stroke"
     d=""
     id="path1034" /><path
     style="fill:#000000;fill-opacity:0.8;stroke-width:0.766591;stroke-opacity:0.940171;paint-order:fill markers stroke"
     d=""
     id="path1040" /><g
     id="g583"
     transform="matrix(0.60347479,0,0,0.60347479,124.20276,120.28801)"><g
       id="g788"
       transform="matrix(1.65707,0,0,1.65707,1105.9216,-211.80895)"><path
         d="m 770.96283,679.20736 v 0.89737 a 3.809,3.809 0 0 1 0,-0.89737 z"
         fill="#2f2e41"
         id="path693"
         transform="translate(-181,-130.99812)" /><path
         d="m 798.5576,524.13266 a 15.32366,15.32366 0 0 1 2.183,-0.424 q -1.26905,0.20681 -2.183,0.424 z"
         fill="#2f2e41"
         id="path695"
         transform="translate(-181,-130.99812)" /><path
         d="m 797.919,524.2954 c 0.19365,-0.0543 0.40921,-0.1086 0.63857,-0.16274 -0.21363,0.0556 -0.41908,0.0965 -0.63857,0.16274 z"
         fill="#2f2e41"
         id="path697"
         transform="translate(-181,-130.99812)" /><path
         d="M 810.43534,197.849"
         fill="#2f2e41"
         id="path715"
         transform="translate(-181,-130.99812)" /><polygon
         points="617.305,628.638 632.145,673.537 620.504,677.384 600.124,634.316 "
         fill="#ffb8b8"
         id="polygon4012"
         transform="matrix(0.45548483,0,0,0.45548483,-662.26164,135.87506)" /><path
         d="m -383.91915,444.15017 10.22535,-3.37977 2.128,6.43817 -16.66351,5.50777 v 0 a 6.7807389,6.7807389 0 0 1 4.31016,-8.56617 z"
         fill="#2f2e41"
         id="path4014"
         style="stroke-width:0.455485" /><polygon
         points="555.353,636.941 555.351,684.229 543.091,684.228 537.259,636.94 "
         fill="#ffb8b8"
         id="polygon4016"
         transform="matrix(0.45548483,0,0,0.45548483,-662.26164,135.87506)" /><path
         d="m -418.88066,445.93518 h 10.76943 v 6.78074 h -17.55018 v 0 a 6.7807389,6.7807389 0 0 1 6.78075,-6.78074 z"
         fill="#2f2e41"
         id="path4018"
         style="stroke-width:0.455485" /><path
         d="m -414.4692,367.5755 -0.28455,1.26016 c -3.84759,17.03934 -5.21791,41.83225 -4.06865,59.26275 l 0.88778,13.46464 a 1.8219393,1.8219393 0 0 0 1.81799,1.70208 h 6.69472 a 1.8219393,1.8219393 0 0 0 1.80946,-1.60907 l 5.196,-44.16595 a 1.8219393,1.8219393 0 0 1 3.54682,-0.33577 l 13.46658,39.91123 a 1.8219393,1.8219393 0 0 0 1.62007,1.26952 l 10.22618,0.65975 a 1.8219393,1.8219393 0 0 0 1.856,-2.3626 l -6.15557,-16.9252 c -4.75625,-15.1893 -7.3129,-38.26919 -7.59209,-54.18331 v 0 a 1.8219393,1.8219393 0 0 0 -1.99439,-1.78178 l -25.42191,2.42114 a 1.8219393,1.8219393 0 0 0 -1.60444,1.41241 z"
         fill="#2f2e41"
         id="path4020"
         style="stroke-width:0.455485" /><circle
         cx="-399.58328"
         cy="285.6369"
         r="11.187177"
         fill="#a0616a"
         id="circle4022"
         style="stroke-width:0.455485" /><path
         d="m -406.9269,371.2407 v 0 a 66.004621,66.004621 0 0 1 -6.67057,-0.35185 2.742374,2.742374 0 0 1 -2.43578,-2.95842 l 3.81423,-36.85157 c 0.91976,-10.42367 2.34081,-20.4857 9.53082,-29.00736 a 2.7409437,2.7409437 0 0 1 1.97295,-0.96881 l 0.27023,-0.0102 c 2.83621,-0.11832 4.14317,-0.0151 4.51092,0.35318 l 1.97807,1.94915 c 12.063,8.9211 12.56414,65.43583 9.59214,64.32203 -0.57491,-0.21439 -7.44015,9.1e-4 -7.91799,0.32702 -3.87518,2.64129 -10.10285,3.19642 -14.64502,3.19686 z"
         fill="#ffffff"
         id="path4024"
         style="stroke-width:0.455485" /><path
         d="m -450.81991,350.78556 a 4.580237,4.580237 0 0 1 6.79111,-1.79085 l 13.23809,-9.4701 0.32115,8.45211 -12.62035,7.6972 a 4.6050746,4.6050746 0 0 1 -7.73,-4.88836 z"
         fill="#a0616a"
         id="path4026"
         style="stroke-width:0.455485" /><path
         d="m -437.67251,353.28429 -4.48379,-7.89302 40.84192,-29.44909 a 8.2635379,8.2635379 0 1 1 8.63343,14.04059 z"
         fill="#ffffff"
         id="path4028"
         style="stroke-width:0.455485" /><path
         d="m -394.55694,295.09535 a 2.2102857,2.2102857 0 0 0 2.89046,0.1852 c 2.63659,-1.95445 4.95129,-4.38723 6.32112,-7.35461 1.56963,-3.40019 1.74474,-7.57259 -0.14775,-10.80422 -1.59982,-2.73186 -4.42479,-4.49472 -7.24031,-5.94225 a 12.877103,12.877103 0 0 0 -3.49532,-1.34718 4.9814736,4.9814736 0 0 0 -3.62181,0.58438 3.1281332,3.1281332 0 0 0 -1.41227,3.22977 11.772916,11.772916 0 0 0 -5.02486,-3.37309 6.4984021,6.4984021 0 0 0 -3.8376,-0.2782 c -1.78667,0.50677 -3.09104,2.09421 -3.80446,3.80886 a 7.6177242,7.6177242 0 0 0 -0.57502,4.15621 5.077048,5.077048 0 0 0 2.21849,3.47748 c 1.47719,0.91396 3.36173,0.84807 5.05819,0.47467 1.69646,-0.37341 3.33864,-1.02283 5.06793,-1.18707 1.72929,-0.16423 3.65498,0.26696 4.70741,1.64892 0.74114,0.97321 0.93146,2.24482 1.09781,3.45674 l 0.86532,6.30349 a 7.6888481,7.6888481 0 0 0 0.68774,2.63385 1.5184088,1.5184088 0 0 0 0.24493,0.32705 z"
         fill="#2f2e41"
         id="path4030"
         style="stroke-width:0.455485" /><path
         d="m -370.41948,373.47996 a 4.5802644,4.5802644 0 0 1 -0.50163,-7.00536 l -6.85352,-14.76346 8.36529,1.25037 5.22573,13.82793 a 4.6050792,4.6050792 0 0 1 -6.23587,6.69049 z"
         fill="#a0616a"
         id="path4032"
         style="stroke-width:0.455485" /><path
         d="m -365.83654,357.79714 -7.89302,4.4838 -29.44909,-40.84196 a 8.2635379,8.2635379 0 1 1 14.04059,-8.63343 z"
         fill="#ffffff"
         id="path4034"
         style="stroke-width:0.455485" /><path
         id="af36087b-ebb7-4586-9a2a-879d85f262d7-642"
         data-name="Path 22"
         d="m -437.72863,211.15896 h -1.74062 v -47.68439 a 27.59952,27.59952 0 0 0 -27.5995,-27.59951 h -101.0292 a 27.599511,27.599511 0 0 0 -27.59951,27.59951 V 425.0793 a 27.599516,27.599516 0 0 0 27.59951,27.5995 h 101.02918 a 27.599511,27.599511 0 0 0 27.59908,-27.5995 V 245.10162 h 1.74062 z"
         fill="#e6e6e6"
         style="stroke-width:0.455485" /><path
         id="bd8e308f-d5b9-490f-b905-e174e794b745-643"
         data-name="Path 23"
         d="m -465.95513,143.05282 h -13.18658 a 9.7920949,9.7920949 0 0 1 -9.06727,13.49029 h -57.87845 a 9.7920994,9.7920994 0 0 1 -9.06643,-13.49029 h -12.31709 a 20.611048,20.611048 0 0 0 -20.61105,20.61104 v 261.22487 a 20.611058,20.611058 0 0 0 20.61105,20.61103 h 101.51582 a 20.611053,20.611053 0 0 0 20.61104,-20.61103 v 0 -261.22529 a 20.611044,20.611044 0 0 0 -20.61106,-20.61062 z"
         fill="#ffffff"
         style="stroke-width:0.455485" /><circle
         cx="-557.55292"
         cy="339.47678"
         r="5.0103331"
         fill="#3f3d56"
         id="circle4044"
         style="stroke-width:0.455485" /><path
         d="m -474.50673,343.12066 h -63.76788 a 3.64388,3.64388 0 1 1 0,-7.28776 h 63.76788 a 3.64388,3.64388 0 0 1 0,7.28776 z"
         fill="#cccccc"
         id="path4046"
         style="stroke-width:0.455485" /><path
         d="m -494.28445,343.16459 h -44.25379 a 3.687815,3.687815 0 1 1 0,-7.37563 h 44.25379 a 3.687815,3.687815 0 0 1 0,7.37563 z"
         fill="#ffffff"
         id="path4048"
         style="stroke-width:0.455485" /><circle
         cx="-557.55292"
         cy="361.34006"
         r="5.0103331"
         fill="#3f3d56"
         id="circle4050"
         style="stroke-width:0.455485" /><path
         d="m -474.50673,364.98393 h -63.76788 a 3.64388,3.64388 0 1 1 0,-7.28776 h 63.76788 a 3.64388,3.64388 0 0 1 0,7.28776 z"
         fill="#cccccc"
         id="path4052"
         style="stroke-width:0.455485" /><circle
         cx="-557.55292"
         cy="383.20331"
         r="5.0103331"
         fill="#3f3d56"
         id="circle4054"
         style="stroke-width:0.455485" /><path
         d="m -474.50673,386.8472 h -63.76788 a 3.64388,3.64388 0 1 1 0,-7.28776 h 63.76788 a 3.64388,3.64388 0 0 1 0,7.28776 z"
         fill="#cccccc"
         id="path4056"
         style="stroke-width:0.455485" /><path
         d="m -508.85996,365.02787 h -29.67828 a 3.687815,3.687815 0 1 1 0,-7.37563 h 29.67828 a 3.687815,3.687815 0 0 1 0,7.37563 z"
         fill="#ffffff"
         id="path4058"
         style="stroke-width:0.455485" /><path
         d="m -482.44184,386.89114 h -56.0964 a 3.687815,3.687815 0 1 1 0,-7.37563 h 56.0964 a 3.687815,3.687815 0 0 1 0,7.37563 z"
         fill="#ffffff"
         id="path4060"
         style="stroke-width:0.455485" /><path
         d="m -289.67505,453.34799 h -372.13111 a 0.455485,0.455485 0 0 1 0,-0.91097 h 372.13111 a 0.455485,0.455485 0 0 1 0,0.91097 z"
         fill="#3f3d56"
         id="path4078"
         style="stroke-width:0.455485" /><text
         xml:space="preserve"
         style="font-size:42.6667px;font-family:Arial;-inkscape-font-specification:Arial;fill:#9a0007;stroke-width:4.14351;stroke-opacity:0.940171"
         x="-715.32849"
         y="516.93213"
         id="text4177"><tspan
           sodipodi:role="line"
           id="tspan4175"
           x="-715.32849"
           y="516.93213"
           dx="0 0 0 0 0"
           style="font-style:normal;font-variant:normal;font-weight:bold;font-stretch:normal;font-size:42.6667px;font-family:Arial;-inkscape-font-specification:'Arial Bold';fill:#ffffff;stroke-width:4.14351">PLAN EMPRESARIAL</tspan></text><text
         xml:space="preserve"
         style="font-weight:bold;font-size:42.6667px;font-family:Arial;-inkscape-font-specification:'Arial Bold';fill:#ffffff;stroke-width:3.77953;stroke-opacity:0.940171"
         x="-559.01459"
         y="187.13225"
         id="text552"><tspan
           sodipodi:role="line"
           id="tspan550"
           x="-559.01459"
           y="187.13225"
           style="fill:#000000" /></text><g
         id="g837"
         transform="translate(4.418755)"><g
           id="star"
           style="fill:#ffcc00"
           transform="matrix(20.95835,0,0,20.756423,-563.75888,250.69511)"><g
             id="cone"
             style="fill:#ffcc00"><polygon
               id="triangle"
               style="fill:#ffcc00"
               points="0.5,1 0,0 0,1 "
               transform="matrix(0.95106,0.30902,-0.30902,0.95106,0,-1)" /><use
               id="use2189"
               style="fill:#ffcc00"
               xlink:href="#triangle"
               transform="scale(-1,1)"
               height="600"
               width="900"
               y="0"
               x="0" /></g><use
             id="use2191"
             style="fill:#ffcc00"
             xlink:href="#cone"
             transform="rotate(72.001)"
             height="600"
             width="900"
             y="0"
             x="0" /><use
             id="use2193"
             style="fill:#ffcc00"
             xlink:href="#cone"
             transform="rotate(-72.001)"
             height="600"
             width="900"
             y="0"
             x="0" /><use
             id="use2195"
             style="fill:#ffcc00"
             xlink:href="#cone"
             transform="rotate(144)"
             height="600"
             width="900"
             y="0"
             x="0" /><use
             id="use2197"
             style="fill:#ffcc00"
             xlink:href="#cone"
             transform="rotate(-144)"
             height="600"
             width="900"
             y="0"
             x="0" /></g><g
           id="star-3"
           style="fill:#ffcc00"
           transform="matrix(20.95835,0,0,20.756423,-521.16807,251.04497)"><g
             id="cone-9"
             style="fill:#ffcc00"><polygon
               id="triangle-9"
               style="fill:#ffcc00"
               points="0,0 0,1 0.5,1 "
               transform="matrix(0.95106,0.30902,-0.30902,0.95106,0,-1)" /><use
               id="use2189-7"
               style="fill:#ffcc00"
               xlink:href="#triangle-9"
               transform="scale(-1,1)"
               height="600"
               width="900"
               y="0"
               x="0" /></g><use
             id="use2191-0"
             style="fill:#ffcc00"
             xlink:href="#cone-9"
             transform="rotate(72.001)"
             height="600"
             width="900"
             y="0"
             x="0" /><use
             id="use2193-3"
             style="fill:#ffcc00"
             xlink:href="#cone-9"
             transform="rotate(-72.001)"
             height="600"
             width="900"
             y="0"
             x="0" /><use
             id="use2195-9"
             style="fill:#ffcc00"
             xlink:href="#cone-9"
             transform="rotate(144)"
             height="600"
             width="900"
             y="0"
             x="0" /><use
             id="use2197-8"
             style="fill:#ffcc00"
             xlink:href="#cone-9"
             transform="rotate(-144)"
             height="600"
             width="900"
             y="0"
             x="0" /></g><g
           id="star-3-6"
           style="fill:#ffcc00"
           transform="matrix(20.95835,0,0,20.756423,-478.50472,251.04497)"><g
             id="cone-9-5"
             style="fill:#ffcc00"><polygon
               id="triangle-9-7"
               style="fill:#ffcc00"
               points="0,1 0.5,1 0,0 "
               transform="matrix(0.95106,0.30902,-0.30902,0.95106,0,-1)" /><use
               id="use2189-7-6"
               style="fill:#ffcc00"
               xlink:href="#triangle-9-7"
               transform="scale(-1,1)"
               height="600"
               width="900"
               y="0"
               x="0" /></g><use
             id="use2191-0-2"
             style="fill:#ffcc00"
             xlink:href="#cone-9-5"
             transform="rotate(72.001)"
             height="600"
             width="900"
             y="0"
             x="0" /><use
             id="use2193-3-7"
             style="fill:#ffcc00"
             xlink:href="#cone-9-5"
             transform="rotate(-72.001)"
             height="600"
             width="900"
             y="0"
             x="0" /><use
             id="use2195-9-0"
             style="fill:#ffcc00"
             xlink:href="#cone-9-5"
             transform="rotate(144)"
             height="600"
             width="900"
             y="0"
             x="0" /><use
             id="use2197-8-3"
             style="fill:#ffcc00"
             xlink:href="#cone-9-5"
             transform="rotate(-144)"
             height="600"
             width="900"
             y="0"
             x="0" /></g></g></g></g></svg>
