<?xml version="1.0" encoding="UTF-8" standalone="no"?>
<svg
   data-name="Layer 1"
   width="649.05263"
   height="653.8814"
   viewBox="0 0 649.05263 653.8814"
   version="1.1"
   id="svg222"
   sodipodi:docname="treina_undraw_profile_element_base.svg"
   xml:space="preserve"
   inkscape:version="1.2 (dc2aeda, 2022-05-15)"
   inkscape:export-filename="../../../../RESOURCES/Treina-Web/producto_plan_empresarial.png"
   inkscape:export-xdpi="96"
   inkscape:export-ydpi="96"
   xmlns:inkscape="http://www.inkscape.org/namespaces/inkscape"
   xmlns:sodipodi="http://sodipodi.sourceforge.net/DTD/sodipodi-0.dtd"
   xmlns="http://www.w3.org/2000/svg"
   xmlns:svg="http://www.w3.org/2000/svg"><defs
     id="defs226" /><sodipodi:namedview
     id="namedview224"
     pagecolor="#ffffff"
     bordercolor="#000000"
     borderopacity="0.25"
     inkscape:showpageshadow="2"
     inkscape:pageopacity="0.0"
     inkscape:pagecheckerboard="0"
     inkscape:deskcolor="#d1d1d1"
     showgrid="false"
     inkscape:zoom="0.51379735"
     inkscape:cx="513.82126"
     inkscape:cy="377.58077"
     inkscape:window-width="1440"
     inkscape:window-height="900"
     inkscape:window-x="0"
     inkscape:window-y="0"
     inkscape:window-maximized="0"
     inkscape:current-layer="g788" /><rect
     style="fill:#d32f2f;stroke-width:3.78;stroke-opacity:0.940171;paint-order:fill markers stroke;fill-opacity:0.80000001"
     id="rect602"
     width="490.41107"
     height="490.41104"
     x="72.037773"
     y="83.120514"
     ry="41.17012" /><rect
     style="fill:#d32f2f;fill-opacity:0.80000001;stroke-width:3.78;stroke-opacity:0.940171;paint-order:fill markers stroke"
     id="rect602-4"
     width="490.41107"
     height="490.41104"
     x="152.04146"
     y="-16.06489"
     ry="41.17012"
     transform="rotate(16.491526)"
     inkscape:transform-center-x="-74.808468"
     inkscape:transform-center-y="-36.018892" /><path
     style="fill:#000000;fill-opacity:0.8;stroke-width:3.5839;stroke-opacity:0.940171;paint-order:fill markers stroke"
     d=""
     id="path986" /><path
     style="fill:#000000;fill-opacity:0.8;stroke-width:3.5839;stroke-opacity:0.940171;paint-order:fill markers stroke"
     d=""
     id="path988" /><path
     style="fill:#000000;fill-opacity:0.8;stroke-width:3.5839;stroke-opacity:0.940171;paint-order:fill markers stroke"
     d=""
     id="path990" /><path
     style="fill:#000000;fill-opacity:0.8;stroke-width:3.5839;stroke-opacity:0.940171;paint-order:fill markers stroke"
     d=""
     id="path992" /><path
     style="fill:#000000;fill-opacity:0.8;stroke-width:0.766591;stroke-opacity:0.940171;paint-order:fill markers stroke"
     d=""
     id="path1032" /><path
     style="fill:#000000;fill-opacity:0.8;stroke-width:0.766591;stroke-opacity:0.940171;paint-order:fill markers stroke"
     d=""
     id="path1034" /><path
     style="fill:#000000;fill-opacity:0.8;stroke-width:0.766591;stroke-opacity:0.940171;paint-order:fill markers stroke"
     d=""
     id="path1040" /><g
     id="g583"
     transform="matrix(0.60347479,0,0,0.60347479,124.20276,120.28801)"><g
       id="g788"
       transform="matrix(1.65707,0,0,1.65707,1105.9216,-211.80895)"><path
         d="m 770.96283,679.20736 v 0.89737 a 3.809,3.809 0 0 1 0,-0.89737 z"
         fill="#2f2e41"
         id="path693"
         transform="translate(-181,-130.99812)" /><path
         d="m 798.5576,524.13266 a 15.32366,15.32366 0 0 1 2.183,-0.424 q -1.26905,0.20681 -2.183,0.424 z"
         fill="#2f2e41"
         id="path695"
         transform="translate(-181,-130.99812)" /><path
         d="m 797.919,524.2954 c 0.19365,-0.0543 0.40921,-0.1086 0.63857,-0.16274 -0.21363,0.0556 -0.41908,0.0965 -0.63857,0.16274 z"
         fill="#2f2e41"
         id="path697"
         transform="translate(-181,-130.99812)" /><path
         d="M 810.43534,197.849"
         fill="#2f2e41"
         id="path715"
         transform="translate(-181,-130.99812)" /><g
         id="g4121"
         transform="matrix(0.45548483,0,0,0.45548483,-662.26164,135.87506)"><polygon
           points="620.504,677.384 600.124,634.316 617.305,628.638 632.145,673.537 "
           fill="#ffb8b8"
           id="polygon4012" /><path
           d="m 803.70539,776.55634 h 23.64387 v 14.88687 h -38.53072 v 0 a 14.88686,14.88686 0 0 1 14.88685,-14.88687 z"
           transform="rotate(-18.2902,397.58038,1324.9328)"
           fill="#2f2e41"
           id="path4014" /><polygon
           points="543.091,684.228 537.259,636.94 555.353,636.941 555.351,684.229 "
           fill="#ffb8b8"
           id="polygon4016" /><path
           d="m 534.33389,680.72546 h 23.64387 v 14.88687 H 519.447 v 0 a 14.88686,14.88686 0 0 1 14.88689,-14.88687 z"
           fill="#2f2e41"
           id="path4018" /><path
           d="m 734.51909,610.1897 -0.62472,2.76662 c -8.44725,37.40925 -11.45573,91.84115 -8.93257,130.10917 l 1.94909,29.56113 a 4,4 0 0 0 3.99133,3.73684 h 14.698 a 4,4 0 0 0 3.97261,-3.53264 l 11.40761,-96.96472 a 4,4 0 0 1 7.78693,-0.73716 l 29.56536,87.62362 a 4,4 0 0 0 3.5568,2.78718 l 22.45121,1.44846 a 4,4 0 0 0 4.07477,-5.187 L 814.90119,724.64256 C 804.45902,691.295 798.846,640.62396 798.23304,605.68511 v 0 a 4,4 0 0 0 -4.37862,-3.91182 l -55.81285,5.31551 a 4,4 0 0 0 -3.52248,3.1009 z"
           transform="translate(-190.5,-101.5)"
           fill="#2f2e41"
           id="path4020" /><circle
           cx="576.70056"
           cy="328.79654"
           r="24.561029"
           fill="#a0616a"
           id="circle4022" /><path
           d="m 751.07793,618.23651 v 0 a 144.91069,144.91069 0 0 1 -14.645,-0.77247 6.02078,6.02078 0 0 1 -5.34766,-6.49511 l 8.374,-80.90625 c 2.01929,-22.88477 5.13916,-44.97559 20.92457,-63.68457 a 6.01764,6.01764 0 0 1 4.33154,-2.127 l 0.59326,-0.0225 c 6.22681,-0.25976 9.09619,-0.0332 9.90356,0.77539 l 4.34278,4.2793 c 26.48388,19.58594 27.5841,143.66193 21.05919,141.21662 -1.2622,-0.4707 -16.33458,0.002 -17.38366,0.71795 -8.50781,5.79887 -22.18042,7.01762 -32.15258,7.0186 z"
           transform="translate(-190.5,-101.5)"
           fill="#ffffff"
           id="path4024" /><path
           d="m 654.71246,573.328 a 10.05574,10.05574 0 0 1 14.90963,-3.93173 l 29.06373,-20.79127 0.70506,18.55631 -27.70751,16.8989 A 10.11027,10.11027 0 0 1 654.71246,573.328 Z"
           transform="translate(-190.5,-101.5)"
           fill="#a0616a"
           id="path4026" /><path
           d="m 683.57709,578.81387 -9.844,-17.32882 L 763.4,496.83067 a 18.14229,18.14229 0 1 1 18.95437,30.82559 z"
           transform="translate(-190.5,-101.5)"
           fill="#ffffff"
           id="path4028" /><path
           d="m 778.2357,451.06222 a 4.8526,4.8526 0 0 0 6.3459,0.4066 c 5.78855,-4.29092 10.87038,-9.632 13.87779,-16.14676 3.44606,-7.465 3.83051,-16.62536 -0.32438,-23.72027 -3.51234,-5.9977 -9.71445,-9.868 -15.89583,-13.046 a 28.2712,28.2712 0 0 0 -7.67384,-2.95768 10.93664,10.93664 0 0 0 -7.95156,1.283 6.8677,6.8677 0 0 0 -3.10059,7.09084 25.847,25.847 0 0 0 -11.03188,-7.40551 14.267,14.267 0 0 0 -8.42531,-0.61078 c -3.92257,1.1126 -6.78626,4.59777 -8.35256,8.36222 a 16.72443,16.72443 0 0 0 -1.26243,9.1248 11.14647,11.14647 0 0 0 4.87061,7.63469 c 3.24312,2.00656 7.38055,1.86189 11.10507,1.0421 3.72452,-0.81979 7.32987,-2.24558 11.12646,-2.60615 3.79659,-0.36057 8.02437,0.58609 10.33493,3.62013 1.62716,2.13665 2.045,4.92842 2.41021,7.58914 l 1.89978,13.83909 a 16.88058,16.88058 0 0 0 1.5099,5.78251 3.33361,3.33361 0 0 0 0.53773,0.71803 z"
           transform="translate(-190.5,-101.5)"
           fill="#2f2e41"
           id="path4030" /><path
           d="m 831.22861,623.15271 a 10.0558,10.0558 0 0 1 -1.10132,-15.38 l -15.04665,-32.41262 18.36568,2.74513 11.4729,30.35871 a 10.11028,10.11028 0 0 1 -13.69061,14.68873 z"
           transform="translate(-190.5,-101.5)"
           fill="#a0616a"
           id="path4032" /><path
           d="m 841.29027,588.72168 -17.32882,9.844 -64.65438,-89.667 a 18.14229,18.14229 0 1 1 30.82559,-18.95437 z"
           transform="translate(-190.5,-101.5)"
           fill="#ffffff"
           id="path4034" /><path
           id="af36087b-ebb7-4586-9a2a-879d85f262d7-642"
           data-name="Path 22"
           d="m 683.45388,266.783 h -3.82147 V 162.0937 A 60.59372,60.59372 0 0 0 619.03872,101.5 H 397.23287 a 60.5937,60.5937 0 0 0 -60.5937,60.5937 v 574.34344 a 60.59371,60.59371 0 0 0 60.5937,60.59369 h 221.80582 a 60.5937,60.5937 0 0 0 60.59275,-60.59369 V 341.30285 h 3.82147 z"
           transform="translate(-190.5,-101.5)"
           fill="#e6e6e6" /><path
           id="bd8e308f-d5b9-490f-b905-e174e794b745-643"
           data-name="Path 23"
           d="M 621.48363,117.2585 H 592.533 a 21.49818,21.49818 0 0 1 -19.90685,29.61744 h -127.07 a 21.49819,21.49819 0 0 1 -19.905,-29.61744 h -27.04172 a 45.25079,45.25079 0 0 0 -45.25079,45.25078 v 573.50947 a 45.25081,45.25081 0 0 0 45.25079,45.25077 h 222.8742 a 45.2508,45.2508 0 0 0 45.25078,-45.25077 v 0 -573.51039 A 45.25078,45.25078 0 0 0 621.4836,117.2585 Z"
           transform="translate(-190.5,-101.5)"
           fill="#ffffff" /><path
           d="m 510.04652,456.5 a 105,105 0 1 1 105,-105 105.11906,105.11906 0 0 1 -105,105 z m 0,-208 a 103,103 0 1 0 103,103 103.11661,103.11661 0 0 0 -103,-103 z"
           transform="translate(-190.5,-101.5)"
           fill="#3f3d56"
           id="path4038" /><path
           d="m 548.61109,320.99789 c 8.99256,-7.59865 14.45479,-19.60228 13.02232,-31.28789 -1.43247,-11.68561 -10.30472,-22.42829 -21.81332,-24.90978 -11.5086,-2.48149 -24.62761,4.38768 -28.12315,15.62987 -1.92376,-21.6745 -4.14055,-44.25714 -15.6641,-62.715 -10.43429,-16.71314 -28.50667,-28.672 -48.09305,-30.81147 -19.58638,-2.13947 -40.20832,5.941 -52.42363,21.40027 -12.21531,15.45927 -15.20618,37.93388 -6.65089,55.68241 6.30238,13.07474 17.91358,22.80511 30.07923,30.72128 38.81262,25.2553 86.95964,33.78829 132.77224,27.04621 z"
           transform="translate(-190.5,-101.5)"
           fill="#e6e6e6"
           id="path4040" /><path
           d="m 414.88479,193.29252 a 317.62453,317.62453 0 0 1 44.26412,43.95415 318.55132,318.55132 0 0 1 49.85571,83.314 c 0.89773,2.19991 -2.67454,3.15752 -3.56229,0.98208 a 316.75849,316.75849 0 0 0 -93.16977,-125.638 c -1.84429,-1.5018 0.78315,-4.10164 2.61223,-2.61223 z"
           transform="translate(-190.5,-101.5)"
           fill="#ffffff"
           id="path4042" /><circle
           cx="229.88414"
           cy="447"
           r="11"
           fill="#3f3d56"
           id="circle4044" /><path
           d="m 602.70891,556.5 h -140 a 8,8 0 1 1 0,-16 h 140 a 8,8 0 0 1 0,16 z"
           transform="translate(-190.5,-101.5)"
           fill="#cccccc"
           id="path4046" /><path
           d="m 559.28768,556.59646 h -97.15755 a 8.09646,8.09646 0 1 1 0,-16.19292 h 97.15755 a 8.09646,8.09646 0 0 1 0,16.19292 z"
           transform="translate(-190.5,-101.5)"
           fill="#ffffff"
           id="path4048" /><circle
           cx="229.88414"
           cy="495"
           r="11"
           fill="#3f3d56"
           id="circle4050" /><path
           d="m 602.70891,604.5 h -140 a 8,8 0 1 1 0,-16 h 140 a 8,8 0 0 1 0,16 z"
           transform="translate(-190.5,-101.5)"
           fill="#cccccc"
           id="path4052" /><circle
           cx="229.88414"
           cy="543"
           r="11"
           fill="#3f3d56"
           id="circle4054" /><path
           d="m 602.70891,652.5 h -140 a 8,8 0 1 1 0,-16 h 140 a 8,8 0 0 1 0,16 z"
           transform="translate(-190.5,-101.5)"
           fill="#cccccc"
           id="path4056" /><path
           d="m 527.28768,604.59646 h -65.15755 a 8.09646,8.09646 0 1 1 0,-16.19292 h 65.15755 a 8.09646,8.09646 0 0 1 0,16.19292 z"
           transform="translate(-190.5,-101.5)"
           fill="#ffffff"
           id="path4058" /><path
           d="M 585.28768,652.59646 H 462.13013 a 8.09646,8.09646 0 1 1 0,-16.19292 h 123.15755 a 8.09646,8.09646 0 0 1 0,16.19292 z"
           transform="translate(-190.5,-101.5)"
           fill="#ffffff"
           id="path4060" /><path
           d="m 565.63963,335.17334 h -13.74414 v -40.61426 a 4.50508,4.50508 0 0 1 4.5,-4.5 h 4.74414 a 4.50508,4.50508 0 0 1 4.5,4.5 z"
           transform="translate(-190.5,-101.5)"
           fill="#3f3d56"
           id="path4062" /><path
           d="m 573.97215,404.28613 h -131.3794 l -0.47168,-74.04638 a 8.54263,8.54263 0 0 1 2.56885,-6.14356 l 33.00366,-32.146 a 8.4639,8.4639 0 0 1 5.853,-2.41065 l 55.23779,-0.50488 a 8.55462,8.55462 0 0 1 6.58472,3.03027 l 0.005,0.006 26.23608,32.17529 a 10.52647,10.52647 0 0 1 2.36231,6.63526 z"
           transform="translate(-190.5,-101.5)"
           fill="#3f3d56"
           id="path4064" /><path
           d="m 573.97215,404.28613 h -70.60254 v -66.36084 a 8.50742,8.50742 0 0 1 2.033,-5.51611 l 30.67578,-35.96436 v 4.9e-4 a 8.48349,8.48349 0 0 1 6.46679,-2.98437 h 0.0322 a 8.48582,8.48582 0 0 1 6.47656,3.03271 l 22.92676,27.29395 a 8.51179,8.51179 0 0 1 1.99146,5.46728 z"
           transform="translate(-190.5,-101.5)"
           fill="#ffffff"
           id="path4066" /><path
           d="m 544.02342,378.79785 h -10.21485 a 2.50294,2.50294 0 0 1 -2.5,-2.5 v -8.56445 a 2.50294,2.50294 0 0 1 2.5,-2.5 h 10.21485 a 2.50295,2.50295 0 0 1 2.5,2.5 v 8.56445 a 2.50295,2.50295 0 0 1 -2.5,2.5 z"
           transform="translate(-190.5,-101.5)"
           fill="#ffffff"
           id="path4068" /><path
           d="m 544.02342,356.85156 h -10.21485 a 2.50294,2.50294 0 0 1 -2.5,-2.5 v -8.36523 a 2.50294,2.50294 0 0 1 2.5,-2.5 h 10.21485 a 2.50295,2.50295 0 0 1 2.5,2.5 v 8.36523 a 2.50295,2.50295 0 0 1 -2.5,2.5 z"
           transform="translate(-190.5,-101.5)"
           fill="#ffffff"
           id="path4070" /><path
           d="m 480.85227,375.46387 h -10.2146 a 2.50295,2.50295 0 0 1 -2.5,-2.5 v -8.564 a 2.50295,2.50295 0 0 1 2.5,-2.5 h 10.2146 a 2.50294,2.50294 0 0 1 2.5,2.5 v 8.564 a 2.50294,2.50294 0 0 1 -2.5,2.5 z"
           transform="translate(-190.5,-101.5)"
           fill="#ffffff"
           id="path4072" /><path
           d="m 480.85227,353.51758 h -10.2146 a 2.50295,2.50295 0 0 1 -2.5,-2.5 v -8.36475 a 2.50295,2.50295 0 0 1 2.5,-2.5 h 10.2146 a 2.50294,2.50294 0 0 1 2.5,2.5 v 8.36475 a 2.50294,2.50294 0 0 1 -2.5,2.5 z"
           transform="translate(-190.5,-101.5)"
           fill="#ffffff"
           id="path4074" /><path
           d="M 599.39821,405.15234 H 420.69484 a 1,1 0 0 1 0,-2 h 178.70337 a 1,1 0 0 1 0,2 z"
           transform="translate(-190.5,-101.5)"
           fill="#3f3d56"
           id="path4076" /><path
           d="m 1008.5,798.5 h -817 a 1,1 0 0 1 0,-2 h 817 a 1,1 0 0 1 0,2 z"
           transform="translate(-190.5,-101.5)"
           fill="#3f3d56"
           id="path4078" /></g><text
         xml:space="preserve"
         style="font-size:42.6667px;font-family:Arial;-inkscape-font-specification:Arial;fill:#9a0007;stroke-width:4.14351;stroke-opacity:0.940171"
         x="-715.32849"
         y="516.93213"
         id="text4177"><tspan
           sodipodi:role="line"
           id="tspan4175"
           x="-715.32849"
           y="516.93213"
           dx="0 0 0 0 0"
           style="font-style:normal;font-variant:normal;font-weight:bold;font-stretch:normal;font-size:42.6667px;font-family:Arial;-inkscape-font-specification:'Arial Bold';fill:#ffffff;stroke-width:4.14351">PLAN EMPRESARIAL</tspan></text></g></g></svg>
